<svg height="64" viewBox="0 0 64 64" width="64" xmlns="http://www.w3.org/2000/svg"><g fill="#fff" fill-rule="evenodd"><g fill-rule="nonzero"><path d="m57.588671 20.5032321c1.0573568 3.2834027 1.1417349 6.3043534.3003229 8.2901285 1.704606-1.1167482 2.122708-4.7141565.7478156-8.9835998-1.719618-5.3399175-5.5747955-9.6532643-8.4618562-9.6532643-.308712 0-.5932906.0502033-.8686201.1576876 3.1653758.8565064 6.6432147 5.0990908 8.2823378 10.189048zm-10.5503989-10.1544066 1.2037903-.58990547c.554948-.39725542 1.2086562-.60242357 1.9328909-.60242357 3.4282919 0 7.5762815 4.64095814 9.4137177 10.34673564 1.6534141 5.1343352.9113616 9.5825028-1.8535322 10.4674355l-1.1776661.56529c-.540694.2595378-.9966943-.4790791-.522398-.8461662 1.6037549-1.2412447 1.9194127-4.7882548.6017348-8.8800306-1.719618-5.3399175-5.5747955-9.6532643-8.4618562-9.6532643-.2720967 0-.5251595.0390646-.7592318.1155335-.5894401.1925635-.932962-.6476576-.3774494-.9232045z"/><path d="m48.9902366 33.0607972c-.3791302.2200785-.8377758-.1195571-.737853-.546394.4114699-1.7576634.2085347-4.1455434-.6155741-6.7046424-1.4374339-4.4636535-4.4098473-8.3145889-7.1212286-9.3757359-.3912537-.153124-.4306394-.6912734-.0658488-.8997303l6.0645552-3.4653554c.4508417-.2731959.9660561-.4130769 1.5276854-.4130769 2.9569235 0 6.3849577 4.0226124 8.0111671 9.0724687 1.3622088 4.2300575.8374848 7.8374002-1.3007713 8.9876489zm5.2674265-4.2139193c1.622203-.8665901 2.0773743-3.9808349.8436152-7.8120182-1.508054-4.6829495-4.6577929-8.3789974-7.0593056-8.3789974-.3813523 0-.7170871.0911522-1.0204894.2748123l-5.2512678 3.0007977c2.7412916 1.5625667 5.4457338 5.309057 6.8184555 9.5717598.7227823 2.2444508.9977485 4.3849719.8152219 6.1611749z"/><path d="m54.6155697 31.1564965c-.6214667 0-1.2702405-.15065-1.9315147-.4402076-.3715636-.1626996-.4049621-.6768298-.0575707-.8862336l1.6407209-.9885775c1.6764737-.9246234 2.0898029-3.9072093.8340731-7.8066181-1.508054-4.6829495-4.6577929-8.3789974-7.0593056-8.3789974-.3813523 0-.7170871.0911522-1.0138184.2709316l-1.6727468.990437c-.3851828.2280676-.8529774-.1261023-.7379577-.5587119.5332019-2.0054686 1.7981818-3.2020225 3.5575035-3.2020225 3.4282919 0 7.5762815 4.6409581 9.4137177 10.3467356 1.8662391 5.795219.6531023 10.6532644-2.9731013 10.6532644zm0-1c2.689149 0 3.7120549-4.0962597 2.0212398-9.3467357-1.719618-5.3399175-5.5747955-9.6532643-8.4618562-9.6532643-.8451608 0-1.5315258.3865561-2.020209 1.1253224l.359543-.2128797c.4508417-.2731959.9660561-.4130769 1.5276854-.4130769 2.9569235 0 6.3849577 4.0226124 8.0111671 9.0724687 1.3846602 4.2997757.9034963 7.7718572-1.2863359 8.9791905l-.6704083.4041149c.1775845.0298764.3508284.0448601.5191741.0448601z"/><path d="m42.6906993 38.4390365c-.5276968.3145995-1.0480237-.4154424-.5784699-.8116191 1.5395599-1.2989726 1.8186221-4.7992772.5245801-8.8176566-1.719618-5.3399175-5.5747955-9.6532643-8.4618562-9.6532643-.4097518 0-.7765794.0885009-1.1011728.260743-.2521249.1337876-.5649038.029724-.6866226-.2284438-.1139531-.2416963-.0292937-.5195571.191444-.6514947l4.7527927-2.8401001c.0874999-.058312.1774763-.1121008.272826-.1628514.4975051-.2565776 1.013747-.377853 1.5707327-.377853 3.4282919 0 7.5762815 4.6409581 9.4137177 10.3467356 1.5892065 4.9349516.9702948 9.2480677-1.5623396 10.3510101zm-9.3990309-19.6766921-.0042857-.00909-.4522553.2132256.005181.008668zm10.2970026 9.7408877c1.0046792 3.1198234 1.1315574 6.0047252.4178923 7.988997l2.5634407-1.525588c1.9749565-.8634224 2.5182654-4.6496725 1.0668055-9.1568803-1.719618-5.3399175-5.5747955-9.6532643-8.4618562-9.6532643-.4000333 0-.7591286.0843586-1.0749093.2470209-.0921288.0487861-.1538706.085696-.234844.1389345l-2.8486346 1.7026636c3.240484.6666099 6.8828035 5.0123389 8.5721056 10.2581166z"/><path d="m36.3206146 36.9877028c1.5529895 1.3568677 3.0402431 2.1687937 4.2949551 2.1687937 3.6262036 0 4.8393404-4.8580454 2.9731013-10.6532644-1.8374362-5.7057775-5.9854258-10.3467356-9.4137177-10.3467356-2.5305339 0-4.0082581 2.3760765-3.8417147 5.7156012.0137543.2757996.248484.4882294.5242837.4744751.2757996-.0137542.4882293-.248484.4744751-.5242836-.1414946-2.8372473.9957102-4.6657927 2.8429559-4.6657927 2.8870607 0 6.7422382 4.3133468 8.4618562 9.6532643 1.6908151 5.250476.6679092 9.3467357-2.0212398 9.3467357-.9487328 0-2.2511634-.7110268-3.6369994-1.9218503-.2079508-.1816895-.5238167-.1604004-.7055061.0475505-.1816895.2079508-.1604004.5238167.0475504.7055061z"/><path d="m32.6552848 26.7058539-.7455962.666398c-1.0041103-1.123444-2.0526199-1.7498707-2.8900523-1.7498707-1.1373906 0-1.8145293 1.2892478-1.6707172 3.3511685l1.629485-.9110392c.0386216-.0257384.0768626-.04833.1290395-.0759399.1935436-.0997044.4083472-.150166.635766-.150166 1.2534854 0 2.6454387 1.5573803 3.2579386 3.4593718.5420977 1.6833722.3234179 3.2073242-.6499572 3.6302908l-1.9549494 1.0919899c.9825559 1.0810465 2.0104825 1.6921771 2.8380867 1.6921771 1.5978329 0 2.2343424-2.5489228 1.1581993-5.8906622-.5454437-1.6937626-1.4404507-3.281049-2.482839-4.4473201l.7455962-.666398c1.1371877 1.2723369 2.1015222 2.9825752 2.6891042 4.8071894.6115896 1.8991646.7356686 3.6749863.3806006 4.9912761l4.3250032-2.3697399c1.1863943-.5186744 1.5288672-2.9053243.6028457-5.7808922-1.1049459-3.4311808-3.5771468-6.1971908-5.3728913-6.1971908-.2369773 0-.444214.0497581-.6410984.1512651-.0363661.0193611-.0718905.0405979-.1420435.0852797l-4.3979934 2.4301616c.8554462.3084745 1.7330758.9613971 2.5564729 1.882651zm1.3224211-5.1665183c.0619736-.0413006.1257325-.0794164.196963-.1172911.3451517-.1780321.7096451-.265548 1.1052783-.265548 2.3369758 0 5.1019886 3.0936213 6.3247528 6.8906621 1.0637682 3.3033118.6456925 6.2168276-1.1140302 6.9839739l-5.7241623 3.138584c-.4076729.3475131-.9201361.5405177-1.5321792.5405177-1.3002345 0-2.7390736-.9440776-4.0038677-2.5182642-.1938103-.24122-.1241997-.5987886.1459472-.7496864l2.530666-1.4108655c.4034869-.1763986.546564-1.1734846.142213-2.429113-.4946817-1.5361315-1.5938231-2.7659005-2.3060772-2.7659005-.0704664 0-.1281234.0135448-.1726804.0364607-.0184865.0097957-.02802.0154278-.0705941.0419985l-2.3202148 1.2989668c-.3051241.1708231-.6868626-.0163096-.7387221-.3621301-.3701727-2.4684644.2205349-4.4140366 1.587319-5.0268896z"/><path d="m23.2973329 31.2524033 5.7005267-3.1897373c.0386216-.0257383.0768625-.04833.1290395-.0759398.1935436-.0997045.4083471-.1501661.6357659-.1501661 1.2534854 0 2.6454387 1.5573803 3.2579386 3.4593718.5376948 1.6696997.32692 3.1825582-.6688768 3.6408589l-5.5682321 3.1102868c-.2385024.2078817-.5448638.3250331-.9177925.3250331-1.2534853 0-2.6454387-1.5573804-3.2579386-3.4593718-.5490313-1.7049031-.3032503-3.2507838.6895693-3.6603356zm8.5856562 2.8007843.0435402-.021614c.4034868-.1763986.5465639-1.1734846.1422129-2.429113-.4946817-1.5361315-1.593823-2.7659005-2.3060772-2.7659005-.0704663 0-.1281234.0135448-.1726804.0364608-.0184865.0097957-.0280199.0154278-.0705941.0419984l-4.5931331 2.5714549c.9065478.5594618 1.7516442 1.7502717 2.1926539 3.119736.2255267.7003265.3197452 1.3730386.2782855 1.9526382zm-6.0172869 3.3189231c.5143425 0 .7672264-1.0126818.3013476-2.4593718-.4946816-1.5361315-1.593823-2.7659005-2.3060771-2.7659005-.5143425 0-.7672264 1.0126818-.3013476 2.4593718.4946816 1.5361315 1.593823 2.7659005 2.3060771 2.7659005z"/><path d="m16.5820931 24.1564965c0-.0636671-.5589987-.25-1.25-.25-.6910012 0-1.25.1863329-1.25.25v4c0 .063667.5589988.25 1.25.25.6910013 0 1.25-.186333 1.25-.25zm.5 0v4c0 .4886176-.784147.75-1.75.75s-1.75-.2613824-1.75-.75v-4c0-.4886177.784147-.75 1.75-.75s1.75.2613823 1.75.75z"/><path d="m15.3320931 24.9064965c-.965853 0-1.75-.2613824-1.75-.75 0-.4886177.784147-.75 1.75-.75s1.75.2613823 1.75.75c0 .4886176-.784147.75-1.75.75zm0-.5c.6910013 0 1.25-.186333 1.25-.25 0-.0636671-.5589987-.25-1.25-.25-.6910012 0-1.25.1863329-1.25.25 0 .063667.5589988.25 1.25.25z"/><path d="m26.383536 45.0314965c-.3455007.5984246-.463631 1.1756982-.4084937 1.2075317l3.4641016 2c.0551373.0318336.4960058-.3591071.8415064-.9575317.3455006-.5984247.4636309-1.1756983.4084936-1.2075318l-3.4641016-2c-.0551373-.0318335-.4960057.3591071-.8415063.9575318zm4.5556079.6094555c.4231553.2443088.2574456 1.0540912-.2254809 1.8905445-.4829265.8364532-1.1013638 1.3848533-1.5245191 1.1405444l-3.4641016-2c-.4231553-.2443088-.2574455-1.0540912.225481-1.8905444.4829265-.8364533 1.1013637-1.3848533 1.524519-1.1405445z"/><path d="m30.713663 47.5314965c-.4829265.8364532-1.1013638 1.3848533-1.5245191 1.1405444-.4231553-.2443088-.2574455-1.0540912.225481-1.8905444.4829265-.8364533 1.1013637-1.3848533 1.524519-1.1405445s.2574456 1.0540912-.2254809 1.8905445zm-.4330127-.25c.3455006-.5984247.4636309-1.1756983.4084936-1.2075318s-.4960057.3591071-.8415063.9575318c-.3455006.5984246-.463631 1.1756982-.4084937 1.2075317.0551373.0318336.4960058-.3591071.8415064-.9575317z"/><path d="m13.993627 48.9574119c1.1482598-.7271506 1.4203946-3.2097133.4803817-6.1287288-1.1860599-3.6830632-3.8407623-6.6532643-5.78052016-6.6532643-.2549329 0-.48151813.0528714-.6821661.1554646-.58023888.2966815-1.041402-.5568277-.47524022-.8795627l6.71505708-3.8247322c.41463-.297448.9035179-.4511697 1.4423492-.4511697 2.4809891 0 5.4285036 3.2978124 6.7323816 7.3467356 1.1640308 3.6146567.6606076 6.7812654-1.2821413 7.4703568l-6.6278411 3.829677c-.250961.1450094-.5722452.0469338-.6994368-.2135108-.1164431-.2384355-.038139-.5149144.1771761-.6512655zm.7213946.2124366-.0046044-.0094281-.4492853.2194144.0056478.0089186zm6.00958-4.0808443c1.355023-.4865597 1.7693883-3.0929807.7494071-6.2603211-1.1860599-3.6830632-3.8407623-6.6532643-5.7805202-6.6532643-.3319371 0-.6166221.0895139-.9032831.2918218l-5.06182711 2.8854458c2.21888411.7354544 4.57129101 3.6722847 5.69749181 7.169468.6659108 2.0678479.7884402 3.9938069.3847097 5.3994796z"/><path d="m13.20192 50.1754188c-2.480989 0-5.42850353-3.2978124-6.73238158-7.3467357-1.33268098-4.1383647-.45495058-7.6532643 2.22395012-7.6532643 2.48098906 0 5.42850356 3.2978124 6.73238156 7.3467356 1.332681 4.1383648.4549506 7.6532644-2.2239501 7.6532644zm0-1c1.7418462 0 2.4293457-2.7531139 1.2720887-6.3467357-1.1860599-3.6830632-3.8407623-6.6532643-5.78052016-6.6532643-1.74184617 0-2.42934567 2.7531139-1.27208871 6.3467356 1.18605987 3.6830633 3.84076237 6.6532644 5.78052017 6.6532644z"/><path d="m12.8177559 48.6935665c-1.7738628 0-4.06233094-2.6200232-5.19523439-5.8450231-1.15026628-3.2744261-.68269164-6.0107395 1.2060924-6.0107395 1.77386279 0 4.06233099 2.6200233 5.19523439 5.8450232 1.1502663 3.2744261.6826917 6.0107394-1.2060924 6.0107394zm0-.5c1.3860367 0 1.787229-2.3478347.734353-5.3450231-1.0702389-3.0466146-3.2225371-5.5107395-4.72349499-5.5107395-1.38603665 0-1.787229 2.3478348-.73435297 5.3450232 1.07023885 3.0466146 3.22253706 5.5107394 4.72349496 5.5107394z"/><path d="m2.07064947 47.3454111 2.6376875-1.4291972c.12139621-.065777.16648451-.2175109.10070752-.3389071-.06577698-.1213962-.21751084-.1664845-.33890706-.1007075l-2.6376875 1.4291972c-.12139621.065777-.16648451.2175108-.10070752.338907.06577698.1213963.21751084.1664846.33890706.1007076zm3.51691666-1.9055963 2.6376875-1.4291972c.12139622-.065777.16648451-.2175109.10070753-.3389071-.06577699-.1213962-.21751084-.1664845-.33890706-.1007075l-2.6376875 1.4291972c-.12139621.065777-.16648451.2175109-.10070752.3389071.06577698.1213962.21751084.1664845.33890705.1007075zm3.51691667-1.9055963.81944814-.4440075c.12139626-.065777.16648456-.2175108.10070756-.338907-.06577702-.1213962-.21751088-.1664845-.33890709-.1007076l-.81944814.4440075c-.12139622.065777-.16648451.2175109-.10070753.3389071.06577699.1213962.21751085.1664845.33890706.1007075z"/><path d="m21.329077 36.9104786 1.7584584-.9527981c.1213962-.065777.1664845-.2175109.1007075-.3389071s-.2175108-.1664845-.3389071-.1007075l-1.7584583.9527981c-.1213962.065777-.1664845.2175109-.1007075.3389071s.2175108.1664845.338907.1007075zm2.6376875-1.4291972.6197933-.335827c.1213962-.065777.1664845-.2175109.1007075-.3389071s-.2175108-.1664845-.338907-.1007075l-.6197933.335827c-.1213962.065777-.1664845.2175109-.1007075.3389071s.2175108.1664845.338907.1007075z"/><path d="m58.1920538 16.9367465 1.7584584-.9527981c.1213962-.065777.1664845-.2175108.1007075-.3389071-.065777-.1213962-.2175109-.1664845-.3389071-.1007075l-1.7584583.9527982c-.1213962.0657769-.1664845.2175108-.1007075.338907s.2175108.1664845.338907.1007075zm2.6376875-1.4291972.2233835-.1210374c.1213962-.065777.1664845-.2175109.1007075-.3389071s-.2175109-.1664845-.3389071-.1007075l-.2233834.1210375c-.1213962.0657769-.1664845.2175108-.1007075.338907s.2175108.1664845.338907.1007075z"/><path d="m31 48c-.0673172.120549-.0241643.2728445.0963847.3401617l12.5501472 7.008277.1218885.0317268h7.2894148v-.5h-7.2243414l-12.4933321-6.9765502c-.1205489-.0673171-.2728445-.0241643-.3401617.0963847z"/><path d="m21 12c-.0639646.1217585-.0171134.2723168.104645.3362815.0002846.0001494.0005694.0002984.0008545.0004467l7.0917309 3.6906074.1162675.0286815h7.2894148v-.5h-7.2277434l-7.0371315-3.6619323c-.12262-.0638082-.2737518-.016455-.3380378.1059152z" transform="matrix(-1 0 0 -1 56.486646 27.834698)"/></g><path d="m45.621 49.833c.2280011-.1380007.4934985-.2399997.7965-.306s.6194983-.099.9495-.099c.3120016 0 .5624991.0419996.7515.126s.3329995.1934993.432.3285.1649998.2834992.198.4455.0495.3239992.0495.486c0 .3600018-.0089999.7109983-.027 1.053s-.027.6659985-.027.972c0 .2220011.0089999.431999.027.63s.0509998.3809992.099.549h-.531l-.189-.63h-.045c-.0540003.0840004-.1214996.1664996-.2025.2475s-.1784994.1529997-.2925.216-.2459992.1154998-.396.1575c-.1500007.0420002-.320999.063-.513.063s-.3704992-.0299997-.5355-.09-.3074994-.1454994-.4275-.2565-.2144997-.2444992-.2835-.4005-.1035-.332999-.1035-.531c0-.2640013.0539995-.4844991.162-.6615s.259499-.3179995.4545-.423.4289986-.1799998.702-.225.5744983-.0675.9045-.0675h.2475c.0810004 0 .1634996.0059999.2475.018.0180001-.1800009.027-.3419993.027-.486 0-.3300017-.0659993-.5609993-.198-.693s-.3719983-.198-.72-.198c-.1020005 0-.2114994.0074999-.3285.0225s-.2369994.0359999-.36.063-.2399994.0599998-.351.099-.2084996.0824998-.2925.1305zm1.278 3.609c.1680008 0 .3179993-.0224998.45-.0675s.2459995-.1019997.342-.171.1754997-.1454996.2385-.2295.1094999-.1649996.1395-.243v-.747c-.0840004-.006-.1694996-.0105-.2565-.0135s-.1724996-.0045-.2565-.0045c-.1860009 0-.3674991.0104999-.5445.0315s-.3329993.0599997-.468.117-.2429996.1349995-.324.234-.1215.2234992-.1215.3735c0 .210001.0749993.3824993.225.5175s.3419988.2025.576.2025z"/><path d="m22.693 4.7h.72v2.241h.036c.1380007-.17400087.3134989-.30899952.5265-.405s.4454987-.144.6975-.144c.5820029 0 1.0184985.18599814 1.3095.558s.4365.9479961.4365 1.728c0 .78600393-.1919981 1.382998-.576 1.791s-.9239965.612-1.62.612c-.3360017 0-.6404986-.0359996-.9135-.108s-.4784993-.1499996-.6165-.234zm1.854 2.322c-.3000015 0-.5429991.08399916-.729.252s-.3209996.40499847-.405.711v2.268c.1140006.0660003.2519992.1154998.414.1485s.3299991.0495.504.0495c.408002 0 .7334988-.1439986.9765-.432.2430012-.28800144.3645-.73799694.3645-1.35 0-.23400117-.0209998-.45299898-.063-.657s-.1079996-.37799928-.198-.522c-.0900005-.14400072-.2054993-.25799958-.3465-.342s-.313499-.126-.5175-.126z"/></g></svg>