<svg height="64" viewBox="0 0 64 64" width="64" xmlns="http://www.w3.org/2000/svg"><g fill="none" fill-rule="evenodd" transform="translate(4 2)"><path d="m35.5 30.5c-1.1045695 0-2-.8954305-2-2s.8954305-2 2-2 2 .8954305 2 2-.8954305 2-2 2z" fill="#fff" fill-rule="nonzero"/><path d="m36 6c2.5 1 5 4.5 5.5 6 .2967094.8901281.3293094 3.6290218.0978 8.216681-.006018.1192551-.0183819.3490538-.0370918.6893962l-.0000108-.0000006c-.0337494.6139209.1219488 1.223387.4460183 1.7458971.7220779 1.1642345 1.2198393 3.1135766 1.4932843 5.8480263.2855765 2.8557649-.2851633 4.7328826-1.7122193 5.6313531l-.0000013-.000002c-.4516065.2843302-.7708512.7373534-.8867107 1.2582839-.0823183.3701217-.2160079.7402433-.4010687 1.110365-.5 1-1.1605855 1-2 1-3 0-2.5-1.5-3.5-1.5s-1.5 1-1.5 1.5c0 .3333333-.1666667 1.1666667-.5 2.5" stroke="#fff"/><path d="m30.5 53c.5 0 .5-1.5.5-2 0-1-1.5-1.5-3-1.5s-3 .5-3.5 1" stroke="#fff" stroke-width=".5"/><path d="m31.5 30c0-1.9971453 1.6758462-3.5 3.5-3.5s2 0 3-.5 2.5-1.5 3-1 .5 6-1 6.5-2.1699574.4575106-4 0c-2-.5-4.5-.5-4.5-1.5z" stroke="#fff" stroke-width=".75"/><path d="m38 27c.8360659 1.1141685.5 3-.5 3.5" stroke="#fff" stroke-linecap="round" stroke-width=".5"/><path d="m39 25.5c1-.5 2 3.5.7429125 6" stroke="#fff" stroke-width=".5"/><path d="m33 32s1.2069776.6034888 2 1c1 .5 3 1 4.5 1s1.5-3.5 1.5-4" stroke="#fff" stroke-width=".5"/><path d="m32 27c1-1.5 3.5-1.5 4.5-1.5s2.5-1.5 3.5-1.5" stroke="#fff" stroke-width=".5"/><path d="m41.5 21.5c0-.5-.9592168-1-1.3967833-.9922721-1.7756457.03136-2.6003499.1899786-3.6032167.9922721-1.25 1-2 2-3.5 3-.9194282.6129521-1.5.5-4 .5" stroke="#fff" stroke-width=".5"/><path d="m41.5 22c0 1.25 0 2.5-.5 3" stroke="#fff" stroke-width=".5"/><path d="m41 35c0-.3166484-.1503993 2.2242894-.4511978 7.6228133l.0000095.0000005c-.0319169.5728234-.2274151 1.1244833-.563318 1.5895796l-5.2210776 7.2291843c-.4875268.6750372-1.2336826 1.1170806-2.0599335 1.220362l-2.7044826.3380603" stroke="#fff"/><path d="m33.5 38 3.8684922 4.5254934c.035886.0419807.0990095.0469214.1409902.0110354.0166932-.0142698.0282248-.0336379.0328144-.0551141l.9577032-4.4814147.6464466-.6464466c.1952622-.1952622.5118446-.1952622.7071068 0 .0937682.0937682.1464466.2209451.1464466.3535534v1.5687933c0 .467873-.1640324.9209388-.4635574 1.2803688l-1.8878401 2.265408c-.0987369.1184844-.1834371.2479923-.2524118.3859417l-1.1850451 2.3700902c-.1388554.2777108-.2111456.583937-.2111456.8944272v.6994369c0 .530433-.2107137 1.0391408-.5857864 1.4142135l-1.2236144 1.2236144-.0000067-.0000068c-.3761327.3761327-.9808961.3919761-1.3762069.0360534-.6260057-.5636316-1.0641343-.8454474-1.3143856-.8454474-.3333333 0-1 0-2 0" stroke="#fff" stroke-width=".5"/><path d="m29.5 25v2.5916731c0 .5922749.1753141 1.171298.5038491 1.6641006l.4961509.7442263" stroke="#fff" stroke-width=".5"/><path d="m29 41c-.2237895.0895158-1 0-1 0s-1 0-1.5-.5-1-1-1.5-1" stroke="#fff" stroke-width=".75"/><path d="m25 36c-.5.5-1.75 2.5-1 3.5" stroke="#fff" stroke-width=".75"/><path d="m21.5 46.5.6215679-.6215679c.2364234-.2364234.5753627-.339046.903223-.2734739l1.8781125.3756225c.0645732.0129146.1302641.0194193.1961161.0194193h3.9009805" stroke="#fff"/><path d="m23.5 47c.3333333.3333333 1 .6666667 2 1h3" stroke="#fff" stroke-width=".5"/><path d="m28 24.5v2.7928932c0 .4527529-.1798554.8869622-.5 1.2071068" stroke="#fff" stroke-width=".5"/><path d="m26.5 25.5v2.5c-.3333333.6666667-.6666667 1-1 1-.5 0-1 0-1.5-.5s-1.5-1.5-2.5-2c-.6666667-.3333333-2.1666667-.3333333-4.5 0-.6666667 0-.6666667-.1666667 0-.5 1-.5 3.5.5 4.5 0 .2612341-.130617.5232955-.1572145.7855359-.0900029.7416117.1900732 1.4846546 1.130384 2.2144641 2.5900029.3333333.6666667 1 .6666667 2 0" stroke="#fff" stroke-width=".75"/><path d="m17.5 29c.567961-.2839805 1.4643001-.9740848 3-1.5.045623-.015624.2668658-.0187878.6637285-.0094914l.0000006-.0000242c.2432391.0056978.4833972.0557304.7086757.1476396.6236755.2544475.9995406.5417395 1.1275952.861876 0 .5-.5 1.5-1 1.5 0 0-1.4315761.152632-2.5 0-.454384-.064912-.7877174-.2315787-1-.5" stroke="#fff" stroke-width=".5"/><path d="m20.6534294 27.6160563c.1287477-.0140114.2611037-.0411426.4604168-.0909708.4673244-.1168312.4923984-.1223077.655219-.1223077.3517684 0 .6059348.221583.6059348.5972222 0 .7567532-.721288 1.375-1.625 1.375s-1.625-.6182468-1.625-1.375v-.2317627l.2072949-.1036475c.6620089-.3310044 1.0398397-.3505682 1.2865894-.0451252.0113543-.0010012.0228683-.0021376.0345451-.0034083z" fill="#fff" fill-rule="nonzero"/><g stroke="#fff"><path d="m22 30c.4911748-.2455874.9823495-.400705 1.4735243-.4653529l.0000102.0000774c.1643114-.0216265.2799804-.172359.2583539-.3366704-.0067978-.0516478-.0269238-.1006364-.0583981-.1421463-.2882988-.3802237-.4992866-.6208609-.6329633-.7219118-.1106753-.0836632-.4575176-.2768684-1.040527-.5796156" stroke-linecap="round" stroke-linejoin="round" stroke-width=".5"/><path d="m26.5 27.5c0 1 0 4-.5 5.5" stroke-width=".5"/><path d="m27 33.5c0 1 0 2.75-.5 3.75s-.25 1.25-.25 1.75c0 .3333333.5833333 1 1.75 2" stroke-width=".5"/><path d="m30 54c-1 0-.9962709-.5-1.4962709-.5s-1 .5-1.5.5c-.2983959 0-1.5327091-.1335602-3.7029397-.4006805l-.0000028.0000228c-.515991-.0635101-.9869751-.3254444-1.3131349-.7302901-2.6779164-3.3239625-4.1738003-5.6136466-4.4876517-6.8690522-.5-2-1.5-5.5-1.5-7s-1-3.5-1-4 0-3 0-3.5-2.5-3.5-2-5 2-4 2-5-.5-5 0-6.5 2-3 2.5-3c1.5 0 2.5 0 3.5.5s3.5.5 4 .5c.3333333 0 .6666667.3333333 1 1 1 0 2-1 2.5-2 .5 1 .5 1.5 2.5 1 3-5 5-6.5 5-7s-1.5-4.5-1.5-5-3.5037291-1-5.0037291-1-5 0-7 0-5.5 2.5-6.5 3-4 1-4.5 2-1.5 4.5-1 6.5.5 3 .5 3.5.5 9 .5 9.5c0 .3333333.1703958.6666667 1.5037291 3"/><path d="m30 43.5c.5 0 1 1.5 1 2s-.5 1-1 1-1 0-1-.5.5-2.5 1-2.5z" stroke-width=".5"/><path d="m31 45.5c0 .5 1 .5 1.5 0 .5.5 1 0 1-.5.5 0 .5 0 1-.5s0-2 0-2-.5 0-1 .5c-.5-.5-1 .5-1 1 0-.5-.5-1-1-.5s-.5 1.5-.5 2z" stroke-width=".5"/><path d="m32.5 44v1.5" stroke-width=".5"/><path d="m33.5 43v2" stroke-width=".5"/><path d="m31.75 46c-.75 0-.75.5-.75 1s.25 1.5.75 1.5.75-.8131249.75-1.5c0-.5631249 0-1-.75-1z" stroke-width=".5"/><path d="m33 45.5c-.5 0-.5.5-.5 1s0 1 .5 1 .5-.5.5-1 0-1-.5-1z" stroke-width=".5"/><path d="m34 47c.3333333 0 .5-.1666667.5-.5.3333333-.1666667.5-.4166667.5-.75 0-.229815 0-.4596299 0-.6894449 0-.1656854-.1343146-.3-.3-.3-.0592275 0-.1171298.0175314-.1664101.0503849l-.2835899.18906-.75.5c0 1 .1666667 1.5.5 1.5z" stroke-width=".5"/><path d="m25.5 29c.3333333.3333333.3333333.8333333 0 1.5-.2034334.4068667-1.7623232 3-2.5 3" stroke-width=".5"/><path d="m35 51.5 2.5 5.5"/><path d="m36 12.5c.2542381.5084762.7993427 1.0169524 1.6353139 1.5254286l-.0000057.0000095c.4718602.2870071 1.0870438.137154 1.374051-.3347062.003499-.0057526.0069398-.0115404.0103219-.0173625.3202126-.5512295.4803189-.9423526.4803189-1.1733694 0-.5-2-2.5-2.5-2.5s-1 1.5-1 2.5z" stroke-width=".5"/><path d="m12 26c-1-.5-1-.5-1.5.5s1.25 4 1.5 4.5.5 4 1 4.5c.3333333.3333333 1 .5 2 .5"/><path d="m15 33c-.3333333-1-1-1.6666667-2-2"/><path d="m23.5 39.5c-2 1.5-3 4-3 5" stroke-width=".5"/><path d="m17 35.5c2 2 3 3 3 5" stroke-width=".5"/><path d="m16.4980758 42c-.5 2.5-.75 7-.5 7.5s5 7 9.5 9"/><path d="m39.5 45-.5 13.5h-1.5l.5-11.5z"/><path d="m29 32c.627124 0 1.5492114 1.7697804 2.7662622 5.3093412l.0000372-.0000128c.1410926.410341.0014629.8648499-.3456733 1.1252021l-.9734125.7300593c-.274082.2055615-.6407806.2386267-.9472136.0854102-.306433-.1532165-.5-.4664144-.5-.809017 0-2.1469943 0-4.2939887 0-6.440983z" stroke-width=".75"/><path d="m32 35.5s.5.6666667 1.5 2" stroke-width=".5"/><path d="m35.5 41.5-1 1" stroke-width=".5"/><path d="m38 37.5-2.5 2.5" stroke-width=".5"/><path d="m39.5 37.5-1.0108714 4.2748273" stroke-width=".5"/><path d="m18 27.25c.3333333.3333333 1.1666667.4166667 2.5.25" stroke-width=".5"/><path d="m22.5 7c0 1.5 1.5 5.5 2 6" stroke-width=".5"/><path d="m55.5 56s-2.5.1666667-7.5.5c-.5114982.2557491-.7940698.6423134-.9062626 1.0760532.3015481.5217529.5621832 1.3273859.5413667 2.1162258.3698144.4776586.8673552.807721 1.3648959.807721 0 0 2.5-.1666667 7.5-.5"/><path d="m40.5 61c1.5 0 6.5-.5 7-.5.5-1.5-.5-3.5-1-3.5-.3333333 0-2.5.1666667-6.5.5.6666667 1.3333333.8333333 2.5.5 3.5z"/><path d="m30.5 60c.8509288-.4254644 1.7018576-.8509288 2.5527864-1.2763932.2815275-.1407637.6128997-.1407637.8944272 0l1.5527864.7763932" stroke-width=".5"/><path d="m27.5 13.5c-1-1-2.5-4.5-2.5-6.5" stroke-width=".5"/><path d="m20.5 7.5c0 2 1.5 5 2.5 5.5" stroke-width=".5"/><path d="m28 4.5c-.3333333 1.33333333-.1666667 3.83333333.5 7.5" stroke-width=".5"/><path d="m16 39.5c-1 1.3333333-1.6666667 2-2 2-.5 0-5.5 2-6 3.5s-2.5 5.5-3 6c-.33333333.3333333-1.83333333 1.1666667-4.5 2.5"/><path d="m44.5 61c2.5-2.5 1.5-7.5 1.5-7.5s1.3333333.8333333 4 2.5" stroke-width=".5"/><path d="m40 58.5-3.7545872.4171764c-.4243646.0471516-.7454128.4058475-.7454128.8328236 0 .4142136.3357864.75.75.75h4.25"/><path d="m41.131667 43.8605135 5.868333 12.6394865-3 .5-4-12.5.5-.5c0-.1829357.1482987-.3312344.3312344-.3312344.1289272 0 .2461399.0748098.3004326.1917479z"/><path d="m31 6c-.3333333 1-.3333333 3.33333333 0 7" stroke-width=".5"/><path d="m13 12c1-.3333333 2.1666667-.1666667 3.5.5" stroke-width=".5"/><path d="m15 9c1.3333333.33333333 2.1666667 1.3333333 2.5 3" stroke-width=".5"/><path d="m28.5 52v1.5" stroke-width=".5"/><path d="m32.6751388 28.719249c0 .4636639.6670377 1.9342551 1.3105526 2.2140777" stroke-linecap="round" stroke-width=".5"/><path d="m28.5 23.5h.4724083c.9019021 0 1.6922215-.6036427 1.9295277-1.4737652l1.098064-4.0262348" stroke-width=".5"/></g></g></svg>