<svg height="64" viewBox="0 0 64 64" width="64" xmlns="http://www.w3.org/2000/svg"><g fill="#fff" transform="translate(5 3)"><path d="m47.1397276 11.7521886c.1338372.2081122.0953295.4828169-.0905705.6461088l-6.9114554 6.0709223-9.8587444 16.89912 4.4960264-1.6194844 8.3275241-11.9726188c2.2109566-1.7469451 4.034044-3.1637479 5.5729233-4.3597045.2925965-.2273945.7222344-.0686178.7966368.2944046.799397 3.9004005.6928637 8.6610052-.3130827 14.2849134-.6211605 3.4727-6.4181126 7.8007286-17.4058366 13.1601896l-18.2069 10.7784087c-.2668407.1579686-.5019637.3642022-.693368.6081743l-1.5396821 1.9625447c-.2843509.3624459-.7194781.5741296-1.1801541.5741296h-.25227963c-.54582405 0-1.04856726-.2964924-1.31268891-.7741572l-5.02656529-9.0905582-1.18210919-.3442939c-.21342464-.0621608-.36018263-.2577605-.36018263-.4800532v-1.1241547l-.71967591-2.1325055c-.23527996-.6971826.06987732-1.462092.72044394-1.80587 6.98392396-3.690505 12.47212002-7.6140853 16.46540412-11.7664733 5.3843671-5.5988958 8.1637148-10.4706767 7.8112731-12.3802462-.400716-2.1711246-1.6835777-2.7871167-6.0264564-1.3878885-.7959322.2564407-1.5740925.5332273-2.371375.8399815-.6595928.2537781-1.3037344.5163516-2.0882996.8475349-.1713739.0723409-1.502711.6396073-1.8741851.7947069-1.4513937.6059926-2.4404572.9591509-3.4372054 1.1958113-.82173099.1951057-1.60716539.2941036-2.40218937.2941036-2.47336159 0-3.38352039-.0000055-4.36735101-.0000348-.82840793 0-1.49996525-.6715573-1.49996525-1.4999652 0-.1052611.01108008-.2102299.03305708-.3131712 2.5276705-11.83972586 11.34999615-18.16244229 26.32700425-18.93070355 4.8557317-.24907983 9.2926886 1.59246175 13.2849668 5.50010443.2953327.28907182.65772.50042244 1.0547382.61514169l2.8208009.81507649c.2810974.08122371.4326892.38539844.3282963.6587392l-.4481193 1.17334854c.5639906.6038551 1.073828 1.2601031 1.5293465 1.9684186zm-2.4664729-1.5015529c-.1366409-.1395153-.1795531-.345814-.1098801-.52824466l.3669877-.96091492-2.2985548-.66417237c-.5558255-.16060698-1.0631679-.45649786-1.4766337-.86119839-3.8002537-3.7196891-7.969701-5.45020191-12.534247-5.21605876-14.5549744.7466126-22.97507395 6.78106477-25.40027141 18.1408022-.01101852.3805088.21282355.6043508.48896163.6043508.98383149.0000293 1.89397751.0000348 4.36733611.0000348.71406195 0 1.42249106-.089292 2.17117907-.2670549.9323031-.221359 1.8774747-.5588451 3.2829258-1.1456556.3674414-.1534158 1.6961931-.7195807 1.8705804-.7931936.7936383-.3350131 1.4471438-.6014038 2.1181059-.8595562.8139436-.3131646 1.6094562-.5961232 2.4237981-.8584953 4.880627-1.5724848 6.7978653-.651884 7.3165124 2.1582053.43128 2.3367243-2.4777384 7.4357987-8.0738832 13.25491-4.0736991 4.236007-9.64696314 8.2204035-16.71897622 11.9574572-.2168595.1145948-.31858046.3695692-.24015331.6019649l.74592583 2.2102878.02625085.9909817 1.0198955.2970486c.1267998.0369309.23383829.122529.2977456.2381056l5.12634195 9.2710046c.08804055.1592216.25562162.2580524.43756297.2580524h.25227963c.1535586 0 .2986011-.0705613.3933847-.1913765l1.5396821-1.9625448c.267966-.3415609.5971382-.630288.9707151-.8514439l18.2423531-10.7975121c10.7075521-5.2245607 16.356173-9.4418446 16.8954291-12.4566446.9166858-5.1248825 1.0703072-9.4956436.4661134-13.1097872-1.3798892 1.072389-2.9668132 2.3056559-4.7607721 3.699801l-8.375055 12.0409546c-.0592207.0851427-.1434524.1497628-.2410283.1849099l-5.9408592 2.1399183c-.4394598.158295-.8366981-.318905-.6013236-.7223663l10.5931701-18.1580175.1019071-.1237042 6.6437926-5.8358112c-.4178044-.6056738-.8801905-1.1672608-1.3872988-1.6850367z"/><path d="m2.73550911 20.8394154.12228421-.0897463.11932346-.062251c.15198636-.0792912.33399824-.0751921.48226088.010861.07529573.0437024.1604873.0669496.25022446.0669553h4.367351c.71406196 0 1.42249107-.089292 2.17117908-.2670549.9323031-.221359 1.8774747-.5588451 3.2829258-1.1456556.3674414-.1534158 1.6961931-.7195807 1.8705804-.7931936.7936383-.3350131 1.4471438-.6014038 2.1181059-.8595562.8139436-.3131646 1.6094562-.5961232 2.4237981-.8584953 4.880627-1.5724848 6.7978653-.651884 7.3165124 2.1582053.43128 2.3367243-2.4777384 7.4357987-8.0738832 13.25491-4.0701338 4.2322996-9.63720703 8.2134272-16.70040385 11.9476406-.19236334.1016998-.42841331.0673168-.58377189-.0850322l-.25938437-.2543596c-.49554033-.4859407-.76676958-1.1560121-.74876548-1.8498236l.4891321-18.8493498c.01661755-.6403791.2784229-1.249946.73139175-1.7029149zm.54948363.8647299-.4635161.4635161c-.27178131.2717813-.42886452.6375215-.43883505 1.0217489l-.4891321 18.8493498c-.01077916.4153889.15123378.8165951.44733699 1.1080057 6.82186696-3.6377403 12.19645562-7.5009397 16.12454442-11.5855349 5.3843671-5.5988958 8.1637148-10.4706767 7.8112731-12.3802462-.400716-2.1711246-1.6835777-2.7871167-6.0264564-1.3878885-.7959322.2564407-1.5740925.5332273-2.371375.8399815-.6595928.2537781-1.3037344.5163516-2.0882996.8475349-.1713739.0723409-1.502711.6396073-1.8741851.7947069-1.4513937.6059926-2.4404572.9591509-3.4372054 1.1958113-.82173099.1951057-1.60716539.2941036-2.40218938.2941036h-4.36738245c-.14541623-.0000092-.28813994-.0208696-.42457793-.0610891zm-.19593024-.5111765.23126918.4432996.11932347-.062251-.23126919-.4432996-.25099169.4324386c.10337781.0600015.2132818.1072904.32759847.1409889l.15762315-.1576232z"/><path d="m2.6702927 41.9939068c6.55675819-4.229855 10.520687-6.843241 11.907587-7.8511584.2664202-.1936185.5019349-.3863024.7102574-.5813045 1.1882322-1.1122548 1.4539715-2.0263428 1.5964516-4.5138041.0227338-.4041632.0350825-.621112.0483228-.8361662.153757-2.497388-1.0376553-3.7458268-3.0556908-4.4329035-.7744824-.2636866-3.6482813-.2720672-8.85860365-.0515359-.37319556.0157959-.74651177-.0282505-1.10577952-.1304675-.97887688-.2784999-1.42587715-.5597965-1.42587715-.6449325 0-.2761424-.22385763-.5-.5-.5-.27614238 0-.5.2238576-.5.5 0 .7373236.74569967 1.2065913 2.15222509 1.6067612.46191598.131422.94189582.1880532 1.42171957.1677443 4.99083076-.2112411 7.90123836-.2027538 8.49401576-.000932 1.6380854.5577158 2.500746 1.4616673 2.3798805 3.4248151-.0134064.217753-.0259118.4374563-.0485762.8404315-.1289572 2.2513748-.3329463 2.953055-1.2814688 3.8409276-.1769229.1656101-.3806078.3322528-.614767.502426-1.3724877.9974433-5.36624372 3.630001-11.96521724 7.8864983-.06608907.0426291-.12119039.1002467-.16082772.1681723-.50581915.8668104-.63478757 1.657242-.33537184 2.3445116.1102919.2531607.40492839.3689786.65808903.2586867s.36897863-.4049284.25868673-.658089c-.14551273-.3340054-.08499984-.7730461.22494444-1.339681z"/><path d="m3.08319876 21.7401546c.20438072-.1349912.36313909-.0883293 1.19560208.3080443.30104761.1433424.52176497.2346142.75836195.3044078.42612007.1257009 1.85042393.1687486 4.82507907.1894559.27693414.0019278.51494144.0033998 1.02279824.0064286 2.4239021.0145547 3.3250989.0302807 3.6704146.0788031.7949728.1117066 1.1537449.1867738 1.6518757.3985541 1.234754.5249555 1.9489644 1.5527029 1.9489644 3.3499956v3.8764914c-.0156848 1.4321721-.4189315 2.4498705-1.2004224 3.0719724-.1080236.0859916-.1258841.243272-.0398924.3512956.0859916.1080235.243272.125884.3512956.0398923.9118838-.7259004 1.3717843-1.8865796 1.3890042-3.4604252.000015-.8722958.000015-.8722958.000015-3.8792265 0-2.0024993-.8380263-3.2084176-2.2533356-3.8101363-.5517144-.2345612-.9400389-.3158118-1.7779299-.4335491-.3806856-.0534925-1.2554851-.0687578-3.7369869-.0836584-.5078167-.0030286-.7456141-.0044993-1.02232-.0064255-2.85049296-.019843-4.33324794-.0646572-4.68709171-.1690374-.20608531-.060793-.40557013-.1432846-.6848796-.2762766-1.04343335-.4968261-1.25453344-.5588721-1.68611551-.273817-.11520961.0760947-.14691853.2311775-.07082386.3463871.07609468.1152096.23117744.1469185.34638704.0708238z"/><path d="m35.5048948 34.4507434c-.0592207.0851427-.1434524.1497628-.2410283.1849099l-5.9408592 2.1399183c-.4394598.158295-.8366981-.318905-.6013236-.7223663l10.5931701-18.1580175.1019071-.1237042 7.3054087-6.4169652c.5964595-.5239214 1.4063056-.7334059 2.1819954-.5644207 2.2422797.48847 3.9015929.873522 4.9806844 1.1559467.5490644.1437036.9513389.261645 1.213148.3564665.1537958.0557015.2673053.1057196.3548392.1613127.0928774.0589867.1659504.1249904.2225147.2341914.1199062.2314865.0527756.5027859-.1445021.6566403-.2016254.1572451-4.0832621 3.174071-11.6508993 9.0551335zm18.1267584-21.537284c-1.0627826-.2781563-2.710478-.6605124-4.9403442-1.1462782-.4654136-.101391-.9513199.0242994-1.3091954.338652l-7.2444119 6.3633865-9.8587444 16.89912 4.4960264-1.6194844 8.3275241-11.9726188.1036611-.1092961c5.9388844-4.6153034 9.6215673-7.4774076 11.0451714-8.584076-.1765185-.0509805-.3832768-.1075307-.6196871-.169405z"/><path d="m3.16627854 19.5449149c.27902176-.5352189.8746997-1.1690894 1.74094585-1.8747067.67718236-.5516117 1.5042573-1.1351627 2.45446165-1.7429785.89678647-.573646 1.8446719-1.1328586 2.87069136-1.7066975.3891703-.2176577 1.4867366-.8173253 1.5726873-.870477.8965519-.5544259 3.7373207-3.38204737 3.8259842-4.06274131.0662603-.50869871-.3031381-.77978665-.8601967-.76280751-.4470306.01362548-1.0283946.20152429-1.590475.51161918-.0941737.05195484-.9360421.49138863-1.275777.67531005-.714381.38674269-1.4047998.78748089-2.12619852 1.24429919-1.97810473 1.2526145-3.87451007 2.7308194-5.65571425 4.5086617-.19811289.197739-.39400648.3985027-.58761167.6023344-.09508742.1001102-.09101572.258349.0090944.3534365.10011012.0950874.25834898.0910157.3534364-.0090944.19053081-.200595.38332014-.3981773.57830013-.5927893 1.75361508-1.7503053 3.62135837-3.2061688 5.56999281-4.4401215.7110809-.4502846 1.3918185-.8454036 2.0967406-1.2270255.3345671-.18112381 1.178838-.62181162 1.2792648-.67721623.4978619-.27466609 1.005422-.43871125 1.3641803-.44964619.286207-.00872358.3682919.05151553.349152.19845787-.0624716.47961132-2.8188719 3.22325475-3.5931501 3.70206685-.0725387.0448579-1.151457.6343368-1.55377433.8593475-1.03394177.5782697-1.98988609 1.1422368-2.89605452 1.7218842-.96504885.6173113-1.80703251 1.2113813-2.50081306 1.7765134-.91450398.7449266-1.55110981 1.4223491-1.86853477 2.031233-.06382695.1224327-.01631759.273426.10611514.3372529.12243272.063827.27342603.0163176.33725298-.1061151z"/><path d="m25.1311426 16.8242988c4.3948842-1.6288732 13.149937-6.3622004 16.6919302-9.34244652.1056487-.08889321.1192317-.2466006.0303385-.35224931-.0888932-.1056487-.2466006-.11923172-.3522493-.0303385-3.4932273 2.93921433-12.1989789 7.64588733-16.5437834 9.25619953-.1294652.0479836-.195519.1918342-.1475354.3212994.0479836.1294651.1918342.195519.3212994.1475354z"/><path d="m46.3741245 11.7441103c.3601697.459527.6954511 1.0137128 1.004244 1.6653282.0591272.1247703.2082055.1779846.3329758.1188574s.1779846-.2082055.1188574-.3329758c-.3240478-.6838064-.6784389-1.2695788-1.0625493-1.7596506-.0851735-.1086698-.2423146-.1277172-.3509844-.0425436-.1086697.0851736-.1277171.2423147-.0425435.3509844zm1.3929193 2.5735336c.2198802.5680087.4231861 1.1935881.6093797 1.8777134.036259.1332251.173653.2118318.3068781.1755728.1332252-.036259.2118318-.173653.1755728-.3068781-.1905944-.7002951-.3992206-1.3422456-.6255482-1.9269094-.0498441-.1287603-.1946315-.1927346-.3233919-.1428905-.1287603.049844-.1927346.1946315-.1428905.3233918zm.8505552 2.8380755c.1410066.6090117.270054 1.2578471.3868956 1.9470077.0230795.1361286.1521431.2277729.2882717.2046934s.2277729-.1521431.2046934-.2882717c-.1184643-.6987318-.2494449-1.3572875-.3927468-1.9762126-.0311442-.1345128-.1654358-.2183096-.2999485-.1871654-.1345128.0311442-.2183096.1654358-.1871654.2999486z"/><path d="m23.5 21.25c-.9664983 0-1.75-.7835017-1.75-1.75s.7835017-1.75 1.75-1.75 1.75.7835017 1.75 1.75-.7835017 1.75-1.75 1.75zm0-.5c.6903559 0 1.25-.5596441 1.25-1.25s-.5596441-1.25-1.25-1.25-1.25.5596441-1.25 1.25.5596441 1.25 1.25 1.25z"/><path d="m12.7112879 51.271198c-.3001295 1.1405723-1.7816642 2.8004599-4.43930085 4.9378629-.10759209.0865309-.12466557.2438986-.03813469.3514907.08653089.1075921.24389866.1246656.35149075.0381347 2.73834579-2.2023132 4.27307289-3.9217967 4.60948429-5.20025 1.3740981-5.2219407 3.0785783-10.1312199 5.1133583-14.7279468.0975367-.220343-.1424257-.437553-.3519955-.3186207l-11.90066147 6.7537046c-.12008171.0681472-.16218297.2207369-.0940358.3408186s.22073682.1621829.34081852.0940358l11.24685535-6.3826654c-1.9129819 4.4218571-3.5255848 9.1263669-4.8378789 14.1134356z"/><path d="m9.52222155 58.1391372.78976065-1.2028844c.974977-1.4849873 2.2739753-2.7295751 3.7992971-3.6401578l32.1502923-19.1930007c1.8283879-1.3682931 2.8361603-2.7945519 3.0264164-4.2967595.0173483-.136977-.0796299-.2620823-.2166069-.2794306-.136977-.0173482-.2620823.07963-.2794306.2166069-.1708839 1.3492504-1.1008077 2.6653333-2.8084356 3.944857l-32.1285287 19.178409c-1.5902291.9493309-2.9445039 2.2468799-3.96096929 3.7950582l-.78976069 1.2028844c-.07577831.1154179-.04364405.2704131.07177389.3461914s.27041312.0436441.34619144-.0717739z"/></g></svg>