<svg height="64" viewBox="0 0 64 64" width="64" xmlns="http://www.w3.org/2000/svg"><g fill="none" fill-rule="evenodd"><path d="m27.5 60.5c-12.1502645 0-22-9.8497355-22-22s9.8497355-22 22-22 22 9.8497355 22 22-9.8497355 22-22 22zm0-4c9.9411255 0 18-8.0588745 18-18s-8.0588745-18-18-18-18 8.0588745-18 18 8.0588745 18 18 18z" stroke="#fff"/><circle cx="27.5" cy="38.5" r="20.75" stroke="#fff" stroke-width=".5"/><circle cx="27.5" cy="38.5" r="3.75" stroke="#fff" stroke-width=".5"/><path d="m24.0812705 37.7466844-1.7577959-.7031183c-.2637605-.1055042-.3920525-.4048523-.2865483-.6686127.0052949-.0132375.011138-.026249.017514-.039001.141308-.2826161.4756594-.4097363.7690343-.2923863l1.667839.6671356c-.1886163.3164741-.328718.6652223-.4100431 1.0359827z" fill="#fff"/><path d="m53.2502603 54.4683883c-.5148622-.2978908-1.1126504-.4683883-1.7502603-.4683883-1.9329966 0-3.5 1.5670034-3.5 3.5s1.5670034 3.5 3.5 3.5 3.5-1.5670034 3.5-3.5c0-.5448797-.1245114-1.0606782-.3466339-1.5204953-.2188088.3053275-.4623382.6111073-.7291417.9072124.0494878.1962293.0757756.4016862.0757756.6132829 0 1.3807119-1.1192881 2.5-2.5 2.5s-2.5-1.1192881-2.5-2.5 1.1192881-2.5 2.5-2.5c.4590296 0 .8891644.1237135 1.258881.3396173.2007052-.2815393.360089-.5758683.4913793-.871229z" fill="#fff" fill-rule="nonzero"/><path d="m56.3758721 53.7286853c-.0801002.2743593-.1971681.5778684-.3459199.8972576.1864213.1974779.3658926.401608.5380615.6120366l2.5188868 3.0786394c.0949645.1160677.2370121.1833811.3869786.1833811h.0918624l-2.9637843-4.4456764c-.0733431-.1100147-.1487198-.2185782-.2260851-.3256383zm-8.9019439-5.9945212c-.2774196.5990902-.581713 1.1851457-.9118312 1.7564934l5.704769 2.4893537c.3736922.1630657.7380865.3457276 1.0917222.5471241.1726123-.5912678.3290876-.9687054.5702702-1.220792-.3440191-.243334-.7027504-.4660021-1.0743657-.6666743zm-3.5284334-1.905354-12.4881776-6.7436159c-.1846732 1.2555301-.9546841 2.3321864-2.0373775 2.9252492l13.4470425 5.8678003c.4031095-.6590759.763455-1.3435572 1.0785126-2.0494336z" stroke="#fff"/><path d="m52.4900687 58.4139475-.058083-.0091569.1682421-.3108875c.056889-.1051228.0984191-.2179687.1231106-.3356291l.0847761-.1408364c1.6245661-1.3516347 2.9418855-3.6255594 2.9418855-4.6174376 0-1.0324651-.4645865-1.6131982-1.1381966-1.2763932-.2058391.1029195-.351632.3880256-.5383835 1.0312809-.0109541.0377309-.1765957.6292858-.2334193.8179112-.1033698.343135-.2057603.6353111-.3259896.9162008-.3109578.7264855-.7226152 1.3225336-1.2991629 1.8078305l-.1143956.0962901-.1389496-.0552371c-.1454288-.0578127-.3011765-.0878832-.4615029-.0878832-.6903559 0-1.25.5596441-1.25 1.25s.5596441 1.25 1.25 1.25c.294434 0 .5725567-.1018112.794874-.2852305zm6.7607511.1062892c-1.9607456.1550308-3.6364045.1869688-5.0239649.095534 1.3860412.0915333 3.0597627.0597974 5.0239651-.0955323z" stroke="#fff" stroke-width=".5"/><circle cx="51.5" cy="57.5" r="1.25" stroke="#fff" stroke-width=".5"/><g fill="#fff"><path d="m28.6914845 35.2080346c1.5262675-2.7951648 2.4483782-4.5987014 2.7572091-5.3898515.5459557-1.3986062-.0993066-2.8181831-1.4486936-2.8181831-.6869305 0-1.5320173.0618018-2.8122303.1914962-.1609976.0163102-.3268495.0334312-.5413136.0558049-1.9663605.2051384-2.5042334.2526989-3.1464561.2526989-1.2353378 0-3.5102417-.5883372-5.2451306-1.5642122-.9357738-.5263728-1.7215354-1.1488356-2.329931-1.8681294.2604138-.2091264.5266077-.4113499.7983041-.606393.5242484.6101544 1.2042758 1.1430399 2.0218881 1.6029468 1.58426.8911463 3.6902072 1.4357878 4.7548694 1.4357878.590508 0 1.1263726-.047383 3.0426954-.2473011.2153693-.0224682.3821297-.039683.5442833-.0561103 1.3122383-.1329388 2.1825949-.1965886 2.9130213-.1965886 2.1559867 0 3.154838 2.1974729 2.3802356 4.1818169-.3282104.8407957-1.26081 2.6665373-2.8069535 5.4980555-.26744-.1969446-.5639074-.3567588-.8817976-.4718378zm2.3030378 3.0944812c-.0270008-.4854443-.1529288-.9444897-.3579567-1.3573088l6.9474093-11.7225571c.3429714-.5144571.7280805-.9874233 1.1550119-1.4185831.2661189.203827.5265405.4147192.7809847.6323962-.4077055.4012256-.7715053.8416128-1.0898257 1.3184382zm-12.0957763-16.1856511c.3749736.3734977.8176154.682299 1.3248608.9359217 1.6990042.8495021 5.4761604 1.0068836 7.6551254.4621423.7473739-.1868434 3.6825808-1.0595053 6.8923309-2.0313165.4564671.1953004.9034883.4084309 1.340188.6385158-3.6130516 1.0975952-7.1462177 2.1520018-7.9899833 2.3629433-2.3924635.5981158-6.4075152.430822-8.3448746-.5378577-.6961547-.3480774-1.2904579-.7861108-1.7773877-1.3243989.2946855-.176721.5946984-.3454704.8997405-.50595z" fill-rule="nonzero"/><path d="m14.5904677 21.3055895c-.1113241-.5794456-.1429607-1.1963394-.0884143-1.8508574 1.0105287-11.11581621.9377724-13.80779948-.3556068-15.10117871-.555957-.55595696-.8964466-1.17309445-.8964466-1.66605339 0-.78921703.7166769-1.01317856 1.4081139-.66184165 2.8704525.95681751 3.5970502 7.20555745 2.838828 14.02955745-.147203 1.3248266-.1252016 2.4410103.0561518 3.3791505-.3076463.1608341-.6109139.328895-.9095799.5039582-.2621087-1.1134005-.3135124-2.43603-.1404557-3.9935403.6896045-6.20644043.0139292-12.13435707-2.1626197-12.97446857.0978513.19255827.2727471.43576306.513115.67613098 1.6232874 1.62328743 1.6963645 4.3271375.6447195 15.89507609-.0322167.3866006-.0292663.757306.0073734 1.1124647-.3109265.2093866-.6160834.4266843-.9151819.6516046zm24.263854-1.0663329c2.5424736-.779838 4.7239081-1.4590461 5.4875644-1.7135982 1.0178655-.3392885 1.7112679-.3007662 2.4806677.0582871.1790791.0835702.7910298.4138293.901053.4688409.5230898.2615449 1.2905149.8792285 1.9424466 1.5311602.3083676.3083676.5575725.5928582.7083474.8145859.106506.1566266.1735255.2902492.1966291.4365722.056885.3602718-.2024226.6648953-.5710299.6648953-.328432 0-.6056456-.1188058-1.4736068-.5527864-.6320388-.3160194-.9381586-.4472136-1.0263932-.4472136-1.7027042 0-3.810892.5107893-5.405576 1.2121181-.2674155-.2473209-.541127-.4879324-.8208673-.7215672 1.7693735-.8593527 4.2318223-1.4905509 6.2264433-1.4905509.2437177 0 .4592315.0654216.9088647.276506-.426935-.3740416-.8491163-.6876148-1.1324715-.8292924-.1344213-.0672106-.7297169-.3884813-.8767248-.457085-.5369065-.2505563-.9657692-.2743821-1.7415545-.015787-.6914364.2304788-2.5207123.801698-4.7283093 1.480731-.3508474-.2490108-.7094875-.4877619-1.0754829-.715816z" fill-rule="nonzero"/><path d="m27.1750685 35.4415498.3389659-6.1011933-8.0002544-6.5.5000159-.5 8.0002545 6 8.0002544-6 .5000159.5-8.0002544 6.5.3389659 6.1011933c-.2687879-.0661218-.5497891-.1011933-.8389818-.1011933-.2891928 0-.570194.0350715-.8389819.1011933zm4.2020959 4.3717036 5.1143969 3.3440904 9.6294714-3.6782033.1830186.6830127-9.196445 3.9282033 1.1961905 9.9282032-.6830344.1830127-1.629217-10.1782032-5.4541998-2.7574373c.3880548-.4035636.6802126-.9000076.8398188-1.4526785zm-5.8864093 1.4526785-5.4541998 2.7574373-1.629217 10.1782032-.6830344-.1830127 1.1961905-9.9282032-9.19644496-3.9282033.18301852-.6830127 9.62947144 3.6782033 5.1143969-3.3440904c.1596062.5526709.451764 1.0491149.8398188 1.4526785zm2.5232953-.9255754c-.8284535 0-1.5000478-.6715729-1.5000478-1.5s.6715943-1.5 1.5000478-1.5c.8284534 0 1.5000477.6715729 1.5000477 1.5s-.6715943 1.5-1.5000477 1.5z" transform="matrix(.35836795 .93358043 -.93358043 .35836795 53.703735 -1.597492)"/><path d="m40 60.5h11.5v1h-11.5z"/></g></g></svg>