<svg height="64" viewBox="0 0 64 64" width="64" xmlns="http://www.w3.org/2000/svg"><g fill="none" fill-rule="evenodd" transform="translate(1 4)"><path d="m26.1420276 24.4011305-.3385107-.2420377c-.7862036-.5621414-.9678418-1.655191-.4057004-2.4413945.2950516-.4126553.7506927-.6723277 1.2447938-.7230389.0073166-.1499618.0146667-.2983207.0220374-.4443096-.5488248-.2987766-.9013963-.8719321-.9125526-1.5060177-.0131524-.7475317.4443963-1.393823 1.0996053-1.6560531.0060397-.1420915.011153-.2843066.0153574-.4267717-.4177186-.1888332-.7528438-.5381686-.9188049-.9826218-.3185052-.8529751.0712115-1.7970452.8744384-2.1862446-.0100481-.191598-.0213313-.3850232-.0338153-.5805251-.038069-.596166-.0856028-1.1915693-.1493614-1.8991406-.0252851-.2806066-.1304601-1.40328916-.1547534-1.67618878-.2535057-2.84776687-.163766-3.82562685.8427702-4.14424335 1.8563579-.58762537 2.9872674-.63324375 4.625466-.02693282 1.0233603.37875419 1.7685672.98946341 2.211224 1.82741749.09548.18071435.2913661.2851352.4946368.26365857.5724318-.06048045 1.1156238-.25074342 1.6344563-.57386895.7730242-.48143448 1.2110384-.81973929 1.6307133-1.24052821.1431152-.14349509 1.1420588-1.24560124 1.6239016-1.7352835.4003428-.40685631.7590161-.80641621 1.0935543-1.21158279.2506433-.30355956 1.3705841-1.82319552 1.6172305-2.00239463.8090766-.5878286 2.0082566-.01566415 2.4290807.801282.4535157.88041014.653792 1.51913444.7599049 2.25259551.0162695.11245662.0306777.22631814.056188.43225404.1019674.79806239.2724097 1.27825547.8812074 2.1940821.6682093 1.00520077 1.9134782 2.17317432 3.6996514 3.54379702.5326038.4086943 1.105251.829716 1.7609455 1.2977502-.3358258-.2397122 3.0402184 2.1297369 3.6177978 2.5818786 1.2736183.9970158 2.4455986 2.0817345 3.515688 3.254014.2411847.2641789.3713504.5934888.3898825.9280011.5483679.1954414 1.0109482.5602445 1.4079058 1.0656382.2993855.3811682.5266126.7824067.8098544 1.3739363.0306063.0639191.0619009.1299397.1192887.2511773.6321974 1.3325842.7819615 2.3202536.2479637 3.3489036-.6238501 1.2017341-2.6911719 3.0994752-7.2388365 6.5604856-2.2556096 1.7166367-3.7891218 2.7392077-6.3794409 4.3360883-.4337758.2672243-.6468842.3986124-.862359.532066-1.4553511.9013669-2.4447235 1.5516354-3.578228 2.3751746-.4523824.3286751-.8559502.6274925-1.3990757 1.0386003-.156799-.3005564-.3794882-.561276-.6489065-.7629978.5714497-.4329347.9889682-.7422518 1.460197-1.0846195 1.1566674-.8403681 2.16499-1.5030917 3.6394748-2.4163089.2164849-.1340793.4305994-.2660877.8641236-.5331564 2.5648584-1.5811846 4.0733318-2.5870593 6.2986008-4.2806053 4.4178031-3.3621789 6.4288662-5.2082762 6.9569159-6.2254682.1988726-.383092.2522097-.7726175.169823-1.231901-3.5715844 3.5144425-11.7453541 9.5821134-15.333098 11.5606111-1.4016398.7729484-2.9990442 1.8949596-5.4374967 3.7639498-.4354409.0065354-.8441782.1375475-1.1891765.3612774-.21772-.070667-.4183474-.1369862-.6042582-.1997529-.0030123-.0111516-.0061082-.0222688-.0092869-.0333511.2791627-.2164576.4839046-.3748879.7015865-.5428423 2.7585909-2.1284156 4.5029348-3.3686508 6.0557317-4.2249564 3.6327316-2.0033066 12.1951261-8.3853912 15.460017-11.7445968-.0247782-.0549732-.0506987-.1109472-.0777535-.1679749-.0578336-.1221749-.0881246-.1860785-.1177408-.2479297-.254071-.5306087-.4509142-.878195-.6943422-1.1881198-.2716387-.3458418-.5665226-.5866888-.9039333-.7206106-.0270469.0373099-.0560237.0736746-.086932.108959-.7972226.9100986-1.7649302 1.943404-2.9034639 3.1004613-2.2647732 2.3016205-11.7503849 9.5877078-18.6069232 14.2277738-.2985689-.1463974-.6343312-.2285938-.9892915-.2285938-.199259 0-.3931321.0260688-.5781184.0751825 6.8444842-4.5384142 17.1413998-12.4178486 19.4615437-14.7757406 1.1258115-1.1441282 2.0806051-2.1636441 2.8640398-3.0580026.1677729-.1915274.1648304-.4785247-.0068277-.6665485-1.0324321-1.1310259-2.1635263-2.1779029-3.3935597-3.1407995-.5535093-.433299-3.8911947-2.7758263-3.5823615-2.5553815-.6644011-.4742489-1.2459988-.9018512-1.7887432-1.3183269-1.8674669-1.43300356-3.1786381-2.66278877-3.9236633-3.78354515-.6971669-1.0487623-.9195245-1.67521794-1.0403581-2.62093954-.0260868-.21027455-.0391666-.31363867-.053948-.41580895-.0905029-.62556358-.2574049-1.15784985-.6591952-1.93784557-.1748686-.33947266-.7361254-.60726499-.952309-.45019847-.0997652.07248369-1.0724715 1.39233868-1.4339001 1.83007285-.3525816.42701925-.7306156.84814691-1.1518805 1.27626573-.4618198.46933341-1.4637928 1.57478191-1.6286475 1.74007426-.4775425.47881008-.9754919.86340644-1.8101053 1.3831983-.6455656.40205408-1.3332049.64291234-2.0580374.71949473-.6098121.06442988-1.1974373-.24881497-1.4839001-.79100136-.321734-.6090459-.8716396-1.05970256-1.6741294-1.3567107-1.4050521-.5200215-2.3156282-.48329088-3.9765793.04247897-.2648698.08384387-.3421888.92636018-.1484974 3.10219994.024034.26998748.1291412 1.39194606.154657 1.67511186.0644778.7155537.1126694 1.319195.151364 1.9251596.0057681.0903294.0112857.1802399.01655.2697546l3.7104459-1.3854995c.3880433-.1448974.8200771.0522114.9649745.4402547.1448973.3880434-.0522114.8200772-.4402548.9649745l-4.1684847 1.5565335c.0053051.2170678.0088494.4325038.0105728.6466913l4.3949325.3537078c.4128786.0332288.7206456.3948703.6874167.8077489-.0332288.4128786-.3948703.7206455-.8077488.6874167l-4.2934945-.345544c-.0012773.0375387-.0026164.0750667-.0040177.1125859l.9251398-.0162772c.4141494-.0072868.755791.3225407.7630777.7366901.0072867.4141495-.3225408.755791-.7366902.7630777l-1.0403786.0183048c-.0129738.1879935-.0261057.3962268-.039319.6201351l4.9916954 2.0748207c.3824882.158983.5636751.5979322.4046921.9804205s-.5979322.5636751-.9804205.4046921l-2.9031245-1.2066968c.0362665.1001523.0516686.209654.0414046.3227448-.0374399.412518-.4022029.7165789-.814721.679139l-.8983145-.0815306c-.0154663.3381665-.0305924.6722394-.0452379.9938324l3.8713654 2.7680552c.3369444.2409177.4147894.7093675.1738716 1.0463119-.2409177.3369444-.7093675.4147893-1.0463119.1738716l-1.9069646-1.363494c-.0420581.3368403-.3104299.613365-.6625956.6519652l-.2846201.0311967c-.0180788-.1869127-.0524751-.3733252-.1035433-.5571707-.2273259-.818373-.750494-1.4798573-1.4247126-1.8959718z" fill="#fff" fill-rule="nonzero"/><path d="m35.6737833 30.1944194c-.6903559 0-1.25-.5596441-1.25-1.25s.5596441-1.25 1.25-1.25 1.25.5596441 1.25 1.25-.5596441 1.25-1.25 1.25zm-4.75-.5c-.6903559 0-1.25-.5596441-1.25-1.25s.5596441-1.25 1.25-1.25 1.25.5596441 1.25 1.25-.5596441 1.25-1.25 1.25zm15-6.5c-3.0375661 0-5.5-2.4624339-5.5-5.5s2.4624339-5.5 5.5-5.5 5.5 2.4624339 5.5 5.5-2.4624339 5.5-5.5 5.5zm-10.25 6.5c.4142136 0 .75-.3357864.75-.75s-.3357864-.75-.75-.75-.75.3357864-.75.75.3357864.75.75.75zm-4.75-.5c.4142136 0 .75-.3357864.75-.75s-.3357864-.75-.75-.75-.75.3357864-.75.75.3357864.75.75.75zm15-7c2.4852814 0 4.5-2.0147186 4.5-4.5s-2.0147186-4.5-4.5-4.5-4.5 2.0147186-4.5 4.5 2.0147186 4.5 4.5 4.5zm0-3.09375-2.351141 1.829818 1.0137178-2.8015129-2.4668029-1.6706231 2.9776531.0983878.826573-2.8623198.826573 2.8623198 2.9776531-.0983878-2.4668029 1.6706231 1.0137178 2.8015129z" fill="#fff" fill-rule="nonzero" transform="matrix(.80901699 -.58778525 .58778525 .80901699 -4.713638 27.88175)"/><path d="m28.3446599 27.4531079c.114844-.3095738.2166608-.6011359.3025788-.8660148.0426007-.1313349-.0293326-.2723374-.1606674-.3149381s-.2723374.0293326-.3149381.1606674c-.0724395.223326-.1567433.4668739-.2510482.7249607.1481725.086523.2900592.1851305.4240749.2953248zm.7014684.8036052c-.0326496-.0528569-.066932-.104972-.1028423-.1562723-.0806123-.1151605-.1676342-.2237683-.2603118-.3255867.0129255-.0381904.0257838-.0763875.0385738-.1145881.043836-.1309276.18551-.2015293.3164377-.1576933.1309276.043836.2015293.18551.1576933.3164377-.0488871.1460139-.098758.2919745-.1495507.4377027zm4.9648203-20.43084833.0046874-.00104076c.3177838-.06742643.6489816-.12976797.9936042-.18703586.1362034-.02263369.2649663.06943275.2876.20563616s-.0694327.26496633-.2056362.28760002c-.2894081.04809259-.5688735.09978779-.8383897.15507849.0527042.23579572.1038147.46971504.1541468.7061315.0036314.01705728.0054294.03407845.0055272.05085846.2404747-.05457493.4761569-.1113147.7057613-.1700147.1337688-.03419893.2699335.04651837.3041325.18028715.0341989.13376878-.0465184.26993351-.1802872.30413244-.31738.08114044-.6458163.15852633-.982133.23166962-.1349173.02934228-.268076-.0562432-.2974183-.19116053-.0134325-.06176354-.0027797-.12315854.0256654-.17439369-.034378-.03334119-.0595665-.07690422-.0702879-.12726419-.06924-.32522931-.1399848-.6457941-.2143946-.97327276-.0305928-.13463928.0537536-.26858632.1883929-.2991791.0406837-.00924417.0813043-.00799374.1190292.00196775zm-4.2746909 18.23146703c.0921132-.1300313.2066803-.2474847.3427484-.346344.6702116-.4869372 1.6082661-.338364 2.0952034.3318476.4869372.6702117.338364 1.6082662-.3318476 2.0952034-.6702117.4869373-1.6082662.338364-2.0952034-.3318476-.1907863-.2625948-.2840128-.5663073-.2865286-.8678933-.0619163.0784544-.1677655.1151558-.269145.0842938-.1320864-.0402098-.2065671-.1798835-.1663573-.3119699.0978053-.3212834.1897317-.6397967.2751909-.9535735.036283-.1332186.1736912-.2118004.3069098-.1755174s.2118005.1736911.1755175.3069098c-.0152943.0561555-.0307914.1124561-.0464881.1688911zm1.1770736-12.0946021c-.0018058.3014598-.0052425.6189065-.0103188.9460942-.0021419.1380546-.1157936.2482336-.2538482.2460917-.1380545-.0021419-.2482335-.1157936-.2460916-.2538482.0053682-.3460015.0088932-.680989.0105859-.9974665.0006144-.1148811.078621-.2112494.1843393-.2399528-.0120211-.0152771-.023799-.030848-.0353242-.0467111-.3205031-.4411346-.365684-.9983066-.1680139-1.4665028-.0022543-.0467506-.004671-.0870107-.007236-.1204-.0043468-.0557412-.0043468-.0557412-.0088107-.1124607-.0107704-.1376504.0920862-.2579693.2297367-.2687397.0405203-.0031705.0795388.0035053.1147031.0180164.0526919-.05181.1098775-.1003682.1714684-.1451166.6702116-.4869372 1.6082661-.338364 2.0952033.3318476.4869373.6702117.3383641 1.6082662-.3318476 2.0952034-.5326405.386986-1.2344515.3725814-1.7445457.0139451zm2.4776528 4.3976934c-.6702117.4869372-1.6082662.338364-2.0952034-.3318476-.4869373-.6702116-.338364-1.6082661.3318476-2.0952034.6702116-.4869372 1.6082661-.338364 2.0952034.3318476.4869372.6702116.338364 1.6082661-.3318476 2.0952034zm-.07591 4.9994237c-.6702116.4869373-1.6082661.338364-2.0952034-.3318476-.4869372-.6702116-.338364-1.6082661.3318476-2.0952034.6702116-.4869372 1.6082661-.338364 2.0952034.3318477.4869372.6702116.338364 1.6082661-.3318476 2.0952033zm-.2179827-5.4039322c.4468078-.3246248.5458566-.9499945.2212318-1.3968023-.3246249-.4468077-.9499945-.5458565-1.3968023-.2212317-.4468077.3246248-.5458566.9499945-.2212317 1.3968023.3246248.4468077.9499945.5458565 1.3968022.2212317zm-2.1977719-5.7018553c.0059701.1693639.0103153.3878266.0128786.6484136.0006918.0703351-.0277301.1341717-.0740358.1800567.0310566.0837514.0739397.1647034.1290199.2405148.3246248.4468077.9499945.5458565 1.3968022.2212317.4468078-.3246248.5458566-.9499945.2212317-1.3968022-.3246248-.4468078-.9499945-.5458566-1.3968022-.2212318-.1234424.0896862-.2203408.2023277-.2890944.3278172zm2.121862 10.701279c.4468077-.3246248.5458565-.9499945.2212317-1.3968022-.3246248-.4468078-.9499945-.5458566-1.3968023-.2212318-.4468077.3246249-.5458565.9499945-.2212317 1.3968023.3246248.4468077.9499945.5458566 1.3968023.2212317zm-1.4727123 4.778192c.4468078-.3246248.5458566-.9499945.2212318-1.3968022-.3246249-.4468078-.9499945-.5458566-1.3968023-.2212318-.4468077.3246249-.5458565.9499945-.2212317 1.3968023.3246248.4468077.9499945.5458566 1.3968022.2212317zm1.611698-19.18887857c-.3314826.09009638-.6440253.18693919-.9376094.29048861-.1302093.04592585-.2729951-.02239941-.318921-.15260874-.0459258-.13020932.0223994-.2729951.1526088-.31892095.305459-.10773778.6297128-.20820932.9727802-.30145444.1332374-.0362137.2706048.04243959.3068185.17567705.0362137.13323745-.0424396.27060476-.1756771.30681847zm-1.8188059.66651322c-.2660542.15568062-.5033961.35470153-.702758.58838032-.0896132.10503869-.2474097.11754351-.3524484.0279303s-.1175435-.24740975-.0279303-.35244844c.2355976-.27615194.5161284-.5113885.8306177-.69541072.1191688-.06973121.2723026-.02965408.3420338.08951476s.0296541.27230258-.0895148.34203378zm-1.1925985 1.42621055c-.0606994.1654647-.1054626.3367595-.1335169.5118621-.0257645.1831314-.042681.3208273-.058464.4733485-.0142118.1373378-.1370671.2371511-.2744049.2229393s-.2371512-.137067-.2229393-.2744049c.016428-.1587549.0340935-.3025469.0614028-.4963213.0338516-.2115679.0867614-.414037.1585108-.6096236.0475517-.1296244.1911813-.1961575.3208057-.1486058s.1961575.1911813.1486058.3208057zm-.2623317 1.968124c-.0136061.3128186-.0205343.6425036-.0207727.9890311-.0000949.1380712-.1121007.249923-.2501719.249828-.1380711-.000095-.2499229-.1121007-.249828-.2501719.0002432-.3534893.0073209-.6902861.0212449-1.0104144.0059998-.1379407.1226867-.2449.2606274-.2389003.1379408.0059998.2449001.1226867.2389003.2606275zm-.0045624 1.9842083c.0031796.0997205.006827.200612.0109421.3026744.0090697.2248437.0142927.4593922.0157985.7039909.0008499.1380686-.1103877.2506843-.2484563.2515343-.1380686.0008499-.2506843-.1103877-.2515343-.2484563-.0014716-.2390576-.0065682-.4679321-.0154018-.6869209-.0041715-.1034615-.0078696-.2057557-.0110942-.3068876-.0044003-.138001.1039045-.2534401.2419056-.2578404.138001-.0044002.2534401.1039046.2578404.2419056zm.0138286 2.0157186c-.0096007.3226083-.0242945.6579846-.0438569 1.005393-.0077624.1378528-.1258069.2433119-.2636597.2355495s-.2433119-.1258069-.2355495-.2636597c.019321-.3431211.0338221-.6741004.0432874-.992156.0041071-.1380101.1193159-.2465599.257326-.2424528.13801.0041072.2465598.119316.2424527.257326zm-.1112795 2.010119c-.0251602.326151-.0538783.6599467-.0859578 1.0007533-.0129392.1374636-.1348647.2384106-.2723282.2254714-.1374636-.0129392-.2384106-.1348647-.2254714-.2723283.0318221-.3380723.0602999-.6690744.0852385-.9923535.0106197-.1376621.1308258-.2406505.268488-.2300308.1376622.0106196.2406505.1308258.2300309.2684879zm-.1875961 2.002128c-.0356737.3287789-.0738926.6611356-.1144532.9964979-.0165784.1370723-.1411368.234752-.2782091.2181737-.1370723-.0165784-.2347519-.1411368-.2181736-.2782091.0403201-.333373.0783055-.6637002.1137534-.9903977.0148938-.1372655.1382433-.2364674.2755088-.2215736s.2364674.1382433.2215737.2755088zm-.2408094 1.9945726c-.0439874.3330721-.0894594.6640601-.1362465.9931086-.0194368.1366963-.1460075.2317539-.2827038.2123172s-.2317539-.1460075-.2123172-.2827038c.0465596-.3274485.0918068-.6568002.1355717-.9881865.0180775-.1368827.1436975-.2331932.2805802-.2151157.1368826.0180775.2331932.1436976.2151156.2805802zm-.2813835 1.9808424c-.0490423.3235379-.0857294.5583816-.1452913.9344407-.0050697.0312044-.0050697.0312044-.0106318.0623554-.0247582.1358333-.1549432.2258775-.2907765.2011194-.1358334-.0247581-.2258776-.1549432-.2011195-.2907765.0045764-.0256294.0045764-.0256294.0086836-.0509155.0594022-.3750507.0959445-.6089674.1447826-.9311582.0206927-.1365118.1481321-.2304017.2846439-.2097091.1365117.0206927.2304017.148132.209709.2846438zm15.0863318-23.04110607c-.1681994.26711065-.3548329.54930973-.5572428.84295003-.0783611.11368018-.2340414.14231192-.3477215.06395078-.1136802-.07836115-.142312-.2340414-.0639508-.34772158.1986164-.28813711.3814518-.56459315.545812-.82560696.073572-.1168367.2279287-.15190969.3447654-.0783377.1168367.07357198.1519097.22792873.0783377.34476543zm-1.1422083 1.66365824c-.1949426.26526361-.3979977.53417785-.6064131.80320282-.0845585.10914906-.2415894.12908366-.3507385.04452519-.1091491-.08455848-.1290837-.24158946-.0445252-.35073852.2058573-.26572299.4063669-.53126607.5987757-.79308197.0817637-.11125805.2382387-.13516796.3494968-.05340428.111258.08176368.135168.23823871.0534043.34949676zm-1.2330644 1.59239587c-.215265.26454385-.4312683.5233819-.6447148.77256738-.0898214.10486078-.2476424.11705267-.3525032.02723134-.1048607-.08982132-.1170526-.24764234-.0272313-.35250312.2106822-.24595827.4239902-.50156654.6366243-.76287717.0871454-.10709493.2446084-.12326718.3517033-.03612174.1070949.08714545.1232672.24460838.0361217.35170331zm-1.3143896 1.5315345c-.244632.26843685-.478294.51451265-.69641.73318271-.0975071.09775484-.2557982.09795563-.3535531.00044848-.0977548-.09750714-.0979556-.25579826-.0004484-.3535531.2125459-.21308584.441075-.4537561.6808518-.71686536.0930013-.10205108.2511224-.10938743.3531735-.01638619.1020511.09300123.1093874.25112238.0163862.35317346zm-1.4486995 1.42850028c-.0776054.06385519-.151117.12109318-.2204324.17153942-.190916.13871013-.4124377.2718821-.6655779.40148091-.1229008.06292088-.2735391.01429751-.33646-.10860332-.0629208-.12290084-.0142975-.27353911.1086034-.33645998.2313251-.11843027.430974-.23845299.5993775-.36080658.060748-.04421115.1265172-.09542073.1967993-.15325017.1066185-.08772771.2641672-.07241369.3518949.0342048s.0724137.26416721-.0342048.35189492zm-1.8307762.98639237c-.2974501.11288867-.619156.22204686-.9624228.32710715-.132026.04040788-.2718112-.03386325-.3122191-.16588921-.0404079-.13202597.0338632-.27181122.1658892-.31221911.3331901-.10197619.6445924-.20763829.9313393-.31646487.1290872-.04899135.2734484.01593915.3224397.14502633.0489914.12908718-.0159391.27344836-.1450263.32243971zm-3.9132609 1.03199084c-.2041328.03780343-.4085976.07371099-.6122089.10756004-.129488.02151782-.2496037.0451969-.3626327.07137586-.1345104.03115434-.2688083-.05263234-.2999626-.18714278-.0311543-.13451045.0526323-.26880829.1871428-.29996263.1235014-.0286045.2538872-.05430818.3934722-.0775039.2005868-.03334625.4020348-.068724.6031422-.10596714.1357627-.02514196.2662018.06453394.2913438.20029673.0251419.13576279-.064534.26620186-.2002968.29134382zm-1.8406669.50348097c-.2830017.1718039-.4432679.3771151-.5214731.6347694-.0401019.1321193-.1797147.2067141-.3118339.1666122-.1321193-.0401018-.2067141-.1797146-.1666122-.3118339.1141141-.3759594.352635-.6815198.7404506-.9169539.1180249-.07165029.2717871-.03405618.3434374.08396877.0716502.11802493.0340561.27178713-.0839688.34343743zm-.5549584 5.6207532c-.0081594.3331787-.0178292.6681101-.0289996 1.0019987-.0046166.137994-.1202253.2461177-.2582193.241501-.137994-.0046166-.2461177-.1202253-.2415011-.2582193.0111199-.3323792.0207467-.665819.0288699-.9975215.0033803-.1380298.1180158-.2471848.2560456-.2438045.1380298.0033802.2471848.1180158.2438045.2560456zm-.067282 2.0042191c-.0146509.3398817-.0308282.6742753-.0485299 1.0015489-.0074572.1378697-.1252678.2435899-.2631375.2361328-.1378697-.0074572-.2435899-.1252679-.2361327-.2631375.0176011-.3254127.0336902-.6579852.048264-.9960772.0059461-.137943.1225914-.2449477.2605345-.2390015.1379431.0059461.2449477.1225914.2390016.2605345zm-.1090984 2.0034833c-.0233059.3464382-.0484262.6806643-.07537 1.001331-.0115605.1375863-.132468.2397504-.2700544.2281898-.1375863-.0115605-.2397504-.132468-.2281898-.2700544.0267042-.3178163.0516171-.6492834.0747418-.9930271.0092676-.1377598.1284568-.2419234.2662166-.2326558.1377598.0092675.2419234.1284567.2326558.2662165zm-.1703138 2.0027688c-.0383432.3584956-.0793833.6927178-.123165 1.0010531-.0194105.1367-.1459631.2317819-.2826631.2123713-.1366999-.0194105-.2317818-.1459631-.2123713-.2826631.0429321-.302352.0832776-.6309172.121035-.9839359.0146837-.1372882.1378813-.2366787.2751695-.2219949.1372881.0146837.2366787.1378813.2219949.2751695zm-.2912341 2.0022165c-.0617056.3184171-.1329258.6482315-.2131006.9872482-.0317763.1343649-.1664603.2175294-.3008251.1857531-.1343649-.0317762-.2175295-.1664602-.1857532-.3008251.0786407-.3325299.1484276-.6557066.2088109-.9673008.0262679-.1355494.1574468-.2241396.2929963-.1978717.1355494.0262679.2241396.1574468.1978717.2929963zm4.3634582-13.94768726c.0645143.32800906.1264194.65674676.1856773.98715576.0243738.1359028-.0660384.2658326-.2019412.2902064s-.2658326-.0660383-.2902064-.2019412c-.0587561-.3276112-.1201454-.6536097-.1841303-.9789274-.026646-.13547561.0615779-.26690113.1970535-.29354709.1354756-.02664597.2669012.06157791.2935471.19705353zm.3543552 1.97778486c.0533367.3311748.1035633.6623478.1505396.9936431.019384.1367038-.0757224.2632379-.2124261.2826219-.1367038.019384-.2632379-.0757224-.2826219-.2124262-.0465299-.3281471-.0962864-.6562201-.1491306-.9843368-.0219539-.1363146.0707538-.2646166.2070685-.2865705.1363146-.0219539.2646166.0707539.2865705.2070685zm.2819569 1.9913655c.0405862.3341439.0775535.6673257.1107607.9995001.0137343.1373864-.0865054.2598939-.2238918.2736283s-.259894-.0865054-.2736284-.2238918c-.0328509-.3286113-.0694281-.6582776-.1095925-.9889481-.0166482-.1370638.080968-.261672.2180318-.2783202s.261672.0809679.2783202.2180317zm.1995682 2.0010425c.0259611.3365315.0477889.6712102.0653495 1.0039385.007277.1378793-.0985971.2555517-.2364764.2628287-.1378793.0072769-.2555517-.0985972-.2628286-.2364765-.0173452-.3286446-.0389099-.65929-.0645633-.9918334-.0106197-.1376622.0923686-.2578684.2300308-.2684881.1376622-.0106196.2578684.0923687.268488.2300308zm.1055155 2.012288c.008993.3383471.0132909.6739803.0127648 1.006781-.0002182.138071-.1123239.2498228-.2503949.2496045s-.2498227-.1123239-.2496045-.2503949c.0005186-.3280558-.0037192-.6589991-.0125889-.9927057-.0036685-.1380224.1052469-.2528857.2432693-.2565542.1380225-.0036685.2528857.1052469.2565542.2432693zm-.0041365 2.0188785c-.0109421.3393651-.0272245.6751275-.0489751 1.007156-.0090254.1377759-.1280314.2421488-.2658073.2331233-.1377759-.0090254-.2421487-.1280314-.2331233-.2658073.021385-.3264473.0373996-.6566879.0481654-.990585.0044495-.1379995.1199272-.2462631.2579267-.2418136s.2462631.1199272.2418136.2579266zm-.1338297 2.0219902c-.0346606.338743-.075412.6729207-.1223844 1.0023912-.0194876.136689-.1460938.2316995-.2827828.2122118-.136689-.0194876-.2316995-.1460938-.2122118-.2827829.0460289-.3228533.0859807-.6504739.119976-.982715.0140543-.137354.1367949-.2373083.2741489-.2232541.1373541.0140543.2373083.1367949.2232541.274149zm-.2886523 2.0115548c-.0630404.3356449-.133051.6656471-.2101673.989853-.0319505.1343236-.1667423.2173133-.3010659.1853628-.1343235-.0319505-.2173133-.1667423-.1853628-.3010658.075249-.3163553.1436044-.6385559.2051883-.9664456.0254868-.1356985.1561532-.2250428.2918517-.199556.1356985.0254867.2250428.1561532.199556.2918516zm-.4658736 1.9547999c-.0478253.1630235-.0976113.3243719-.1493759.4840245-.0522761.1611517-.1082439.321944-.1687277.4847974-.0480713.1294326-.1919667.1953889-.3213993.1473176s-.195389-.1919666-.1473177-.3213993c.0580686-.1563502.1117393-.3105429.1618315-.4649625.050297-.1551262.0986983-.311987.1452086-.4705281.0388671-.1324877.1777777-.2083822.3102654-.169515.1324877.0388671.2083822.1777777.1695151.3102654zm-.707536 1.9095711c-.1355904.2981178-.2848013.6017274-.4476244.9108435-.0643466.1221605-.2155403.1690279-.3377008.1046814-.1221604-.0643466-.1690279-.2155403-.1046814-.3377008.1583934-.3007062.3033475-.5956544.4348707-.8848297.057163-.1256823.2053884-.1812282.3310707-.1240651.1256823.057163.1812282.2053884.1240652.3310707zm-.9442055 1.7994367c-.1663353.2819804-.343283.568287-.5308415.8589279-.0748657.1160119-.2296027.1493676-.3456146.0745019-.116012-.0748657-.1493677-.2296027-.074502-.3456146.1839804-.2850963.3574136-.5657163.5203013-.8418521.0701504-.1189226.2234243-.1584603.3423469-.0883099.1189226.0701503.1584603.2234242.0883099.3423468z" fill="#fff" fill-rule="nonzero"/><path d="m4 24.5c-.72655088 0-1.07838291.9905111-1 1.5.42161709 2.7405111 1.38499439 2.2398654 1.5 5 .13499439 3.2398654-2.27934633 8.9777121-3 11.5-.43674457 1.528606-.74189751 3.0677111-.91545882 4.6173154l-.00003641-.0000041c-.05668051.5060596.27596004.9738985.77256385 1.0865645 1.16970589.2653747 2.55068302.5307495 4.14293138.7961242 3 .5 16.0618772.9206175 25 .5 5.9540932-.2801926 11.7829671-1.1124433 17.4866217-2.4967519l.0000083.0000342c.0096997-.0023542.0194341-.004563.0292-.0066257 6.7356658-1.4226848 10.3970558-2.2549037 10.98417-2.4966566 0-.5-4.3462788-1.5-7.5-1.5-1.5 0-5.6868621-.8060586-8-1.5-5.1868621-1.5560586-6.8571207-2.0612118-8.5-3-3.5-2-4.3442499-4.1108822-8.5-9-4.3442499-5.1108822-6-10.5-7.5-10s-2.5 1-3.5 2.5c-.5399703.8099555-.7519267 1.619911-.6358691 2.4298665l-.000028.000004c.0579857.4046769-.1361965.8038974-.4903478 1.0081094-.5650362.3258134-1.1896212.5131534-1.8737551.5620201-2.0786408.1484743-2.3183102-.136385-4.5-.5-2.3183102-.386385-3.5-1-4-1z" stroke="#fff"/><path d="m51.5 43c-.5.5-.5 2 0 3" stroke="#fff"/><path d="m1 48c-1 1-.6875 2.5-.5 3.5s.5 2 1.5 2.5 3.37704884.8639344 9.5 1c6.1229512.1360656 8.5-.5 13-.5s12.5.5 16 0 10.5-1 16.5-3c3.5-1 4-1.5 4.5-2 .3333333-.3333333.3333333-1 0-2l-1.5-2-1-1" stroke="#fff"/><circle cx="22" cy="47" r="1" stroke="#fff" stroke-width=".5"/><circle cx="27" cy="47" r="1" stroke="#fff" stroke-width=".5"/><circle cx="12" cy="36" r="5" stroke="#fff"/><path d="m12 37.40625-2.35114101 1.829818 1.01371781-2.8015129-2.46680287-1.6706231 2.97765307.0983879.826573-2.8623199.826573 2.8623199 2.9776531-.0983879-2.4668029 1.6706231 1.0137178 2.8015129z" fill="#fff"/><g stroke="#fff"><circle cx="19.5" cy="27.5" r="1.25" stroke-width=".5"/><circle cx="21.5" cy="31.5" r="1.25" stroke-width=".5"/><circle cx="24.5" cy="35.5" r="1.25" stroke-width=".5"/><path d="m28.5 39.75c.6903559 0 1.25-.5596441 1.25-1.25s-.5596441-1.25-1.25-1.25-1.25.5596441-1.25 1.25.5596441 1.25 1.25 1.25z" stroke-width=".5"/><path d="m31.5 41.75c.6903559 0 1.25-.5596441 1.25-1.25s-.5596441-1.25-1.25-1.25-1.25.5596441-1.25 1.25.5596441 1.25 1.25 1.25z" stroke-width=".5"/><path d="m36.5 42.75c.6994105 0 1.25-.4588246 1.25-1s-.5505895-1-1.25-1-1.25.4588246-1.25 1 .5505895 1 1.25 1z" stroke-width=".5"/><path d="m40.5 44.25c.6994105 0 1.25-.4588246 1.25-1s-.5505895-1-1.25-1-1.25.4588246-1.25 1 .5505895 1 1.25 1z" stroke-width=".5"/><path d="m45.5 44.75c.6994105 0 1.25-.4588246 1.25-1s-.5505895-1-1.25-1-1.25.4588246-1.25 1 .5505895 1 1.25 1z" stroke-width=".5"/><path d="m14 25.5c1.2504476-.6252238 2.3705936-1.0549952 3.360438-1.2893142l.000001.0000044c1.0340796-.2447905 2.1204982.0757342 2.8561007.8426317.6973518.7270195 1.4585052 1.7092455 2.2834603 2.9466781 2 3 6 7 7 8s6.5 4.5 10 5 8.5 2.5 9.5 3c.6666667.3333333 1.5 1 2.5 2" stroke-dasharray="1" stroke-linecap="round" stroke-linejoin="round" stroke-width=".5"/><path d="m3 25.5c2.5 1 6.5 2 8 2s4-1 6-2 2.5-.0619884 3 .7505116 4.5 6.2494884 7 8.7494884 7 5.5 10 6.5 7.5 1 12 3c-1 .3333333-1.6666667.6666667-2 1l1 1.5" stroke-dasharray="1" stroke-linecap="round" stroke-linejoin="round" stroke-width=".5"/><path d="m15 25c1.5 3.5 5 11 10.5 15 3.6666667 2.6666667 10.8333333 4.5 21.5 5.5l4 .5" stroke-dasharray="1" stroke-linecap="round" stroke-linejoin="round" stroke-width=".5"/><path d="m.5 52c5 1 16.5.9375 20 .5s9 0 13 0c2.6666667 0 5.6666667-.3333333 9-1"/><path d="m42 49.5c3.3333333-.3333333 6.5833333-.8333333 9.75-1.5s5.75-1.6666667 7.75-3l2 2.5c-2.3333333 1.3333333-4.8333333 2.3333333-7.5 3s-6.5 1.3333333-11.5 2z" stroke-width=".5"/><path d="m19.5 27.5c1.5558877-.432191 3.1117754-.8643821 4.6676631-1.2965731.5321362-.1478156 1.0833461.1637378 1.2311618.6958741.1038844.3739837-.0180256.7742996-.3127266 1.0269004l-3.5860983 3.0737986" stroke-linecap="round" stroke-width="1.5"/><path d="m25 30c.3582881-.2508017.7165763-.5016034 1.0748644-.7524051.4524493-.3167145 1.0759798-.2066797 1.3926943.2457696.2280205.3257435.2413892.7556298.0340499 1.0949123l-3.0016086 4.9117232" stroke-linecap="round" stroke-width="1.5"/><path d="m28.5 38.5 1.8352499-5.5057498c.1746478-.5239433-.1085122-1.0902633-.6324555-1.2649111-.3366902-.11223-.7076409-.0375984-.9747324.1961066l-1.228062 1.0745543" stroke-linecap="round" stroke-width="1.5"/><path d="m30.5 36 1.0628751-.6073572c.4795174-.2740099 1.0903721-.1074132 1.364382.3721042.1490263.260796.1729298.5747672.0651025.855118l-1.4923596 3.880135" stroke-linecap="round" stroke-width="1.5"/><path d="m36.5 38.5v3" stroke-linecap="round" stroke-width="1.5"/><path d="m40.5 40v3" stroke-linecap="round" stroke-width="1.5"/><path d="m45 41.5.5 2" stroke-linecap="round" stroke-width="1.5"/><path d="m9.5 55h49.5" stroke-linecap="round" stroke-width=".5"/></g></g></svg>