<svg height="64" viewBox="0 0 64 64" width="64" xmlns="http://www.w3.org/2000/svg"><g fill="none" fill-rule="evenodd" transform="translate(0 1)"><path d="m39.82656 19.6700606-.9977618.576058c-.0003266-.0009402-.0006506-.0018817-.0009718-.0028247-1.2203357-3.5814919-2.4541354-6.1492581-3.6867978-7.6939289-.1722428-.2158403-.1368999-.5304438.0789404-.7026865.2158404-.1722427.5304439-.1368999.7026866.0789405 1.2850189 1.6102795 2.532636 4.1798489 3.7563711 7.7173838zm-3.4436092 1.9881687-.9420254.5438786c-.2213703-2.040711-.7367171-3.7730734-1.5423237-5.1997481-.4785025-.8473954-1.1569363-1.7900736-1.9821391-2.6932518-.1862634-.203864-.1719954-.5201248.0318686-.7063883s.5201248-.1719954.7063882.0318686c.8769146.9597764 1.5995566 1.9638813 2.1146476 2.8760727.8170754 1.446985 1.3539288 3.1635626 1.6135838 5.1475683zm-3.8682036 2.2333084-.9533832.5504361c-.1986421-2.3660954-.6557689-4.1743661-1.3593769-5.4204082-2.1846173-3.8688093-4.6443837-5.8703612-9.7078465-5.8703612-6.3054168 0-10.80266948 4.9048686-10.91982786 11.967928-.10927604 6.5878612 4.57061966 15.0998052 11.36822976 21.0600439-.0045631.4537568-.008775.8891327-.0126355 1.3061429-7.3501334-6.1559075-12.47362823-15.2586344-12.35545672-22.382772.12585279-7.587214 5.04419912-12.9513428 11.91969032-12.9513428 5.4963835 0 8.2351799 2.2286031 10.5786119 6.3786623.7348414 1.3013545 1.2122107 3.0873691 1.4419947 5.361671zm-3.8969446-.8299861-.9244658.5337406c-.0860441-.5509473-.1943532-1.0612146-.3323774-1.5524291-.0746992-.2658471.0802568-.5419143.3461038-.6166135.2658471-.0746991.5419143.0802568.6166135.3461039.1169614.4162543.2136384.8421852.2941259 1.2891981zm-7.6211482 18.2369626c-.0053322.4478913-.0104482.8844309-.0153479 1.3096259-2.7712777-2.3470031-4.6248785-4.6215303-5.8490819-7.0015411-.1263093-.2455618-.0296361-.5470228.2159256-.6733321.2455618-.1263093.5470228-.0296361.6733321.2159256 1.0682105 2.0767403 2.6518547 4.0821203 4.9751721 6.1493217zm2.9985847-16.3720044c-.3931865-2.9563479-1.8614235-4.5465327-3.7915896-4.2168507-2.2482066.3840048-3.2611001 2.1637002-2.7913785 5.3921804.3772693 2.5930396 1.6367733 5.9211978 3.409308 8.8091629-.280984.2731422-.4972645.5598514-.640306.8626907-1.9530201-3.0767008-3.3460671-6.6925809-3.758583-9.5278764-.5417282-3.7233941.7751688-6.0372359 3.6125928-6.521882 2.3535098-.4019912 4.126474 1.2487353 4.7842013 4.1445052zm-.9504031 8.5665118c-.8609827-1.3893817-1.5115174-2.8829723-1.9802337-4.462605-.1803367-.6077572.7015128-.9184615.9419773-.3318893.5742675 1.4008279 1.4626318 2.5888247 2.9849398 4.1716802l-.1535338.257312c-.1779884-.0327722-.3940857-.0720413-.6557872-.1195977-.4020627.157832-.7822359.3192159-1.1373624.4850998zm11.296582-23.3644097c.1927534.197739.1887118.5142957-.0090272.7070492-.197739.1927534-.5142957.1887118-.7070491-.0090272-3.5029549-3.59355865-7.7217276-5.3648826-13.0644693-5.3648826-3.4314975 0-6.4249764.76519263-9.0095762 2.18873482-.2418808.13322275-.5459623.04513801-.6791851-.19674277-.1332227-.24188078-.045138-.54596227.1967428-.67918502 2.7328158-1.50517635 5.8923148-2.31280703 9.4920185-2.31280703 5.6118219 0 10.0889778 1.87981057 13.7805456 5.6668606zm-26.15869879-1.37471455c.21167731-.17733395.52703324-.14949316.70436719.06218415.17733395.2116773.14949315.52703324-.06218415.70436718-3.63706226 3.04697102-6.01240299 7.67245242-6.4891052 10.64086262-.93852625 5.8441747-.59268034 10.971716 2.69598085 17.6042037.12267084.2473994.02155835.5474006-.22584107.6700715-.24739942.1226708-.54740065.0215583-.6700715-.2258411-3.39676562-6.8505099-3.75595778-12.1759237-2.78741759-18.2069942.51279601-3.1931653 3.00017351-8.036815 6.83427147-11.24885385zm2.72815009-4.9745856c-.2393855.137656-.5450381.05518791-.6826941-.18419763s-.0551879-.5450381.1841977-.6826941c1.7342305-.99725007 4.4816383-1.87687977 7.3925282-2.22626321.2741745-.03290816.5231142.16267686.5560224.43685138.0329082.27417451-.1626769.52311421-.4368514.55602237-2.7807032.3337576-5.3989939 1.17204826-7.0132028 2.10028119zm9.7196646-2.26336123c-.2761424 0-.5-.22385762-.5-.5 0-.27614237.2238576-.5.5-.5 4.1879065 0 7.9220425 1.17491688 12.3627006 3.65612487.2410644.13469424.3272945.43930685.1926003.6803713-.1346943.24106446-.4393069.32729456-.6803713.19260032-4.3030535-2.40432176-7.8778272-3.52909649-11.8749296-3.52909649zm10.0202676 10.24507068c.2161002.1719165.2519182.4864663.0800017.7025665-.1719165.2161003-.4864663.2519183-.7025665.0800017-2.6226916-2.0864578-5.7953911-3.29065971-9.5191221-3.29065971-2.8195406 0-5.4103817.70393864-7.6092758 2.05791711-.2351401.1447886-.5431332.0715442-.6879217-.163596-.1447886-.2351401-.0715441-.5431332.163596-.6879217 2.3598111-1.45306388 5.1324571-2.20639941 8.1336015-2.20639941 3.9599716 0 7.348794 1.28623166 10.1416869 3.50809151zm-21.0462142.9270331c.19207179-.1984012.5086127-.2035322.7070139-.0114604s.2035322.5086127.0114604.7070139c-2.48803276 2.5700218-4.04172703 6.1980429-4.45332081 10.6047848-.19636863 2.1024269-.00053556 4.3084729.55032886 6.5884747.06485194.2684192-.10017188.5385888-.36859102.6034407s-.53858874-.1001719-.60344069-.368591c-.57560206-2.3823898-.78115909-4.6979757-.57396362-6.9163206.4319531-4.6247195 2.07725298-8.4666483 4.73051298-11.2073421zm-3.16755859 21.3491639c-.09574-.2590144.03662005-.5465997.29563446-.6423397s.54659968.0366201.64233968.2956345c1.81790097 4.9181379 5.12875085 9.896784 8.06570345 12.901042.1930377.1974615.1894515.5140237-.00801.7070614-.1974615.1930378-.5140237.1894516-.7070614-.00801-3.030405-3.099852-6.41903247-8.1954551-8.28860619-13.2533882zm20.44924249-15.2640184c.1679227.2192181.1263396.5330577-.0928786.7009804-.2192181.1679227-.5330577.1263395-.7009804-.0928786-1.21619-1.5877-3.1191614-2.4483589-5.9299773-2.4483589-5.4023951 0-7.724136 6.3361383-6.2998518 11.7726991.0575566.2196964.0964493.3702659.2066154.7985379.0723801.2813783.1112439.4319143.1553413.6011205.1646612.6318215.2976834 1.1165356.4387153 1.5885896.0790485.2645863-.0713597.5431574-.3359461.6222058-.2645864.0790485-.5431575-.0713597-.6222059-.3359461-.1449626-.4852103-.280859-.9803976-.4482411-1.6226594-.0444413-.1705259-.0835035-.3218304-.1561351-.6041865-.1097746-.42675-.1484565-.5765036-.2054975-.7942319-1.565495-5.9755687 1.0180304-13.026129 7.2672055-13.026129 3.1104204 0 5.3103171.9949495 6.7238363 2.8402571z" fill="#fff" fill-rule="nonzero"/><g stroke="#fff"><path d="m41.8982344 37.0236987c1.3183005 1.4137043.8850738 3.8841155-.9325459 5.5790733-1.8176198 1.6949579-4.0775955 1.8781341-5.395896.4644299-.0974572-.10451-.2407325-.2588461-.4298259-.4630084l-8.9616405-8.7955914 1.5553597-2.6066751-1.2202261-2.1134936 17.9009291-10.3351062 6.9517583 12.0407985-9.8751711 5.7014326-.1024039.0984959c.1847462.1213733.3556899.2645293.5096623.4296445zm-17.3166993-2.5699103c.0713675-.0197111 7.2546648 7.3602047 8.8724494 8.804906-1.8057626 1.1631866-1.8860334 2.4499415-1.9990946 3.1000937-.1130612.6501523 1.7059644.8193923 2.0694056 1.2511233s-.3944195 2.4820577-.3011556 3.523545c.093264 1.0414874 2.4943919 1.8034136 2.9557047 2.5614813.4613128.7580676-1.3263103 3.4738544-2.9232616 4.8283998-1.5969512 1.3545454-5.1744482 3.4871797-7.2849109 2.7242766-2.1104627-.762903-3.526093-4.8658569-3.5649367-7.218399-.0258958-1.5683614.0137521-6.5751038.1189438-15.0202273-.552586-.9571069-.8914952-1.6736333-1.0167276-2.149579-.1878487-.7139187 1.3361203-1.7179042 3.0735835-2.4056204z"/><path d="m31 26.5-.7696988-.5858014c-.160354-.122042-.3782979-.1358952-.5528137-.0351385l-2.013765 1.1626479-1.1172509-.7873878c-.2257193-.1590768-.5376581-.1050523-.6967348.120667-.0134855.0191349-.0256105.0391933-.0362855.0600271l-.0233487.0455681 1.2098974 2.0194176"/><path d="m39.7163282 41.5091286c1.170993-1.0919686 1.4500972-2.6835194.6007883-3.5942917s-2.5001278-.7844667-3.6711207.3075019c-1.1709929 1.0919685-1.255257 2.6752243-.4059481 3.5859965.8493089.9107723 2.3052876.7927619 3.4762805-.2992067z" stroke-width=".5"/><path d="m34.5864992 35.3171166c-1.2854447.1667026-2.5686726-.4490714-3.2324975-1.5988499-.6638249-1.1497784-.5554869-2.5689733.2316041-3.5988499l-.8745533-1.5147707 11.691343-6.75 4.75 8.2272413-11.691343 6.75z" stroke-width=".5"/><path d="m35.1370799 33.7707504c-.858056.2390306-1.8015739-.1204175-2.2675337-.9274837-.4659599-.8070661-.3054921-1.8039006.3305425-2.4274836l-.7815044-1.3536053 9.0932667-5.25 3.5 6.0621779-9.0932667 5.25z"/><path d="m45.091978 20.0131397 2 3.4641016 15.5884573-9-2-3.4641016z"/><path d="m47.091978 23.4772413 1.5 2.5980762 9.5262795-5.5-1.5-2.5980762z"/><path d="m60.523296 10.7409664-1-1.73205082-1.7320508 1.00000002-.7320508 2.7320508z" stroke-width=".5"/><path d="m36 39.5c.3246453.924769 1.662095 1.4600483 2.4666669 1.3491604.3364924.4666647-1.5720142 1.0379173-2.4666669.6508396" stroke-linecap="round" stroke-linejoin="round" stroke-width=".5"/><path d="m37.0656986 28.1112159 5.1961524-3 1 1.7320508-5.1961524 3 5.1961524-3 1 1.7320508-5.1961524 3z" stroke-linecap="round" stroke-linejoin="round"/><path d="m24.7272413 42.7403811c-.3660254 1.3660254-.3121778 13.4592921.6878222 15.1913429s2.1160254 1.6650635 2.9820508 1.1650635 4.5131397-3.1830127 4.4461524-4.2990381-5.2009619-12.0083302-6.1339746-12.6243556-1.6160254-.7990381-1.9820508.5669873z" stroke-width=".5"/><path d="m60.2558264 12.4826347 1.0341662 1.7440037" stroke-width=".5"/><path d="m34.5 30 1.8687915 3.4321299" stroke-width=".5"/><path d="m51.2240171 22.6812421 5.8021168-3.4420847" stroke-width=".5"/></g></g></svg>