<svg height="64" viewBox="0 0 64 64" width="64" xmlns="http://www.w3.org/2000/svg"><g fill="none" fill-rule="evenodd" stroke="#fff"><path d="m32.5 59.5c5.1413043 0 7.4782609-2.5 14.0217391-12.5 6.5434783-10 8.8804348-17 6.5434783-23.5s-8.8804348-9-12.6195652-11c-3.7391305-2-2.3369565-5.5-1.8695652-7 2.3369565-.5 2.8043478-1.5 2.8043478-3-1.8695652-.66666667-4.8297102-1-8.8804348-1-2.3369565 0-6.076087 0-8.8804348 1 0 1.5.4673913 2.5 2.8043478 3 .4673913 1.5 1.8695653 5-1.8695652 7-3.7391304 2-10.2826087 4.5-12.6195652 11-2.33695651 6.5 0 13.5 6.5434783 23.5 6.5434782 10 8.8804348 12.5 14.0217391 12.5" transform="matrix(-1 0 0 1 65 0)"/><path d="m18.5529487 15.7505636c.3912139-1.3650623.366318-2.3352425-.0746878-3.7505636-.4673913-1.5-.9347826-4.5 1.4021739-6 1.8040451-1.15794521 3.7391304-.5 5.6086956.5.4753223.25424214.9506446.37920615 1.364518.44062792.3305284 1.35565823.4559268 3.10999128-.9015289 4.52699348-.4803125-3.47070371-3.2702271-3.96607547-4.2021195-3.4676214-.9347826.5-1.4021739 1.5-1.4021739 3 0 1.2763556.6768173 2.5527112 1.4545456 2.9049379-1.0444504.5376211-2.1545082 1.1393921-3.249423 1.8456257z"/><path d="m38.3780496 15.7505636c.391214-1.3650623.3663181-2.3352425-.0746878-3.7505636-.4673913-1.5-.9347826-4.5 1.4021739-6 1.8040451-1.15794521 3.7391305-.5 5.6086957.5.4753222.25424214.9506445.37920615 1.364518.44062792.3305283 1.35565823.4559267 3.10999128-.9015289 4.52699348-.4803126-3.47070371-3.2702272-3.96607547-4.2021196-3.4676214-.9347826.5-1.4021739 1.5-1.4021739 3 0 1.2763556.6768174 2.5527112 1.4545457 2.9049379-1.0444504.5376211-2.1545083 1.1393921-3.2494231 1.8456257z" transform="matrix(-1 0 0 1 84.818422 0)"/><path d="m37.6912502 58.035763c1.3743823.988079 2.2870107 1.976158 2.2870107 2.964237 0 1-3.7391305 1.5-7.4782609 1.5s-7.4782609-.5-7.4782609-1.5c0-.988079.9126284-1.976158 2.2870107-2.964237 1.5809764 1.0775457 3.1692299 1.464237 5.1912502 1.464237s3.6102738-.3866913 5.1912502-1.464237z"/><path d="m26 5.5c2.1811594-.33333333 4.2065217-.5 6.076087-.5 1.8695652 0 3.8949275.16666667 6.0760869.5" stroke-width=".5"/><path d="m25 5c1.5-.5 3.75-1 7.5-1s6 .5 7.5 1" stroke-width=".5"/><path d="m26.423913 11c.9347827-.3333333 2.960145-.5 6.076087-.5s5.1413043.1666667 6.076087.5" stroke-width=".5"/><path d="m23.1521739 53.5c4.2065218 1.5 6.5434783 1.5 9.3478261 1.5s5.1413043 0 9.3478261-1.5" stroke-width=".75"/><path d="m15.673913 18c4.0507247-1 9.6594203-1.5 16.826087-1.5s12.7753623.5 16.826087 1.5" stroke-width=".5"/><path d="m16.6086957 17c4.0507246-1 9.347826-1.5 15.8913043-1.5s11.8405797.5 15.8913043 1.5" stroke-width=".5"/><path d="m14.2717391 40c3.9959896.6666667 10.0720766 1 18.2282609 1s14.2322713-.3333333 18.2282609-1" stroke-width=".75"/><g stroke-width=".5"><path d="m34.2123326 33.0734666c-.7756559-.6739085-1.4861794-1.7807768-1.8825243-2.5734666-.6666666 1.6666667-1.5 2.8333333-2.5 3.5-.3333333.3333333-1 .3333333-2 0-.0949981-.0316661-.1899963-.0603239-.2849944-.0859735.2849944.8965328.2849944 2.7568444.2849944 3.5859735l1 1c.5.5 1 .5 1 1h-1c-.5 0-1-.5-1.5-.5-.3333333 0-.3333333-.3333333 0-1l-1-2s-.5-.5-.5-1v-1.2222222c-.3333333.037037-.6666666.1111111-1 .2222222l-1.3827363.4609121c-.0718669.0239556-.1511004.0052512-.2046669-.0483153l-.1837722-.1837722c-.021955-.021955-.0384967-.0487202-.0483153-.0781758-.0349296-.1047887.0217024-.2180527.1264911-.2529823l1.1929996-.3976665c.3236323-.1618161.617807-.3039939.8825243-.4265334-.7756559-.6739085-1.4861794-1.7807768-1.8825243-2.5734666-.6666666 1.6666667-1.5 2.8333333-2.5 3.5-.3333333.3333333-1 .3333333-2 0s-2-.3333333-3 0l-1.3827363.4609121c-.0718669.0239556-.1511004.0052512-.2046669-.0483153l-.1837722-.1837722c-.021955-.021955-.0384967-.0487202-.0483153-.0781758-.0349296-.1047887.0217024-.2180527.1264911-.2529823l1.1929996-.3976665c1.3333334-.6666667 2.1666667-1 2.5-1 .2878673 0 .8243372.1243013 1.6094097.372904.0293016.0092787.0598547.0140006.0905903.0140006.1657295 0 .3000798-.1343502.3000798-.3000797h-.0000798v-1.5868249c0-.3333333.3333334-.8333333 1-1.5v-1c0-.3333333.5-.8333333 1.5-1.5v-1h-1c-.6313927 0-1.2574843-.1309961-1.888877-.7289813-.035274-.0334075-.075849-.2357448-.111123-.2710187 1-1.6666667 1.6666667-2.6666667 2-3 .5-.5 1-.5 1.5-.5s0-.5 0-1.5.5-1 1-1 1 .5 1 1c0 .3333333-.1666666.6666667-.5 1-.5.5 1 1.5 1 2s.5 1 0 1.5c-.0989449.1978899-.1783097.493681-.2535931.8447511.2856974.1034993.5368952.1552489.7535931.1552489h.7898179c.1364818 0 .2670313.0557931.361357.1544336l.0000117-.0000112c.5390599.5637184.6553311.8455776.3488134.8455776-.3333333 0-.8333333-.125-1.5-.375l-.8924746-.0743729c-.1349673.714399-.2872608 1.5194577-.5430922 2.1780937.2289028.4237598 1.0118071.8475195 1.4355668 1.2712792.5.5 1 2.5 1 3 .2878673 0 .8243372.1243013 1.6094097.372904.0293016.0092787.0598547.0140006.0905903.0140006.1657295 0 .3000798-.1343502.3000798-.3000797h-.0000798v-1.5868249c0-.3333333.3333334-.8333333 1-1.5v-1c0-.3333333.5-.8333333 1.5-1.5v-1h-1c-.6313927 0-1.2574843-.1309961-1.888877-.7289813-.035274-.0334075-.075849-.2357448-.111123-.2710187 1-1.6666667 1.6666667-2.6666667 2-3 .5-.5 1-.5 1.5-.5s0-.5 0-1.5.5-1 1-1 1 .5 1 1c0 .3333333-.1666666.6666667-.5 1-.5.5 1 1.5 1 2s.5 1 0 1.5c-.0989449.1978899-.1783097.493681-.2535931.8447511.2856974.1034993.5368952.1552489.7535931.1552489h.7898179c.1364818 0 .2670313.0557931.361357.1544336l.0000117-.0000112c.5390599.5637184.6553311.8455776.3488134.8455776-.3333333 0-.8333333-.125-1.5-.375l-.8924746-.0743729c-.1349673.714399-.2872608 1.5194577-.5430922 2.1780937.2289028.4237598 1.0118071.8475195 1.4355668 1.2712792.5.5 1 2.5 1 3 .2878673 0 .8243372.1243013 1.6094097.372904.0293016.0092787.0598547.0140006.0905903.0140006.1657295 0 .3000798-.1343502.3000798-.3000797h-.0000798v-1.5868249c0-.3333333.3333334-.8333333 1-1.5v-1c0-.3333333.5-.8333333 1.5-1.5v-1h-1c-.6313927 0-1.2574843-.1309961-1.888877-.7289813-.035274-.0334075-.075849-.2357448-.111123-.2710187 1-1.6666667 1.6666667-2.6666667 2-3 .5-.5 1-.5 1.5-.5s0-.5 0-1.5.5-1 1-1 1 .5 1 1c0 .3333333-.1666666.6666667-.5 1-.5.5 1 1.5 1 2s.5 1 0 1.5c-.0989449.1978899-.1783097.493681-.2535931.8447511.2856974.1034993.5368952.1552489.7535931.1552489h.7898179c.1364818 0 .2670313.0557931.361357.1544336l.0000117-.0000112c.5390599.5637184.6553311.8455776.3488134.8455776-.3333333 0-.8333333-.125-1.5-.375l-.8924746-.0743729c-.1349673.714399-.2872608 1.5194577-.5430922 2.1780937.2289028.4237598 1.0118071.8475195 1.4355668 1.2712792.5.5 1 2.5 1 3 .5.5.5.5.5 1 .5.5.5 3 .5 4l1 1c.5.5 1 .5 1 1h-1c-.5 0-1-.5-1.5-.5-.3333333 0-.3333333-.3333333 0-1l-1-2s-.5-.5-.5-1v-1.5c-1-.5-2-2-2.5-3-.6666666 1.6666667-1.5 2.8333333-2.5 3.5-.3333333.3333333-1 .3333333-2 0-.0949981-.0316661-.1899963-.0603239-.2849944-.0859735.2849944.8965328.2849944 2.7568444.2849944 3.5859735l1 1c.5.5 1 .5 1 1h-1c-.5 0-1-.5-1.5-.5-.3333333 0-.3333333-.3333333 0-1l-1-2s-.5-.5-.5-1v-1.2222222c-.3333333.037037-.6666666.1111111-1 .2222222l-1.3827363.4609121c-.0718669.0239556-.1511004.0052512-.2046669-.0483153l-.1837722-.1837722c-.021955-.021955-.0384967-.0487202-.0483153-.0781758-.0349296-.1047887.0217024-.2180527.1264911-.2529823l1.1929996-.3976665c.3236323-.1618161.617807-.3039939.8825243-.4265334zm-12.2930815-8.8945812c-.0096764-.0193527-.0253687-.035045-.0447214-.0447213-.0493978-.0246989-.1094652-.0046765-.1341641.0447213l-.3381966.6763932c-.0069427.0138856-.0105573.0291969-.0105573.0447214 0 .0552285.0447716.1.1.1h.6763932c.0155246 0 .0308359-.0036145.0447214-.0105573.0493979-.0246989.0694203-.0847662.0447214-.1341641zm9 0c-.0096764-.0193527-.0253687-.035045-.0447214-.0447213-.0493978-.0246989-.1094652-.0046765-.1341641.0447213l-.3381966.6763932c-.0069427.0138856-.0105573.0291969-.0105573.0447214 0 .0552285.0447716.1.1.1h.6763932c.0155246 0 .0308359-.0036145.0447214-.0105573.0493979-.0246989.0694203-.0847662.0447214-.1341641zm9 0c-.0096764-.0193527-.0253687-.035045-.0447214-.0447213-.0493978-.0246989-.1094652-.0046765-.1341641.0447213l-.3381966.6763932c-.0069427.0138856-.0105573.0291969-.0105573.0447214 0 .0552285.0447716.1.1.1h.6763932c.0155246 0 .0308359-.0036145.0447214-.0105573.0493979-.0246989.0694203-.0847662.0447214-.1341641z"/><path d="m26.1837397 11-.7641487 1c-.2110139.2761424-.1030468.5.2411511.5s.7652792-.2238576.9405115-.5l.7349009-1.2254262-.7349009 1.2254262c-.1752323.2761424-.0382585.5.3059394.5s.7362725-.2238576.8757232-.5l.7574933-1.5-.7574933 1.5c-.1394507.2761424.0265298.5.3707277.5s.7072659-.2238576.8109349-.5l.5631284-1.5-.5631284 1.5c-.103669.2761424.0913181.5.435516.5s.6782592-.2238576.7461466-.5l.3687636-1.5-.3687636 1.5c-.0678874.2761424.1561064.5.5003043.5s.6492525-.2238576.6813584-.5l.1743986-1.5-.1743986 1.5c-.0321059.2761424.2208946.5.5650925.5s.6202458-.2238576.6165701-.5l-.0199662-1.5.0199662 1.5c.0036757.2761424.2856829.5.6298808.5.344198 0 .5912391-.2238576.5517818-.5l-.2143311-1.5.2143311 1.5c.0394573.2761424.3504712.5.6946692.5.3441979 0 .5622323-.2238576.4869934-.5l-.4086959-1.5.4086959 1.5c.0752389.2761424.4152595.5.7594575.5.3441979 0 .5332256-.2238576.4222051-.5l-.6030608-1.5.6030608 1.5c.1110205.2761424.4800479.5.8242458.5s.5042189-.2238576.3574169-.5l-.7974257-1.5.7974257 1.5c.146802.2761424.5448361.5.889034.5s.4752122-.2238576.2926286-.5l-.7468172-1.2254262.7468172 1.2254262c.1825836.2761424.6096244.5.9538223.5s.4462055-.2238576.2278403-.5l-.7907703-1"/><path d="m31.4337826 59.5-.276231-2.0857864c-.0351239-.2652165.0798764-.5195704.3269766-.7071068l.5787826-.4142136c.2769907-.1875364.4366892-.4418903.4366892-.7071068v-.5857864.5857864c0 .2652165.1596985.5195704.4366892.7071068l.5787826.4142136c.2471002.1875364.3621005.4418903.3269766.7071068l-.276231 2.0857864z"/><path d="m29.1026953 59-.6300404-1.5857864c-.1053717-.2652165-.0577421-.5195704.1396854-.7071068l.4690699-.4142136c.227318-.1875364.3196458-.4418903.249398-.7071068l-.1551572-.5857864.1551572.5857864c.0702478.2652165.297317.5195704.6239804.7071068l.6884952.4142136c.2967729.1875364.4791439.4418903.5142678.7071068l.276231 2.0857864z"/><path d="m29.1026953 59-.6300404-1.5857864c-.0859649-.2531732-.2162884-.7116751-.4726549-.9142136l-.8052038-.6982531c-.2783654-.2025385-.4894071-.4488823-.5968633-.7020555l-.3310872-.7800617.3310872.7800617c.1074562.2531732.1055294.499517-.0009062.7020555l-.2572955.5460432c-.0844368.2025386-.0578973.4488824.0710501.7020556l.6952832 1.365108z"/><path d="m33.5662174 59.5.276231-2.0857864c.0351239-.2652165.2174949-.5195704.5142678-.7071068l.6884952-.4142136c.3266634-.1875364.5537326-.4418903.6239804-.7071068l.1551572-.5857864-.1551572.5857864c-.0702478.2652165.02208.5195704.249398.7071068l.4690699.4142136c.1974275.1875364.2450571.4418903.1396854.7071068l-.6300404 1.5857864z"/><path d="m37.8939355 58.4149537.6952832-1.365108c.1289474-.2531732.1554869-.499517.0710501-.7020556l-.2572955-.5460432c-.1064356-.2025385-.1083624-.4488823-.0009062-.7020555l.3310872-.7800617-.3310872.7800617c-.1074562.2531732-.3184979.499517-.5968633.7020555l-.8052038.8580679c-.2563665.2025386-.38669.5012256-.4726549.7543988l-.6300404 1.5857864z"/><path d="m32.5 9.25c-.6903559 0-1.25-.55964406-1.25-1.25s.5596441-1.25 1.25-1.25 1.25.55964406 1.25 1.25-.5596441 1.25-1.25 1.25z"/><path d="m34.5 9c.5522847 0 1-.44771525 1-1s-.4477153-1-1-1-1 .44771525-1 1 .4477153 1 1 1z"/><path d="m36.1666667 9c.3681898 0 .6666666-.44771525.6666666-1s-.2984768-1-.6666666-1c-.3681899 0-.6666667.44771525-.6666667 1s.2984768 1 .6666667 1z"/><path d="m37.3333333 9c.2761424 0 .5-.44771525.5-1s-.2238576-1-.5-1c-.2761423 0-.5.44771525-.5 1s.2238577 1 .5 1z"/><path d="m30.5 9c.5522847 0 1-.44771525 1-1s-.4477153-1-1-1-1 .44771525-1 1 .4477153 1 1 1z"/><path d="m30.5 9c.5522847 0 1-.44771525 1-1s-.4477153-1-1-1-1 .44771525-1 1 .4477153 1 1 1z"/><path d="m28.8333333 9c.3681899 0 .6666667-.44771525.6666667-1s-.2984768-1-.6666667-1c-.3681898 0-.6666666.44771525-.6666666 1s.2984768 1 .6666666 1z"/><path d="m27.6666667 9c.2761423 0 .5-.44771525.5-1s-.2238577-1-.5-1c-.2761424 0-.5.44771525-.5 1s.2238576 1 .5 1z"/><path d="m27 10.25c0-.1630126.0482519-.32237789.138675-.45801257l.5839749-.87596228c.173273-.25990949.4649778-.41602515.7773501-.41602515.3123723 0 .6040771.15611566.7773501.41602515l.4452998.6679497c.173273.25990949.4649778.41602515.7773501.41602515.3123723 0 .6040771-.15611566.7773501-.41602515l.4452998-.6679497c.173273-.25990949.4649778-.41602515.7773501-.41602515.3123723 0 .6040771.15611566.7773501.41602515l.4452998.6679497c.173273.25990949.4649778.41602515.7773501.41602515.3123723 0 .6040771-.15611566.7773501-.41602515l.4452998-.6679497c.173273-.25990949.4649778-.41602515.7773501-.41602515.3123723 0 .6040771.15611566.7773501.41602515l.5547002.83205029c.1095117.16426752.1679497.35727526.1679497.55470016v.1972244" stroke-linecap="round" stroke-linejoin="round" transform="matrix(1 0 0 -1 0 19)"/><path d="m12.9501074 23.8923275c.5804258 1.5425823.9501075 3.27775.9501075 5.1076725" stroke-linecap="round" stroke-linejoin="round" transform="matrix(-1 0 0 1 26.900214 0)"/><path d="m48 19c2 2 4 5.7436855 4 10 0 4.6410026-2 10-9 20.5" stroke-linecap="round" stroke-linejoin="round"/><path d="m26.5 6.25c0 .41421356.3357864.75.75.75.4142136 0 .75-.33578644.75-.75 0-.41421356.3357864-.75.75-.75.4142136 0 .75.33578644.75.75 0 .41421356.3357864.75.75.75h.25c.5522847 0 1-.44771525 1-1 0-.55228475.4477153-1 1-1 .5522847 0 1 .44771525 1 1 0 .55228475.4477153 1 1 1h.25c.4142136 0 .75-.33578644.75-.75 0-.41421356.3357864-.75.75-.75.4142136 0 .75.33578644.75.75 0 .41421356.3357864.75.75.75.4142136 0 .75-.33578644.75-.75v-.75" stroke-linecap="round" stroke-linejoin="round"/></g></g></svg>