<svg height="64" viewBox="0 0 64 64" width="64" xmlns="http://www.w3.org/2000/svg" xmlns:xlink="http://www.w3.org/1999/xlink"><defs><rect id="a" height="34" rx="1" width="58" x="3" y="10"/><mask id="b" fill="#fff"><use fill="none" xlink:href="#a"/></mask></defs><g fill="none" fill-rule="evenodd" stroke="#fff"><use stroke-width=".5" xlink:href="#a"/><g mask="url(#b)"><g transform="translate(12 11)"><path d="m24.0272087 20.4074074c-.2163419.9214864.1681196 3.8664023.9001512 5.6365085" stroke-width=".7"/><path d="m21.1910476 28.8996817c.7104252-.4835519 1.0656379-1.0598315 1.0656379-1.7288387" stroke-width=".5"/><path d="m24.6356002 2.71933835c1.1249317.86075424 3.5225709.42552083 3.3235784-.46180556" stroke-width=".5"/><path d="m19.6124466.6341059c-.5594351.53198079-.6282417 1.70506962 0 2.2432628" stroke-width=".5"/><path d="m28.1089508 8.4994213c.1311969.82430917-.183343 1.17338354-.9436196 1.04722312-.7316507-.05514865-1.0823314.13452149-1.0520419.56901038 0 .6233574.2396767 1.7163086.7190301 3.2788538.3717341.6376743.4827381 1.0509742.3330118 1.2398999-.2245893.2833884-.7354656.5088794-1.0520419.409148-.1399811.1079019-.1835723.3404692-.1307737.6977018" stroke-width=".7"/><path d="m21.1884145 8.74535681c.7682505-.14053458 1.4785036-.52365452 1.7232286-.53611021.16315-.0083038.8969233.32001109 2.20132.98494466" stroke-width=".5"/><path d="m24.7276174 13.351125c-.7386593.1786358-.7945829.8509484-.4905698 1.2465241.2026754.263717.5757059.4109784 1.1190915.4417841" stroke-width=".5"/><path d="m20.9007918 10.6702338c1.5973994-.67509594 2.5026246-.88744662 3.4752428 0 .0770303.0949161-.045241.2338377-.0872714.288136-.3317312.4285567-1.1142029.4794599-2.347415.1527097" stroke-width=".5"/><path d="m23.4588313 10.1850196c-.4390408.2516351-.2399695.8862429-.0609916 1.2511247" stroke-width=".5"/><path d="m23.1043794 16.3788275c0 .1896554.1781567.5386324.4101327.3590882.231976-.1795441.7216058-.2574832.8275472-.2408679.1059414.0166154.4607218.1615078.6043859.3115378.3908607-.0995281.5538517-.0721456.6469268.0072146.0930751.0793601.272053.4441872.3980877.5105393" stroke-width=".5"/><path d="m24.0563187 17.2960602c.3130061.2495035 1.0907855.2714434 1.2657667.1853376" stroke-width=".5"/><path d="m23.7292418 18.1579318c.628476-.1290969 1.3801396.0035475 1.5446636.1657658" stroke-width=".5"/><path d="m26.0112288 15.2819509c-.1356159.4644099.1203406 1.5734747.1356159 1.7617091.0101835.1254896-.0350218.2319772-.1356159.3194628-.2097658.0951739-.2972564.2374792-.2624718.4269161.0521768.2841552.7110347 1.3551892.0753865 2.0907462-.6356482.7355571-1.8114562.8096156-2.4246569.6077173-.1136064.3095701-.860014 1.2809121-.8985581 1.9883214" stroke-width=".7"/><path d="m26.4022494 10.4306425c.3339024 0 .5856614.0843703.7552771.2531108" stroke-width=".5"/><path d="m27.3409881 9.58331448c0 .53076192-.1733934.86033612-.3122396 1.08027082.0425408.4888957-.3434471 1.636885-.3828124 1.6715367" stroke-width=".5"/><path d="m14.7488806 16.3015193c.7855242 1.9980007 2.7672973 3.736847 5.9453192 5.216539" stroke-width=".5"/><path d="m14.5403122 11.3573752c0-.7340588-.6722147-1.52362242-1.2342821-1.2737189-.5620675.2499036-1.0855307 1.1298271-.907793 1.6885587.1184918.3724878.3316277.8011382.6394077 1.285951" stroke-width=".5"/><path d="m14.553883 12.943605c0-.669873-.8440234-.1179808-1.1029223-.5101978-.1725992-.261478-.0862996-.6600522.2588989-1.1957227" stroke-width=".5"/><path d="m12.8579308 10.3820938c-.1641669.1457332-.9811805 1.3397459-.6972482 2.4590507s.8922458 1.5811002 1.3886992 1.4960015c.3309689-.0567325.7346667.0733927 1.2110933.3903756" stroke-width=".5"/><path d="m23.9372209 10.3161981c.131161.2656496.131161.5658846 0 .900705" stroke-width=".5"/><path d="m12.9613132 16.7450328c.3203338 1.2331308.3093195 8.1169657-.3203339 9.908478-.6781164-.0613297-1.2495161.2610179-1.7141991.9670428-1.56452639.1097094-3.19985056 1.0293499-4.90597248 2.7589217-1.38321807.0989583-4.39196978.7229456-5.64338286 3.2907311" stroke-width=".7"/><path d="m13.0314378 22.608314c-1.5851477-.573042-2.5353184-2.1277874-1.7951545-3.0513985-1.665736-1.1702739-2.34385246-2.6839699-1.665736-3.2907311-.4011057-1.107417.01615437-1.6199846.30674949-1.8085552-.10231102-.4400591-.10231102-.8672293 0-1.2815104-.71397427-.5366962-.89246784-1.0041216-.5354807-1.4022762-.85581455-.534375-.93934-3.04406829-.20192965-3.32939816-.15787227-.65605709.16955971-1.18798868.98229596-1.59579475-.0058401-1.21535494.2317723-1.85931713.7128373-1.93188657-.99003165-1.0566551 1.2600153-3.34149306 2.8449794-2.80473573.6619621-1.30093557 2.3387125-1.41437114 2.9441343-.92122878.5140027-1.18475116 2.368084-.98628472 2.7906677-.49314236 1.4531591-.82941744 4.0125256-.19590085 4.7391052.49314236 1.6363644-.77865548 3.5767247.08466435 3.7569928.92122878 1.0628842.08209877 1.7303535 2.15179398.9176784 2.80473573.5490039.51898148.6341815 1.03075488.2555328 1.53532021.8271773 1.05091307.5329719 1.78271605-.8826161 2.19540895-.6190062.20952289-.8226491-.3900913-.610929-1.79884259-1.2235712-.03396348-1.9456839-.36443544-2.1663379-.99141589-.5677895.39894868-2.2445398.59961419-2.5351349 0-.4279073.77608989-1.2971226 2.36693672-3.4742913 1.37332176.0189079.18618827 0 1.97770061-.9015241 1.69731867-.390275.70608603-.6566385.88732639-1.4559128.70608603-.2799479.78342014-.791197 1.26465084-1.3617401.78342014-.68087.6117091-.8690317.2006655-2.6641863-1.05665509" stroke-width=".7"/><g stroke-width=".5"><path d="m14.6110784 24.1678241c.7292293 1.0430881 1.2351549 1.88289 1.5177766 2.5194058.2826218.6365158.5858222 1.6190133.9096013 2.9474923-1.6165127.6892755-4.0925941.88833-7.42824414.5971635"/><path d="m18.0962005 25.4372396c-.2583476 1.800553-.2583476 3.0328896 0 3.69701 1.2701374-.8607542 2.5540428-2.3887442 2.7234802-3.1915895"/><path d="m16.9874232 10.2674769c.460216 1.2210358-.5663223 1.7364362-.417437 1.7727729 1.1544868.5440875 1.2760051.4878752.616613.9593933.2125769.5730421.3552126 1.1871335-.460216 1.119512"/><path d="m20.526332 3.51723573c-1.7358607.69399112-2.6777707 2.42521219-1.1196081 3.6486304"/><path d="m19.1242059 8.55604745c.6459913-.66980131-.9499872-1.16056134-1.0146046-1.61027199-1.6013021-.29009452-2.0989669.32418017-2.3574369.84389468"/><path d="m10.6227843 8.62385224c1.0090975-.51751543 1.3859717.84609375 1.6334273 1.13637153.4306608-.55294496.8101662-.55294496 1.138516 0"/><path d="m13.0178535 14.4000868c.6351605.7011381.3390582 1.2115066-.2852715 1.3154128 1.0441598.2659047.7482411.911333-.2797644.9815201-1.0280054.0701871-2.14743-.2391493-2.1529371.2926601"/><path d="m24.8283615 14.4468518c.5688872-.1283505 1.1506316.3278507 1.2100448.482516"/><path d="m16.6973253 1.09575762c-.2232104.51961459-.2232104.98407946 0 1.39339463-.8675579.07888577-1.5279719.516567-1.9812422 1.31304368"/><path d="m15.8874389 5.1004705c.108435.34103736-.655776 1.34475036-.9785564 1.33314606-.2151869-.00773619-.3009799.20541949-.2573789.63946704"/><path d="m10.8491178 4.93191517c.4595717.07501767 1.1171677.7299571 1.2049372 1.06402017"/><path d="m15.9847192 12.7733131c.3351092.229429.752254.3268543 1.2514345.2922758"/><path d="m14.5130098 12.0240155c.2969485.2451554.4454228.5706031.2969485.9541896"/></g><path d="m41.653013 33.6083418-2.1432135-3.0558908c-.0328956-.0469041-.0628811-.0957831-.0897874-.1463613l-1.8526031-3.4825057c-.1711785-.3217797-.4610981-.564117-.8081385-.6755047l-.6971127-.2237486c-.2305498-.0739983-.4379662-.2065267-.6019912-.3846413l-1.0070699-1.0935762c-.0885065-.0961092-.1900311-.1793559-.3016182-.2473169l-3.0450751-1.8545696c-.2194004-.1336234-.4713367-.2043044-.7282253-.2043044h-.2304461c-.3441937 0-.6232177.2790241-.6232177.6232177v.0729082c0 .3791913.1538144.7421642.4262637 1.0059015l2.0345414 1.9694839-1.7181961-1.1971732c-.3081363-.2146974-.7319767-.1389504-.9466742.1691858-.0366179.0525545-.0656268.1100191-.0861665.1706901l-.0206884.0611102c-.1658931.4900212-.0480311 1.0315874.306501 1.4083475l.4612416.4901599c.1784389.1896265.1811329.4845625.0061878.6774169-.1993959.2198082-.3098477.5059591-.3098477.8027324v.5764588c0 .1056683-.0119632.2109968-.0356611.3139735l-.0409202.1778146c-.0500927.2176724-.0394999.4449167.0306246.6569853l.5111853 1.5459111c.0999806.3023584.3000579.5615949.5672137.7349284l3.2249265 2.0923667c.1285847.0834271.269997.145172.4185921.1827699l.6147102.1555354c.346246.087608.6459172.3042358.8376807.6055465l.7739253 1.2160397c.4027671.6328527 1.2327699.8357852 1.8821041.4601673" stroke-width=".7"/><path d="m31.7213115 25.3333333s.3341804.1850306 1.0025412.5550918l-.7905913.3775788.8048023-.3455683 1.0950947 1.4397465" stroke-width=".5"/><path d="m26.356057 11.3507038c.2357744-.0723467.4106198-.1885674.5245361-.3486621.1139164-.1600947.1327032-.3196211.0563604-.4785792" stroke-width=".5"/><path d="m24.5405944 24.2364581c.6564577 0 1.8417576.1279613 3.5558998.3838839" stroke-width=".7"/><path d="m29.6688102 30.5747864c-3.313706-1.5630598-4.4765761-4.5257318-4.138185-6.2695784 0 .9103602.6160515 1.9726492 1.1342052 1.7374203.5181537-.235229 2.9059606-4.1897424 3.4882459-4.3482188.5822852-.1584764 5.7443887-.432021 5.65888 4.0138057" stroke-width=".7"/><path d="m30.1459101 27.2840065s.3585131.0645465 1.0755394.1936395l2.8204519 3.271622" stroke-width=".5"/><path d="m29.7773966 29.1846319.9347658.4910707.8368681.7231471" stroke-width=".5"/></g></g><g transform="translate(1 8)"><rect height="43" rx="2" width="61" x=".5" y=".5"/><path d="m.52815515 37.2363063h61.04470315" stroke-width=".5"/><rect height="34" rx="1" stroke-width=".5" width="58" x="2" y="2"/><rect height="2" rx="1" width="23" x="19.5" y="49.5"/><path d="m22.4264317 49.5705434c1.8146671-.7086151 3.1598712-2.7202755 4.0356125-6.0349811"/><path d="m35.4264317 49.5705434c1.8146671-.7086151 3.1598712-2.7202755 4.0356125-6.0349811" transform="matrix(-1 0 0 1 74.888476 0)"/></g></g></svg>