<svg height="62" viewBox="0 0 62 62" width="62" xmlns="http://www.w3.org/2000/svg"><g fill="none" fill-rule="evenodd"><g stroke="#fff"><path d="m18.7140829 21.3840287c-1.4204184-2.3452009-3.777009-3.2345451-7.5864846-2.7628186-3.64512928.4513755-6.6275983 4.5877418-6.6275983 9.0037899 0 1.417944.59010795 2.2209431 1.78780362 2.8728569.27382099.1490425 1.18093617.5714863 1.26385053.6137288.48002271.2445576.76898864.4641326.93251414.7881218.18068839.3579936.25922295.7286845.31304787 1.2885552.00633997.0659464.01120522.1205784.02134899.2373903.07380236.8480927.16233581 1.1085079.48415723 1.2695391.87322382.5190293 1.46290862.5940192 2.79036542.5064479.1013309-.0066876.1013309-.0066876.2039796-.0131844 1.5148406-.0937912 2.4410011.1085963 3.6221667 1.0446825 2.4382886 1.9323692 2.9911426 6.1312355 1.6184359 8.1710187-.7896638 1.1734066-.5194445 2.9133886.441797 3.865631.8330189.8252203 6.694501.8252203 9.0536981-.109624 1.8335587-.7265572 2.3680818-2.9770129 1.7292026-4.875707-.5687047-1.6901416-3.9047389-4.2191883-6.3663653-5.1946206-1.8334703-.7265222-1.9881797-1.6010274-1.472923-4.0932081.1711797-.8279576.2423024-1.3222959.2423024-1.8716281 0-.7912171-.2407863-1.1887705-.8533754-1.6742538-.0592693-.0469715-.2706232-.2098189-.3066759-.2380934-.8037755-.6303651-1.0970773-1.2057797-.8436501-2.2099983.7273006-2.8819666.7273006-4.6787944-.4475975-6.6186258zm3.456024 20.7409713c1.8167458 0 3.023626.6831894 3.023626 2 0 1.3550086-.8138585 2-2.5189008 2-1.4302328 0-1.9198049-.1939955-2.4652675-1.2747075-.7137539-1.4141435.168606-2.7252925 1.9605423-2.7252925z"/><path d="m20.5660212 20.8458432c1.2757866 1.8957643 1.5691006 2.9611803 1.0794359 4.9015023-.3855962 1.5279453.0654135 2.2294417.6707538 1.9296051 1.5626714-.7740209 2.3822472-1.8195948 2.3822472-4.0519506 0-2.4441403-1.1124822-4-2.2759886-4-.6483127 0-1.3389931.1383804-1.7356149.3695032-.3643492.2123166-.4163319.412242-.1208334.85134z"/><path d="m43.2859171 21.3840287c-1.1748981 1.9398314-1.1748981 3.7366592-.4475975 6.6186258.2534272 1.0042186-.0398746 1.5796332-.8436501 2.2099983-.0360527.0282745-.2474066.1911219-.3066759.2380934-.6125891.4854833-.8533754.8830367-.8533754 1.6742538 0 .5493322.0711227 1.0436705.2423024 1.8716281.5152567 2.4921807.3605473 3.3666859-1.472923 4.0932081-2.4616264.9754323-5.7976606 3.504479-6.3663653 5.1946206-.6388792 1.8986941-.1043561 4.1491498 1.7292026 4.875707 2.3591971.9348443 8.2206792.9348443 9.0536981.109624.9612415-.9522424 1.2314608-2.6922244.441797-3.865631-1.3727067-2.0397832-.8198527-6.2386495 1.6184359-8.1710187 1.1811656-.9360862 2.1073261-1.1384737 3.6221667-1.0446825.1026487.0064968.1026487.0064968.2039796.0131844 1.3274568.0875713 1.9171416.0125814 2.8239085-.5246894.2882783-.1427897.3768118-.4032049.4506142-1.2512976.0101437-.1168119.015009-.1714439.0213489-.2373903.053825-.5598707.1323595-.9305616.3130479-1.2885552.1635255-.3239892.4524914-.5435642.9325141-.7881218.0829144-.0422425.9900296-.4646863 1.2638506-.6137288 1.1976956-.6519138 1.7878036-1.4549129 1.7878036-2.8728569 0-4.4160481-2.982469-8.5524144-6.6275983-9.0037899-3.8094756-.4717265-6.1660662.4176177-7.5864846 2.7628186zm-3.456024 20.7409713c1.7919363 0 2.6742962 1.311149 1.9605423 2.7252925-.5454626 1.080712-1.0350347 1.2747075-2.4652675 1.2747075-1.7050423 0-2.5189008-.6449914-2.5189008-2 0-1.3168106 1.2068802-2 3.023626-2z"/><path d="m41.4339788 20.8458432c.2954985-.439098.2435158-.6390234-.1208334-.85134-.3966218-.2311228-1.0873022-.3695032-1.7356149-.3695032-1.1635064 0-2.2759886 1.5558597-2.2759886 4 0 2.2323558.8195758 3.2779297 2.3822472 4.0519506.6053403.2998366 1.05635-.4016598.6707538-1.9296051-.4896647-1.940322-.1963507-3.005738 1.0794359-4.9015023z"/><path d="m30.8919081 38.1070821h.2161838c-.0150136-.0033243-.030636-.0050413-.0462362-.0050413.5219654 0 .9944424-.7582212 1.4641311-2.3113964.0667203-.2206319.4326568-1.5342118.5352668-1.8452482.219575-.6655866.6110366-1.1557049 1.8052539-2.444634.1100574-.1188331.1100574-.1188331.2189516-.2370499.9928539-1.080365 1.4145409-1.702211 1.4145409-2.1616715 0-1.1256857-.6730672-2.0324569-1.7048458-2.55372-.2609177-.1318178-.5766356-.0402995-1.6541308.4567244-.9107588.4201123-1.4470532.5969956-2.0791677.5969956.0156002 0 .0312226-.001717.0462362-.0050413h-.2161838c.0150136.0033243.030636.0050413.0462362.0050413-.6321145 0-1.1684089-.1768833-2.0791677-.5969956-1.0774952-.4970239-1.3932131-.5885422-1.6541308-.4567244-1.0317786.5212631-1.7048458 1.4280343-1.7048458 2.55372 0 .4594605.421687 1.0813065 1.4145409 2.1616715.1088942.1182168.1088942.1182168.2189516.2370499 1.1942173 1.2889291 1.5856789 1.7790474 1.830425 2.6012786l-.0251711-.1566446c.10261.3110364.4685465 1.6246163.5352668 1.8452482.4696887 1.5531752.9421657 2.3113964 1.4641311 2.3113964-.0156002 0-.0312226.001717-.0462362.0050413z"/><path d="m36.5398259 20.5804243c.0323156-.207098-.3999871-1.0804243-.7208308-1.0804243-.1363127 0-.2179638.0291319-.3390165.1161217-.0749591.0538664-.427869.3553782-.5131448.4232083-.2903892.2309813-.5916329.4258897-.9683177.6111351-.2073373.101964-.4324978.1979261-.6787474.2882176-.3260518.1195524-.5830122.1195518-1.4924632.0630933-.3450716-.0214219-.538898-.0305045-.7497115-.0322822-.0333232-.0002304-.0333232-.0002304-.0664986-.0002495-.2288749.0002458-.438693.0097425-.8105514.0331236-.9131019.0574123-1.1689285.0574129-1.499196-.0636852-.2476314-.0907982-.4715957-.1875138-.6756724-.2906314-.3363989-.1699784-.6073374-.3502025-.8613716-.5602641-.1184408-.097939-.4231849-.3765373-.4702557-.4152342-.1597426-.1313242-.265696-.172553-.4919267-.172553-.4226215 0-.7947112.8039137-.7336311 1.0595816.8638845.4004628 1.4903955 1.1398286 1.8713787 2.1875324.0929358.2555735.1158326.3430904.238135.8573781.2463131 1.0357585.6594448 1.2622343 3.4325542 1.2622343 2.89054 0 3.3807421-.2650926 3.7127661-1.3981999.1806978-.6166723.1500271-.515008.2250833-.7214125.3746512-1.0302909.901052-1.7599024 1.5914181-2.1666897z"/><path d="m36.5374748 14.623915c.0399365-.217852-.3984471-1.123915-.7184797-1.123915-.1342825 0-.2145596.0292412-.3350315.1176259-.0750093.0550308-.4279625.3628918-.5131875.4321005-.2903803.2358093-.5916872.4348394-.9685634.6240586-.2074926.1041764-.4328322.2022251-.6792798.2944808-.3277208.1226797-.5850461.1226791-1.4962734.0649262-.3448956-.0218592-.5385795-.0311251-.7491538-.0329379-.0332748-.0002349-.0332748-.0002349-.066399-.0002544-.2285996.0002507-.4382527.0099385-.8099086.033796-.9148652.0587274-1.1710776.058728-1.5030143-.0655299-.2478464-.0927793-.4720037-.1916046-.6762444-.2969653-.3365694-.1736245-.6075507-.3576502-.8615465-.5720766-.1183654-.0999255-.4231135-.3843595-.4702609-.4239306-.1593588-.133751-.2639287-.1752933-.4880104-.1752933-.4221521 0-.7994634.835508-.7312589 1.1028275.8643832.4086268 1.4899713 1.1621024 1.8701241 2.2294064.0926103.2600093.1154297.3490563.2375467.8733132.2477489 1.063604.6602237 1.2944529 3.4320249 1.2944529 2.8890411 0 3.3784489-.2702032 3.7119943-1.4323302.180517-.6289509.1498731-.5252495.2247374-.7354359.3740616-1.0502022.8996041-1.7935352 1.5901847-2.2083189z"/><path d="m36.5374748 8.62391504c.0399365-.21785202-.3984471-1.12391504-.7184797-1.12391504-.1342825 0-.2145596.02924123-.3350315.11762588-.0750093.05503085-.4279625.36289184-.5131875.43210055-.2903803.23580924-.5916872.43483932-.9685634.62405856-.2074926.10417637-.4328322.20222513-.6792798.29448081-.3277208.12267969-.5850461.12267914-1.4962734.06492623-.3448956-.02185923-.5385795-.03112515-.7491538-.03293791-.0332748-.00023489-.0332748-.00023489-.066399-.00025442-.2285996.00025069-.4382527.00993855-.8099086.03379603-.9148652.05872738-1.1710776.05872794-1.5030143-.06552993-.2478464-.09277932-.4720037-.19160457-.6762444-.29696528-.3365694-.1736245-.6075507-.35765022-.8615465-.57207658-.1183654-.09992558-.4231135-.38435953-.4702609-.42393063-.1593588-.13375105-.2639287-.17529331-.4880104-.17529331-.4221521 0-.7994634.83550795-.7312589 1.10282749.8643832.40862681 1.4899713 1.16210238 1.8701241 2.22940641.0926103.2600093.1154297.3490563.2375467.8733132.2477489 1.063604.6602237 1.2944529 3.4320249 1.2944529 2.8890411 0 3.3784489-.2702032 3.7119943-1.4323302.180517-.6289509.1498731-.5252495.2247374-.7354359.3740616-1.05020218.8996041-1.79353515 1.5901847-2.20831886z"/><path d="m36.5374748 2.62391504c.0399365-.21785202-.3984471-1.12391504-.7184797-1.12391504-.1342825 0-.2145596.02924123-.3350315.11762588-.0750093.05503085-.4279625.36289184-.5131875.43210055-.2903803.23580924-.5916872.43483932-.9685634.62405856-.2074926.10417637-.4328322.20222513-.6792798.29448081-.3277208.12267969-.5850461.12267914-1.4962734.06492623-.3448956-.02185923-.5385795-.03112515-.7491538-.03293791-.0332748-.00023489-.0332748-.00023489-.066399-.00025442-.2285996.00025069-.4382527.00993855-.8099086.03379603-.9148652.05872738-1.1710776.05872794-1.5030143-.06552993-.2478464-.09277932-.4720037-.19160457-.6762444-.29696528-.3365694-.1736245-.6075507-.35765022-.8615465-.57207658-.1183654-.09992558-.4231135-.38435953-.4702609-.42393063-.1593588-.13375105-.2639287-.17529331-.4880104-.17529331-.4221521 0-.7994634.83550795-.7312589 1.10282749.8643832.40862681 1.4899713 1.16210238 1.8701241 2.22940638.0926103.2600093.1154297.34905635.2375467.87331328.2477489 1.06360392.6602237 1.29445285 3.4320249 1.29445285 2.8890411 0 3.3784489-.27020325 3.7119943-1.43233024.180517-.62895086.1498731-.52524947.2247374-.73543589.3740616-1.05020215.8996041-1.79353512 1.5901847-2.20831883z"/><path d="m11.1926325 60.5c.2761423 0 .5-.2238576.5-.5v-10.9843633c0-1.441978.5660412-2.6793121 1.6574061-3.8382254.2382014-.2529446.4999384-.4653329.7885-.6480949.2343528-.1484286.4759491-.2717588.7584153-.3943923.1371815-.0595578.5559966-.228668.6177972-.2551137.2083098-.08914.3247719-.1554574.3841632-.2139368 1.0893778-1.0726491.6557715-3.0856912-1.0397571-4.7551829-1.6042973-1.5796614-3.8661464-1.8580509-5.03597595-.7061854-.07054049.0694572-.13634792.2312787-.20850453.5311651-.0122955.0511007-.02421524.1028249-.04882129.2103363-.17652081.7653745-.33050358 1.0770902-.98156313 1.1159494-.29369332-.0336238-.56463572-.1413715-.83582645-.319389-.27609759-.1812386-.47309338-.3598148-.97800205-.85697-.52947236-.5213417-.99844664-.3234391-1.83406615.4993485-.16209368.1596045-.36994241.8365468-.42247755 1.6124728-.06640422.9807677.09936599 1.974954.51748467 2.79835.35813377.7052684 1.18611114 2.0096889 1.24196605 2.1196833.23667607.4660833.33362797.9195329.33362797 1.6021396v12.4824087c0 .2761424.22385763.5.5.5z"/><path d="m50.8073675 60.5h4.0856337c.2761424 0 .5-.2238576.5-.5v-12.4824087c0-.6826067.0969519-1.1360563.333628-1.6021396.0558549-.1099944.8838323-1.4144149 1.241966-2.1196833.4181187-.823396.5838889-1.8175823.5174847-2.79835-.0525351-.775926-.2603839-1.4528683-.4224775-1.6124728-.8356196-.8227876-1.3045938-1.0206902-1.8340662-.4993485-.5049087.4971552-.7019045.6757314-.9780021.85697-.2711907.1780175-.5421331.2857652-.9291534.3213031-.5577326-.0407733-.7117153-.352489-.8882361-1.1178635-.0246061-.1075114-.0365258-.1592356-.0488213-.2103363-.0721566-.2998864-.1379641-.4617079-.2085046-.5311651-1.1698295-1.1518655-3.4316786-.873476-5.0359759.7061854-1.6955286 1.6694917-2.1291349 3.6825338-1.0397571 4.7551829.0593913.0584794.1758534.1247968.3841632.2139368.0618006.0264457.4806157.1955559.6177972.2551137.2824662.1226335.5240625.2459637.7584153.3943923.2885616.182762.5502986.3951503.7885.6480949 1.0913649 1.1589133 1.6574061 2.3962474 1.6574061 3.8382254v10.9843633c0 .2761424.2238577.5.5.5z"/></g><path d="m48.5370907 17.0111193-12.0348669-12.03486701c.0766821-.17474988.1572047-.32924688.2410349-.46434272l12.4905006 12.49050053c-.2371804-.0031486-.4693872-.0002557-.6966686.0087092zm10.4618885 10.4618884 1.7755494 1.7755494c.9672952.9672952.9672952 2.5355906 0 3.5028858l-4.4196347 4.4196347c.1240331.0312877.2477717.0729722.370642.1248223.0498516.0210368.0980666.0426261.144976.0649373l4.2587928-4.2587927c1.1609271-1.1609271 1.1609271-3.0431619 0-4.204089l-2.1642592-2.1642591c.0192074.2453504.0306126.4919375.0339337.7393113zm-15.5172783 22.5712629-10.730258 10.730258c-.9672952.9672952-2.5355906.9672952-3.5028858 0l-10.730258-10.730258c-.4088922-.0958481-.7670544-.2127654-1.0565821-.3512045l11.4362385 11.4362386c1.1609271 1.1609271 3.0431619 1.1609271 4.204089 0l11.4362385-11.4362386c-.2895277.1384391-.6476899.2553564-1.0565821.3512045zm-10.4750395-48.56358071-.2552185-.2552185c-.9672952-.96729518-2.5355906-.96729518-3.5028858 0l-.2486058.24860582c-.1041546-.04432107-.2006486-.08958988-.290325-.13585088-.0637482-.03288548-.1233899-.06583192-.179901-.09930077l.3682302-.36823021c1.1609271-1.16092713 3.0431619-1.16092713 4.204089 0l.3813289.38132887c-.0492821.02727974-.1005292.05428508-.1542029.08123318-.1003565.05038627-.2075691.09951461-.3225091.14743249zm-7.3233352 3.31001248-12.2204169 12.22041693c-.2272814-.0089649-.4594882-.0118578-.6966686-.0087092l12.623773-12.62377295c.1068661.11833246.2045388.25522911.2933125.41206522zm-20.03822006 32.38037523c-.12403316.0312877-.24777173.0729722-.37064208.1248223-.04985157.0210368-.09806652.0426261-.14497599.0649373l-4.25879272-4.2587927c-1.16092713-1.1609271-1.16092713-3.0431619 0-4.204089l2.16425911-2.1642591c-.01920741.2453504-.03061253.4919375-.03393361.7393113l-1.77554946 1.7755494c-.96729518.9672952-.96729518 2.5355906 0 3.5028858z" fill="#fff"/></g></svg>