<svg height="64" viewBox="0 0 64 64" width="64" xmlns="http://www.w3.org/2000/svg" xmlns:xlink="http://www.w3.org/1999/xlink"><defs><path id="a" d="m30 40c-14.8042286-.0447062-28.5-12-29.5-13 .35855092-.2689132.71710185-.5249087 1.09005741-.7812609 1.70739366-1.1735826 3.71668217-2.3546417 7.40994259-4.8168153 4.5-3 8-6.4019238 11.5-5.4019238s7 2.5 9.5 2.5c2.5.1781697 6-1.3218303 9.5-2.3218303s7 2.4019237 11.5 5.4019237c3.6932604 2.4621737 5.7025489 3.6432328 7.4099426 4.8168154.3729556.2563522.7315065.5123477 1.0900574.7812609-1 1-14.6957714 12.8665365-29.5 12.8218303z"/><mask id="b" height="25.178" width="60" x="-.5" y="-.5"><path d="m0 15.322h60v25.178h-60z" fill="#fff"/><use xlink:href="#a"/></mask></defs><g fill="none" fill-rule="evenodd" transform="translate(2 7)"><path d="m.5 27c2.5 0 5 2 7.5 4s9 7.5 22 7.5 19-6.5 21.5-8.5 5.5-3.5 7.5-3" stroke="#fff" stroke-linecap="round" stroke-linejoin="round"/><path d="m1.94773634 26.5217277c1.49277575.0436712 2.91597981 1.4782723 4.05226366 1.4782723 1.5 0 8-2 10-1.5s5.5 2 8 2 2.5-1 3-1 2 1 3 .5 2 .5 3 0 1.5.5401235 2.5 0 5.5-1.5 7.5-1.5 6.5 1.0401235 9 1 4.5-1.5 6.5-.5" stroke="#fff" stroke-linecap="round" stroke-linejoin="round" stroke-width=".5"/><path d="m59 27c-2.3333333-1.6666667-4.8333333-3.1666667-6.5-3.5-2.5-.5-10-5.5-14-5.5s-5 2-8.5 1.5-5.5-1.5-9-1.5-10 3-13.5 5-4.5 2-7 4" stroke="#fff" stroke-linecap="round" stroke-linejoin="round"/><use mask="url(#b)" stroke="#fff" stroke-dasharray="2 1" xlink:href="#a"/><path d="m38.1579128 14.4888346-7.9419681-13.61480236c-.0964695-.16537632-.3354199-.16537632-.4318894 0l-7.8537463 13.46356506c.1580894.0483158.3205715.0987316.4901572.152048l7.5795338-12.99348659 7.6672702 13.14389179c.1707777-.0533381.333155-.1033976.4906426-.1512159zm12.4773029 21.3896622 7.580729 12.9955354c.0972208.1666642-.022997.3759678-.2159447.3759678h-56c-.19294771 0-.31316548-.2093036-.21594473-.3759678l7.6336481-13.0862538c.14508737.0826314.29025176.1645549.4354899.2457633l-7.41793402 12.7164583h55.12948155l-7.3659163-12.627285c.1455359-.0806978.2910029-.1621029.4363912-.2442182z" fill="#fff" fill-rule="nonzero"/><g stroke="#fff"><path d="m6 9v10l-2-2" stroke-linecap="round" stroke-linejoin="round" stroke-width=".5"/><path d="m56 9v10l-2-2" stroke-linecap="round" stroke-linejoin="round" stroke-width=".5"/><path d="m7 35-3 2.8777161.25543222-2.2554322" stroke-linecap="round" stroke-linejoin="round" stroke-width=".5"/><path d="m30.5432339 42.3607716-.0864678 4.1561729-1.4142135-1.7754493" stroke-linecap="round" stroke-linejoin="round" stroke-width=".5"/><path d="m55.7445678 35.6222839.2554322 2.2554322-3-2.8777161" stroke-linecap="round" stroke-linejoin="round" stroke-width=".5"/><path d="m30 28c1.6666667-.6666667 2.5-1.5 2.5-2.5" stroke-linecap="round" stroke-linejoin="round" stroke-width=".5"/><path d="m27 27.5c.5-.5 1-1.5 1-2.5" stroke-linecap="round" stroke-linejoin="round" stroke-width=".5"/></g></g></svg>