<svg height="64" viewBox="0 0 64 64" width="64" xmlns="http://www.w3.org/2000/svg"><g fill="none" fill-rule="evenodd" stroke="#fff" transform="translate(1 2)"><path d="m25.6044126 27.1953842c8.6180791-2.3425907 15.6044126-7.8406098 15.6044126-12.2801694 0-4.4395595-6.9863335-6.13948862-15.6044126-3.7968979-8.6180791 2.3425907-15.6044126 7.8406099-15.6044126 12.2801694 0 4.4395596 6.9863335 6.1394887 15.6044126 3.7968979z" stroke-linecap="round" stroke-linejoin="round"/><path d="m25.8600699 25.9423676c7.6547052-1.9812349 13.8600699-6.7391115 13.8600699-10.6270147 0-3.8879033-6.2053647-5.43356337-13.8600699-3.4523285-7.6547052 1.9812349-13.8600699 6.7391115-13.8600699 10.6270147 0 3.8879033 6.2053647 5.4335634 13.8600699 3.4523285z" stroke-linecap="round" stroke-linejoin="round" stroke-width=".5"/><path d="m20.7778607 50.4817952c-1.1320086-.7269538-1.7778607-1.737465-1.7778607-2.9917561 0-3.8879032 6.2053647-8.6457798 13.8600699-10.6270147s13.8600699-.4355748 13.8600699 3.4523285c0 .7870759-.2543137 1.6098059-.7234819 2.4379351-.1566956 3.5479021-5.8035746 7.8282149-12.7466579 9.6252637-6.1294555 1.586461-11.2486989.7146235-12.4721393-1.8967565z" stroke-linecap="round" stroke-linejoin="round"/><path d="m32.8600699 50.9423676c-7.6547052 1.9812349-13.8600699.4355748-13.8600699-3.4523285 0-3.8879032 6.2053647-8.6457798 13.8600699-10.6270147s13.8600699-.4355748 13.8600699 3.4523285c0 3.8879032-6.2053647 8.6457798-13.8600699 10.6270147zm.3899301-.6522088c6.6688286-1.6295738 12.0749823-5.5429469 12.0749823-8.7407633s-5.4061537-4.4691282-12.0749823-2.8395543c-6.6688286 1.6295738-12.0749823 5.5429469-12.0749823 8.7407633s5.4061537 4.4691282 12.0749823 2.8395543z" stroke-linecap="round" stroke-linejoin="round" stroke-width=".5"/><path d="m32.7974277 50.7003429c7.5568669-1.9559119 13.6727121-6.6451506 13.6727121-10.38499 0-3.6547716-6.0285365-5.1563865-13.5474277-3.2103038-7.556867 1.9559119-13.6727121 6.6451506-13.6727121 10.38499 0 3.6547716 6.0285364 5.1563865 13.5474277 3.2103038z" stroke-width=".5"/><g stroke-linecap="round" stroke-linejoin="round"><path d="m26.3140412 22.4166513c.7257249-.1878363 1.3140412-.6389195 1.3140412-1.0075227 0-.3686031-.5883163-.5151436-1.3140412-.3273072-.7257249.1878363-1.3140412.6389195-1.3140412 1.0075227 0 .3686031.5883163.5151436 1.3140412.3273072z" stroke-width=".5"/><path d="m15.3140412 32.4166513c.7257249-.1878363 1.3140412-.6389195 1.3140412-1.0075227 0-.3686031-.5883163-.5151436-1.3140412-.3273072-.7257249.1878363-1.3140412.6389195-1.3140412 1.0075227 0 .3686031.5883163.5151436 1.3140412.3273072z" stroke-width=".5"/><path d="m7 27.0780875c.55228475-.1429456 1-.486225 1-.766736 0-.2805111-.44771525-.3920301-1-.2490845-.55228475.1429455-1 .4862249-1 .766736s.44771525.39203 1 .2490845z" stroke-width=".5"/><path d="m24 48.0780875c.5522847-.1429456 1-.486225 1-.766736 0-.2805111-.4477153-.3920301-1-.2490845-.5522847.1429455-1 .4862249-1 .766736s.4477153.39203 1 .2490845z" stroke-width=".5"/><path d="m42 41.0780875c.5522847-.1429456 1-.486225 1-.766736 0-.2805111-.4477153-.3920301-1-.2490845-.5522847.1429455-1 .4862249-1 .766736s.4477153.39203 1 .2490845z" stroke-width=".5"/><path d="m47.0228729 18.1393586c.7257249-.1878363 1.3140412-.6389195 1.3140412-1.0075227 0-.3686031-.5883163-.5151435-1.3140412-.3273072-.725725.1878363-1.3140412.6389195-1.3140412 1.0075227 0 .3686031.5883162.5151436 1.3140412.3273072z" stroke-width=".5"/><path d="m40.6764486 16.9316844c-1.5067193-2.7960241-7.0400979-3.7737978-13.6356255-2.1363903-5.9823612 1.4851828-11.0908829 4.6880191-13.1133764 7.9154227" stroke-width=".5"/><path d="m13.6518555 17.2285156c-4.50000003 3.5-5.6518555 6.7714844-7.6518555 9.2714844-1 1.5-1.5 2.5-.5 3s9.5 6 10 6.5 1 1 1 2c.5-.5 2-1.5 3-1.5s10 1 17-3 9-8.5 10-9.5 7-5 15.5-5.5"/><path d="m26 11c7.5-2 13-1 14.5-1s15.5-2.5 18.5-3.5"/><path d="m16 36c1-.5 2.5-1 3-1s10.5 0 17-4 8.5-7.5 10-9 6.1885773-3.3744934 7.4855957-3.6540527"/><path d="m21.5 37-1-2 1.1125407-3.7084689.0000119.0000035c.2297011-.7656705.8932697-1.3210193 1.6874322-1.4122328 4.1137488-.472485 7.6804206-1.7655856 10.7000152-3.8793018 2.7579662-1.9305763 4.9454541-3.6329613 6.5624636-5.107155l-.0000036-.000004c.5866982-.5348805 1.4342263-.6720915 2.1597213-.3496493l3.2778187 1.4568083v4" stroke-width=".5"/><path d="m26.5249913 22.334769 9.9750087-3.834769-10.2032223 2.5409029" stroke-width=".5"/><path d="m26.9850361 20.8728489-6.6140509-1.2078098 4.6611018 2.6219953" stroke-width=".5"/><path d="m42.4461676 18.9517184c.5413178-.7960067 1.0721869-1.9553459 1.0826357-3.0424936" stroke-width=".5"/><path d="m51.0053711 21.2739258c.2868652-1.1472168.3256836-2.1000977 0-2.9086914-.3256836-.8085938-6.5053711-7.3652344-9.0053711-8.3652344"/><path d="m14.5 37c-3.5 3-7 6.5-11.5 17.5"/><path d="m16.5 38c-3.5 3-7 6.5-11.5 17.5"/><path d="m5 29c-1.33333333.3333333-3 2-5 5"/><path d="m15.2712674 39.0917969c.4858217-.3945313.2287326-1.0917969-.7712674-2.0917969s-3.6666667-2.8333333-8-5.5" stroke-width=".5"/><path d="m31 30c-1.1461044.6348393-3.1721225 1.1122286-6.0780541 1.4321682l-.000002-.0000178c-.4152113.0457143-.7582652.3446929-.8602914.7497619l-.6285689 2.495573.7994388.8290602" stroke-width=".5"/><path d="m37.2566993 26.1400397c1.1908104-.692938 2.5073284-1.6709538 3.9495539-2.9340474l-.0000131-.0000149c.5299466-.4641245 1.264983-.6152252 1.9350384-.3977841l1.6638064.5399255v1.274614" stroke-width=".5"/><path d="m15 31.1765422v-9.1765422" stroke-dasharray="2 1" stroke-width=".5"/><path d="m47 17.1765422v-9.1765422" stroke-dasharray="2 1" stroke-width=".5"/><path d="m24 47.8780775v-8.8780775" stroke-dasharray="2 1" stroke-width=".5"/><path d="m42 40.8780775v-8.8780775" stroke-dasharray="2 1" stroke-width=".5"/><path d="m7 25.1765422v-9.1765422" stroke-dasharray="2 1" stroke-width=".5"/><path d="m39 9.17654219v-9.17654219" stroke-dasharray="2 1" stroke-width=".5"/></g></g></svg>