<svg height="64" viewBox="0 0 64 64" width="64" xmlns="http://www.w3.org/2000/svg"><g fill="none" fill-rule="evenodd" transform="translate(6 2)"><g stroke="#fff"><path d="m34.5 14c.5906069-.8859104.5271828-2.4258517-.1902722-4.61982404l.0000268-.00000875c-.1630985-.49875377-.6839631-.7866151-1.1930397-.65934595-.7444766.18611916-1.1167149.27917874-1.1167149.27917874-1 0-3 0-4.5.5s-2.5 2-3 3.5c-.3333333 1-.5 2.6666667-.5 5"/><path d="m22.187108 49.3044711c-.3352745 1.6320844-.0266401 3.5024434.4896687 4.0187522.4914991.4914991 2.8951703.8612947 3.7114199.4531699.5930263-.2965131 1.6404787-1.1806108 3.1211486-2.6413628z" stroke-width=".5"/><path d="m35 56.5 1.5-.5" stroke-width=".5"/><path d="m27.5 57c-1-1-2.5-1.5-3.5-1" stroke-width=".5"/><path d="m20.7984725 51.2322625c-.3033333.9811807-.5484725 2.1698375-.5484725 2.7677375 0 .4087809.2560059.9230785.6378143 1.1753447.4296414.2838703.9952464.2550404 1.6954734-.1902662-.6336814-.5484646-1.0868079-1.2294214-1.3850652-2.0164891-.222992-.588451-.3416897-1.1269882-.39975-1.7363269z" stroke-width=".5"/><path d="m24.0049108 15.5c-.3333333.6666667-.8333333 1.1666667-1.5 1.5-1 .5-4 1-6 1s-6.99999996-2-7.99999996-3-2-3-.5-6.5c3.49999996-8 8.99508916-8.5 10.99508916-8.5s6.5 2 8.5 3 5.9950892 3.5 6 4c-.0049108 0-.9950892 0-2.9950892.5s-4 2.5-5 3.5" stroke-linecap="round"/><path d="m29 8.5c-3 .5-7.5-.5-9 3-.624628 1.4574654-1 6 .5 6" stroke-width=".5"/><circle cx="24" cy="12" r="1" stroke-width=".5"/><path d="m37 13c0 2-2.5 5.5-3.5 7s-1.5 3-2 5.5-1 9-2 12.5-1 4-1 5.5 0 4 .5 5.5c.3333333 1 .6666667 1.6666667 1 2 1.3333333 1 2.3333333 1.6666667 3 2s1.5.8333333 2.5 1.5c3 1.3333333 4.6666667 2.1666667 5 2.5.5.5 1 1.5 1 2s-1 1-1 1-1.5-.5-2.5-.5-.5.5-1 .5-7.5 0-8.5-.5-.5-1 0-1.5c-.3333333-.6666667-1.5-1-3.5-1-1.3333333 1-2.5 1.3333333-3.5 1-1.5-.5-3-1.5-3-3.5s1.5-5.5 1.5-6c.5-3.5 1-12 .5-14.5-.5-2-1-6.5-1-8.5s1.2166084-5.1489457 3-6.5c3.701869-2.8044462 6.5599147-4.6754387 8.5741374-5.6129775l-.0000063-.0000134c.4589292-.2136129 1.0050998-.0506004 1.271871.3796083.303179.4889217.687845.7333826 1.1539979.7333826.5723289 0 1.1446578-.4913406 1.7169867-1.4740217l.0000237.0000137c.2015538-.3460651.590138-.5384998.9875552-.4890571.5302896.0659735.7954344.2203285.7954344.4630651z"/><path d="m32.5 14s1.0111391 1.9944304 2 1.5c1-.5 1.5-2.5 1.5-3"/><path d="m24.8603348 26.3500424c-.6499281 1.8519227-1.7395939 6.9550175-2.1115755 10.6748335-.3137892 3.1378924-.4796428 7.4661416-.4972003 12.9829566 1.0876741-2.1336982 1.9224335-4.6525498 2.5032958-7.5568615.79586-3.9792997.7010573-11.2414809.10548-16.1009286z" stroke-width=".5"/><path d="m40.5 59.5-.4037152-.8074304c-.3870548-.7741096-1.0147448-1.4017996-1.7888544-1.7888544l-1.8074304-.9037152c-.3333333-1.3333333-.5-1.8333333-.5-1.5 0 .5-.5 1.75-1 2-.3333333.1666667-2.5.6666667-6.5 1.5" stroke-width=".5"/><path d="m22.5 41c.5 1.5 1 2 2 2" stroke-width=".5"/><path d="m30.9842037 7.38524405c1 0 1.6719321.37158532 2.0157963 1.11475595"/><path d="m23.5 9c-1.5 1-1.5 3-1 4 .3333333.6666667 1 1 2 1" stroke-linecap="round" stroke-width=".5"/></g><path d="m8.79501625 4h-7.79501625c-.55228475 0-1 .44771525-1 1v50c0 .5522847.44771525 1 1 1h16.2159515c-.049802-.1615408-.091319-.3281909-.1242065-.5h-15.891745c-.38659932 0-.7-.3134007-.7-.7v-49.6c0-.38659932.31340068-.7.7-.7h7.25319241c.11269154-.17083461.22664445-.33747907.34182384-.5zm23.43060065 0h18.7743831c.5522847 0 1 .44771525 1 1v50c0 .5522847-.4477153 1-1 1h-9.3800591c-.0196985-.0206157-.0394623-.0408418-.0592807-.0606602-.1286877-.1286876-.320363-.2733838-.5831774-.4393398h9.8225172c.3865993 0 .7-.3134007.7-.7v-49.6c0-.38659932-.3134007-.7-.7-.7h-17.8729706c-.2216929-.16585129-.4563217-.33285763-.7014125-.5z" fill="#fff"/></g></svg>