<svg height="64" viewBox="0 0 64 64" width="64" xmlns="http://www.w3.org/2000/svg"><g fill="#fff" fill-rule="evenodd" transform="translate(13 2)"><path d="m13.1645941 46.5518963-1.6383041-1.1471529-.2867882.4095761c-.3167775.4524051-.9403233.5623531-1.39272851.2455756l-9.01067249-6.3093408c-.45240518-.3167775-.56235312-.9403233-.2455756-1.3927285l1.14715287-1.6383041c.31677752-.4524052.9403233-.5623531 1.39272848-.2455756l9.01067245 6.3093408c.4524052.3167775.5623532.9403233.2455756 1.3927285l-.2867882.409576 1.6383041 1.1471529 1.9348441-2.7632437-12.6730146-8.8737404 2.86788218-4.0957602 13.10643272 9.177223-2.1284554 3.0397492c.2502523-.2909199.552985-.5453214.9041405-.7480611 1.2592162-.7270088 2.7824107-.5826224 3.8713167.2460592 4.4078945-1.5057154 6.8516469-5.0298078 7.3825444-9.2769877.4901755-3.9214045-1.8494768-7.4234363-4.9804778-7.0587135l-1.1993139 1.6768855-1.0152306-.6950297-1.1456884 1.6362126.409576.2867882c.2262026.1583888.2811766.4701617.1227878.6963642l-1.1471529 1.6383041c-.1583887.2262026-.4701616.2811766-.6963642.1227878l-.409576-.2867882-.8603647 1.2287281c-.1583887.2262026-.4701616.2811765-.6963642.1227878l-1.4339411 2.0478801c-.1583888.2262026-.4701617.2811766-.6963642.1227878l-1.6383041-1.1471529c-.2262026-.1583887-.2811766-.4701616-.1227878-.6963642l1.4339411-2.0478801c-.2262026-.1583888-.2811766-.4701617-.1227879-.6963643l.8603647-1.228728-.819152-.5735765-.8603647 1.2287281c-.1583888.2262026-.4701616.2811766-.6963642.1227878l-2.0075176 2.8670322c-.1583887.2262026-.4701616.2811765-.6963642.1227878l-2.45745614-1.7207293c-.22620259-.1583888-.28117656-.4701617-.1227878-.6963643l2.00751754-2.8670321c-.22620261-.1583888-.28117658-.4701617-.12278782-.6963643l.86036462-1.228728-1.22872803-.8603647c-.22620259-.1583888-.28117656-.4701616-.1227878-.6963642l1.14715283-1.6383041c.1583888-.2262026.4701617-.2811766.6963643-.1227878l3.9238968 2.7475421c.7348258-.1435769 1.5343372-.3744921 2.3978661-.6931991l-2.2685263-1.5530395 8.7954881-12.28131997 1.4435699.98827207.8918048-1.25228931c-.3768611-.50466103-.4073753-1.2138049-.0263865-1.75791324l.4301823-.61436404c-.3393039-.23758314-.4217648-.70524247-.1841817-1.04454636l1.7207293-2.45745613c.2375832-.33930389.7052425-.42176485 1.0445464-.18418171l1.0037588-1.43351607c.4751662-.67860778 1.4104849-.84352969 2.0890927-.36836342l.2867882-.40957602c.3167775-.45240518.9403233-.56235312 1.3927285-.24557561l1.6383041 1.14715288c.4524051.31677752.5623531.9403233.2455756 1.39272848l-.2867882.40957602c.6786077.47516628.8435296 1.41048495.3683634 2.08909272l-1.0037588 1.43351608c.3393039.23758314.4217649.70524247.1841817 1.04454636l-1.7207293 2.45745617c-.2375831.3393038-.7052425.4217648-1.0445464.1841817l-.4301823.614364c-.3541306.5057509-.9638473.7261811-1.5324008.6089657l-.3253882.4621661c1.3208606.3916118 2.4454374 1.3825603 2.9528153 2.7765696.8500163 2.3354005-.3541256 4.9176911-2.6895261 5.7677074-.1691434.0615631-.3395818.1123512-.5105633.1527148 3.1182328 2.9758987 4.8694618 8.2418999 3.45462 13.7421411-1.3719026 5.3333136-4.4788551 9.3032763-8.6553108 11.6718117l-.493808-.8695709c3.9446828-2.2369154 6.8775279-5.9854482 8.1806468-11.0513634 1.4303876-5.5606757-.6000377-10.8351356-3.8933512-13.3892256-.5309203-.0451673-1.0466669-.1844983-1.523628-.4069827l-2.3427199 3.2756004c3.4196461.1824715 5.7600749 4.0471796 5.240074 8.2071866-.5591655 4.4733244-3.1043808 8.2319335-7.6190465 9.9445777.0541449.0783326.1055459.159486.1539965.2434049l4.6814571 8.2438081c.17768.3128855.5097549.5061919.8695709.5061919h2.4178831c1.1045695 0 2 .8954305 2 2v3h1v4h-31v-4h1v-1.5c0-1.1045695.8954305-2 2-2h9.5449321c.4843216 0 .9614432-.1172592 1.3905914-.3417571 1.468107-.7680024 2.0356539-2.5807273 1.2676515-4.0488343l-1.2342639-2.3594086c-.366873-.6354427-.5118409-1.3381088-.4589474-2.0182659l-3.1733705 4.5320427-.819152-.5735764zm3.5392674-24.8975446 5.8772481 4.0235804 3.6653099-5.1179472c-.6657883-.5140405-1.1790561-1.2082947-1.4746933-2.0205513-.7967298-2.1889971.2110255-4.6082074 2.2852795-5.5981766.0224682-.0107234.0450616-.021279.0677792-.0316648.040603-.0185625.0816028-.0365826.1229939-.0540482l.1943855.4606672-.4689073-.1735682c.0262674-.0709633.0540842-.1381947.0837487-.201386.0093429-.0199024.0188691-.039404.0285879-.0584953.1673244-.3286853.3917343-.5357287.7207637-.5719959l.0547806.49699-.2824521.4125782-3.2440994-2.2209195zm-5.4231471 22.3576633.2867882-.4095761-9.01067249-6.3093408-1.14715287 1.6383041 9.01067246 6.3093408.2867882-.409576-1.22872802-.8603647.57357642-.819152zm5.6251634-3.6242044.6757086-.965012-11.46812861-8.0300701-.73711637 1.0527113zm-.2867967.409588-11.52953629-7.9423708-.69681633.9951568 11.46812862 8.0300701zm14.1855385-37.74426089-.6831143.97558827c.1768105-.02117513.3617641.02017449.5191139.13035199.3393038.23758314.4217648.70524247.1841817 1.04454636l-1.7207293 2.45745613c-.2375832.33930389-.7052425.42176485-1.0445464.18418171-.1573498-.1101775-.2594636-.26983461-.3000382-.44322445l-.5397202.77080026c-.1583887.22620259-.1034147.53797548.1227879.69636424l3.2766081 2.29430578c.2262026.1583887.5379755.1034148.6963643-.1227878l.5397201-.7708003c-.1768105.0211751-.361764-.0201745-.5191138-.130352-.3393039-.23758313-.4217649-.70524246-.1841817-1.04454635l1.7207293-2.45745613c.2375831-.33930389.7052425-.42176485 1.0445463-.18418171.1573498.1101775.2594636.26983461.3000382.44322445l.6831143-.97558827zm.2867882-.40957603 4.0957602 2.86788219.1433941-.20478802c.1583888-.22620259.1034148-.53797548-.1227878-.69636424l-3.2766082-2.29430574c-.2262025-.15838876-.5379754-.10341479-.6963642.1227878zm-1.3786419 9.10605492-2.5101732-1.75764217-.8398024 1.17926657 1.5137877 1.0322314.4870471.3413258c.2719319-.039111.5458519-.0529642.818741-.0418267zm-.9358451-7.97993336-1.7207294 2.45745613c-.0791943.1131013-.0517073.26898774.0613939.34818212.1131013.07919438.2689878.05170739.3481822-.0613939l1.7207293-2.45745613c.0791944-.1131013.0517074-.26898774-.0613939-.34818212s-.2689878-.0517074-.3481821.0613939zm1.228728.86036465-1.7207293 2.45745613c-.0791944.1131013-.0517074.26898775.0613939.34818213.1131013.07919437.2689878.05170739.3481821-.06139391l1.7207293-2.45745613c.0791944-.1131013.0517074-.26898774-.0613939-.34818212s-.2689877-.05170739-.3481821.0613939zm3.2766082 2.29430575-1.7207293 2.45745613c-.0791944.1131013-.0517074.26898774.0613939.34818212s.2689877.05170739.3481821-.0613939l1.7207293-2.45745613c.0791944-.1131013.0517074-.26898774-.0613939-.34818212s-.2689877-.0517074-.3481821.0613939zm1.2287281.86036465-1.7207293 2.45745611c-.0791944.1131013-.0517074.2689878.0613939.3481821.1131013.0791944.2689877.0517074.3481821-.0613939l1.7207293-2.45745609c.0791944-.1131013.0517074-.26898774-.0613939-.34818212s-.2689878-.05170739-.3481821.0613939zm.7380018-4.97673118-1.6383041-1.14715287-.2867882.40957602 1.6383041 1.14715287zm-17.1939663 21.53195639c-.6239755.2351673-1.219737.4283964-1.7874944.5795448l3.5764721 2.5042727.8603647-1.228728zm-7.5496956-1.0136427 9.0106725 6.3093408.5735765-.8191521-9.0106725-6.3093408zm-1.39357848 6.3488533 1.63830408 1.1471529 1.7207293-2.4574561-1.6383041-1.1471529zm1.88472968-3.5633964 2.4574562 1.7207293.5735764-.819152-2.4574561-1.7207293zm4.9149123 3.4414587 1.6383041 1.1471528.5735764-.819152-1.6383041-1.1471529zm-.4920012 3.3178207 1.1471528-1.638304-.819152-.5735765-1.1471529 1.6383041zm14.7787718-12.5810243c1.8164227-.6611238 2.7529775-2.669572 2.0918537-4.4859947s-2.669572-2.7529774-4.4859947-2.0918537c-1.8164227.6611238-2.7529774 2.669572-2.0918537 4.4859947.6611238 1.8164227 2.669572 2.7529775 4.4859947 2.0918537zm-11.9481591 22.0449237c-1.1957316.6903559-1.6054194 2.2193319-.8950079 3.451533l1.2342639 2.3594086c1.0240032 1.957476.267274 4.3744426-1.690202 5.3984458-.5721976.2993305-1.2083598.4556761-1.8541219.4556761h-9.5449321c-.55228475 0-1 .4477153-1 1v1.5h27v-3c0-.5522847-.4477153-1-1-1h-2.4178831c-.7196319 0-1.3837818-.3866129-1.7391418-1.0123839l-4.6795502-8.2404501c-.6911343-1.1935445-2.2186385-1.6020398-3.4134249-.9122295zm-14.75 15.1650635v2h29v-2z" fill-rule="nonzero"/><path d="m19.5 46.5c-1.1045695 0-2-.8954305-2-2s.8954305-2 2-2 2 .8954305 2 2-.8954305 2-2 2zm12.963105-40.1492228-1.7207294 2.45745613c-.2375831.33930389-.7052424.42176485-1.0445463.18418171s-.4217649-.70524247-.1841817-1.04454636l1.7207293-2.45745613c.2375831-.33930389.7052425-.42176485 1.0445464-.18418171.3393038.23758314.4217648.70524247.1841817 1.04454636zm-19.6339765 42.1191195-.61248-.22272 4.0230237-5.7471767h.2603278c.0424383 0 .0847681-.0001343.1269896-.0004025-.4250643.6113557-.6440843 1.3445887-.6266034 2.0860333l-2.2001781 3.1431116c1.0745373.2911352 2.3051174.3948484 3.605208.3114728l.2977589.5691934c.0679385.1298706.1254257.2624379.1727629.3967403-1.8480354.1680941-3.5970472-.0090659-5.0468094-.5362522zm6.1675314-26.8544672 3.6233375-5.2823636.4123227.282825-3.6199951 5.277491 1.2971408.867389-.2779329.415636-2.3660837-1.5821836 6.3152095-9.18695.4120381.2832395-6.0283146 8.7695942zm11.1146264-1.5621955-.1710101-.4698463c1.4267657-.5193002 2.1624117-2.0968983 1.6431115-3.5236639-.5193002-1.4267657-2.0968983-2.1624117-3.5236639-1.6431115l-.1710101-.4698463c1.6862546-.6137465 3.5507738.2556931 4.1645203 1.9419477s-.2556931 3.5507738-1.9419477 4.1645203zm-6.8308444 29.8332484.4311374-.2532204 1.442803 2.4565412c.6734474 1.1466232 1.9037648 1.8508472 3.2335303 1.8508472h1.8058398v.5h-1.8058398c-1.5070675 0-2.9014273-.7981205-3.6646677-2.0976268zm-3.7804419-4.3864824c.5522847 0 1-.4477153 1-1s-.4477153-1-1-1-1 .4477153-1 1 .4477153 1 1 1zm12.1439529-39.72279924-1.7207293 2.45745614c-.0791944.11310129-.0517074.26898774.0613939.34818212s.2689877.05170739.3481821-.0613939l1.7207293-2.45745614c.0791944-.11310129.0517074-.26898774-.0613939-.34818212s-.2689877-.05170739-.3481821.0613939z"/></g></svg>