<svg height="64" viewBox="0 0 64 64" width="64" xmlns="http://www.w3.org/2000/svg"><g fill="none" fill-rule="evenodd"><path d="m19 21.1123147v.3876853l.2717931-.4076896c.0019372-.0011755.0020695-.0022393.002202-.003303l.7260049-1.0890074.5591757-.1315708c-.1707702.5133806-.2815449 1.094525-.333632 1.7445852-.0204448.255156-.2302928.4536634-.4861902.4599155-7.2394693.1768759-11.15291587 7.467711-8.0986272 12.9324444 2.3735234 4.2467081 7.4361537 5.4739724 11.6461046 3.7764125-1.876342-3.780649.5583803-7.790252 4.5015184-8.9810986-.9331706-1.5599079-1.0598715-2.9244016-.235257-4.5670179.0619459-.1233951.2121945-.1732095.3355896-.1112636.1233951.061946.1732095.2121946.1112636.3355897-.7609972 1.5158918-.627062 2.7326261.2918829 4.2080519 1.0424398-.2434475 2.1763696-.2930921 3.3545118-.0975224.2724146.0452204.4565919.3027145.4113715.5751291s-.3027144.4565919-.5751291.4113715c-5.3875608-.8943264-9.617044 3.9630542-7.069201 8.203242.0021785.0035179.0043183.0070708.0064186.0106582 1.1815492 1.9582297 2.9608555 3.0235202 5.0908298 3.3549942 1.4925428.2322748 3.1367662.0446296 3.724914-.2482652 1.7118814-.8525087 2.6062272-1.6622904 4.0560346-3.5831905 1.4408835-2.3918436 4.2231503-3.4443332 7.0711324-2.751825.1170336-.5640125.4431742-1.1657501.9910251-1.9842314.1536023-.2294796.4641517-.2909904.6936314-.137388.2294797.1536023.2909904.4641517.137388.6936314-.642271.9595436-.9092162 1.5412842-.8657674 2.0217085.0007036.0059771.0012997.011975.0017869.017991.0514761.4707394.4928332.9184559 1.6183451 1.4789554.2471872.1230981.3477813.4232735.2246833.6704606-.123098.2471872-.4232735.3477813-.6704606.2246833-1.2253134-.6102001-1.8926806-1.2090425-2.1040347-1.9445589-2.5300031-.724552-4.9914125.1518634-6.2700197 2.2693525-1.4345797 1.9051035-2.4003557 2.8301499-3.9879882 3.6866152 1.2339438 2.3297689 2.2442926 3.0581221 5.0090462 3.0581221 2.80639 0 4.2887695-1.2199412 5.4603121-3.8547743-1.1062751-.1586714-2.0254346-.4500181-2.8422439-.8567852-.2471871-.123098-.3477813-.4232734-.2246832-.6704606.123098-.2471871.4232734-.3477812.6704606-.2246832 1.1475141.5714565 2.5367349.8907605 4.5120394.8907605 2.5522731 0 5.1819138-3.1704857 5.1819138-7.5171029 0-4.5992203-1.5170706-7.0426943-3.757563-7.0455061-.0029715.0000259-.005938.0000254-.008899-.0000011-1.8620586.0010226-2.8138483.570461-3.3360626 1.6107019-.6086311 1.2123814-1.7210394 2.162051-2.8143173 2.162051-.4008343 0-.7897301-.0583887-1.1450937-.1727635-2.0238027.6421161-3.0227816.590388-4.2397485-.6216993-.097827-.0974347-.098145-.2557257-.0007102-.3535527.0974347-.097827.2557257-.098145.3535527-.0007102.9411055.9373321 1.7085499 1.0699827 3.2035467.6582789-.6262216-.4003143-1.0390111-1.0396851-1.0390111-1.8959303 0-.2761424.2238577-.5.5-.5.2761424 0 .5.2238576.5.5 0 .8696343.8301171 1.3863771 1.8674641 1.3863771.6428624 0 1.4638831-.7009103 1.9206108-1.6107032.6361846-1.2672674 1.7810261-2.026336 3.6875549-2.1455097-.2596175-2.2402137-1.1186393-3.8535822-2.3269097-4.9199229.6273757.4406331 1.2065226.9692844 1.7374407 1.5859539v-1.1592045c.8291253 1.1497042 1.4002855 2.6404158 1.5966324 4.5019943 2.6526996.2979933 4.3015128 3.2085119 4.3015128 8.0201464 0 4.8618818-3.0316864 8.5171029-6.1819138 8.5171029-.3749602 0-.7317201-.0110002-1.0720953-.0326311-1.33405 3.1654322-3.1252851 4.7485739-6.5037897 4.7485739-3.2187579 0-4.5067844-.967096-5.9137463-3.6304759-2.5843654.9450377-7.094878.111625-9.4276225-3.3130741-4.6693125 1.9555348-10.3620772.6163489-13.031163-4.1591794-3.31179724-5.9254677.6848218-13.7363586 8.232178-14.3809372zm9.3881897-3.0860064.1118103-.0263083c.4013404.0136384.7944442.0275865 1.1793113.0418444.3701919.5432523.6832164 1.194023.9388221 1.9577654.0876401.2618661-.053598.5451968-.315464.6328368-.2618661.0876401-.5451968-.0535979-.6328369-.315464-.3320425-.9921336-.7552643-1.7459129-1.2816428-2.2906743zm8.6562616.395572c1.4613206.1069677 2.6610446.2237745 3.599172.3504204-.0275754-.0002545-.0551752-.0003816-.0827984-.0003816-.7242978 0-1.3973599.0668997-2.0014612.2038539-.0233077.0166224-.0483683.031464-.0750822.0442428-.089051.0425981-.1844193.0565066-.275652.0454136-1.1211828.3207963-1.9678619.9093068-2.4093724 1.7887872-.1238918.2467902-.424389.346419-.6711793.2225271-.2467902-.1238918-.346419-.424389-.2225271-.6711793.4540619-.9044826 1.1940672-1.5552983 2.1389006-1.9836841zm-3.0277664 15.6490095c.093297.0334898.157578.1193919.1646371.2170258.6611003.7726592 1.84713 1.1249228 3.478141.718805.1339802-.0333607.2696369.0482075.3029977.1821878.0333608.1339802-.0482074.2696369-.1821877.3029977-1.8995361.4729799-3.2941563.0002374-4.0522593-.9662752-2.37328-.3591752-4.3178858.932143-4.759402 3.1308727-.0271828.1353689-.158957.2230711-.294326.1958883-.1353689-.0271827-.2230711-.1589569-.1958883-.2943259.4693602-2.3373913 2.4676184-3.7693856 4.9148837-3.5741766-.3444643-.7237482-.4153042-1.6201001-.1773265-2.5681939.033614-.1339169.1694247-.2152285.3033416-.1816145.133917.033614.2152286.1694247.1816145.3033416-.2447732.9751673-.1268149 1.8733474.3157742 2.5334672zm-.7592783-9.1533982c.174928.3957564.3234918.8325422.4435041 1.3106668.0336141.1339169-.0476975.2697276-.1816145.3033416-.1339169.033614-.2697276-.0476975-.3033416-.1816145-.619638-2.4686139-2.0059056-3.6927478-3.8585293-3.8200027-.9178585-.0630468-1.9152846.165135-2.7805124.5750952-.05087.096048-.1561195.1457835-.2586698.1300782-.4604506.245385-.8743199.5425168-1.2062599.8731258-.097827.0974347-.2561179.0971167-.3535526-.0007103-.0974348-.097827-.0971168-.2561179.0007102-.3535526.3042781-.3030582.6685592-.5795104 1.0716999-.8183026-.8434974-.734254-.9885938-2.1441638-.1560479-3.3879754.0768011-.1147398.2320758-.1454952.3468157-.068694.1147398.0768011.1454952.2320758.068694.3468157-.7476644 1.1169997-.5601448 2.3335783.2243642 2.8503974.9517732-.4603993 2.0538578-.7153821 3.0770223-.645102 1.535803.1054928 2.7918291.8899666 3.6128306 2.3753989 1.0785085-1.5058695 2.0975148-2.1401894 3.7683627-2.1401894.1380712 0 .25.1119288.25.25 0 .1380711-.1119288.25-.25.25-1.5625504 0-2.461248.604789-3.5154757 2.1512239zm-15.5954063 5.8714059c.3510041-2.6394718 1.3891157-3.8772512 3.0302059-4.185992.3254953-.0612359.5987026-.0835462 1.0375083-.0900315-.1978701-.6641613-.1533228-1.5441681.1224125-2.6426871.0336141-.1339169.1694247-.2152285.3033417-.1816145s.2152285.1694247.1816145.3033417c-.2899099 1.1549901-.3019369 2.0178565-.0528582 2.5846147.6305324.3263842 1.257179.8006456 1.8807726 1.4217388.097827.0974348.098145.2557257.0007102.3535527-.0974347.097827-.2557256.098145-.3535526.0007102-.5957491-.5933603-1.1883742-1.0402894-1.7770136-1.3418694-.5992141.000932-.895155.0167742-1.2504914.0836242-2.0152751.3791368-3.0117454 2.4227011-2.7019153 7.6686944.0081404.137831-.0969947.2561642-.2348257.2643045s-.2561642-.0969947-.2643045-.2348257c-.0794929-1.3459609-.0718269-2.4991583.0194674-3.4794282-2.0857759.4202947-3.8174543-.3154527-4.2738157-2.1335791-.033614-.1339169.0476976-.2697276.1816145-.3033416.133917-.0336141.2697277.0476975.3033417.1816145.3915889 1.5600751 1.9238369 2.1734889 3.8477877 1.7311734z" fill="#fff" fill-rule="nonzero"/><g stroke="#fff"><path d="m28.5 42.5 5.9054183 6.4255476-3.3144497-.4715942 11.3638275 12.2614514-3.7879425-8.9602914 3.7879425.4715942-3.3144497-6.1307257" stroke-linecap="round" stroke-linejoin="round"/><path d="m47 16.6208368 10.7061862-3.2942112c.0880173-.0270822.1587198-.0930886.191778-.17904.0594776-.1546417-.0176682-.3282198-.17231-.3876974l-24.8310527-9.55040484c-.2310685-.08887253-.4868896-.08887253-.7179581 0l-24.83105272 9.55040484c-.08595133.0330582-.15195776.1037608-.17903998.191778-.04872574.1583586.0401493.3262337.19850795.3749594l11.63494135 3.579982v-.7637786c0-2.5 6.2680135-4 14-4s14 1.5 14 4z"/><path d="m47 22v-6c0-2.209139-6.2680135-4-14-4s-14 1.790861-14 4v5.5c0-2.209139 6.2680135-3.5 14-3.5s14 1.790861 14 4z" stroke-linecap="round" stroke-linejoin="round"/><path d="m49.7907687 9.68321686 1.2092313-.18321686v11.5" stroke-linecap="round" stroke-linejoin="round"/><path d="m51 21v2.5" stroke-linecap="round" stroke-linejoin="round" stroke-width=".5"/><path d="m11 13 21-8" stroke-linecap="round" stroke-linejoin="round" stroke-width=".5"/><path d="m53 23-2-2-2 2c1 0 1.6666667.1666667 2 .5.3333333-.3333333 1-.5 2-.5z" stroke-linecap="round" stroke-linejoin="round" stroke-width=".5"/><path d="m21 16c1.5-1 5.5-2 9.5-2" stroke-linecap="round" stroke-linejoin="round" stroke-width=".5"/><path d="m28 15.5c1.6273955-.2034244 2.9993791-.3100505 5.2104044-.3283123" stroke-linecap="round" stroke-linejoin="round" stroke-width=".5"/><path d="m26.8629066 15.6629745c-.2095289.033928-.4100471.0676725-.6015545.1012332m-1.4583019.3061584c-.1649551.0394393-.4216512.1039208-.7700884.1934445" stroke-linecap="round" stroke-linejoin="round" stroke-width=".5"/></g></g></svg>