<?xml version="1.0" encoding="utf-8"?>
<!-- Generator: Adobe Illustrator 22.1.0, SVG Export Plug-In . SVG Version: 6.00 Build 0)  -->
<svg version="1.1" xmlns="http://www.w3.org/2000/svg" xmlns:xlink="http://www.w3.org/1999/xlink" x="0px" y="0px"
	 viewBox="0 0 113.4 113.4" style="enable-background:new 0 0 113.4 113.4;" xml:space="preserve">
<style type="text/css">
	.st0{display:none;}
	.st1{fill:none;stroke:#60605F;stroke-width:4;stroke-linecap:round;stroke-linejoin:round;}
	.st2{fill:none;stroke:#61615F;stroke-width:4;stroke-linecap:round;stroke-linejoin:round;stroke-dasharray:5.000000e-02,14;}
	.st3{fill:none;stroke:#61615F;stroke-width:4;stroke-linecap:round;stroke-linejoin:round;stroke-dasharray:5.000000e-02,12;}
	.st4{fill:none;stroke:#61615F;stroke-width:4;stroke-linecap:round;stroke-linejoin:round;stroke-dasharray:5.000000e-02,11;}
	.st5{fill:none;stroke:#61615F;stroke-width:4;stroke-linecap:round;stroke-linejoin:round;stroke-dasharray:5.000000e-02,8;}
	.st6{fill:#61615F;}
	.st7{fill:none;stroke:#61615F;stroke-width:0.75;stroke-linecap:round;stroke-linejoin:round;}
	.st8{fill:none;stroke:#61615F;stroke-width:4;stroke-linecap:round;stroke-linejoin:round;stroke-dasharray:5.000000e-02,16;}
	.st9{fill:none;stroke:#61615F;stroke-width:4;stroke-linecap:round;stroke-linejoin:round;stroke-dasharray:5.000000e-02,9;}
	.st10{fill:none;stroke:#61615F;stroke-width:0.75;stroke-miterlimit:10;}
</style>
<g id="Layer_2" class="st0">
	
		<image style="display:inline;overflow:visible;opacity:0.36;" width="400" height="482" xlink:href="C:\Users\admin\Desktop\0635940b1a619e2a51cdb2639eff1ef8.jpg"  transform="matrix(0.2688 -5.120003e-03 4.977590e-03 0.2613 1.7391 2.0205)">
	</image>
</g>
<g id="Layer_1">
	<path class="st1" d="M21.8,72.5c0,0,0.1,0,0.1,0c1.4,19.1,16.4,38.1,34.8,38.1c18.3,0,33.4-19.1,34.8-38.1c0,0,0.1,0,0.1,0
		c7.3,0,9.5-10.7,2.8-13.8c1.4-4.3,2.1-8.9,2.1-13.6c0-23.3-17.8-42.2-39.8-42.2c-22,0-39.8,18.9-39.8,42.2c0,4.8,0.8,9.4,2.1,13.6
		C12.3,61.8,14.5,72.5,21.8,72.5z"/>
	<path class="st2" d="M64.7,60.6c0,0,6.8-5.8,13.4,0.8"/>
	<path class="st3" d="M64.4,50c0,0-1.7,4.9,1.9,4s13.1-0.5,17.3,2.7s-2.5-5.2-6.3-5.8S64.4,50,64.4,50z"/>
	<line class="st4" x1="58.6" y1="61.4" x2="58.6" y2="78.7"/>
	<line class="st5" x1="65.3" y1="80.4" x2="68" y2="84"/>
	<path class="st3" d="M52,49.9c0,0,1.2,5-2.3,3.8c-3.5-1.2-13-1.7-17.4,1.1c-4.4,2.8,3-4.9,6.8-5.2C42.8,49.3,52,49.9,52,49.9z"/>
	<path class="st2" d="M51.3,59.8c0,0-6.2-6.5-13.5-0.5"/>
	<circle class="st6" cx="72.2" cy="60.6" r="1.1"/>
	<circle class="st6" cx="44.1" cy="59.1" r="1.1"/>
	<polyline class="st5" points="58.7,82.2 56,82 51.6,81 50.4,78.4 51.1,76.1 	"/>
	<path class="st7" d="M26.8,53.4c0,0,3.8-9.4,1.7-17.2s7.9-19.1,14.2-20.1s13.5,2.9,24.7,0.7s14.5,5.2,15.4,7.9s5.3,9,4.1,19.6
		c0,0,0.5,2.6,2.4,5.7c0,0,3.3,4.9-1.1,21.6s-5.3,11.9-8.5,18c-3.1,6.1-7.2,12.8-14.6,14.6c-7.4,1.8-20.7,5.2-27.7-10.2
		c0,0-3.3-4-6.4-8.7c-3.9-6-8.3-16.9-5.6-26.3S26.8,53.4,26.8,53.4z"/>
	<path class="st8" d="M26.9,53.3c0,0,3.8-9.3,1.7-17.2s7.9-19.1,14.2-20.1s13.5,2.9,24.6,0.7s14.4,5.2,15.4,7.8s5.3,9,4.1,19.5
		c0,0,0.5,2.6,2.4,5.7c0,0,3.3,4.9-1.1,21.6s-5.3,11.9-8.5,18c-3.1,6-7.2,12.8-14.6,14.6s-20.7,5.2-27.7-10.1c0,0-3.3-4-6.4-8.7
		c-3.9-6-8.3-16.9-5.6-26.2S26.9,53.3,26.9,53.3z"/>
	<line class="st5" x1="61.7" y1="95.9" x2="51.8" y2="95.3"/>
	<path class="st9" d="M44.5,91.1c0,0,5.3-0.8,7.1-1.4c1.8-0.7,6.1,0.7,6.1,0.7l3.9-0.5c0,0,6.9,1.2,10.3,1.6"/>
	<path class="st7" d="M63.9,50c0,0-1.3,4.9,2.4,4s13.1-0.5,17.3,2.7s-2.5-5.2-6.3-5.8S63.9,50,63.9,50z"/>
	<path class="st7" d="M64.7,60.6c0,0,6.8-5.8,13.4,0.8"/>
	<path class="st7" d="M51.3,59.8c0,0-6.2-6.5-13.5-0.5"/>
	<line class="st7" x1="58.6" y1="58.2" x2="58.6" y2="75.5"/>
	<g>
		<polyline class="st7" points="58.6,82.2 61.3,82 65.8,81 67,78.4 66.3,76.1 		"/>
		<polyline class="st7" points="58.7,82.2 56,82 51.6,81 50.4,78.4 51.1,76.1 		"/>
	</g>
	<path class="st7" d="M71.9,91.5c-0.1,0.6-10.3,4.1-10.3,4.1l-9.4-0.3l-7.7-4.1"/>
	<path class="st7" d="M44.5,91.1c0,0,5.3-0.8,7.1-1.4c1.8-0.7,6.1,0.7,6.1,0.7l4.4-0.5c0,0,5.4,2.1,9.1,1.6c0.5-0.1,0.7,0,0.7,0"/>
	<path class="st7" d="M49.2,92.1c0,0,7.6,1.1,9.3,0.9c1.7-0.2,7.3-0.4,7.3-0.4"/>
	<path class="st10" d="M68.6,61.8c0,0,2.6,1.5,6.7,0.5"/>
	<path class="st10" d="M40.5,60.2c0,0,2.6,1.5,6.7,0.5"/>
	<path class="st7" d="M52.8,49c0,0,1.3,4.9-2.4,4s-13.1-0.5-17.3,2.7s2.5-5.2,6.3-5.8S52.8,49,52.8,49z"/>
</g>
</svg>
