<?xml version="1.0" encoding="utf-8"?>
<!-- Generator: Adobe Illustrator 22.1.0, SVG Export Plug-In . SVG Version: 6.00 Build 0)  -->
<svg version="1.1" id="Layer_1" xmlns="http://www.w3.org/2000/svg" xmlns:xlink="http://www.w3.org/1999/xlink" x="0px" y="0px"
	 viewBox="0 0 113.4 113.4" style="enable-background:new 0 0 113.4 113.4;" xml:space="preserve">
<style type="text/css">
	.st0{fill:none;stroke:#5E5E5E;stroke-width:4;stroke-linecap:round;stroke-linejoin:round;stroke-miterlimit:10;}
	.st1{fill:none;stroke:#5E5E5E;stroke-width:4;stroke-miterlimit:10;}
</style>
<g>
	<g>
		<path class="st0" d="M71.2,97.2C60.6,93,48.8,87.8,47.9,84.5v-3.4c2.2-2.3,3.9-5.5,5-9.3c2.5-1.8,3.1-5.4,1-8v-7.6
			c0-7.9-4.3-13.3-14.1-13.3c-9.5,0-14.1,5.4-14.1,13.3v7.6c-2,2.6-1.4,6.2,1,8c1,3.8,2.8,7,5,9.3v3.4c-1,3.2-12.8,8.5-23.4,12.7
			c-0.9,0.4-1.5,1.3-1.5,2.3v8.5c0,1.3,1,2.4,2.3,2.4h61.3c1.3,0,2.3-1.1,2.3-2.4v-8.5C72.8,98.4,72.2,97.5,71.2,97.2z"/>
		<path class="st0" d="M81.1,110.4H100c1,0,1.8-0.8,1.8-1.9V102c0-0.8-0.5-1.5-1.2-1.7c-8.3-3.2-17.6-7.2-18.3-9.7V88
			c1.7-1.8,3.1-4.2,3.9-7.1c1.9-1.3,2.4-4.1,0.8-6.1v-5.8c0-6-3.4-10.2-11-10.2c-7.5,0-11,4.1-11,10.2v5.8c-1.6,2-1.1,4.8,0.8,6.1
			c0.8,2.9,2.2,5.3,3.9,7.1"/>
	</g>
	<path class="st1" d="M106.5,21C106,11,95.5,3.1,82.4,2.8c-0.2,0-0.3,0-0.5,0l-0.3,0c-13.3,0-23.9,8-24.2,18.1c0,0.1,0,0.2,0,0.4
		c0,5.7,3.5,11.2,9.4,14.8c-0.4,0.7-1,1.7-1.8,2.9c-0.5,0.8-1.2,1.8-1.6,2.6l-0.2,0.3c-0.4,0.7-0.7,1.4-0.8,2.3
		c-0.2,1,0.7,2.4,1.8,2.7l0.1,0c0.2,0.1,0.4,0.1,0.6,0.1h0l0,0c1.2-0.1,2.1-0.5,3.1-1.1l0.6-0.3c1.3-0.7,2.8-1.7,4.2-2.5l0.2-0.2
		c0.6-0.4,1.2-0.8,1.8-1.1c1.1-0.7,2-1.2,2.6-1.5c0.3-0.2,0.6-0.3,0.8-0.4c1,0.1,2,0.2,3.1,0.2l0.7,0c13.3,0,23.9-8,24.2-18.1
		L106.5,21L106.5,21z"/>
</g>
</svg>
