<?xml version="1.0" encoding="utf-8"?>
<!-- Generator: Adobe Illustrator 22.1.0, SVG Export Plug-In . SVG Version: 6.00 Build 0)  -->
<svg version="1.1" id="Layer_1" xmlns="http://www.w3.org/2000/svg" xmlns:xlink="http://www.w3.org/1999/xlink" x="0px" y="0px"
	 viewBox="0 0 113.4 113.4" style="enable-background:new 0 0 113.4 113.4;" xml:space="preserve">
<style type="text/css">
	.st0{fill:none;stroke:#5E5E5E;stroke-width:4;stroke-linecap:round;stroke-linejoin:round;}
</style>
<g>
	<path class="st0" d="M18.5,48H5.6c-1.6,0-2.8,1.3-2.8,2.8v3.5c0,3,3.5,2.9,6.6,3.5c-1.2,2.4-3.3,22.7-3.3,22.7c0,0.5,0,24.9,0,24.9
		c0,2.8,2.2,5,5,5h7.7c2.8,0,5-2.2,5-5V96h65.9v9.3c0,2.8,2.2,5,5,5h7.7c2.8,0,5-2.2,5-5c0,0,0-24.4,0-24.9c0,0-2.1-20.4-3.3-22.7
		c3.1-0.5,6.6-0.4,6.6-3.5v-3.5c0-1.6-1.3-2.8-2.8-2.8H95"/>
	<path class="st0" d="M95,47.7c0,5.6-6.3,10.1-12.3,10.1H30.8c-6,0-12.3-4.5-12.3-10.1l4.9-18.3c1-5.1,4.9-10.1,10.9-10.1h45
		c6,0,9.8,4.8,10.9,10.1L95,47.7z"/>
	<line class="st0" x1="44.9" y1="76.8" x2="68.6" y2="76.8"/>
	<line class="st0" x1="44.9" y1="86.4" x2="68.6" y2="86.4"/>
	<path class="st0" d="M35.5,79.4c0,4.1-3.3,7.4-7.4,7.4c-4.1,0-7.4-3.3-7.4-7.4c0-4.1,3.3-7.4,7.4-7.4C32.2,72,35.5,75.3,35.5,79.4z
		"/>
	<path class="st0" d="M92.8,79.4c0,4.1-3.3,7.4-7.4,7.4c-4.1,0-7.4-3.3-7.4-7.4c0-4.1,3.3-7.4,7.4-7.4C89.5,72,92.8,75.3,92.8,79.4z
		"/>
	<line class="st0" x1="50.6" y1="28.9" x2="62.9" y2="28.9"/>
	<line class="st0" x1="107.4" y1="96" x2="6.1" y2="96"/>
</g>
</svg>
