<svg id="Layer_1" data-name="Layer 1" xmlns="http://www.w3.org/2000/svg" viewBox="0 0 95.67 111.09"><defs><style>.cls-1{fill:none;stroke:#61615f;stroke-linecap:round;stroke-linejoin:round;stroke-width:2px;}</style></defs><path class="cls-1" d="M73,78.48,51.87,99.56a13.77,13.77,0,0,1-8,3.77l-1.43.08c-2.48.16-4.89-1.87-6.61-3.6L21.31,85.35c-3.82-3.76-5.63-7.13-4.46-15.9l3.91-24.58,10.29,1.32L30,54.68,43.63,41.06" transform="translate(-8.86 -1.15)"/><line class="cls-1" x1="67.72" y1="73.71" x2="64.09" y2="77.33"/><polyline class="cls-1" points="33.24 102.49 25.64 110.09 1 85.62 8.16 78.46"/><path class="cls-1" d="M39.11,36.23l22.41-22.4a13.74,13.74,0,0,1,8-3.77L71,10c2.48-.15,4.88,1.88,6.61,3.6L92.07,28c3.82,3.75,5.64,7.12,4.47,15.89L92.63,68.51l-10.29-.83,1.11-8.91L71.9,70.32" transform="translate(-8.86 -1.15)"/><polyline class="cls-1" points="62.43 8.6 70.03 1 94.67 25.47 87.51 32.63"/><path class="cls-1" d="M71.9,70.4l-8.12,8.11c-1.9,1.9-4.51,2.36-5.84,1h0c-1.32-1.33-.86-3.94,1-5.84L70.46,62.23" transform="translate(-8.86 -1.15)"/><path class="cls-1" d="M63.78,78.51,71.9,70.4c1.9-1.9,4.51-2.37,5.84-1h0c1.32,1.32.63,3.71-1.27,5.61" transform="translate(-8.86 -1.15)"/><path class="cls-1" d="M65,58.15,48.83,74.3c-1.9,1.9-4.52,2.37-5.84,1h0c-1.33-1.32-.86-3.94,1-5.84L68.18,45.35" transform="translate(-8.86 -1.15)"/><path class="cls-1" d="M48.83,74.3,65,58.15c1.9-1.9,4.51-2.36,5.84-1h0c1.33,1.33.86,3.94-1,5.84l-6.93,6.93" transform="translate(-8.86 -1.15)"/><path class="cls-1" d="M64.27,39.63,44.83,59.07c-1.9,1.9-4.52,2.36-5.84,1h0c-1.33-1.33-.86-3.94,1-5.84l6.43-6.43" transform="translate(-8.86 -1.15)"/><path class="cls-1" d="M44.83,59.07,64.27,39.63c1.89-1.9,4.51-2.36,5.84-1h0c1.32,1.32.86,3.94-1,5.84L51,62.52" transform="translate(-8.86 -1.15)"/><path class="cls-1" d="M41.36,43.32l4.1-4.09c1.89-1.9,4.51-2.37,5.84-1h0c1.32,1.32.86,3.94-1,5.84l-4.61,4.61" transform="translate(-8.86 -1.15)"/><path class="cls-1" d="M42.14,42.57c-1.9,1.89-4.44,2.48-5.77,1.16h0c-1.32-1.33-.86-3.95,1-5.85l9-8.94" transform="translate(-8.86 -1.15)"/><path class="cls-1" d="M42.21,42.69" transform="translate(-8.86 -1.15)"/></svg>