<svg id="Layer_1" data-name="Layer 1" xmlns="http://www.w3.org/2000/svg" viewBox="0 0 105.1 107.94"><defs><style>.cls-1{fill:none;stroke:#61615f;stroke-linecap:round;stroke-linejoin:round;stroke-width:2px;}</style></defs><path class="cls-1" d="M12.19,32.21a7.42,7.42,0,1,0,7.42,7.42A7.43,7.43,0,0,0,12.19,32.21Z" transform="translate(-3.76 -4.76)"/><path class="cls-1" d="M98.36,26.62a9.51,9.51,0,1,0,9.51,9.51A9.53,9.53,0,0,0,98.36,26.62Z" transform="translate(-3.76 -4.76)"/><path class="cls-1" d="M72.93,5.76a7.18,7.18,0,1,0,7.18,7.18A7.19,7.19,0,0,0,72.93,5.76Z" transform="translate(-3.76 -4.76)"/><path class="cls-1" d="M92.43,70.21a3.3,3.3,0,1,0,3.27,3.3A3.28,3.28,0,0,0,92.43,70.21Z" transform="translate(-3.76 -4.76)"/><path class="cls-1" d="M29.8,12.59a3.3,3.3,0,1,0,3.27,3.3A3.29,3.29,0,0,0,29.8,12.59Z" transform="translate(-3.76 -4.76)"/><path class="cls-1" d="M72.35,45.87H84V88.54c0,3.14-.24,7-2.35,9.36l-1.11,1.21c-1.91,2.08-5.55,2.38-8.39,2.38H48.4c-6.22.06-10.48-1.18-16.72-9.06l-17-22.56L25.7,60,35.79,70.31V37.12H47.68" transform="translate(-3.76 -4.76)"/><polyline class="cls-1" points="56.25 49.69 56.25 24.24 44.02 24.24 44.02 49.69"/><polyline class="cls-1" points="68.25 49.69 68.25 32.35 56.4 32.36"/><rect class="cls-1" x="39.95" y="67.06" width="32.16" height="21.27" rx="6.67"/><polyline class="cls-1" points="76.73 94.75 76.73 106.8 36.4 106.94 36.4 95.59"/></svg>