<?xml version="1.0" encoding="utf-8"?>
<!-- Generator: Adobe Illustrator 22.1.0, SVG Export Plug-In . SVG Version: 6.00 Build 0)  -->
<svg version="1.1" id="Layer_1" xmlns="http://www.w3.org/2000/svg" xmlns:xlink="http://www.w3.org/1999/xlink" x="0px" y="0px"
	 viewBox="0 0 113.4 113.4" style="enable-background:new 0 0 113.4 113.4;" xml:space="preserve">
<style type="text/css">
	.st0{fill:none;stroke:#5E5E5E;stroke-width:4;stroke-linecap:round;stroke-linejoin:round;}
</style>
<g>
	<path class="st0" d="M97.6,68.1l-2.3-51C93.9,9.7,89,2.4,81.2,2.4H32.2c-7.8,0-12.7,7.5-14,14.6l-2.4,51"/>
	<path class="st0" d="M38.3,81.4c0,3.4-2.8,6.2-6.2,6.2s-6.2-2.8-6.2-6.2c0-3.4,2.8-6.2,6.2-6.2S38.3,78,38.3,81.4z"/>
	<path class="st0" d="M87.5,81.4c0,3.4-2.8,6.2-6.2,6.2c-3.4,0-6.2-2.8-6.2-6.2c0-3.4,2.8-6.2,6.2-6.2C84.7,75.2,87.5,78,87.5,81.4z
		"/>
	<line class="st0" x1="18.3" y1="16.5" x2="94.8" y2="16.5"/>
	<path class="st0" d="M97.6,68.1H15.7l1.2,36.6c0,3.2,2.6,5.8,5.8,5.8h7.1c3.2,0,5.8-2.6,5.8-5.8v-8.5h42.3v8.5
		c0,3.2,2.6,5.8,5.8,5.8h7.2c3.2,0,5.8-2.6,5.8-5.8L97.6,68.1z"/>
	<line class="st0" x1="46.6" y1="9.3" x2="66.6" y2="9.3"/>
	<line class="st0" x1="7.5" y1="25.9" x2="7.5" y2="44.3"/>
	<line class="st0" x1="105.9" y1="25.9" x2="105.9" y2="44.3"/>
	<line class="st0" x1="16.6" y1="96.1" x2="96.8" y2="96.1"/>
	<line class="st0" x1="47.8" y1="68.1" x2="89.3" y2="16.6"/>
	<line class="st0" x1="16.1" y1="59.5" x2="51.7" y2="16.6"/>
</g>
</svg>
