<?xml version="1.0" encoding="utf-8"?>
<!-- Generator: Adobe Illustrator 25.3.1, SVG Export Plug-In . SVG Version: 6.00 Build 0)  -->
<svg version="1.1" id="Layer_1" xmlns="http://www.w3.org/2000/svg" xmlns:xlink="http://www.w3.org/1999/xlink" x="0px" y="0px"
	 viewBox="0 0 113.4 113.4" style="enable-background:new 0 0 113.4 113.4;" xml:space="preserve">
<style type="text/css">
	.st0{fill:none;stroke:#61615F;stroke-width:2;stroke-linecap:round;stroke-linejoin:round;stroke-miterlimit:10;}
	.st1{fill:none;stroke:#61615F;stroke-width:2;stroke-linecap:round;stroke-linejoin:round;}
</style>
<g>
	<g>
		<path class="st0" d="M73.4,25.4l-11.8-0.2L57.7,14c-0.3-1-1.7-1-2,0l-3.9,11.1L40,25.4c-1,0-1.4,1.3-0.6,1.9l9.4,7.1l-3.4,11.3
			c-0.3,1,0.8,1.8,1.6,1.2l9.7-6.7l9.7,6.7c0.8,0.6,1.9-0.2,1.6-1.2l-3.4-11.3l9.4-7.1C74.9,26.7,74.4,25.4,73.4,25.4z"/>
	</g>
	<polyline class="st0" points="54.9,28.7 56.8,28 56.8,36.2 	"/>
</g>
<g>
	<rect x="25.4" y="65.8" class="st1" width="20.9" height="28.9"/>
	<rect x="46.3" y="55" class="st1" width="20.9" height="39.6"/>
	<rect x="67.2" y="75.8" class="st1" width="20.9" height="18.9"/>
</g>
<path class="st0" d="M56.7,1.6C26.3,1.6,1.6,26.3,1.6,56.7c0,30.4,24.7,55.1,55.1,55.1c30.4,0,55.1-24.7,55.1-55.1
	C111.8,26.3,87.1,1.6,56.7,1.6z"/>
</svg>
