<?xml version="1.0" encoding="utf-8"?>
<!-- Generator: Adobe Illustrator 25.3.1, SVG Export Plug-In . SVG Version: 6.00 Build 0)  -->
<svg version="1.1" id="Layer_1" xmlns="http://www.w3.org/2000/svg" xmlns:xlink="http://www.w3.org/1999/xlink" x="0px" y="0px"
	 viewBox="0 0 113.4 113.4" style="enable-background:new 0 0 113.4 113.4;" xml:space="preserve">
<style type="text/css">
	.st0{fill:none;stroke:#61615F;stroke-width:2;stroke-linecap:round;stroke-linejoin:round;stroke-miterlimit:10;}
	.st1{fill:none;stroke:#61615F;stroke-width:2;stroke-linecap:round;stroke-linejoin:round;}
	.st2{fill:none;stroke:#61615F;stroke-width:2.0222;stroke-linecap:round;stroke-linejoin:round;stroke-miterlimit:10;}
	.st3{fill:none;stroke:#61615F;stroke-width:1.8343;stroke-linecap:round;stroke-linejoin:round;}
</style>
<g>
	<path class="st0" d="M59,56.7c0,1.3-1.1,2.4-2.4,2.4c-1.3,0-2.4-1.1-2.4-2.4c0-1.3,1.1-2.4,2.4-2.4C57.9,54.3,59,55.4,59,56.7z"/>
	<path class="st0" d="M66.5,56.7c0,12.2-4.4,22-9.8,22c-5.4,0-9.8-9.9-9.8-22c0-12.2,4.4-22,9.8-22C62.1,34.6,66.5,44.5,66.5,56.7z"
		/>
	<path class="st0" d="M51.8,48.1c10.5-6.1,21.1-7.2,23.8-2.5c2.7,4.7-3.6,13.5-14,19.6c-10.4,6.1-21.1,7.2-23.8,2.5
		C35.1,63,41.3,54.2,51.8,48.1z"/>
	<path class="st0" d="M51.8,65.3c-10.5-6.1-16.7-14.9-14-19.6c2.7-4.7,13.4-3.6,23.8,2.5C72,54.2,78.3,63,75.6,67.7
		C72.9,72.4,62.2,71.3,51.8,65.3z"/>
</g>
<path class="st1" d="M36.9,83.2h39.5c3.7,0,6.8-3,6.8-6.8V36.9c0-3.7-3-6.8-6.8-6.8H36.9c-3.7,0-6.8,3-6.8,6.8v39.5
	C30.2,80.2,33.2,83.2,36.9,83.2z"/>
<path class="st2" d="M56.7,1.6C26.3,1.6,1.6,26.3,1.6,56.7c0,30.4,24.7,55.1,55.1,55.1c30.4,0,55.1-24.7,55.1-55.1
	C111.8,26.3,87.1,1.6,56.7,1.6z"/>
<g>
	<line class="st0" x1="56.7" y1="22.6" x2="56.7" y2="30"/>
	<path class="st3" d="M60.4,18.6c0,2-1.6,3.7-3.7,3.7c-2,0-3.7-1.6-3.7-3.7s1.6-3.7,3.7-3.7C58.8,14.9,60.4,16.6,60.4,18.6z"/>
</g>
<g>
	<line class="st0" x1="43.5" y1="22.6" x2="43.5" y2="30"/>
	<path class="st3" d="M47.2,18.6c0,2-1.6,3.7-3.7,3.7c-2,0-3.7-1.6-3.7-3.7s1.6-3.7,3.7-3.7C45.6,14.9,47.2,16.6,47.2,18.6z"/>
</g>
<g>
	<line class="st0" x1="69.9" y1="22.6" x2="69.9" y2="30"/>
	<path class="st3" d="M73.6,18.6c0,2-1.6,3.7-3.7,3.7c-2,0-3.7-1.6-3.7-3.7s1.6-3.7,3.7-3.7C72,14.9,73.6,16.6,73.6,18.6z"/>
</g>
<g>
	<line class="st0" x1="56.7" y1="90.7" x2="56.7" y2="83.3"/>
	<path class="st3" d="M53,94.7c0-2,1.6-3.7,3.7-3.7c2,0,3.7,1.6,3.7,3.7c0,2-1.6,3.7-3.7,3.7C54.7,98.4,53,96.8,53,94.7z"/>
</g>
<g>
	<line class="st0" x1="69.9" y1="90.7" x2="69.9" y2="83.3"/>
	<path class="st3" d="M66.2,94.7c0-2,1.6-3.7,3.7-3.7c2,0,3.7,1.6,3.7,3.7c0,2-1.6,3.7-3.7,3.7C67.9,98.4,66.2,96.8,66.2,94.7z"/>
</g>
<g>
	<line class="st0" x1="43.5" y1="90.7" x2="43.5" y2="83.3"/>
	<path class="st3" d="M39.8,94.7c0-2,1.6-3.7,3.7-3.7c2,0,3.7,1.6,3.7,3.7c0,2-1.6,3.7-3.7,3.7C41.5,98.4,39.8,96.8,39.8,94.7z"/>
</g>
<g>
	<line class="st0" x1="90.6" y1="56.6" x2="83.3" y2="56.6"/>
	<path class="st3" d="M94.7,60.3c-2,0-3.7-1.6-3.7-3.7c0-2,1.6-3.7,3.7-3.7c2,0,3.7,1.6,3.7,3.7C98.4,58.6,96.7,60.3,94.7,60.3z"/>
</g>
<g>
	<line class="st0" x1="90.6" y1="43.4" x2="83.3" y2="43.4"/>
	<path class="st3" d="M94.7,47.1c-2,0-3.7-1.6-3.7-3.7c0-2,1.6-3.7,3.7-3.7c2,0,3.7,1.6,3.7,3.7C98.4,45.4,96.7,47.1,94.7,47.1z"/>
</g>
<g>
	<line class="st0" x1="90.6" y1="69.8" x2="83.3" y2="69.8"/>
	<path class="st3" d="M94.7,73.5c-2,0-3.7-1.6-3.7-3.7c0-2,1.6-3.7,3.7-3.7c2,0,3.7,1.6,3.7,3.7C98.4,71.8,96.7,73.5,94.7,73.5z"/>
</g>
<g>
	<line class="st0" x1="22.7" y1="56.6" x2="30.1" y2="56.6"/>
	<path class="st3" d="M18.7,52.9c2,0,3.7,1.6,3.7,3.7c0,2-1.6,3.7-3.7,3.7S15,58.6,15,56.6C15,54.5,16.6,52.9,18.7,52.9z"/>
</g>
<g>
	<line class="st0" x1="22.7" y1="69.8" x2="30.1" y2="69.8"/>
	<path class="st3" d="M18.7,66.1c2,0,3.7,1.6,3.7,3.7c0,2-1.6,3.7-3.7,3.7S15,71.8,15,69.8C15,67.7,16.6,66.1,18.7,66.1z"/>
</g>
<g>
	<line class="st0" x1="22.7" y1="43.4" x2="30.1" y2="43.4"/>
	<path class="st3" d="M18.7,39.7c2,0,3.7,1.6,3.7,3.7c0,2-1.6,3.7-3.7,3.7S15,45.4,15,43.4C15,41.3,16.6,39.7,18.7,39.7z"/>
</g>
</svg>
