<?xml version="1.0" encoding="UTF-8"?>
<!DOCTYPE svg PUBLIC "-//W3C//DTD SVG 1.1//EN" "http://www.w3.org/Graphics/SVG/1.1/DTD/svg11.dtd">
<svg version="1.1" xmlns="http://www.w3.org/2000/svg" xmlns:xlink="http://www.w3.org/1999/xlink" x="0" y="0" width="90" height="90" viewBox="0, 0, 90, 90">
  <g id="Layer_1_Copy">
    <g>
      <path d="M45,79 C26.222,79 11,63.778 11,45 C11,26.222 26.222,11 45,11 C63.778,11 79,26.222 79,45 C79,63.778 63.778,79 45,79 z" fill="#52B7EC"/>
    </g>
    <path d="M57.891,41.133 C57.891,41.849 57.313,42.422 56.601,42.422 L41.132,42.422 C40.421,42.422 39.843,41.849 39.843,41.133 L39.843,35.977 C39.843,35.268 40.421,34.688 41.132,34.688 L56.601,34.688 C57.313,34.688 57.891,35.268 57.891,35.977 L57.891,41.133 z M57.891,32.109 L39.843,32.109 C38.42,32.109 37.265,33.263 37.265,34.688 L37.265,42.422 C37.265,43.846 38.42,45 39.843,45 L57.891,45 C59.314,45 60.469,43.846 60.469,42.422 L60.469,34.688 C60.469,33.263 59.314,32.109 57.891,32.109 z M59.18,50.156 L38.554,50.156 C37.843,50.156 37.265,50.736 37.265,51.445 C37.265,52.161 37.843,52.734 38.554,52.734 L59.18,52.734 C59.892,52.734 60.469,52.161 60.469,51.445 C60.469,50.736 59.892,50.156 59.18,50.156 z M63.047,61.758 C63.047,62.474 62.47,63.047 61.757,63.047 L34.687,63.047 L34.687,26.953 L61.757,26.953 C62.47,26.953 63.047,27.533 63.047,28.242 L63.047,61.758 z M32.109,32.109 L29.531,32.109 L29.531,37.272 L32.109,37.272 L32.109,42.422 L29.531,42.422 L29.531,47.578 L32.109,47.578 L32.109,52.734 L29.531,52.734 L29.531,57.891 L32.109,57.891 L32.109,63.047 L28.242,63.047 C27.53,63.047 26.953,62.474 26.953,61.758 L26.953,28.242 C26.953,27.533 27.53,26.953 28.242,26.953 L32.109,26.953 L32.109,32.109 z M63.047,24.375 L26.953,24.375 C25.529,24.375 24.375,25.529 24.375,26.953 L24.375,63.047 C24.375,64.471 25.529,65.625 26.953,65.625 L63.047,65.625 C64.47,65.625 65.625,64.471 65.625,63.047 L65.625,26.953 C65.625,25.529 64.47,24.375 63.047,24.375 z M59.18,55.312 L38.554,55.312 C37.843,55.312 37.265,55.893 37.265,56.602 C37.265,57.318 37.843,57.891 38.554,57.891 L59.18,57.891 C59.892,57.891 60.469,57.318 60.469,56.602 C60.469,55.893 59.892,55.312 59.18,55.312" fill="#FFFFFF" display="none"/>
    <path d="M62.367,34.313 C62.367,28.415 58.18,23.625 53.016,23.625 C51.594,23.625 50.26,24.019 49.054,24.667 C49.741,25.288 50.375,25.983 50.947,26.731 C51.602,26.47 52.288,26.297 53.016,26.297 C56.704,26.297 59.695,29.891 59.695,34.313 C59.695,38.534 56.968,41.954 53.517,42.268 C53.386,42.682 53.235,43.083 53.075,43.477 C53.699,43.844 54.275,44.279 54.776,44.799 C59.097,43.857 62.367,39.529 62.367,34.313 z M57.024,45 L54.943,45 C55.638,45.775 56.177,46.676 56.533,47.672 L57.024,47.672 C59.974,47.672 62.367,50.063 62.367,53.016 C62.367,55.968 59.974,58.36 57.024,58.36 L57.024,61.038 C61.45,61.038 65.039,57.445 65.039,53.016 C65.039,48.594 61.45,45 57.024,45 z M51.68,58.36 C51.68,61.312 49.287,63.703 46.336,63.703 L32.976,63.703 C30.025,63.703 27.633,61.312 27.633,58.36 L27.633,53.016 C27.633,50.211 29.804,47.932 32.554,47.719 C34.548,49.348 36.988,50.344 39.656,50.344 C42.323,50.344 44.764,49.348 46.757,47.719 C49.508,47.932 51.68,50.211 51.68,53.016 L51.68,58.36 z M30.305,36.985 C30.305,31.086 34.491,26.297 39.656,26.297 C44.82,26.297 49.007,31.086 49.007,36.985 C49.007,42.889 44.82,47.672 39.656,47.672 C34.491,47.672 30.305,42.889 30.305,36.985 z M48.884,45.454 C50.604,43.143 51.68,40.218 51.68,36.985 C51.68,29.61 46.296,23.625 39.656,23.625 C33.015,23.625 27.633,29.61 27.633,36.985 C27.633,40.218 28.707,43.143 30.427,45.454 C27.257,46.523 24.961,49.488 24.961,53.016 L24.961,58.36 C24.961,62.788 28.549,66.376 32.976,66.376 L46.336,66.376 C50.762,66.376 54.352,62.788 54.352,58.36 L54.352,53.016 C54.352,49.488 52.054,46.523 48.884,45.454" fill="#FFFFFF"/>
  </g>
</svg>
