<?xml version="1.0" encoding="UTF-8"?>
<!DOCTYPE svg PUBLIC "-//W3C//DTD SVG 1.1//EN" "http://www.w3.org/Graphics/SVG/1.1/DTD/svg11.dtd">
<svg version="1.1" xmlns="http://www.w3.org/2000/svg" xmlns:xlink="http://www.w3.org/1999/xlink" x="0" y="0" width="90" height="90" viewBox="0, 0, 90, 90">
  <defs>
    <clipPath id="Clip_1">
      <path d="M1,1 L89,1 L89,89 L1,89 z M45,11 C26.222,11 11,26.222 11,45 C11,63.778 26.222,79 45,79 C63.778,79 79,63.778 79,45 C79,26.222 63.778,11 45,11 z"/>
    </clipPath>
    <filter id="Shadow_2">
      <feGaussianBlur in="SourceAlpha" stdDeviation="3"/>
      <feOffset dx="3" dy="3" result="offsetblur"/>
      <feFlood flood-color="#000000"/>
      <feComposite in2="offsetblur" operator="in"/>
    </filter>
  </defs>
  <g id="Layer_1_Copy">
    <g>
      <path d="M45,11 C63.778,11 79,26.222 79,45 C79,63.778 63.778,79 45,79 C26.222,79 11,63.778 11,45 C11,26.222 26.222,11 45,11 z" clip-path="url(#Clip_1)" filter="url(#Shadow_2)" fill="rgba(0,0,0,0.302)"/>
      <path d="M45,79 C26.222,79 11,63.778 11,45 C11,26.222 26.222,11 45,11 C63.778,11 79,26.222 79,45 C79,63.778 63.778,79 45,79 z" fill="#52B7EC"/>
    </g>
    <g display="none">
      <path d="M41.797,43.079 C42.865,42.887 43.886,43.597 44.078,44.663 C44.27,45.73 43.561,46.752 42.494,46.944 C41.426,47.137 40.405,46.426 40.213,45.358 C40.021,44.293 40.73,43.272 41.797,43.079 z M41.36,35.225 C40.719,35.277 40.085,35.392 39.467,35.566 L39.452,37.114 C38.865,37.314 38.302,37.578 37.775,37.903 L36.572,36.929 C36.044,37.294 35.551,37.71 35.103,38.172 L35.864,39.519 C35.456,39.985 35.101,40.496 34.806,41.041 L33.278,40.798 C33.003,41.379 32.784,41.986 32.627,42.609 L33.959,43.396 C33.838,44.003 33.787,44.623 33.805,45.242 L32.36,45.796 C32.411,46.438 32.525,47.072 32.701,47.691 L34.248,47.705 C34.448,48.292 34.713,48.854 35.037,49.382 L34.063,50.584 C34.428,51.113 34.845,51.605 35.306,52.054 L36.653,51.293 C37.12,51.701 37.63,52.056 38.175,52.35 L37.933,53.878 C38.513,54.154 39.12,54.373 39.743,54.53 L40.529,53.198 C41.137,53.318 41.757,53.37 42.377,53.352 L42.93,54.797 C43.571,54.746 44.206,54.631 44.824,54.456 L44.84,52.908 C45.426,52.709 45.989,52.444 46.516,52.12 L47.718,53.093 C48.248,52.729 48.739,52.312 49.188,51.851 L48.427,50.504 C48.835,50.037 49.19,49.527 49.485,48.981 L51.012,49.225 C51.289,48.643 51.506,48.037 51.663,47.413 L50.332,46.627 C50.452,46.019 50.503,45.4 50.487,44.78 L51.932,44.227 C51.88,43.586 51.765,42.951 51.59,42.332 L50.043,42.317 C49.843,41.731 49.578,41.168 49.254,40.64 L50.228,39.439 C49.862,38.909 49.446,38.417 48.985,37.969 L47.639,38.73 C47.172,38.321 46.661,37.966 46.116,37.672 L46.359,36.145 C45.777,35.868 45.17,35.65 44.547,35.492 L43.761,36.825 C43.153,36.704 42.534,36.653 41.915,36.67 L41.36,35.225" fill="#FFFFFF"/>
      <path d="M33.694,52.038 C33.483,51.785 33.281,51.524 33.094,51.253 L32.762,50.773 L29.708,52.952 C28.942,52.217 27.904,51.762 26.758,51.762 C24.405,51.762 22.497,53.669 22.497,56.022 C22.497,58.376 24.405,60.283 26.758,60.283 C29.111,60.283 31.019,58.376 31.019,56.022 C31.019,55.382 30.874,54.776 30.621,54.231 L33.694,52.038" fill="#FFFFFF"/>
      <path d="M49.404,28.95 L46.41,34.891 C46.562,34.955 46.718,35.01 46.864,35.081 L47.659,35.459 L47.841,35.541 L50.806,29.659 C51.18,29.767 51.576,29.829 51.988,29.829 C54.341,29.829 56.248,27.921 56.248,25.567 C56.248,23.214 54.341,21.306 51.988,21.306 C49.635,21.306 47.727,23.214 47.727,25.567 C47.727,26.948 48.387,28.172 49.404,28.95" fill="#FFFFFF"/>
      <path d="M31.019,34.089 C31.682,34.089 32.306,33.933 32.866,33.664 L35.041,36.62 C35.317,36.386 35.605,36.165 35.903,35.959 L36.302,35.683 L34.131,32.732 C34.842,31.97 35.28,30.952 35.28,29.828 C35.28,27.475 33.373,25.567 31.019,25.567 C28.666,25.567 26.759,27.475 26.759,29.828 C26.759,32.182 28.666,34.089 31.019,34.089" fill="#FFFFFF"/>
      <path d="M48.939,62.433 C48.772,62.433 48.607,62.445 48.445,62.464 L46.201,55.252 L45.993,55.348 L45.146,55.588 C44.998,55.631 44.844,55.657 44.693,55.694 L46.945,62.929 C45.597,63.645 44.679,65.061 44.679,66.693 C44.679,69.047 46.586,70.955 48.939,70.955 C51.293,70.955 53.201,69.047 53.201,66.693 C53.201,64.34 51.293,62.433 48.939,62.433" fill="#FFFFFF"/>
      <path d="M66.965,47.5 C65.28,47.5 63.826,48.482 63.135,49.903 L52.951,47.129 L52.806,47.7 C52.727,48.017 52.628,48.33 52.519,48.64 L62.723,51.419 C62.713,51.532 62.704,51.645 62.704,51.761 C62.704,54.115 64.612,56.022 66.965,56.022 C69.318,56.022 71.227,54.115 71.227,51.761 C71.227,49.408 69.318,47.5 66.965,47.5" fill="#FFFFFF"/>
    </g>
    <g display="none">
      <path d="M56.54,65.234 C53.846,65.619 36.25,65.844 33.644,65.525 C32.687,64.086 31.998,58.246 34.044,53.577 C35.058,51.263 36.451,50.091 38.186,50.091 C38.198,50.091 38.209,50.091 38.22,50.091 C40.186,50.89 42.473,51.295 44.817,51.264 C47.247,51.234 49.571,50.748 51.553,49.854 C53.154,49.732 54.529,50.767 55.603,52.937 C57.672,57.118 57.668,63.525 56.54,65.234 z M57.556,51.97 C56.037,48.902 53.745,47.385 51.133,47.706 C51.019,47.72 50.907,47.752 50.802,47.801 C49.062,48.614 46.983,49.059 44.79,49.086 C42.642,49.108 40.612,48.74 38.878,48.006 C38.761,47.957 38.638,47.928 38.511,47.921 C35.758,47.778 33.464,49.472 32.048,52.702 C29.948,57.493 30.068,65.122 32.279,67.279 C32.588,67.58 32.883,67.867 39.74,67.867 C41.214,67.867 42.994,67.854 45.141,67.824 C57.254,67.659 57.585,67.32 57.936,66.96 C60.118,64.723 59.914,56.737 57.556,51.97" fill="#FFFFFF"/>
      <path d="M38.265,34.286 C40.153,35.398 49.584,34.069 52.202,35.364 C52.399,35.907 52.545,36.476 52.613,37.073 C52.844,39.068 52.28,41.038 51.025,42.618 C49.748,44.225 47.914,45.238 45.861,45.47 C41.661,45.943 37.842,42.952 37.361,38.794 C37.179,37.214 37.502,35.654 38.265,34.286 z M44.979,47.699 C45.352,47.699 45.728,47.679 46.107,47.635 C48.739,47.337 51.092,46.037 52.731,43.973 C54.349,41.937 55.076,39.397 54.778,36.822 C54.16,31.475 49.263,27.616 43.87,28.231 L43.869,28.231 C41.236,28.53 38.884,29.831 37.244,31.894 C35.627,33.931 34.9,36.47 35.196,39.044 C35.772,44.018 40.044,47.699 44.979,47.699" fill="#FFFFFF"/>
      <path d="M33.094,40.757 C33.426,40.718 33.751,40.656 34.07,40.581 C33.959,40.132 33.866,39.676 33.812,39.205 C33.472,36.26 34.304,33.355 36.152,31.027 C37.019,29.937 38.065,29.043 39.23,28.354 C37.602,25.701 34.522,24.07 31.214,24.448 L31.213,24.448 C29.001,24.698 27.024,25.792 25.646,27.526 C24.286,29.238 23.676,31.371 23.925,33.535 C24.409,37.716 27.999,40.81 32.147,40.81 C32.46,40.81 32.776,40.792 33.094,40.757" fill="#FFFFFF"/>
      <path d="M68.388,44.4 C67.111,41.82 65.186,40.546 62.99,40.816 C62.894,40.827 62.8,40.854 62.712,40.894 C61.249,41.579 59.502,41.952 57.66,41.975 C56.927,41.983 56.217,41.922 55.528,41.823 C55.125,42.897 54.557,43.916 53.822,44.841 C53.394,45.381 52.918,45.868 52.41,46.313 C55.02,46.547 57.302,48.314 58.805,51.352 C59.674,53.109 60.296,55.37 60.611,57.68 C68.186,57.531 68.441,57.271 68.708,56.997 C70.542,55.117 70.371,48.406 68.388,44.4" fill="#FFFFFF"/>
      <path d="M66.054,31.668 C65.535,27.174 61.418,23.931 56.885,24.448 L56.885,24.448 C54.672,24.698 52.695,25.792 51.317,27.526 C51.105,27.793 50.918,28.073 50.743,28.36 C53.647,30.084 55.748,33.074 56.163,36.663 C56.316,37.994 56.219,39.314 55.908,40.579 C56.526,40.725 57.164,40.81 57.818,40.81 C58.131,40.81 58.447,40.792 58.765,40.757 C60.978,40.506 62.955,39.412 64.333,37.679 C65.693,35.966 66.304,33.832 66.054,31.668" fill="#FFFFFF"/>
      <path d="M30.772,52.142 C32.289,48.681 34.846,46.705 37.857,46.554 C36.314,45.297 35.117,43.634 34.419,41.721 C33.638,41.872 32.826,41.965 31.989,41.975 C30.182,41.994 28.476,41.684 27.02,41.067 C26.921,41.026 26.817,41.002 26.711,40.996 C24.397,40.876 22.469,42.3 21.279,45.014 C19.514,49.041 19.615,55.452 21.473,57.266 C21.733,57.518 21.981,57.76 27.743,57.76 C28.229,57.76 28.767,57.758 29.335,57.754 C29.58,55.723 30.069,53.747 30.772,52.142" fill="#FFFFFF"/>
    </g>
    <g display="none">
      <path d="M32.137,32.041 C31.912,35.829 31.406,46.043 32.195,49.702 L32.309,50.248 C32.844,52.896 33.571,56.498 45.039,65.37 C56.585,56.597 57.348,52.488 57.857,49.746 C58.542,46.046 58.106,35.844 57.912,32.042 L50.851,32.042 L45.001,25.373 L38.839,32.041 L32.137,32.041 z M45.022,69.238 L44.096,68.536 C30.813,58.44 29.93,54.06 29.284,50.86 L29.179,50.353 C28.116,45.422 29.105,31.004 29.148,30.391 L29.248,28.955 L37.489,28.955 L45.06,20.762 L52.249,28.957 L60.826,28.957 L60.913,30.406 C60.952,31.017 61.804,45.379 60.891,50.309 C60.116,54.487 58.324,59.337 45.952,68.545 L45.022,69.238" fill="#FFFFFF"/>
      <path d="M43.415,53.406 L35.222,45.715 C34.367,44.91 34.324,43.564 35.128,42.708 C35.933,41.852 37.279,41.809 38.136,42.612 L43.202,47.368 L51.758,38.12 C52.555,37.258 53.901,37.204 54.763,38.002 C55.626,38.801 55.679,40.147 54.881,41.01 L43.415,53.406" fill="#FFFFFF"/>
    </g>
    <g display="none">
      <path d="M52.82,44.591 L50.515,44.591 L50.515,42.286 C50.515,41.115 49.565,40.166 48.394,40.166 C47.222,40.166 46.272,41.115 46.272,42.286 L46.272,44.591 L43.968,44.591 C42.796,44.591 41.846,45.541 41.846,46.713 C41.846,47.884 42.796,48.833 43.968,48.833 L46.272,48.833 L46.272,51.138 C46.272,52.311 47.222,53.26 48.394,53.26 C49.565,53.26 50.515,52.311 50.515,51.138 L50.515,48.833 L52.82,48.833 C53.991,48.833 54.941,47.884 54.941,46.713 C54.941,45.541 53.991,44.591 52.82,44.591" fill="#FFFFFF"/>
      <path d="M56.027,54.362 C53.988,56.401 51.278,57.524 48.394,57.524 C45.512,57.524 42.802,56.402 40.765,54.365 C40.764,54.365 40.763,54.364 40.762,54.363 C40.762,54.362 40.76,54.361 40.76,54.361 C36.554,50.152 36.554,43.305 40.762,39.097 C42.8,37.058 45.51,35.936 48.394,35.936 C51.278,35.936 53.988,37.059 56.027,39.097 C60.235,43.306 60.235,50.153 56.027,54.362 z M58.237,36.887 C55.608,34.258 52.112,32.81 48.394,32.81 C44.675,32.81 41.18,34.257 38.551,36.886 C33.794,41.644 33.208,49.017 36.792,54.42 L28.502,62.709 C27.422,63.79 27.422,65.541 28.503,66.622 C29.583,67.702 31.334,67.702 32.414,66.622 L40.701,58.335 C42.962,59.839 45.616,60.65 48.394,60.65 C52.112,60.65 55.608,59.202 58.237,56.573 C63.664,51.145 63.664,42.315 58.237,36.887" fill="#FFFFFF"/>
      <path d="M59.031,31.641 L61.899,31.641 L61.899,34.51 L59.031,34.51 z M59.067,36.059 C59.071,36.063 59.074,36.068 59.079,36.073 L63.462,36.073 L63.462,30.078 L57.468,30.078 L57.468,34.689 C58.025,35.11 58.565,35.557 59.067,36.059" fill="#FFFFFF"/>
      <path d="M35.308,54.247 C35.001,53.714 34.743,53.164 34.509,52.608 L34.27,52.608 L34.27,55.284 L35.308,54.247" fill="#FFFFFF"/>
      <path d="M57.474,43.582 C57.472,43.577 57.471,43.572 57.468,43.566 L57.468,43.582 L57.474,43.582" fill="#FFFFFF"/>
      <path d="M59.032,24.131 L61.9,24.131 L61.9,26.999 L59.032,26.999 z M57.469,28.562 L63.463,28.562 L63.463,22.568 L57.469,22.568 z" fill="#FFFFFF"/>
      <path d="M63.462,37.587 L60.384,37.587 C61.765,39.398 62.687,41.448 63.139,43.582 L63.462,43.582 L63.462,37.587" fill="#FFFFFF"/>
      <path d="M51.298,61.681 L54.165,61.681 L54.165,64.549 L51.298,64.549 z M49.735,61.757 L49.735,66.112 L55.729,66.112 L55.729,60.118 L55.362,60.118 C53.624,61.025 51.72,61.583 49.735,61.757" fill="#FFFFFF"/>
      <path d="M46.433,61.696 L46.433,64.549 L43.566,64.549 L43.566,61.681 L46.338,61.681 C44.831,61.476 43.373,61.043 42.003,60.401 L42.003,66.112 L47.996,66.112 L47.996,61.809 C47.471,61.795 46.949,61.762 46.433,61.696" fill="#FFFFFF"/>
      <path d="M59.031,61.681 L61.898,61.681 L61.898,64.549 L59.031,64.549 z M57.468,66.112 L63.461,66.112 L63.461,60.118 L57.468,60.118 z" fill="#FFFFFF"/>
      <path d="M43.567,32.438 L43.567,31.641 L46.434,31.641 L46.434,31.779 C46.95,31.712 47.471,31.67 47.997,31.657 L47.997,30.078 L42.003,30.078 L42.003,33.068 C42.513,32.829 43.033,32.618 43.567,32.438" fill="#FFFFFF"/>
      <path d="M35.834,24.131 L38.701,24.131 L38.701,26.999 L35.834,26.999 z M34.271,28.562 L40.264,28.562 L40.264,22.568 L34.271,22.568 z" fill="#FFFFFF"/>
      <path d="M35.834,31.641 L38.701,31.641 L38.701,34.51 L35.834,34.51 z M37.722,36.058 C38.502,35.278 39.358,34.603 40.264,34.02 L40.264,30.078 L34.271,30.078 L34.271,36.073 L37.709,36.073 C37.713,36.067 37.717,36.063 37.722,36.058" fill="#FFFFFF"/>
      <path d="M51.299,31.918 L51.299,31.641 L54.167,31.641 L54.167,32.777 C54.703,32.999 55.221,33.261 55.73,33.544 L55.73,30.078 L49.736,30.078 L49.736,31.703 C50.263,31.749 50.785,31.819 51.299,31.918" fill="#FFFFFF"/>
      <path d="M43.567,24.131 L46.434,24.131 L46.434,26.999 L43.567,26.999 z M42.004,28.562 L47.997,28.562 L47.997,22.568 L42.004,22.568 z" fill="#FFFFFF"/>
      <path d="M28.101,46.661 L30.968,46.661 L30.968,49.53 L28.101,49.53 z M26.538,51.093 L32.532,51.093 L32.532,45.098 L26.538,45.098 z" fill="#FFFFFF"/>
      <path d="M28.101,39.151 L30.968,39.151 L30.968,42.019 L28.101,42.019 z M26.538,43.582 L32.532,43.582 L32.532,37.587 L26.538,37.587 z" fill="#FFFFFF"/>
      <path d="M28.101,31.641 L30.968,31.641 L30.968,34.51 L28.101,34.51 z M26.538,36.073 L32.532,36.073 L32.532,30.078 L26.538,30.078 z" fill="#FFFFFF"/>
      <path d="M36.403,37.587 L34.271,37.587 L34.271,41.455 C34.779,40.085 35.494,38.782 36.403,37.587" fill="#FFFFFF"/>
      <path d="M28.1,54.171 L30.968,54.171 L30.968,57.039 L28.1,57.039 z M26.537,52.608 L26.537,58.602 L30.952,58.602 L32.531,57.023 L32.531,52.608 L26.537,52.608" fill="#FFFFFF"/>
    </g>
    <g display="none">
      <path d="M49.236,45.49 L47.15,45.49 L47.15,43.404 C47.15,42.345 46.291,41.485 45.231,41.485 C44.17,41.485 43.311,42.345 43.311,43.404 L43.311,45.49 L41.225,45.49 C40.165,45.49 39.306,46.349 39.306,47.41 C39.306,48.469 40.165,49.329 41.225,49.329 L43.311,49.329 L43.311,51.415 C43.311,52.475 44.17,53.335 45.231,53.335 C46.291,53.335 47.15,52.475 47.15,51.415 L47.15,49.329 L49.236,49.329 C50.296,49.329 51.155,48.469 51.155,47.41 C51.155,46.349 50.296,45.49 49.236,45.49" fill="#FFFFFF"/>
      <path d="M52.138,54.332 C50.292,56.177 47.84,57.193 45.231,57.193 C42.622,57.193 40.171,56.178 38.326,54.335 C38.326,54.334 38.325,54.333 38.324,54.333 C38.323,54.332 38.322,54.331 38.322,54.331 C34.516,50.522 34.516,44.326 38.323,40.518 C40.169,38.673 42.621,37.658 45.231,37.658 C47.84,37.658 50.292,38.674 52.138,40.519 C55.946,44.328 55.946,50.523 52.138,54.332 z M54.139,38.519 C51.759,36.139 48.596,34.829 45.231,34.829 C41.865,34.829 38.702,36.139 36.323,38.518 C32.018,42.823 31.488,49.495 34.731,54.384 L27.23,61.886 C26.253,62.864 26.253,64.449 27.231,65.427 C28.208,66.404 29.793,66.404 30.771,65.427 L38.27,57.927 C40.316,59.289 42.716,60.022 45.231,60.022 C48.596,60.022 51.759,58.711 54.139,56.332 C59.049,51.421 59.049,43.43 54.139,38.519" fill="#FFFFFF"/>
      <path d="M49.821,33.556 L49.528,34.468 C51.034,34.965 52.444,35.722 53.704,36.723 L63.03,39.726 C63.331,39.822 63.495,40.145 63.399,40.444 C63.303,40.745 62.981,40.909 62.681,40.813 L55.571,38.524 C56.358,39.437 57.002,40.428 57.507,41.472 L62.002,42.92 C62.302,43.016 62.467,43.338 62.371,43.637 C62.274,43.938 61.952,44.103 61.653,44.007 L58.084,42.858 C58.375,43.682 58.585,44.526 58.714,45.384 L60.974,46.111 C61.275,46.208 61.44,46.53 61.343,46.83 C61.247,47.13 60.925,47.295 60.624,47.199 L58.843,46.626 C58.888,47.395 58.875,48.167 58.79,48.933 L59.946,49.305 C60.246,49.402 60.411,49.723 60.314,50.024 C60.218,50.325 59.896,50.489 59.596,50.392 L58.621,50.078 C58.48,50.8 58.268,51.509 58.009,52.205 L58.918,52.497 C59.219,52.594 59.384,52.916 59.287,53.216 C59.191,53.516 58.869,53.681 58.568,53.584 L57.562,53.26 C57.242,53.938 56.867,54.594 56.429,55.222 L57.89,55.691 C58.19,55.789 58.355,56.111 58.258,56.411 C58.161,56.71 57.84,56.875 57.54,56.779 L55.698,56.186 C55.441,56.493 55.176,56.794 54.888,57.082 C54.584,57.386 54.266,57.672 53.939,57.943 L56.862,58.884 C57.162,58.981 57.327,59.302 57.231,59.602 C57.134,59.902 56.812,60.068 56.511,59.972 L52.821,58.783 C51.74,59.508 50.565,60.067 49.33,60.453 L55.388,62.405 L60.434,60.26 L67.227,39.161 L49.821,33.556" fill="#FFFFFF"/>
      <path d="M31.97,31.281 L43.15,31.281 C43.466,31.281 43.722,31.537 43.722,31.852 C43.722,32.168 43.466,32.423 43.15,32.423 L31.97,32.423 C31.654,32.423 31.399,32.168 31.399,31.852 C31.399,31.537 31.654,31.281 31.97,31.281 z M31.97,27.926 L43.15,27.926 C43.466,27.926 43.722,28.182 43.722,28.497 C43.722,28.813 43.466,29.068 43.15,29.068 L31.97,29.068 C31.654,29.068 31.399,28.813 31.399,28.497 C31.399,28.182 31.654,27.926 31.97,27.926 z M31.693,49.113 C31.52,49.014 31.399,48.837 31.399,48.624 C31.399,48.445 31.486,48.292 31.614,48.188 C31.57,47.377 31.592,46.563 31.691,45.759 C31.52,45.66 31.399,45.483 31.399,45.27 C31.399,44.994 31.599,44.774 31.86,44.722 C32.013,43.961 32.227,43.213 32.507,42.485 L31.97,42.485 C31.654,42.485 31.399,42.23 31.399,41.915 C31.399,41.599 31.654,41.344 31.97,41.344 L33.011,41.344 C33.394,40.57 33.861,39.832 34.395,39.132 L31.97,39.132 C31.654,39.132 31.399,38.876 31.399,38.561 C31.399,38.246 31.654,37.99 31.97,37.99 L35.369,37.99 C35.439,37.917 35.502,37.839 35.574,37.768 C36.349,36.993 37.208,36.336 38.12,35.777 L31.97,35.777 C31.654,35.777 31.399,35.521 31.399,35.205 C31.399,34.891 31.654,34.635 31.97,34.635 L40.464,34.635 C41.971,34.075 43.576,33.768 45.231,33.768 C45.819,33.768 46.398,33.818 46.972,33.891 L46.972,26.102 L28.686,26.102 L28.686,51.856 L32.325,51.856 C32.019,50.959 31.806,50.041 31.693,49.113" fill="#FFFFFF"/>
    </g>
    <g display="none">
      <path d="M45.368,41.487 C43.124,41.487 41.303,43.307 41.303,45.552 C41.303,47.797 43.124,49.617 45.368,49.617 C47.613,49.617 49.433,47.797 49.433,45.552 C49.433,43.307 47.613,41.487 45.368,41.487" fill="#FFFFFF"/>
      <path d="M69.985,25.713 L65.752,24.995 L65.033,20.762 L55.958,29.837 L56.216,32.795 L46.291,42.721 L48.026,44.457 L57.953,34.531 L60.91,34.789 L69.985,25.713" fill="#FFFFFF"/>
      <path d="M53.888,40.331 C54.825,41.854 55.374,43.638 55.374,45.552 C55.374,51.07 50.886,55.558 45.368,55.558 C39.851,55.558 35.362,51.07 35.362,45.552 C35.362,40.035 39.851,35.547 45.368,35.547 C47.193,35.547 48.899,36.045 50.373,36.902 L52.753,34.522 C50.64,33.102 48.1,32.272 45.368,32.272 C38.045,32.272 32.087,38.23 32.087,45.552 C32.087,52.875 38.045,58.833 45.368,58.833 C52.691,58.833 58.649,52.875 58.649,45.552 C58.649,42.732 57.759,40.12 56.254,37.967 L53.888,40.331" fill="#FFFFFF"/>
      <path d="M61.478,36.13 L61.258,36.112 C62.907,38.877 63.858,42.104 63.858,45.552 C63.858,55.747 55.564,64.041 45.368,64.041 C35.173,64.041 26.878,55.747 26.878,45.552 C26.878,35.357 35.173,27.063 45.368,27.063 C48.815,27.063 52.043,28.013 54.809,29.663 L54.79,29.442 L57.037,27.194 C53.662,25.041 49.659,23.788 45.368,23.788 C33.367,23.788 23.603,33.552 23.603,45.552 C23.603,57.552 33.367,67.316 45.368,67.316 C57.369,67.316 67.133,57.552 67.133,45.552 C67.133,41.26 65.878,37.258 63.726,33.883 L61.478,36.13" fill="#FFFFFF"/>
    </g>
    <g display="none">
      <path d="M23.878,43.544 C26.968,43.5 27.321,41.822 27.321,40.41 C27.321,39.262 27.189,38.07 27.057,36.879 C26.88,35.643 26.748,34.451 26.748,33.304 C26.748,29.154 29.396,27.389 33.324,27.389 L34.604,27.389 L34.604,30.568 L33.81,30.568 C31.515,30.568 30.72,31.848 30.72,34.009 C30.72,34.892 30.852,35.819 31.029,36.79 C31.117,37.762 31.294,38.821 31.294,39.969 C31.339,43.059 30.014,44.382 27.763,44.912 L27.763,45 C30.014,45.53 31.339,46.898 31.294,49.989 C31.294,51.18 31.117,52.239 31.029,53.21 C30.852,54.182 30.72,55.109 30.72,55.991 C30.72,58.198 31.603,59.478 33.81,59.478 L34.604,59.478 L34.604,62.611 L33.324,62.611 C29.484,62.611 26.748,61.023 26.748,56.565 C26.748,55.462 26.88,54.225 27.057,53.033 C27.189,51.842 27.321,50.694 27.321,49.547 C27.321,48.267 26.968,46.457 23.878,46.412 L23.878,43.544" fill="#FFFFFF"/>
      <path d="M66.122,46.412 C63.076,46.457 62.679,48.267 62.679,49.547 C62.679,50.694 62.855,51.842 62.988,53.033 C63.12,54.225 63.297,55.462 63.297,56.565 C63.297,61.023 60.56,62.611 56.72,62.611 L55.44,62.611 L55.44,59.478 L56.235,59.478 C58.442,59.433 59.28,58.198 59.28,55.991 C59.28,55.109 59.148,54.182 59.015,53.21 C58.883,52.239 58.751,51.18 58.751,49.989 C58.706,46.898 60.031,45.53 62.237,45 L62.237,44.912 C60.031,44.382 58.706,43.059 58.751,39.969 C58.751,38.821 58.883,37.762 59.015,36.79 C59.148,35.819 59.28,34.892 59.28,34.009 C59.28,31.848 58.486,30.611 56.235,30.568 L55.44,30.568 L55.44,27.389 L56.72,27.389 C60.648,27.389 63.297,29.154 63.297,33.304 C63.297,34.451 63.12,35.643 62.988,36.879 C62.855,38.07 62.679,39.262 62.679,40.41 C62.679,41.822 63.076,43.5 66.122,43.544 L66.122,46.412" fill="#FFFFFF"/>
    </g>
    <g display="none">
      <path d="M63.391,27.389 L26.334,27.389 C24.84,27.389 23.628,28.6 23.628,30.094 L23.628,52.848 C23.628,54.342 24.84,55.552 26.334,55.552 L35.664,55.552 C35.611,55.11 35.532,54.508 35.512,53.996 L26.378,53.996 L26.378,28.947 L63.327,28.947 L63.327,53.996 L46.693,53.996 C46.784,54.188 46.877,54.396 46.978,54.644 C47.118,54.992 48.168,54.649 48.539,55.275 C48.59,55.362 48.647,55.457 48.703,55.552 L63.391,55.552 C64.886,55.552 66.096,54.342 66.096,52.848 L66.096,30.094 C66.096,28.6 64.886,27.389 63.391,27.389" fill="#FFFFFF"/>
      <path d="M37.184,68.202 C37.023,68.202 36.869,68.115 36.789,67.962 C36.345,67.104 34.925,64.218 35.292,63.129 C35.378,62.736 34.971,60.158 34.822,59.756 C34.577,59.092 34.821,58.054 35.116,56.957 C35.182,56.71 35.265,56.403 35.269,56.318 C35.269,56.2 35.238,55.96 35.203,55.668 C35.009,54.088 34.936,53.109 35.535,52.846 C36.369,52.484 37.848,53.196 38.343,53.69 C39.138,54.487 39.236,55.822 39.314,56.894 C39.339,57.233 39.362,57.559 39.405,57.826 C39.982,56.086 40.277,52.766 40.523,50.003 C40.581,49.357 40.637,48.727 40.694,48.133 C40.998,44.974 41.922,43.32 43.352,43.402 C45.208,43.544 45.084,46.051 44.963,48.475 C44.889,49.969 44.804,51.662 45.272,52.282 C45.304,52.309 45.359,52.318 45.399,52.324 C45.982,52.414 46.532,52.649 47.345,54.619 C47.411,54.63 47.507,54.639 47.578,54.646 C47.982,54.686 48.594,54.744 48.92,55.296 C49.313,55.959 49.883,56.934 50.124,57.35 C50.629,57.414 51.774,57.667 52.773,58.666 C53.552,59.443 53.464,61.833 53.152,63.645 C52.871,65.272 52.323,67.826 52.318,67.851 C52.266,68.091 52.026,68.239 51.792,68.192 C51.553,68.141 51.4,67.904 51.451,67.666 C51.457,67.64 52.001,65.103 52.278,63.495 C52.686,61.126 52.44,59.587 52.146,59.293 C51.11,58.257 49.861,58.215 49.849,58.215 L49.601,58.208 L49.474,57.994 C49.474,57.994 48.666,56.606 48.158,55.748 C48.067,55.596 47.825,55.561 47.493,55.529 C47.152,55.496 46.727,55.455 46.567,55.057 C45.85,53.29 45.485,53.234 45.266,53.201 C45.081,53.172 44.801,53.129 44.564,52.816 C43.903,51.939 43.988,50.235 44.078,48.431 C44.173,46.524 44.28,44.362 43.284,44.286 C42.499,44.226 41.813,45.767 41.577,48.217 C41.52,48.81 41.464,49.437 41.406,50.081 C41.065,53.917 40.711,57.882 39.697,59.245 L39.492,59.52 L39.173,59.39 C38.978,59.31 38.831,59.122 38.613,58.359 C38.504,57.972 38.467,57.479 38.43,56.958 C38.359,55.984 38.279,54.88 37.717,54.317 C37.34,53.941 36.374,53.576 35.976,53.635 C35.89,53.993 36.024,55.078 36.082,55.56 C36.123,55.9 36.156,56.18 36.156,56.323 C36.156,56.495 36.095,56.725 35.971,57.187 C35.802,57.819 35.486,58.995 35.654,59.448 C35.818,59.893 36.339,62.806 36.132,63.414 C35.962,63.917 36.75,65.956 37.577,67.555 C37.688,67.772 37.604,68.04 37.386,68.152 C37.322,68.186 37.252,68.202 37.184,68.202" fill="#FFFFFF"/>
      <path d="M43.873,56.675 C43.628,56.675 43.43,56.477 43.43,56.231 C43.43,56.043 43.486,55.715 43.602,55.05 C43.785,53.999 44.061,52.412 44.061,51.212 C44.061,50.967 44.259,50.769 44.504,50.769 C44.749,50.769 44.947,50.967 44.947,51.212 C44.947,52.489 44.663,54.121 44.474,55.202 C44.397,55.649 44.316,56.112 44.316,56.231 C44.316,56.477 44.118,56.675 43.873,56.675" fill="#FFFFFF"/>
      <path d="M47.028,57.626 C46.994,57.626 46.96,57.621 46.925,57.613 C46.688,57.556 46.54,57.317 46.597,57.079 C46.756,56.413 46.686,55.952 46.604,55.42 C46.581,55.266 46.557,55.108 46.538,54.942 C46.509,54.699 46.683,54.48 46.926,54.451 C47.163,54.416 47.39,54.595 47.418,54.839 C47.436,54.995 47.459,55.142 47.48,55.286 C47.568,55.858 47.659,56.45 47.459,57.285 C47.411,57.488 47.229,57.626 47.028,57.626" fill="#FFFFFF"/>
      <path d="M38.073,65.177 C37.828,65.177 37.629,64.978 37.629,64.733 C37.629,62.863 38.788,59.249 38.92,58.842 C38.996,58.61 39.244,58.482 39.479,58.558 C39.712,58.634 39.838,58.884 39.763,59.117 C39.299,60.54 38.516,63.325 38.516,64.733 C38.516,64.978 38.318,65.177 38.073,65.177" fill="#FFFFFF"/>
      <path d="M49.781,60.257 C49.746,60.257 49.71,60.253 49.674,60.243 C49.437,60.185 49.292,59.944 49.351,59.707 C49.566,58.843 49.518,58.41 49.42,57.846 C49.379,57.605 49.54,57.376 49.782,57.334 C50.021,57.296 50.253,57.454 50.294,57.696 C50.404,58.327 50.467,58.893 50.211,59.921 C50.161,60.122 49.98,60.257 49.781,60.257" fill="#FFFFFF"/>
      <path d="M56.577,34.103 L54.078,35.995 L50.684,36.444 L46.936,40.28 L45.737,44.332 C45.878,44.716 45.967,45.142 46.024,45.588 L47.405,43.09 L50.684,41.047 L54.078,40.05 L57.24,37.916 L60.993,35.976 L60.993,31.651 L56.577,34.103" fill="#FFFFFF"/>
      <path d="M57.24,39.112 L54.078,41.247 L50.684,42.244 L47.405,44.288 L46.101,46.646 C46.114,47.173 46.099,47.705 46.077,48.214 L47.405,47.19 L50.8,45.433 L54.078,44.288 L57.24,42.037 L60.993,41.92 L60.993,37.173 L57.24,39.112" fill="#FFFFFF"/>
      <path d="M57.24,43.024 L54.078,45.274 L50.8,46.419 L47.405,48.175 L46.029,49.237 C46.014,49.58 46,49.962 45.997,50.335 L60.993,50.335 L60.993,42.907 L57.24,43.024" fill="#FFFFFF"/>
      <path d="M46.012,51.086 C46.023,51.283 46.039,51.464 46.066,51.606 C46.304,51.688 46.521,51.806 46.727,51.958 L61.535,51.958 L61.535,51.086 L46.012,51.086" fill="#FFFFFF"/>
      <path d="M42.197,31.658 L41.325,31.658 L41.325,43.356 C41.605,43.076 41.901,42.885 42.197,42.758 L42.197,42.575 L43.732,42.575 L43.732,42.139 L42.197,42.139 L42.197,39.442 L43.732,39.442 L43.732,39.006 L42.197,39.006 L42.197,36.311 L43.732,36.311 L43.732,35.874 L42.197,35.874 L42.197,33.179 L43.732,33.179 L43.732,32.743 L42.197,32.743 L42.197,31.658" fill="#FFFFFF"/>
      <path d="M30.073,33.173 L37.568,33.173 L37.568,34.927 L30.073,34.927 z M30.073,37.05 L37.568,37.05 L37.568,38.804 L30.073,38.804 z M30.073,40.928 L37.568,40.928 L37.568,42.682 L30.073,42.682 z M30.073,44.806 L37.568,44.806 L37.568,46.56 L30.073,46.56 z M30.073,48.683 L37.568,48.683 L37.568,50.437 L30.073,50.437 z M28.652,51.958 L38.989,51.958 L38.989,31.651 L28.652,31.651 z" fill="#FFFFFF"/>
    </g>
    <g display="none">
      <path d="M65.844,41.884 L52.706,37.653 C52.335,37.534 52.132,37.137 52.251,36.765 C52.37,36.396 52.767,36.192 53.138,36.311 L66.276,40.541 C66.647,40.661 66.85,41.059 66.731,41.429 C66.612,41.799 66.214,42.003 65.844,41.884 z M64.575,45.826 L51.437,41.596 C51.066,41.476 50.862,41.078 50.982,40.708 C51.101,40.338 51.498,40.134 51.869,40.253 L65.006,44.483 C65.378,44.604 65.581,45 65.461,45.37 C65.342,45.741 64.945,45.945 64.575,45.826 z M63.306,49.766 L50.168,45.535 C49.797,45.417 49.593,45.019 49.713,44.649 C49.832,44.279 50.229,44.075 50.6,44.194 L63.737,48.424 C64.109,48.544 64.312,48.941 64.193,49.311 C64.074,49.682 63.676,49.886 63.306,49.766 z M62.036,53.709 L48.898,49.479 C48.527,49.359 48.324,48.962 48.443,48.592 C48.562,48.221 48.96,48.017 49.33,48.138 L62.468,52.368 C62.839,52.486 63.043,52.884 62.923,53.254 C62.804,53.625 62.407,53.828 62.036,53.709 z M60.767,57.649 L47.63,53.419 C47.258,53.3 47.055,52.903 47.175,52.533 C47.294,52.162 47.691,51.958 48.061,52.078 L61.199,56.308 C61.57,56.427 61.774,56.825 61.654,57.195 C61.535,57.566 61.138,57.769 60.767,57.649 z M59.497,61.593 L46.36,57.363 C45.989,57.243 45.786,56.847 45.905,56.475 C46.024,56.106 46.421,55.902 46.791,56.021 L59.93,60.251 C60.3,60.371 60.504,60.768 60.385,61.138 C60.265,61.508 59.869,61.712 59.497,61.593 z M58.229,65.534 L45.091,61.304 C44.72,61.184 44.517,60.787 44.636,60.416 C44.755,60.047 45.152,59.843 45.522,59.961 L58.661,64.192 C59.032,64.312 59.235,64.708 59.116,65.079 C58.996,65.449 58.6,65.653 58.229,65.534 z M49.969,32.925 L40.225,63.187 L56.842,68.538 L63.07,65.89 L71.457,39.844 L49.969,32.925" fill="#FFFFFF"/>
      <path d="M27.227,51.525 C27.227,51.137 27.543,50.821 27.932,50.821 L41.734,50.821 C42.124,50.821 42.439,51.137 42.439,51.525 C42.439,51.915 42.124,52.231 41.734,52.231 L27.932,52.231 C27.543,52.231 27.227,51.915 27.227,51.525 z M27.932,46.682 L41.734,46.682 C42.124,46.682 42.439,46.997 42.439,47.386 C42.439,47.775 42.124,48.091 41.734,48.091 L27.932,48.091 C27.543,48.091 27.227,47.775 27.227,47.386 C27.227,46.997 27.543,46.682 27.932,46.682 z M27.932,42.538 L41.734,42.538 C42.124,42.538 42.439,42.854 42.439,43.244 C42.439,43.633 42.124,43.948 41.734,43.948 L27.932,43.948 C27.543,43.948 27.227,43.633 27.227,43.244 C27.227,42.854 27.543,42.538 27.932,42.538 z M27.932,38.398 L41.734,38.398 C42.124,38.398 42.439,38.714 42.439,39.104 C42.439,39.493 42.124,39.809 41.734,39.809 L27.932,39.809 C27.543,39.809 27.227,39.493 27.227,39.104 C27.227,38.714 27.543,38.398 27.932,38.398 z M27.932,34.257 L41.734,34.257 C42.124,34.257 42.439,34.572 42.439,34.961 C42.439,35.35 42.124,35.666 41.734,35.666 L27.932,35.666 C27.543,35.666 27.227,35.35 27.227,34.961 C27.227,34.572 27.543,34.257 27.932,34.257 z M27.932,30.117 L41.734,30.117 C42.124,30.117 42.439,30.433 42.439,30.821 C42.439,31.211 42.124,31.526 41.734,31.526 L27.932,31.526 C27.543,31.526 27.227,31.211 27.227,30.821 C27.227,30.433 27.543,30.117 27.932,30.117 z M27.932,25.975 L41.734,25.975 C42.124,25.975 42.439,26.291 42.439,26.679 C42.439,27.069 42.124,27.385 41.734,27.385 L27.932,27.385 C27.543,27.385 27.227,27.069 27.227,26.679 C27.227,26.291 27.543,25.975 27.932,25.975 z M41.732,55.171 L46.452,40.514 L46.452,23.723 L23.878,23.723 L23.878,55.516 L41.335,55.516 L41.732,55.171" fill="#FFFFFF"/>
    </g>
    <g>
      <path d="M63.156,53.522 C62.396,52.61 61.419,52.781 60.855,52.859 C60.715,52.878 60.321,53.066 60.207,53.131 L53.523,56.901 C53.736,57.488 53.743,58.15 53.488,58.776 L53.277,59.293 C52.833,60.381 51.796,61.047 50.68,61.047 C50.404,61.047 50.124,61.006 49.845,60.921 L45.33,59.384 C45.055,59.29 44.907,58.99 45.001,58.713 C45.095,58.437 45.394,58.288 45.672,58.384 L50.171,59.916 C51.029,60.18 51.953,59.742 52.299,58.893 L52.51,58.376 C52.828,57.599 52.477,56.72 51.711,56.377 C51.711,56.377 41.976,51.424 40.953,51.195 C40.223,51.033 37.962,51.195 37.962,51.195 C37.521,51.195 37.085,51.284 36.679,51.455 L27.205,55.444 C26.589,55.703 26.245,56.363 26.385,57.017 L27.861,63.907 C28.057,64.823 29.084,65.286 29.901,64.829 L36.595,61.081 C36.894,60.913 37.245,60.862 37.579,60.937 L50.119,63.748 C50.476,63.827 50.793,63.931 51.497,63.462 L62.901,56.246 C63.966,55.29 63.738,54.22 63.156,53.522" fill="#FFFFFF"/>
      <path d="M52.458,41.705 C49.462,41.705 47.025,44.142 47.025,47.137 C47.025,50.133 49.462,52.57 52.458,52.57 C55.453,52.57 57.89,50.133 57.89,47.137 C57.89,44.142 55.453,41.705 52.458,41.705 z M52.458,53.759 C48.807,53.759 45.837,50.788 45.837,47.137 C45.837,43.487 48.807,40.517 52.458,40.517 C56.108,40.517 59.078,43.487 59.078,47.137 C59.078,50.788 56.108,53.759 52.458,53.759" fill="#FFFFFF"/>
      <path d="M52.086,51.624 L52.086,50.52 C51.452,50.51 50.796,50.313 50.414,50.039 L50.676,49.307 C51.069,49.569 51.638,49.777 52.25,49.777 C53.026,49.777 53.55,49.329 53.55,48.707 C53.55,48.105 53.124,47.733 52.315,47.406 C51.2,46.968 50.512,46.466 50.512,45.515 C50.512,44.608 51.157,43.92 52.162,43.756 L52.162,42.651 L52.84,42.651 L52.84,43.711 C53.496,43.734 53.944,43.908 54.26,44.094 L53.987,44.815 C53.758,44.684 53.31,44.444 52.61,44.444 C51.769,44.444 51.452,44.946 51.452,45.384 C51.452,45.952 51.856,46.236 52.807,46.63 C53.933,47.089 54.501,47.657 54.501,48.63 C54.501,49.493 53.9,50.302 52.774,50.488 L52.774,51.624 L52.086,51.624" fill="#FFFFFF"/>
      <path d="M45.616,42.737 L45.616,41.797 C45.077,41.788 44.519,41.62 44.193,41.388 L44.416,40.765 C44.751,40.988 45.235,41.165 45.756,41.165 C46.417,41.165 46.863,40.783 46.863,40.253 C46.863,39.741 46.5,39.424 45.812,39.145 C44.863,38.774 44.277,38.345 44.277,37.536 C44.277,36.764 44.825,36.178 45.682,36.038 L45.682,35.098 L46.259,35.098 L46.259,36.001 C46.817,36.019 47.198,36.168 47.468,36.326 L47.235,36.94 C47.04,36.829 46.659,36.624 46.063,36.624 C45.346,36.624 45.077,37.052 45.077,37.424 C45.077,37.908 45.421,38.15 46.23,38.485 C47.189,38.876 47.673,39.36 47.673,40.188 C47.673,40.922 47.161,41.611 46.203,41.77 L46.203,42.737 L45.616,42.737" fill="#FFFFFF"/>
      <path d="M54.501,25.879 C52.267,25.879 50.45,27.696 50.45,29.929 C50.45,32.163 52.267,33.98 54.501,33.98 C56.735,33.98 58.552,32.163 58.552,29.929 C58.552,27.696 56.735,25.879 54.501,25.879 z M54.501,34.866 C51.779,34.866 49.564,32.652 49.564,29.929 C49.564,27.207 51.779,24.992 54.501,24.992 C57.223,24.992 59.438,27.207 59.438,29.929 C59.438,32.652 57.223,34.866 54.501,34.866" fill="#FFFFFF"/>
      <path d="M54.224,33.275 L54.224,32.452 C53.751,32.444 53.262,32.297 52.977,32.093 L53.173,31.547 C53.466,31.743 53.89,31.898 54.346,31.898 C54.925,31.898 55.316,31.563 55.316,31.099 C55.316,30.651 54.998,30.374 54.395,30.129 C53.564,29.803 53.05,29.429 53.05,28.719 C53.05,28.043 53.532,27.53 54.281,27.407 L54.281,26.585 L54.787,26.585 L54.787,27.375 C55.275,27.391 55.609,27.521 55.846,27.66 L55.642,28.198 C55.471,28.1 55.137,27.921 54.615,27.921 C53.988,27.921 53.751,28.296 53.751,28.622 C53.751,29.045 54.053,29.257 54.762,29.55 C55.601,29.893 56.025,30.317 56.025,31.042 C56.025,31.686 55.577,32.289 54.737,32.427 L54.737,33.275 L54.224,33.275" fill="#FFFFFF"/>
      <path d="M45.685,43.53 C43.25,43.4 41.308,41.384 41.308,38.917 C41.308,36.367 43.382,34.292 45.933,34.292 C48.483,34.292 50.558,36.367 50.558,38.917 C50.558,39.194 50.529,39.464 50.482,39.728 C50.825,39.636 51.176,39.564 51.536,39.522 C51.557,39.323 51.569,39.121 51.569,38.917 C51.569,35.809 49.041,33.281 45.933,33.281 C42.825,33.281 40.296,35.809 40.296,38.917 C40.296,41.795 42.465,44.172 45.254,44.509 C45.377,44.172 45.517,43.843 45.685,43.53" fill="#FFFFFF"/>
    </g>
  </g>
  <g id="Layer_1_Copy_Copy" display="none">
    <path d="M45,79 C26.222,79 11,63.778 11,45 C11,26.222 26.222,11 45,11 C63.778,11 79,26.222 79,45 C79,63.778 63.778,79 45,79 z" fill="#7FB1B3"/>
    <g display="none">
      <path d="M25.902,46.564 L27.556,46.564 L27.556,54.662 L25.902,54.662 z" fill="#FFFFFF"/>
      <path d="M27.557,36.531 L25.902,36.531 C25.902,31.407 30.285,31.392 33.485,31.383 C37.319,31.37 39.001,31.086 39.023,28.426 L40.677,28.44 C40.64,33.013 36.675,33.026 33.491,33.037 C29.701,33.049 27.557,33.217 27.557,36.531" fill="#FFFFFF"/>
      <path d="M43.316,26.754 L36.335,26.754 C34.8,26.754 33.543,25.497 33.543,23.961 L33.543,22.887 C33.543,21.351 34.8,20.094 36.335,20.094 L43.316,20.094 C44.852,20.094 46.108,21.351 46.108,22.887 L46.108,23.961 C46.108,25.497 44.852,26.754 43.316,26.754" fill="#FFFFFF"/>
      <path d="M30.228,44.908 L23.249,44.908 C21.713,44.908 20.456,43.652 20.456,42.116 L20.456,41.041 C20.456,39.505 21.713,38.249 23.249,38.249 L30.228,38.249 C31.764,38.249 33.021,39.505 33.021,41.041 L33.021,42.116 C33.021,43.652 31.764,44.908 30.228,44.908" fill="#FFFFFF"/>
      <path d="M56.437,44.908 L49.456,44.908 C47.921,44.908 46.664,43.652 46.664,42.116 L46.664,41.041 C46.664,39.505 47.921,38.249 49.456,38.249 L56.437,38.249 C57.973,38.249 59.229,39.505 59.229,41.041 L59.229,42.116 C59.229,43.652 57.973,44.908 56.437,44.908" fill="#FFFFFF"/>
      <path d="M46.624,62.837 L39.644,62.837 C38.109,62.837 36.851,61.58 36.851,60.045 L36.851,58.971 C36.851,57.435 38.109,56.178 39.644,56.178 L46.624,56.178 C48.16,56.178 49.417,57.435 49.417,58.971 L49.417,60.045 C49.417,61.58 48.16,62.837 46.624,62.837" fill="#FFFFFF"/>
      <path d="M66.249,62.837 L59.269,62.837 C57.734,62.837 56.476,61.58 56.476,60.045 L56.476,58.971 C56.476,57.435 57.734,56.178 59.269,56.178 L66.249,56.178 C67.785,56.178 69.042,57.435 69.042,58.971 L69.042,60.045 C69.042,61.58 67.785,62.837 66.249,62.837" fill="#FFFFFF"/>
      <path d="M30.219,62.837 L23.239,62.837 C21.703,62.837 20.446,61.58 20.446,60.045 L20.446,58.971 C20.446,57.435 21.703,56.178 23.239,56.178 L30.219,56.178 C31.755,56.178 33.012,57.435 33.012,58.971 L33.012,60.045 C33.012,61.58 31.755,62.837 30.219,62.837" fill="#FFFFFF"/>
      <path d="M53.774,36.531 L52.12,36.531 C52.12,33.217 49.976,33.049 46.186,33.037 C43,33.026 39.036,33.013 38.999,28.44 L40.653,28.426 C40.675,31.086 42.357,31.37 46.192,31.383 C49.391,31.392 53.774,31.407 53.774,36.531" fill="#FFFFFF"/>
      <path d="M43.962,54.662 L42.307,54.662 C42.307,49.539 45.7,49.524 48.178,49.513 C50.825,49.501 52.097,49.371 52.12,46.557 L53.774,46.571 C53.737,51.143 50.528,51.156 48.186,51.167 C45.642,51.178 43.962,51.185 43.962,54.662" fill="#FFFFFF"/>
      <path d="M63.586,54.662 L61.932,54.662 C61.932,51.185 60.251,51.178 57.707,51.167 C55.365,51.156 52.157,51.143 52.12,46.571 L53.774,46.557 C53.796,49.371 55.069,49.501 57.715,49.513 C60.193,49.524 63.586,49.539 63.586,54.662" fill="#FFFFFF"/>
    </g>
    <g display="none">
      <path d="M55.705,65.722 C53.206,66.078 36.883,66.288 34.466,65.992 C33.578,64.656 32.938,59.239 34.836,54.908 C35.777,52.762 37.069,51.674 38.679,51.674 C38.69,51.674 38.7,51.674 38.711,51.674 C40.534,52.415 42.656,52.791 44.831,52.762 C47.084,52.735 49.241,52.283 51.079,51.454 C52.564,51.341 53.84,52.301 54.836,54.314 C56.755,58.193 56.752,64.136 55.705,65.722 z M56.648,53.418 C55.239,50.571 53.112,49.164 50.689,49.462 C50.584,49.475 50.48,49.504 50.383,49.55 C48.768,50.304 46.84,50.716 44.805,50.742 C42.812,50.763 40.929,50.42 39.321,49.74 C39.212,49.694 39.098,49.667 38.98,49.661 C36.426,49.529 34.299,51.1 32.985,54.097 C31.037,58.541 31.148,65.617 33.2,67.619 C33.486,67.898 33.76,68.165 40.12,68.165 C41.488,68.165 43.139,68.152 45.13,68.124 C56.368,67.971 56.675,67.657 57.001,67.323 C59.024,65.248 58.836,57.84 56.648,53.418" fill="#FFFFFF"/>
      <path d="M38.752,37.013 C40.504,38.044 49.252,36.811 51.681,38.012 C51.864,38.516 51.999,39.044 52.062,39.598 C52.277,41.449 51.754,43.276 50.589,44.742 C49.405,46.232 47.703,47.172 45.799,47.388 C41.903,47.826 38.36,45.052 37.914,41.195 C37.745,39.729 38.045,38.281 38.752,37.013 z M44.981,49.455 C45.326,49.455 45.675,49.436 46.027,49.396 C48.468,49.119 50.651,47.913 52.172,45.999 C53.673,44.11 54.347,41.754 54.07,39.365 C53.498,34.405 48.955,30.825 43.951,31.395 L43.951,31.395 C41.508,31.673 39.326,32.88 37.805,34.793 C36.305,36.683 35.63,39.038 35.905,41.427 C36.439,46.041 40.402,49.455 44.981,49.455" fill="#FFFFFF"/>
      <path d="M33.956,43.015 C34.263,42.979 34.564,42.922 34.861,42.852 C34.758,42.435 34.672,42.012 34.621,41.575 C34.306,38.843 35.078,36.149 36.792,33.989 C37.596,32.978 38.567,32.149 39.647,31.509 C38.137,29.049 35.28,27.536 32.211,27.886 L32.211,27.886 C30.158,28.118 28.324,29.133 27.046,30.741 C25.785,32.329 25.218,34.308 25.45,36.316 C25.898,40.194 29.229,43.064 33.077,43.064 C33.367,43.064 33.66,43.048 33.956,43.015" fill="#FFFFFF"/>
      <path d="M66.696,46.394 C65.512,44.001 63.725,42.819 61.689,43.07 C61.6,43.08 61.513,43.105 61.431,43.143 C60.074,43.778 58.453,44.124 56.744,44.145 C56.064,44.152 55.406,44.096 54.766,44.004 C54.392,45 53.866,45.946 53.184,46.804 C52.786,47.304 52.345,47.757 51.874,48.169 C54.295,48.387 56.412,50.026 57.807,52.843 C58.613,54.473 59.189,56.571 59.482,58.714 C66.509,58.576 66.746,58.334 66.993,58.081 C68.694,56.337 68.535,50.111 66.696,46.394" fill="#FFFFFF"/>
      <path d="M64.531,34.584 C64.049,30.415 60.23,27.406 56.026,27.886 L56.025,27.886 C53.972,28.118 52.138,29.133 50.86,30.741 C50.663,30.989 50.49,31.249 50.327,31.515 C53.021,33.114 54.971,35.888 55.355,39.217 C55.498,40.452 55.408,41.676 55.119,42.85 C55.692,42.986 56.284,43.064 56.891,43.064 C57.181,43.064 57.474,43.048 57.77,43.015 C59.822,42.782 61.656,41.768 62.935,40.16 C64.196,38.571 64.763,36.591 64.531,34.584" fill="#FFFFFF"/>
      <path d="M31.801,53.577 C33.209,50.366 35.58,48.533 38.374,48.393 C36.943,47.227 35.832,45.685 35.185,43.91 C34.46,44.05 33.707,44.135 32.93,44.145 C31.254,44.162 29.671,43.875 28.32,43.303 C28.229,43.265 28.132,43.242 28.034,43.237 C25.887,43.126 24.099,44.447 22.995,46.965 C21.357,50.7 21.451,56.647 23.175,58.33 C23.416,58.564 23.646,58.788 28.992,58.788 C29.442,58.788 29.941,58.786 30.468,58.783 C30.696,56.899 31.149,55.066 31.801,53.577" fill="#FFFFFF"/>
    </g>
    <g display="none">
      <path d="M52.129,43.012 C52.13,43.013 52.133,43.013 52.135,43.012 C53.156,42.234 54.764,40.81 55.269,39.508 C55.274,39.495 55.279,39.485 55.284,39.472 C55.288,39.464 55.292,39.454 55.296,39.446 C55.298,39.44 55.299,39.434 55.302,39.43 C55.304,39.425 55.307,39.421 55.309,39.416 C55.315,39.405 55.321,39.393 55.327,39.382 C55.33,39.375 55.334,39.368 55.338,39.361 C56.208,37.802 55.828,36.6 55.461,35.44 C55.456,35.421 55.451,35.406 55.446,35.388 C54.84,35.264 54.205,34.976 53.544,34.52 C53.12,34.227 52.911,33.652 53.097,33.147 C53.349,32.464 54.095,32.231 54.637,32.609 C55.132,32.955 55.835,33.335 56.373,33.179 C56.756,33.067 57.116,32.667 57.443,31.987 C57.669,31.517 58.156,31.234 58.633,31.365 C59.309,31.549 59.614,32.336 59.318,32.964 C58.845,33.969 58.251,34.675 57.549,35.075 C57.547,35.076 57.546,35.079 57.546,35.081 C57.874,36.158 58.213,37.599 57.656,39.304 C57.655,39.308 57.657,39.311 57.66,39.312 C59.02,39.648 60.614,39.308 62.105,38.324 C63.346,37.505 64.29,36.359 64.774,35.155 C64.775,35.154 64.775,35.152 64.774,35.15 C64.482,34.638 64.15,34.154 63.779,33.703 C63.779,33.703 63.778,33.703 63.778,33.702 C63.258,30.91 61.632,28.527 59.39,27.055 C59.389,27.054 59.388,27.053 59.388,27.052 C58.885,25.187 57.538,23.74 55.852,23.275 C55.848,23.274 55.845,23.278 55.846,23.282 C56.617,25.847 56.207,28.386 54.76,29.736 C54.279,30.187 53.454,30.712 52.235,30.712 C51.31,30.712 50.159,30.41 48.758,29.542 C48.334,29.28 48.118,28.73 48.269,28.228 C48.482,27.521 49.221,27.24 49.784,27.59 C51.37,28.575 52.653,28.735 53.397,28.041 C54.255,27.239 54.391,25.343 53.719,23.533 C53.643,23.328 53.628,23.115 53.662,22.914 C53.663,22.912 53.662,22.91 53.662,22.909 C51.914,21.302 49.3,20.233 46.342,20.094 C46.339,20.094 46.337,20.097 46.337,20.1 L46.337,35.249 C46.337,35.249 46.337,35.25 46.337,35.251 C47.022,36.685 49.03,40.484 52.129,43.012" fill="#FFFFFF"/>
      <path d="M66.122,40.284 C66.122,39.394 66.01,38.532 65.801,37.709 C65.8,37.705 65.796,37.704 65.793,37.708 C65.124,38.675 64.242,39.545 63.192,40.238 C61.743,41.194 60.189,41.681 58.715,41.681 C58.02,41.681 57.344,41.57 56.702,41.352 C56.7,41.351 56.698,41.352 56.697,41.354 C56.197,42.173 55.462,43.02 54.5,43.882 C54.338,44.026 54.18,44.162 54.027,44.29 C54.024,44.292 54.025,44.297 54.028,44.299 C55.504,45.1 57.165,45.556 58.994,45.392 C59.574,45.34 60.082,45.809 60.12,46.437 C60.157,47.056 59.692,47.583 59.118,47.632 C58.83,47.656 58.541,47.669 58.253,47.669 C55.953,47.669 53.703,46.883 51.586,45.357 C51.54,45.328 51.497,45.296 51.455,45.259 C50.244,44.366 49.077,43.23 47.97,41.857 C47.355,41.094 46.814,40.328 46.345,39.606 C46.343,39.601 46.337,39.604 46.337,39.609 L46.337,69.9 C46.337,69.903 46.339,69.906 46.341,69.906 L52.622,69.906 C52.624,69.906 52.624,69.905 52.625,69.904 C53.382,69.125 54.116,66.629 54.155,66.255 C54.343,64.449 53.362,61.316 50.642,59.653 C50.64,59.652 50.639,59.652 50.637,59.653 C50.066,59.936 49.375,60.099 48.57,60.135 C48.554,60.136 48.539,60.136 48.524,60.136 C47.887,60.136 47.374,59.515 47.504,58.787 C47.595,58.274 48.029,57.917 48.513,57.893 C48.962,57.87 49.509,57.785 49.897,57.543 L49.898,57.542 C49.96,57.481 50.028,57.43 50.1,57.387 C50.137,57.352 50.171,57.315 50.203,57.275 C50.458,56.941 50.534,56.381 50.43,55.612 C50.366,55.134 50.569,54.643 50.972,54.43 C51.651,54.07 52.385,54.53 52.487,55.26 C52.639,56.357 52.541,57.29 52.198,58.048 C52.197,58.051 52.198,58.053 52.2,58.054 C54.213,59.491 55.473,61.626 55.989,63.688 C55.99,63.691 55.994,63.693 55.996,63.691 C58.226,62.498 59.956,60.45 60.781,57.966 C60.782,57.962 60.78,57.959 60.777,57.958 C58.223,57.347 56.333,56.098 55.039,54.932 C52.767,52.885 51.803,50.658 51.763,50.564 C51.523,50.001 51.752,49.335 52.275,49.076 C52.797,48.819 53.414,49.065 53.654,49.626 C53.767,49.887 56.027,54.918 61.962,55.924 C61.964,55.924 61.965,55.923 61.966,55.922 C63.55,54.042 64.518,51.55 64.518,48.812 C64.518,47.937 64.418,47.088 64.232,46.276 C64.232,46.274 64.232,46.272 64.233,46.271 C65.42,44.592 66.122,42.524 66.122,40.284" fill="#FFFFFF"/>
      <path d="M37.872,43.012 C37.87,43.013 37.868,43.013 37.866,43.012 C36.844,42.234 35.236,40.81 34.732,39.508 C34.727,39.495 34.721,39.485 34.717,39.472 C34.713,39.464 34.709,39.454 34.705,39.446 C34.702,39.44 34.701,39.434 34.699,39.43 C34.697,39.425 34.694,39.421 34.692,39.416 C34.686,39.405 34.68,39.393 34.674,39.382 C34.67,39.375 34.667,39.368 34.663,39.361 C33.793,37.802 34.172,36.6 34.54,35.44 C34.545,35.421 34.55,35.406 34.555,35.388 C35.16,35.264 35.795,34.976 36.457,34.52 C36.881,34.227 37.09,33.652 36.903,33.147 C36.652,32.464 35.906,32.231 35.364,32.609 C34.869,32.955 34.166,33.335 33.628,33.179 C33.244,33.067 32.885,32.667 32.558,31.987 C32.332,31.517 31.845,31.234 31.368,31.365 C30.692,31.549 30.387,32.336 30.683,32.964 C31.156,33.969 31.749,34.675 32.452,35.075 C32.454,35.076 32.455,35.079 32.454,35.081 C32.127,36.158 31.787,37.599 32.344,39.304 C32.346,39.308 32.344,39.311 32.341,39.312 C30.98,39.648 29.386,39.308 27.896,38.324 C26.655,37.505 25.711,36.359 25.226,35.155 C25.226,35.154 25.226,35.152 25.227,35.15 C25.519,34.638 25.851,34.154 26.221,33.703 C26.221,33.703 26.222,33.703 26.223,33.702 C26.743,30.91 28.369,28.527 30.611,27.055 C30.612,27.054 30.612,27.053 30.613,27.052 C31.116,25.187 32.463,23.74 34.149,23.275 C34.153,23.274 34.156,23.278 34.155,23.282 C33.384,25.847 33.794,28.386 35.24,29.736 C35.722,30.187 36.547,30.712 37.766,30.712 C38.69,30.712 39.842,30.41 41.243,29.542 C41.667,29.28 41.883,28.73 41.731,28.228 C41.519,27.521 40.78,27.24 40.216,27.59 C38.631,28.575 37.348,28.735 36.603,28.041 C35.745,27.239 35.61,25.343 36.281,23.533 C36.358,23.328 36.373,23.115 36.338,22.914 C36.338,22.912 36.338,22.91 36.339,22.909 C38.086,21.302 40.701,20.233 43.659,20.094 C43.662,20.094 43.663,20.097 43.663,20.1 L43.663,35.249 C43.663,35.249 43.663,35.25 43.663,35.251 C42.978,36.685 40.971,40.484 37.872,43.012" fill="#FFFFFF"/>
      <path d="M23.878,40.284 C23.878,39.394 23.991,38.532 24.2,37.709 C24.201,37.705 24.205,37.704 24.208,37.708 C24.877,38.675 25.758,39.545 26.809,40.238 C28.258,41.194 29.811,41.681 31.286,41.681 C31.981,41.681 32.657,41.57 33.299,41.352 C33.301,41.351 33.303,41.352 33.304,41.354 C33.803,42.173 34.539,43.02 35.5,43.882 C35.663,44.026 35.821,44.162 35.974,44.29 C35.977,44.292 35.976,44.297 35.973,44.299 C34.497,45.1 32.836,45.556 31.007,45.392 C30.427,45.34 29.919,45.809 29.881,46.437 C29.844,47.056 30.309,47.583 30.882,47.632 C31.171,47.656 31.459,47.669 31.747,47.669 C34.048,47.669 36.298,46.883 38.414,45.357 C38.46,45.328 38.504,45.296 38.546,45.259 C39.757,44.366 40.924,43.23 42.031,41.857 C42.645,41.094 43.187,40.328 43.655,39.606 C43.658,39.601 43.663,39.604 43.663,39.609 L43.663,69.9 C43.663,69.903 43.662,69.906 43.659,69.906 L37.378,69.906 C37.377,69.906 37.376,69.905 37.376,69.904 C36.619,69.125 35.885,66.629 35.846,66.255 C35.657,64.449 36.638,61.316 39.359,59.653 C39.36,59.652 39.362,59.652 39.364,59.653 C39.935,59.936 40.626,60.099 41.431,60.135 C41.447,60.136 41.462,60.136 41.477,60.136 C42.113,60.136 42.626,59.515 42.497,58.787 C42.405,58.274 41.971,57.917 41.487,57.893 C41.039,57.87 40.491,57.785 40.103,57.543 L40.102,57.542 C40.041,57.481 39.973,57.43 39.901,57.387 C39.864,57.352 39.83,57.315 39.798,57.275 C39.543,56.941 39.466,56.381 39.571,55.612 C39.635,55.134 39.431,54.643 39.029,54.43 C38.35,54.07 37.615,54.53 37.514,55.26 C37.361,56.357 37.459,57.29 37.803,58.048 C37.804,58.051 37.803,58.053 37.801,58.054 C35.788,59.491 34.528,61.626 34.012,63.688 C34.011,63.691 34.007,63.693 34.004,63.691 C31.775,62.498 30.045,60.45 29.22,57.966 C29.219,57.962 29.22,57.959 29.223,57.958 C31.778,57.347 33.668,56.098 34.962,54.932 C37.234,52.885 38.198,50.658 38.238,50.564 C38.477,50.001 38.248,49.335 37.726,49.076 C37.204,48.819 36.587,49.065 36.346,49.626 C36.233,49.887 33.974,54.918 28.038,55.924 C28.037,55.924 28.035,55.923 28.035,55.922 C26.451,54.042 25.482,51.55 25.482,48.812 C25.482,47.937 25.583,47.088 25.769,46.276 C25.769,46.274 25.769,46.272 25.768,46.271 C24.581,44.592 23.878,42.524 23.878,40.284" fill="#FFFFFF"/>
    </g>
  </g>
  <g id="Layer_1_Copy" display="none">
    <path d="M45,79 C26.222,79 11,63.778 11,45 C11,26.222 26.222,11 45,11 C63.778,11 79,26.222 79,45 C79,63.778 63.778,79 45,79 z" fill="#CABC1F"/>
    <g display="none">
      <path d="M58.89,64.724 C55.647,65.187 34.467,65.459 31.331,65.075 C30.179,63.342 29.349,56.313 31.812,50.693 C33.033,47.908 34.709,46.497 36.798,46.497 C36.812,46.497 36.825,46.497 36.839,46.497 C39.205,47.458 41.958,47.946 44.78,47.909 C47.704,47.873 50.502,47.287 52.888,46.211 C54.815,46.064 56.47,47.31 57.762,49.922 C60.253,54.955 60.248,62.667 58.89,64.724 z M60.113,48.759 C58.285,45.065 55.526,43.24 52.382,43.626 C52.245,43.643 52.11,43.681 51.984,43.74 C49.889,44.719 47.387,45.254 44.747,45.287 C42.161,45.314 39.718,44.87 37.631,43.987 C37.49,43.928 37.342,43.893 37.189,43.885 C33.875,43.713 31.114,45.752 29.41,49.64 C26.882,55.407 27.026,64.589 29.688,67.186 C30.06,67.548 30.415,67.894 38.668,67.894 C40.443,67.894 42.585,67.878 45.169,67.842 C59.75,67.643 60.148,67.235 60.571,66.802 C63.197,64.109 62.952,54.497 60.113,48.759" fill="#FFFFFF"/>
      <path d="M36.893,29.473 C39.166,30.811 50.517,29.211 53.669,30.77 C53.906,31.423 54.081,32.108 54.163,32.827 C54.442,35.229 53.763,37.6 52.252,39.502 C50.715,41.436 48.507,42.655 46.036,42.935 C40.981,43.504 36.384,39.904 35.805,34.899 C35.586,32.997 35.975,31.119 36.893,29.473 z M44.975,45.618 C45.423,45.618 45.876,45.593 46.332,45.541 C49.5,45.182 52.332,43.617 54.306,41.133 C56.253,38.682 57.128,35.625 56.769,32.525 C56.026,26.089 50.131,21.444 43.639,22.184 L43.638,22.184 C40.469,22.544 37.638,24.11 35.664,26.593 C33.717,29.045 32.842,32.101 33.199,35.2 C33.892,41.187 39.034,45.618 44.975,45.618" fill="#FFFFFF"/>
    </g>
    <g display="none">
      <path d="M51.273,44.572 L48.864,44.572 L48.864,42.163 C48.864,40.939 47.871,39.946 46.646,39.946 C45.421,39.946 44.428,40.939 44.428,42.163 L44.428,44.572 L42.019,44.572 C40.794,44.572 39.801,45.565 39.801,46.791 C39.801,48.015 40.794,49.008 42.019,49.008 L44.428,49.008 L44.428,51.417 C44.428,52.643 45.421,53.636 46.646,53.636 C47.871,53.636 48.864,52.643 48.864,51.417 L48.864,49.008 L51.273,49.008 C52.498,49.008 53.491,48.015 53.491,46.791 C53.491,45.565 52.498,44.572 51.273,44.572" fill="#FFFFFF"/>
      <path d="M54.626,54.788 C52.495,56.919 49.661,58.093 46.646,58.093 C43.633,58.093 40.801,56.92 38.67,54.791 C38.67,54.79 38.669,54.789 38.668,54.788 C38.667,54.788 38.666,54.787 38.666,54.787 C34.268,50.386 34.269,43.228 38.667,38.829 C40.798,36.697 43.632,35.524 46.646,35.524 C49.661,35.524 52.495,36.698 54.626,38.829 C59.026,43.229 59.026,50.388 54.626,54.788 z M56.937,36.518 C54.188,33.77 50.534,32.256 46.646,32.256 C42.758,32.256 39.104,33.769 36.357,36.518 C31.383,41.491 30.771,49.2 34.517,54.848 L25.85,63.514 C24.721,64.643 24.721,66.474 25.851,67.604 C26.98,68.734 28.812,68.734 29.941,67.604 L38.604,58.941 C40.968,60.514 43.742,61.361 46.646,61.361 C50.534,61.361 54.188,59.847 56.937,57.098 C62.61,51.424 62.61,42.193 56.937,36.518" fill="#FFFFFF"/>
      <path d="M57.767,31.034 L60.765,31.034 L60.765,34.033 L57.767,34.033 z M57.804,35.652 C57.809,35.657 57.812,35.662 57.817,35.667 L62.399,35.667 L62.399,29.4 L56.133,29.4 L56.133,34.22 C56.715,34.66 57.279,35.128 57.804,35.652" fill="#FFFFFF"/>
      <path d="M32.966,54.667 C32.645,54.11 32.376,53.535 32.131,52.953 L31.881,52.953 L31.881,55.752 L32.966,54.667" fill="#FFFFFF"/>
      <path d="M56.139,43.518 C56.137,43.512 56.136,43.507 56.133,43.501 L56.133,43.518 L56.139,43.518" fill="#FFFFFF"/>
      <path d="M57.768,23.183 L60.766,23.183 L60.766,26.181 L57.768,26.181 z M56.134,27.815 L62.4,27.815 L62.4,21.549 L56.134,21.549 z" fill="#FFFFFF"/>
      <path d="M62.399,37.251 L59.181,37.251 C60.625,39.144 61.589,41.286 62.062,43.518 L62.399,43.518 L62.399,37.251" fill="#FFFFFF"/>
      <path d="M49.682,62.439 L52.68,62.439 L52.68,65.437 L49.682,65.437 z M48.048,62.518 L48.048,67.072 L54.314,67.072 L54.314,60.805 L53.931,60.805 C52.114,61.753 50.124,62.337 48.048,62.518" fill="#FFFFFF"/>
      <path d="M44.596,62.454 L44.596,65.437 L41.599,65.437 L41.599,62.439 L44.497,62.439 C42.922,62.225 41.397,61.772 39.965,61.1 L39.965,67.072 L46.23,67.072 L46.23,62.573 C45.682,62.558 45.136,62.524 44.596,62.454" fill="#FFFFFF"/>
      <path d="M57.766,62.439 L60.764,62.439 L60.764,65.437 L57.766,65.437 z M56.132,67.072 L62.399,67.072 L62.399,60.805 L56.132,60.805 z" fill="#FFFFFF"/>
      <path d="M41.6,31.868 L41.6,31.034 L44.598,31.034 L44.598,31.178 C45.137,31.109 45.681,31.064 46.232,31.051 L46.232,29.4 L39.966,29.4 L39.966,32.526 C40.498,32.276 41.042,32.056 41.6,31.868" fill="#FFFFFF"/>
      <path d="M33.516,23.183 L36.513,23.183 L36.513,26.181 L33.516,26.181 z M31.881,27.815 L38.148,27.815 L38.148,21.549 L31.881,21.549 z" fill="#FFFFFF"/>
      <path d="M33.516,31.034 L36.513,31.034 L36.513,34.033 L33.516,34.033 z M35.49,35.652 C36.305,34.836 37.2,34.131 38.148,33.521 L38.148,29.4 L31.881,29.4 L31.881,35.667 L35.476,35.667 C35.481,35.661 35.485,35.656 35.49,35.652" fill="#FFFFFF"/>
      <path d="M49.684,31.323 L49.684,31.034 L52.682,31.034 L52.682,32.221 C53.242,32.454 53.784,32.728 54.316,33.024 L54.316,29.4 L48.05,29.4 L48.05,31.099 C48.6,31.147 49.146,31.22 49.684,31.323" fill="#FFFFFF"/>
      <path d="M41.601,23.183 L44.598,23.183 L44.598,26.181 L41.601,26.181 z M39.966,27.815 L46.232,27.815 L46.232,21.549 L39.966,21.549 z" fill="#FFFFFF"/>
      <path d="M25.431,46.737 L28.429,46.737 L28.429,49.736 L25.431,49.736 z M23.797,51.37 L30.063,51.37 L30.063,45.103 L23.797,45.103 z" fill="#FFFFFF"/>
      <path d="M25.431,38.885 L28.429,38.885 L28.429,41.883 L25.431,41.883 z M23.797,43.518 L30.063,43.518 L30.063,37.251 L23.797,37.251 z" fill="#FFFFFF"/>
      <path d="M25.431,31.034 L28.429,31.034 L28.429,34.033 L25.431,34.033 z M23.797,35.667 L30.063,35.667 L30.063,29.4 L23.797,29.4 z" fill="#FFFFFF"/>
      <path d="M34.11,37.251 L31.881,37.251 L31.881,41.294 C32.413,39.861 33.16,38.499 34.11,37.251" fill="#FFFFFF"/>
      <path d="M25.431,54.587 L28.428,54.587 L28.428,57.586 L25.431,57.586 z M23.796,52.953 L23.796,59.22 L28.412,59.22 L30.063,57.57 L30.063,52.953 L23.796,52.953" fill="#FFFFFF"/>
    </g>
    <g>
      <path d="M24.757,26.021 L28.884,26.021 L28.884,26.935 L24.757,26.935 z" fill="#FFFFFF"/>
      <path d="M24.757,32.578 L28.884,32.578 L28.884,33.492 L24.757,33.492 z" fill="#FFFFFF"/>
      <path d="M24.757,39.135 L28.884,39.135 L28.884,40.049 L24.757,40.049 z" fill="#FFFFFF"/>
      <path d="M24.757,45.691 L28.884,45.691 L28.884,46.605 L24.757,46.605 z" fill="#FFFFFF"/>
      <path d="M24.757,52.248 L28.884,52.248 L28.884,53.162 L24.757,53.162 z" fill="#FFFFFF"/>
      <path d="M24.757,58.805 L28.884,58.805 L28.884,59.719 L24.757,59.719 z" fill="#FFFFFF"/>
      <path d="M66.157,66.253 L23.854,66.253 L23.843,65.339 L23.843,23.747 L25.671,23.747 L25.671,64.425 L66.157,64.425 L66.157,66.253" fill="#FFFFFF"/>
      <path d="M63.552,30.394 C63.552,33.505 61.03,36.027 57.919,36.027 C54.809,36.027 52.287,33.505 52.287,30.394 C52.287,27.284 54.809,24.761 57.919,24.761 C61.03,24.761 63.552,27.284 63.552,30.394" fill="#FFFFFF"/>
      <path d="M45.02,54.086 C45.02,56.589 42.99,58.619 40.487,58.619 C37.983,58.619 35.953,56.589 35.953,54.086 C35.953,51.582 37.983,49.552 40.487,49.552 C42.99,49.552 45.02,51.582 45.02,54.086" fill="#FFFFFF"/>
      <path d="M40.487,35.476 C40.487,36.823 39.394,37.916 38.045,37.916 C36.698,37.916 35.605,36.823 35.605,35.476 C35.605,34.128 36.698,33.035 38.045,33.035 C39.394,33.035 40.487,34.128 40.487,35.476" fill="#FFFFFF"/>
      <path d="M59.892,44.543 C59.892,45.632 59.009,46.515 57.919,46.515 C56.831,46.515 55.948,45.632 55.948,44.543 C55.948,43.454 56.831,42.571 57.919,42.571 C59.009,42.571 59.892,43.454 59.892,44.543" fill="#FFFFFF"/>
      <path d="M64.226,57.239 C64.226,58.981 62.815,60.392 61.073,60.392 C59.331,60.392 57.919,58.981 57.919,57.239 C57.919,55.498 59.331,54.086 61.073,54.086 C62.815,54.086 64.226,55.498 64.226,57.239" fill="#FFFFFF"/>
      <path d="M50.882,43.156 C50.882,44.655 49.668,45.869 48.17,45.869 C46.672,45.869 45.457,44.655 45.457,43.156 C45.457,41.658 46.672,40.443 48.17,40.443 C49.668,40.443 50.882,41.658 50.882,43.156" fill="#FFFFFF"/>
    </g>
  </g>
</svg>
