<svg id="Layer_1" data-name="Layer 1" xmlns="http://www.w3.org/2000/svg" viewBox="0 0 111.73 111.73"><defs><style>.cls-1{fill:none;stroke:#61615f;stroke-linecap:round;stroke-linejoin:round;stroke-width:2px;}.cls-2{fill:#61615f;}</style></defs><circle class="cls-1" cx="56.71" cy="56.85" r="37.85" transform="translate(-24.25 55.77) rotate(-45)"/><line class="cls-1" x1="56.05" y1="1.95" x2="56.05" y2="24.95"/><line class="cls-1" x1="56.05" y1="87.33" x2="56.05" y2="110.23"/><line class="cls-1" x1="110.09" y1="55.87" x2="87.09" y2="55.87"/><line class="cls-1" x1="24.71" y1="55.87" x2="1.81" y2="55.87"/><path class="cls-2" d="M60.19,56.85a3.48,3.48,0,1,1-3.48-3.48A3.48,3.48,0,0,1,60.19,56.85Z" transform="translate(-0.66 -0.98)"/><path class="cls-1" d="M1.66,83.09v17.34a11.28,11.28,0,0,0,11.28,11.28H30.28" transform="translate(-0.66 -0.98)"/><path class="cls-1" d="M30.28,2H12.94A11.28,11.28,0,0,0,1.66,13.27V30.61" transform="translate(-0.66 -0.98)"/><path class="cls-1" d="M82.76,111.71H100.1a11.29,11.29,0,0,0,11.29-11.28V83.09" transform="translate(-0.66 -0.98)"/><path class="cls-1" d="M111.39,30.61V13.27A11.29,11.29,0,0,0,100.1,2H82.76" transform="translate(-0.66 -0.98)"/></svg>