<svg id="Layer_1" data-name="Layer 1" xmlns="http://www.w3.org/2000/svg" viewBox="0 0 112.58 99.16"><defs><style>.cls-1{fill:none;stroke:#61615f;stroke-linecap:round;stroke-linejoin:round;stroke-width:2px;}</style></defs><path class="cls-1" d="M27.24,105V32.61l.11-3.43c0-5,4.46-21.07,29.11-21.07,25.64,0,29.1,16.07,29.1,21.07l-.31,76.09" transform="translate(-0.4 -7.11)"/><path class="cls-1" d="M37.89,12.56l.33,28.35c0,7,2.16,21.07,18.15,21.07,15.37,0,18.15-13.56,18.15-21.07l.07-3.42v-25" transform="translate(-0.4 -7.11)"/><polyline class="cls-1" points="98.37 7.86 111.46 20.95 99.34 33.06 111.58 45.3 99.95 56.93 111.58 68.56 98.86 81.29"/><polyline class="cls-1" points="14.21 81.29 1.12 68.2 13.24 56.09 1 43.85 12.63 32.22 1 20.58 13.72 7.86"/><line class="cls-1" x1="44.86" y1="85.65" x2="68.12" y2="85.65"/></svg>