<svg id="Layer_1" data-name="Layer 1" xmlns="http://www.w3.org/2000/svg" viewBox="0 0 111.2 109.98"><defs><style>.cls-1{fill:none;stroke:#61615f;stroke-linecap:round;stroke-linejoin:round;stroke-width:2px;}</style></defs><path class="cls-1" d="M91.14,18.61a20.16,20.16,0,1,0,20.15,20.15A20.18,20.18,0,0,0,91.14,18.61Z" transform="translate(-1.09 -1.7)"/><path class="cls-1" d="M44.17,70.37A20.16,20.16,0,1,0,64.33,90.53,20.18,20.18,0,0,0,44.17,70.37Z" transform="translate(-1.09 -1.7)"/><path class="cls-1" d="M22.25,2.7A20.16,20.16,0,1,0,42.4,22.86,20.18,20.18,0,0,0,22.25,2.7Z" transform="translate(-1.09 -1.7)"/><path class="cls-1" d="M22.25,7.65A15.21,15.21,0,1,0,37.46,22.86,15.22,15.22,0,0,0,22.25,7.65Z" transform="translate(-1.09 -1.7)"/><path class="cls-1" d="M41.49,16.54a25.47,25.47,0,0,0,35,8.34" transform="translate(-1.09 -1.7)"/><path class="cls-1" d="M85.9,58.29a25.47,25.47,0,0,0-22,28.5" transform="translate(-1.09 -1.7)"/><path class="cls-1" d="M28.65,77.52c6.47-12.44,1.55-28.47-10.9-34.95" transform="translate(-1.09 -1.7)"/></svg>