<svg id="Layer_1" data-name="Layer 1" xmlns="http://www.w3.org/2000/svg" viewBox="0 0 111.35 84.24"><defs><style>.cls-1{fill:none;stroke:#61615f;stroke-linecap:round;stroke-linejoin:round;stroke-width:2px;}</style></defs><path class="cls-1" d="M56.52,49.83V21a5.39,5.39,0,0,0-5.4-5.39H7.42A5.39,5.39,0,0,0,2,21V78.54a5.4,5.4,0,0,0,5.4,5.4h49.1V77.71" transform="translate(-1.02 -14.58)"/><path class="cls-1" d="M56.52,49.83" transform="translate(-1.02 -14.58)"/><path class="cls-1" d="M56.52,77.71" transform="translate(-1.02 -14.58)"/><path class="cls-1" d="M56.87,64.46" transform="translate(-1.02 -14.58)"/><path class="cls-1" d="M56.8,64.4a10.28,10.28,0,0,1,8.4-3.58,10.4,10.4,0,0,1,9.75,10,10.24,10.24,0,0,1-18.08,6.9v14.7a5.39,5.39,0,0,0,5.39,5.4H106a5.4,5.4,0,0,0,5.4-5.4V34.84a5.4,5.4,0,0,0-5.4-5.4H56.87" transform="translate(-1.02 -14.58)"/><line class="cls-1" x1="1.27" y1="10.57" x2="55.03" y2="10.57"/><line class="cls-1" x1="56.2" y1="23.94" x2="109.97" y2="23.94"/><path class="cls-1" d="M56.45,64.69a10.2,10.2,0,0,1-8.33,3.64,10.4,10.4,0,0,1-9.75-10,10.24,10.24,0,0,1,18.08-6.9V36.74" transform="translate(-1.02 -14.58)"/></svg>