<svg id="Layer_1" data-name="Layer 1" xmlns="http://www.w3.org/2000/svg" viewBox="0 0 111.48 91.47"><defs><style>.cls-1{fill:none;stroke:#61615f;stroke-linecap:round;stroke-linejoin:round;stroke-width:2px;}</style></defs><path class="cls-1" d="M95.93,77.59A44.74,44.74,0,0,0,35.22,16.88" transform="translate(-1.04 -10.39)"/><polyline class="cls-1" points="110.48 60.34 94.89 67.2 88.27 52.16"/><path class="cls-1" d="M17.63,34.66A44.74,44.74,0,0,0,78.34,95.37" transform="translate(-1.04 -10.39)"/><polyline class="cls-1" points="1 31.14 16.59 24.27 23.21 39.31"/><polygon class="cls-1" points="60.94 51.51 56.07 51.51 64.35 39.3 59.66 39.3 62.97 32.38 52.66 32.38 47.79 44.48 52.3 44.48 47.79 56.63 53.31 56.63 53.31 65.49 60.94 51.51"/><path class="cls-1" d="M51.35,34.45H43.29a1.16,1.16,0,0,0-1.15,1.15V81.65a1.16,1.16,0,0,0,1.15,1.15H70.92a1.15,1.15,0,0,0,1.15-1.15V35.6a1.15,1.15,0,0,0-1.15-1.15H62.86V31a1.14,1.14,0,0,0-1.15-1.15H52.5A1.15,1.15,0,0,0,51.35,31Z" transform="translate(-1.04 -10.39)"/></svg>