<svg id="Layer_1" data-name="Layer 1" xmlns="http://www.w3.org/2000/svg" viewBox="0 0 111.34 101.53"><defs><style>.cls-1{fill:none;stroke:#585b5b;stroke-linecap:round;stroke-linejoin:round;stroke-width:2px;}.cls-2{fill:#585b5b;}</style></defs><path class="cls-1" d="M104.18,45.31a49.89,49.89,0,0,0-95.73,0" transform="translate(-0.72 -8.49)"/><polyline class="cls-1" points="110.34 19.12 103.46 36.82 86.38 30.19"/><path class="cls-1" d="M8.6,73.2a49.89,49.89,0,0,0,95.73,0" transform="translate(-0.72 -8.49)"/><polyline class="cls-1" points="1 82.41 7.88 64.71 24.96 71.34"/><polygon class="cls-2" points="32.6 49.03 33.89 50.31 35.16 49.04 35.16 40.04 33.89 38.76 32.61 40.04 32.6 49.03"/><polygon class="cls-2" points="19.85 49.03 21.14 50.31 22.42 49.04 22.42 40.04 21.14 38.76 19.86 40.04 19.85 49.03"/><polygon class="cls-2" points="32.6 61.77 33.89 63.06 35.16 61.78 35.16 52.78 33.89 51.51 32.61 52.78 32.6 61.77"/><polygon class="cls-2" points="19.85 61.77 21.14 63.06 22.42 61.78 22.42 52.78 21.14 51.51 19.86 52.78 19.85 61.77"/><polygon class="cls-2" points="50.48 49.03 51.77 50.31 53.04 49.04 53.04 40.04 51.77 38.76 50.49 40.04 50.48 49.03"/><polygon class="cls-2" points="37.73 49.03 39.02 50.31 40.3 49.04 40.3 40.04 39.02 38.76 37.74 40.04 37.73 49.03"/><polygon class="cls-2" points="50.48 61.77 51.77 63.06 53.04 61.78 53.04 52.78 51.77 51.51 50.49 52.78 50.48 61.77"/><polygon class="cls-2" points="37.73 61.77 39.02 63.06 40.3 61.78 40.3 52.78 39.02 51.51 37.74 52.78 37.73 61.77"/><polygon class="cls-2" points="72.35 49.03 73.63 50.31 74.91 49.04 74.91 40.04 73.63 38.76 72.36 40.04 72.35 49.03"/><polygon class="cls-2" points="59.6 49.03 60.89 50.31 62.16 49.04 62.16 40.04 60.89 38.76 59.61 40.04 59.6 49.03"/><polygon class="cls-2" points="72.35 61.77 73.63 63.06 74.91 61.78 74.91 52.78 73.63 51.51 72.36 52.78 72.35 61.77"/><polygon class="cls-2" points="59.6 61.77 60.89 63.06 62.16 61.78 62.16 52.78 60.89 51.51 59.61 52.78 59.6 61.77"/><polygon class="cls-2" points="90.22 49.03 91.51 50.31 92.79 49.04 92.79 40.04 91.51 38.76 90.23 40.04 90.22 49.03"/><polygon class="cls-2" points="77.48 49.03 78.77 50.31 80.04 49.04 80.04 40.04 78.77 38.76 77.49 40.04 77.48 49.03"/><polygon class="cls-2" points="90.22 61.77 91.51 63.06 92.79 61.78 92.79 52.78 91.51 51.51 90.23 52.78 90.22 61.77"/><polygon class="cls-2" points="77.48 61.77 78.77 63.06 80.04 61.78 80.04 52.78 78.77 51.51 77.49 52.78 77.48 61.77"/><polygon class="cls-2" points="40.97 49.59 39.68 50.88 40.96 52.15 49.96 52.15 51.24 50.88 49.96 49.6 40.97 49.59"/><polygon class="cls-2" points="40.97 36.84 39.68 38.13 40.96 39.41 49.96 39.41 51.24 38.13 49.96 36.85 40.97 36.84"/><polygon class="cls-2" points="22.98 49.59 21.69 50.88 22.97 52.15 31.97 52.15 33.25 50.88 31.97 49.6 22.98 49.59"/><polygon class="cls-2" points="22.98 36.84 21.69 38.13 22.97 39.41 31.97 39.41 33.25 38.13 31.97 36.85 22.98 36.84"/><polygon class="cls-2" points="40.97 62.43 39.68 63.72 40.96 65 49.96 65 51.24 63.72 49.96 62.44 40.97 62.43"/><polygon class="cls-2" points="22.98 62.43 21.69 63.72 22.97 65 31.97 65 33.25 63.72 31.97 62.44 22.98 62.43"/><polygon class="cls-2" points="80.47 49.59 79.18 50.88 80.46 52.15 89.46 52.15 90.74 50.88 89.46 49.6 80.47 49.59"/><polygon class="cls-2" points="80.47 36.84 79.18 38.13 80.46 39.41 89.46 39.41 90.74 38.13 89.46 36.85 80.47 36.84"/><polygon class="cls-2" points="62.48 49.59 61.19 50.88 62.47 52.15 71.47 52.15 72.75 50.88 71.47 49.6 62.48 49.59"/><polygon class="cls-2" points="62.48 36.84 61.19 38.13 62.47 39.41 71.47 39.41 72.75 38.13 71.47 36.85 62.48 36.84"/><polygon class="cls-2" points="80.47 62.43 79.18 63.72 80.46 65 89.46 65 90.74 63.72 89.46 62.44 80.47 62.43"/><polygon class="cls-2" points="62.48 62.43 61.19 63.72 62.47 65 71.47 65 72.75 63.72 71.47 62.44 62.48 62.43"/><circle class="cls-2" cx="56.24" cy="44.52" r="1.3"/><circle class="cls-2" cx="56.24" cy="57.3" r="1.3"/></svg>