<svg id="Layer_1" data-name="Layer 1" xmlns="http://www.w3.org/2000/svg" viewBox="0 0 88.62 112.13"><defs><style>.cls-1,.cls-2{fill:none;stroke:#61615f;stroke-linecap:round;stroke-linejoin:round;}.cls-1{stroke-width:2px;}.cls-2{stroke-width:2.12px;}</style></defs><path class="cls-1" d="M66.1,43.07a21.49,21.49,0,1,0-12.63,1.11" transform="translate(-14.28 -0.66)"/><path class="cls-1" d="M47.39,1.66a21.5,21.5,0,0,0,0,43" transform="translate(-14.28 -0.66)"/><path class="cls-1" d="M36.78,1.66a21.5,21.5,0,0,0,0,43" transform="translate(-14.28 -0.66)"/><path class="cls-2" d="M53.68,76.84V26.21l0-2.25a6,6,0,1,1,12,0l.11,21.61" transform="translate(-14.28 -0.66)"/><path class="cls-1" d="M90.24,53.53H101.9V93.27A5.55,5.55,0,0,1,100.45,97h0a16.19,16.19,0,0,1-10.4,4.57H66.29c-5.5,0-9.48-.91-14.64-6.6-.63-.69-2.19-2.38-2.28-2.49-11.07-12.82-7.49-20.5-2-27.91L53.49,58" transform="translate(-14.28 -0.66)"/><polyline class="cls-1" points="63.63 55.46 63.63 44.91 51.4 44.91 51.4 55.46"/><polyline class="cls-1" points="75.63 55.46 75.63 48.79 63.77 48.8"/><rect class="cls-1" x="47.33" y="71.26" width="32.16" height="21.27" rx="6.67"/><polyline class="cls-1" points="84.11 98.94 84.11 110.99 43.78 111.13 43.78 99.78"/></svg>