<svg id="Layer_1" data-name="Layer 1" xmlns="http://www.w3.org/2000/svg" viewBox="0 0 104.68 111.72"><defs><style>.cls-1,.cls-2{fill:none;stroke:#61615f;stroke-linecap:round;stroke-linejoin:round;}.cls-1{stroke-width:2.47px;}.cls-2{stroke-width:2.4px;}</style></defs><path class="cls-1" d="M94,45.46h11.66V88.14c0,3.13-.24,7-2.36,9.35l-1.1,1.21c-1.92,2.09-5.56,2.38-8.39,2.38H70.08c-6.22.06-10.48-1.17-16.72-9l-17-22.57,11-9.87,10.1,10.32V36.71H69.35" transform="translate(-2.24 -0.89)"/><polyline class="cls-1" points="79.45 53.16 79.45 27.7 67.22 27.7 67.22 53.16"/><polyline class="cls-1" points="91.45 53.16 91.45 35.81 79.6 35.82"/><rect class="cls-1" x="63.15" y="70.53" width="32.16" height="21.27" rx="6.67"/><polyline class="cls-1" points="99.93 98.22 99.93 110.26 59.6 110.4 59.6 99.05"/><path class="cls-2" d="M59.11,98.24h-11c-8.26.07-13.91-1.56-22.18-12L3.44,56.3,18,43.21,31.41,56.89v-44H47.17" transform="translate(-2.24 -0.89)"/><polyline class="cls-2" points="77.65 23.58 93.12 23.58 93.12 44.53"/><polyline class="cls-2" points="61.29 33.97 61.29 1.2 45.08 1.2 45.08 33.97"/><polyline class="cls-2" points="77.21 27.65 77.21 11.96 61.49 11.98"/><polyline class="cls-2" points="59.69 110.44 35.08 110.52 34.97 95.57"/></svg>