<svg id="Layer_1" data-name="Layer 1" xmlns="http://www.w3.org/2000/svg" viewBox="0 0 111.73 111.73"><defs><style>.cls-1,.cls-2{fill:none;stroke:#61615f;stroke-linecap:round;stroke-linejoin:round;}.cls-1{stroke-width:2.21px;}.cls-2{stroke-width:2px;}</style></defs><path class="cls-1" d="M76.42,56.69C76.42,67.92,67.59,77,56.69,77S37,67.92,37,56.69,45.8,36.36,56.69,36.36,76.42,45.46,76.42,56.69Z" transform="translate(-0.83 -0.83)"/><path class="cls-1" d="M64.81,56.69a8.12,8.12,0,1,1-8.12-8.36A8.24,8.24,0,0,1,64.81,56.69Z" transform="translate(-0.83 -0.83)"/><path class="cls-1" d="M106.22,56.69c-.28-.56-.56-1.11-.85-1.66-10.13-19.19-28.14-32-48.68-32C36.9,23.06,19.45,34.93,9.15,53c-.7,1.21-1.36,2.45-2,3.72.44.88.89,1.75,1.36,2.61,10.22,18.66,28,31,48.17,31S94.78,77.88,105,59.09C105.4,58.3,105.82,57.5,106.22,56.69Z" transform="translate(-0.83 -0.83)"/><path class="cls-2" d="M1.83,82.93v17.34a11.28,11.28,0,0,0,11.28,11.29H30.45" transform="translate(-0.83 -0.83)"/><path class="cls-2" d="M30.45,1.83H13.11A11.28,11.28,0,0,0,1.83,13.11V30.45" transform="translate(-0.83 -0.83)"/><path class="cls-2" d="M82.93,111.56h17.34a11.29,11.29,0,0,0,11.29-11.29V82.93" transform="translate(-0.83 -0.83)"/><path class="cls-2" d="M111.56,30.45V13.11A11.29,11.29,0,0,0,100.27,1.83H82.93" transform="translate(-0.83 -0.83)"/></svg>