<svg id="Layer_1" data-name="Layer 1" xmlns="http://www.w3.org/2000/svg" viewBox="0 0 112.74 87.15"><defs><style>.cls-1{fill:none;stroke:#61615f;stroke-linecap:round;stroke-linejoin:round;stroke-width:2px;}</style></defs><path class="cls-1" d="M81.91,56.69A12.24,12.24,0,1,1,69.67,44.46,12.24,12.24,0,0,1,81.91,56.69Z" transform="translate(-0.51 -13.12)"/><path class="cls-1" d="M37.08,80.57,35.7,82.36A43.08,43.08,0,0,0,44,90.67l9.23-7.09a31.3,31.3,0,0,0,9,3.75l1.5,11.53a42.19,42.19,0,0,0,11.77,0l1.5-11.53a31.36,31.36,0,0,0,9-3.75l9.22,7.09a42.86,42.86,0,0,0,8.32-8.32l-7.09-9.23a31.27,31.27,0,0,0,3.74-9l11.53-1.5a42.18,42.18,0,0,0,0-11.77L100.3,49.3a31.39,31.39,0,0,0-3.74-9l7.09-9.22a42.31,42.31,0,0,0-8.32-8.32l-9.22,7.09a31.08,31.08,0,0,0-9-3.75l-1.5-11.54a42.19,42.19,0,0,0-11.77,0L62.3,26.06a31,31,0,0,0-9,3.75L44,22.71A43.41,43.41,0,0,0,35.7,31l7.09,9.22A31.48,31.48,0,0,0,39,49.31l-11.53,1.5a42.51,42.51,0,0,0-.38,7.36" transform="translate(-0.51 -13.12)"/><line class="cls-1" x1="16.09" y1="67.03" x2="49.58" y2="67.03"/><line class="cls-1" x1="1" y1="56.2" x2="34.49" y2="56.2"/><line class="cls-1" x1="16.09" y1="45.37" x2="49.58" y2="45.37"/></svg>