<svg height="64" viewBox="0 0 64 64" width="64" xmlns="http://www.w3.org/2000/svg"><g fill="#fff" fill-rule="evenodd"><path d="m35.5416442 39.339569c-.0689197.3746408-.1391842.7509675-.2107138 1.1285066-.2047864 1.0808791-.4019847 2.0924837-.5922139 3.0319244h.2612835c.8284271 0 1.5.6715729 1.5 1.5v2.9128707l2.3586718 2.021701c.2197677.1883723.3803413.4363056.462353.7138952.3299803 1.1169032.2736524 1.8515331-.6700915 1.8418721-1.5932049-.3178172-3.5540504-.7850756-5.8837268-1.4018762-.2701309.6014281-.5245247.9115372-.7672065.9115372-.2434514 0-.4986892-.3120791-.7697769-.9172677-2.3391756.6196378-4.3072302 1.088806-5.9053654 1.4076067-.9437439.009661-1.0000718-.7249689-.6700914-1.8418721.0820117-.2775896.2425852-.5255229.4623529-.7138952l2.3586718-2.021701v-2.9128707c0-.8284271.6715729-1.5 1.5-1.5h.2854925c-.1902292-.9394407-.3874275-1.9510453-.5922139-3.0319244-.0715296-.3775391-.1417941-.7538658-.2107138-1.1285066-10.0258429 3.0370641-18.1874467 5.160431-19.4583558 5.160431-.80313673 0-2.3996685-.9438461-5.01435949-2.8867941-.04647616-.0363287-.04647616-.0363287-.0891939-.0770104-.31473298-.3147329-.31473298-.8250159 0-1.1397489.2538405-.2538405.5981221-.3964466.95710678-.3964466h2.64644661c.30606904 0 .85710778-.2071006 1.24948186-.4327131l18.12362094-10.4926227c-.2395081-2.064452-.3731028-3.8109632-.3731028-5.0746642 0-6.4270833 2.7055556-11.5 5.5-11.5s5.5 5.0729167 5.5 11.5c0 1.263701-.1335947 3.0102122-.3731028 5.0746642l18.1223384 10.4918826c.3936566.2263526.9446954.4334532 1.2507644.4334532h2.6464466c.3589847 0 .7032663.1426061.9571068.3964466.314733.314733.314733.825016 0 1.1397489-.0427177.0406817-.0427177.0406817-.0891889.0770067-2.614696 1.9429517-4.2112278 2.8867978-5.0143645 2.8867978-1.2709091 0-9.4325129-2.1233669-19.4583558-5.160431zm-4.9076354 10.8694316c.0691891-.0181726.1387281-.0364839.2086147-.0549339-.2369569-.7824142-.511212-1.8369619-.8090496-3.1060951l-4.2535385 3.6458581c-.073257.0627917-.1267835.1454392-.1541217.2379725-.0613662.2077096-.1014258.3803644-.1218022.5130135.3871062-.0815619.8031973-.1731864 1.2469088-.2747392.0208458-.5171585.3593539-.9703911.853695-1.1351714l1.4934391-.497813c.5901407-.1967136 1.2351237.0704471 1.5133187.6268371zm6.6150802.9638653c.4391436.1004419.8511583.1911354 1.234717.2719498-.0203764-.1326491-.060436-.3053039-.1218022-.5130135-.0273382-.0925333-.0808647-.1751808-.1541217-.2379725l-4.2535385-3.6458581c-.2978376 1.2691332-.5720926 2.3236809-.8090496 3.1060951.0734835.0193995.1465827.0386458.2192948.0577386l.0239381-.0478761c.278195-.55639.923178-.8235507 1.5133187-.6268371l1.4934391.497813c.4952297.1650765.8340656.6196432.8538043 1.1379608zm-18.2129559-10.1276709c2.5139995-.7018554 5.3614524-1.5265754 8.3853179-2.4370962-.5451028-1.0216913-1.3366922-3.3115263-2.5598663-7.213372l-15.61234914 9.0387264c-.38672259.2223654-.85700955.4202625-1.28626406.5121659l1.09408495 2.5528649c.27880817-.0136018.85923074-.1184473 1.69320095-.3031922.0106681-.5275945.3520983-.9929335.8544579-1.1603867l4.9687176-1.6562392c.2804791-.093493.5850181-.0845437.8595231.0252582zm-.7943832.2207632-.9944893-.3977957c-.164703-.0658812-.3474264-.0712508-.5157138-.015155l-4.9687176 1.6562392c-.2604816.0868272-.4488509.3071365-.4993415.5696816 1.648543-.3814482 4.0637401-1.0068027 6.9782622-1.8129701zm35.0079927 1.9293336c.8339702.1847449 1.4143928.2895904 1.693201.3031922l1.0940887-2.5528737c-.4293328-.0919411-.8998883-.2899896-1.2875504-.5128972l-15.6110667-9.0379859c-1.223174 3.9018454-2.0147634 6.1916803-2.5598662 7.2133716 3.0238655.9105208 5.8713184 1.7352408 8.3853179 2.4370962l1.6031771-.6412709c.274505-.1098019.579044-.1187512.8595231-.0252582l4.9687176 1.6562392c.5023596.1674532.8437898.6327922.8544579 1.1603867zm-.5132303-.1163635c-.0504906-.2625451-.2388599-.4828544-.4993415-.5696816l-4.9687176-1.6562392c-.1682874-.0560958-.3510108-.0507262-.5157138.015155l-.9944893.3977957c2.9145221.8061674 5.3297192 1.4315219 6.9782622 1.8129701zm-14.0416564-11.9409986-1.6995378-.983943c-.3117942 2.4522159-.7540781 5.2842399-1.2743235 8.1950172.1457017.0441698.291036.0881525.4359857.1319441.3707234-.8166433 1.3174135-3.4514507 2.5378756-7.3430183zm-10.8518362 7.3430183c.1449497-.0437916.290284-.0877743.4359857-.1319441-.5202454-2.9107774-.9625293-5.7428014-1.2743235-8.1950172l-1.6995379.9839427c1.2204621 3.8915678 2.1671523 6.5263753 2.5378757 7.3430186zm28.7146855 2.5190543-.9979167 2.3284723c.7146178-.3245446 1.9423166-1.10729 3.601517-2.3281625-.0032575-.000137-.871124-.0002402-2.6035995-.0003098zm-48.11755984 2.328318-.99785154-2.3283203h-2.58874043c1.64795246 1.2209161 2.87267023 2.0036694 3.58659197 2.3283203zm27.05985464 3.7274265v-2.0557468c0-.2761424-.2238576-.5-.5-.5h-.4777477c-.1063905.4999349-.2118659.9834077-.3157022 1.4470755zm-7.0155975 0 1.2934499-1.1086713c-.1038363-.4636678-.2093117-.9471406-.3157022-1.4470755h-.4777477c-.2761424 0-.5.2238576-.5.5zm4.1940962 1.0097225c.5083712-2.0199752 1.1030476-4.7915956 1.6699106-7.7835449 1.2792429-6.7519482 2.1515907-13.122183 2.1515907-16.2819244 0-5.9479167-2.4277778-10.5-4.5-10.5s-4.5 4.5520833-4.5 10.5c0 3.1597414.8723478 9.5299762 2.1515907 16.2819244.566863 2.9919493 1.1615394 5.7635697 1.6699106 7.7835449.25688 1.0206938.4863199 1.8278648.6761214 2.3765399.1945561-.5486751.423996-1.3558461.680876-2.3765399zm3.5586721 2.4437774-1.4934391-.497813c-.3378973-.1126324-.7057601.0281939-.8837435.3314162l2.8881686.825191c-.0210952-.3009604-.2215113-.5623026-.510986-.6587942zm-6.097159-.1663968c-.1779834-.3032223-.5458462-.4440486-.8837435-.3314162l-1.4934391.497813c-.2894747.0964916-.4898908.3578338-.510986.6587942z" fill-rule="nonzero"/><path d="m32 20.75c.6256183 0 1.1327822.5071639 1.1327822 1.1327822 0 .0469709-.0029214.0938962-.0087475.1405044l-.3139479 2.5115831c-.0510682.4085457-.3983618.7151303-.8100868.7151303s-.7590186-.3065846-.8100868-.7151303l-.3139479-2.5115831c-.0775984-.6207873.3627431-1.1869407.9835304-1.2645391.0466081-.005826.0935335-.0087475.1405043-.0087475zm0 .5c-.0262383 0-.0524513.001632-.078487.0048864-.3467772.0433472-.592756.3596055-.5494088.7063828l.3139479 2.5115832c.0197914.1583312.1543845.2771476.3139479.2771476s.2941565-.1188164.3139479-.2771476l.3139479-2.5115832c.0032545-.0260357.0048864-.0522487.0048864-.078487 0-.349476-.2833062-.6327822-.6327822-.6327822z"/></g></svg>