<svg height="64" viewBox="0 0 64 64" width="64" xmlns="http://www.w3.org/2000/svg"><g fill="none" fill-rule="evenodd" stroke="#fff"><g transform="translate(2 16)"><path d="m30.0101076 15.5c.2343879 0 .8194029.1350485.9898924 0 .2312325-.1831644 0-.6821031 0-1v-1.5h-2v1.5c0 .2802648-.1857482.8184357 0 1 .1802839.176223.7380877 0 1.0101076 0z" stroke-width=".5"/><path d="m28.7742781.68569534.7257219 1.81430466h1l.7257219-1.81430466c.1025567-.25639176-.0221513-.54737698-.278543-.64993369-.0590602-.02362405-.1220857-.03576165-.1856954-.03576165h-1.522967c-.2761424 0-.5.22385763-.5.5 0 .06360972.0121376.1266352.0357616.18569534z"/><path d="m31.074131 1.0646725c.8809086.11144552 1.6465895.36692564 2.2970427.76644037.6554396.34853273 1.1849595.80264704 1.4255186 1.35465374.0705821.10122836.1383514.20597282.2033077.31423339l5.1564864 7.6836362c.4714832.7025531.4498643 1.6257815-.0539869 2.3054955l-2.6024995 4.0108683 5.9142136 5.9142136c.3750727.3750727.5857864.8837805.5857864 1.4142135v6.6715729h-9v-.5h-10v.5h-9v-6.6715729c0-.530433.2107137-1.0391408.5857864-1.4142135l5.9142136-5.9142136-2.6024995-4.0108683c-.5038512-.679714-.5254701-1.6029424-.0539869-2.3054955l5.1564864-7.6836362c.0649563-.10826057.1327256-.21300503.2033077-.31423339.2405591-.5520067.770079-1.00612101 1.4255186-1.35465374.6504532-.39951473 1.4161341-.65499485 2.2970427-.76644037l.0097529.02438231c-.7813047.12345892-1.6143252.3738341-2.3067956.74205806-.5608367.34447143-1.0360096.79602267-1.4255186 1.35465374-.0442125.10145367-.0786643.20621405-.102343.31423339-.3537191 1.61362329.322454 4.90170518.4899036 6 .1674496 1.0982948 1.6030239 3.5 4.4091317 3.5s4.2416821-2.4017052 4.4091317-3.5c.1674496-1.09829482.8436227-4.38637671.4899036-6-.0236787-.10801934-.0581305-.21277972-.102343-.31423339-.389509-.55863107-.8646819-1.01018231-1.4255186-1.35465374-.6924704-.36822396-1.5254909-.61859914-2.3067956-.74205806z"/><path d="m34 19-1 .5h-6l-1-.5.4812504-7.7000063c.7254803.8926047 1.891743 1.7000063 3.5187496 1.7000063s2.7932693-.8074016 3.5187496-1.7000063z" stroke-width=".75"/><path d="m24.5 4.5c-1 1.5-1 3-1 3.5 0 .33333333.6666667.66666667 2 1" stroke-width=".5"/><path d="m35.5 4.5c-1 1.5-1 3-1 3.5 0 .33333333.6666667.66666667 2 1" stroke-width=".5" transform="matrix(-1 0 0 1 71 0)"/><path d="m26.3333333 13.6666667-3.8333333 3.8333333h3.59375zm7.3333334 0 3.8333333 3.8333333h-3.59375z" stroke-width=".5"/><path d="m18.5 21.5h23" stroke-width=".75"/><path d="m16.5 23.5h27" stroke-width=".75"/><path d="m16 25.5h28" stroke-width=".75"/><path d="m16 27.5h28" stroke-width=".75"/><path d="m16 29.5h28" stroke-width=".75"/><path d="m19.5 11.5h6.5" stroke-width=".5"/><path d="m20 13.5h6.5" stroke-width=".5"/><path d="m21 15.5h3.5" stroke-width=".5"/><path d="m33.5 11.5h7" stroke-width=".5"/><path d="m33.5 13.5h6.5" stroke-width=".5"/><path d="m35.5 15.5h3.5" stroke-width=".5"/><path d="m34.5 9.5h4.5" stroke-width=".5"/><path d="m20.5 19.5h19" stroke-width=".75"/><path d="m21 9.5h4.5" stroke-width=".5"/><path d="m11 41v-5.25c0-.9664983.7835017-1.75 1.75-1.75.9664983 0 1.75.7835017 1.75 1.75v5.25-5.25c0-.9664983.7835017-1.75 1.75-1.75.9664983 0 1.75.7835017 1.75 1.75v5.25-5.25c0-.9664983.7835017-1.75 1.75-1.75.9664983 0 1.75.7835017 1.75 1.75v5.25-5.2499773c0-.9679499.7820626-1.7540077 1.75-1.7589399.961586-.0048998 1.7450776.7706476 1.7499774 1.7322336.0000151.0029573.0000226.0059146.0000226.0088719v5.2678117"/><path d="m35 41v-5.25c0-.9664983.7835017-1.75 1.75-1.75.9664983 0 1.75.7835017 1.75 1.75v5.25-5.25c0-.9664983.7835017-1.75 1.75-1.75.9664983 0 1.75.7835017 1.75 1.75v5.25-5.25c0-.9664983.7835017-1.75 1.75-1.75.9664983 0 1.75.7835017 1.75 1.75v5.25-5.2499773c0-.9679499.7820626-1.7540077 1.75-1.7589399.961586-.0048998 1.7450776.7706476 1.7499774 1.7322336.0000151.0029573.0000226.0059146.0000226.0088719v5.2678117"/><path d="m24.5 34.5h10.5" stroke-width=".5"/><path d="m24.5 36.5h4" stroke-width=".5"/><path d="m31.5 36.5h4" stroke-width=".5"/><path d="m30 34.5c.8284271 0 1.5.6715729 1.5 1.5v2.5h-3v-2.5c0-.8284271.6715729-1.5 1.5-1.5z" stroke-width=".5"/><path d="m11 39.5h-11l11.5-11.5 3.5 3.5"/><path d="m16 31-2.5 3"/><path d="m44 31 3 3"/><path d="m25 31v7.5h10v-7.5z"/><path d="m24.5 32.5h10.5" stroke-width=".5"/><path d="m27.5 38.5v1.5c0 .5522847.4477153 1 1 1h3c.5522847 0 1-.4477153 1-1v-1.5"/><path d="m14 33.5h10.5" stroke-width=".5"/><path d="m35 33.5h11.5" stroke-width=".5"/><path d="m48.5 39.5h11.5l-14.5-14.5-1.5 1.5"/><g stroke-width=".5"><path d="m29.5 11.5h1"/><path d="m31 5c.5-.5 1-.5 1.5-.5.3333333 0 .8333333.16666667 1.5.5" transform="matrix(-1 0 0 1 65 0)"/><path d="m31.5 6c0-.32513537.4607933-.5 1-.5s1 .0508238 1 .5-.330413.5-1 .5-1-.17486463-1-.5z" transform="matrix(-1 0 0 1 65 0)"/><path d="m47 26.5-3 1"/><path d="m26 5c.5-.5 1-.5 1.5-.5.3333333 0 .8333333.16666667 1.5.5"/><path d="m26.5 6c0-.32513537.4607933-.5 1-.5s1 .0508238 1 .5-.330413.5-1 .5-1-.17486463-1-.5z"/><path d="m29.5 5.5-.4184699 2.92928932c-.0390524.27336701.1508971.526633.4242641.56568543.0234216.00334595.0470512.00502525.0707106.00502525h.7297823c.2761423 0 .5-.22385763.5-.5 0-.05374105-.008664-.10713065-.0256584-.15811388l-.2806287-.84188612"/><path d="m29 10.5h2"/></g></g><path d="m39 20c0-8.2842712-6.7157288-15-15-15s-15 6.7157288-15 15c0 7.1983779 5.0705353 13.2124688 11.8347628 14.6654297" stroke-linecap="round" stroke-width=".5"/></g></svg>