<svg height="64" viewBox="0 0 64 64" width="64" xmlns="http://www.w3.org/2000/svg"><g fill="none" fill-rule="evenodd" stroke="#fff" transform="translate(6 21)"><path d="m18 9h-12v14h-.49139717c-.89296072 0-1.67773272-.5919546-1.9230479-1.4505577l-3.58555493-12.5494423v-8h18m6 0h24v8h-24"/><path d="m20.4144451 21.5494423 3.5855549-12.5494423v-8.5c0-.27614237-.2238576-.5-.5-.5h-5c-.2761424 0-.5.22385763-.5.5v22.5h.4913972c.8929607 0 1.6777327-.5919546 1.9230479-1.4505577z"/><path d="m6 1v3.804"/><path d="m13 1v3.804"/><path d="m36 1v3.804"/><path d="m29 1v3.804"/><path d="m42 1v3.804"/><path d="m53 3h-5v1l1 1h4z" transform="matrix(-1 0 0 1 101 0)"/></g></svg>