<svg height="64" viewBox="0 0 64 64" width="64" xmlns="http://www.w3.org/2000/svg"><g fill="none" fill-rule="evenodd" stroke="#fff"><path d="m23.7114141 16.1540137c1.1424312-.639193 2.3662141-1.1503394 3.6519189-1.5140093l.5602541-6.72304988c.043191-.51829212.4764571-.91695452.9965458-.91695452h6.1597342c.5200887 0 .9533548.3986624.9965458.91695452l.5602541 6.72304988c1.2857048.3636699 2.5094877.8748163 3.6519189 1.5140093l5.1511329-4.3586509c.3970285-.3359472.9852908-.3114787 1.353049.0562795l4.3555899 4.3555899c.3677582.3677582.3922267.9560205.0562795 1.353049l-4.3586509 5.1511329c.639193 1.1424312 1.1503394 2.3662141 1.5140093 3.6519189l6.7230499.5602541c.5182921.043191.9169545.4764571.9169545.9965458v6.1597342c0 .5200887-.3986624.9533548-.9169545.9965458l-6.7230499.5602541c-.3636699 1.2857048-.8748163 2.5094877-1.5140093 3.6519189l4.3586509 5.1511329c.3359472.3970285.3114787.9852908-.0562795 1.353049l-4.3555899 4.3555899c-.3677582.3677582-.9560205.3922267-1.353049.0562795l-5.1511329-4.3586509c-1.1424312.639193-2.3662141 1.1503394-3.6519189 1.5140093l-.5602541 6.7230499c-.043191.5182921-.4764571.9169545-.9965458.9169545h-6.1597342c-.5200887 0-.9533548-.3986624-.9965458-.9169545l-.5602541-6.7230499c-1.2857048-.3636699-2.5094877-.8748163-3.6519189-1.5140093l-5.1511329 4.3586509c-.3970285.3359472-.9852908.3114787-1.353049-.0562795l-4.3555899-4.3555899c-.3677582-.3677582-.3922267-.9560205-.0562795-1.353049l4.3586509-5.1511329c-.639193-1.1424312-1.1503394-2.3662141-1.5140093-3.6519189l-6.72304988-.5602541c-.51829212-.043191-.91695452-.4764571-.91695452-.9965458v-6.1597342c0-.5200887.3986624-.9533548.91695452-.9965458l6.72304988-.5602541c.3636699-1.2857048.8748163-2.5094877 1.5140093-3.6519189l-4.3586509-5.1511329c-.3359472-.3970285-.3114787-.9852908.0562795-1.353049l4.3555899-4.3555899c.3677582-.3677582.9560205-.3922267 1.353049-.0562795z"/><circle cx="32" cy="31" r="8"/><path d="m21 31c0 3.3709983 1.5163525 6.3878335 3.9041763 8.4056245m15.2394831-1.0108595c1.7747283-1.9533 2.8563406-4.5477205 2.8563406-7.394765 0-6.0751322-4.9248678-11-11-11"/></g></svg>