<?xml version="1.0" encoding="utf-8"?>
<!-- Generator: Adobe Illustrator 15.0.0, SVG Export Plug-In . SVG Version: 6.00 Build 0)  -->
<!DOCTYPE svg PUBLIC "-//W3C//DTD SVG 1.1//EN" "http://www.w3.org/Graphics/SVG/1.1/DTD/svg11.dtd">
<svg version="1.1" id="Layer_1" xmlns="http://www.w3.org/2000/svg" xmlns:xlink="http://www.w3.org/1999/xlink" x="0px" y="0px"
	 width="90px" height="90px" viewBox="0 0 90 90" enable-background="new 0 0 90 90" xml:space="preserve">
<path fill="#52B7EC" d="M45,79c-18.778,0-34-15.223-34-34c0-18.778,15.222-34,34-34c18.777,0,34,15.222,34,34
	C79,63.777,63.777,79,45,79z"/>
<g display="none">
	<path display="inline" fill="#FFFFFF" d="M41.797,43.079c1.068-0.192,2.089,0.518,2.281,1.584c0.192,1.067-0.517,2.089-1.584,2.28
		c-1.068,0.193-2.089-0.518-2.281-1.585C40.021,44.293,40.73,43.272,41.797,43.079z M41.36,35.225
		c-0.641,0.052-1.275,0.167-1.893,0.341l-0.015,1.548c-0.587,0.2-1.15,0.464-1.677,0.789l-1.203-0.974
		c-0.528,0.365-1.021,0.781-1.469,1.243l0.761,1.347c-0.408,0.466-0.763,0.977-1.058,1.522l-1.528-0.243
		c-0.275,0.581-0.494,1.188-0.651,1.811l1.332,0.787c-0.121,0.607-0.172,1.227-0.154,1.846l-1.445,0.554
		c0.051,0.642,0.165,1.276,0.341,1.896l1.547,0.014c0.2,0.587,0.465,1.148,0.789,1.677l-0.974,1.202
		c0.365,0.529,0.782,1.021,1.243,1.471l1.347-0.762c0.467,0.408,0.977,0.764,1.522,1.057l-0.242,1.528
		c0.58,0.276,1.187,0.495,1.81,0.651l0.786-1.332c0.608,0.121,1.228,0.173,1.848,0.154l0.553,1.445
		c0.641-0.051,1.276-0.166,1.894-0.341l0.016-1.548c0.586-0.199,1.148-0.465,1.676-0.788l1.202,0.974
		c0.53-0.365,1.021-0.781,1.47-1.242l-0.761-1.348c0.408-0.467,0.763-0.977,1.058-1.523l1.527,0.244
		c0.277-0.582,0.494-1.188,0.651-1.812l-1.331-0.786c0.12-0.607,0.171-1.227,0.154-1.847l1.445-0.553
		c-0.052-0.641-0.166-1.276-0.342-1.895l-1.547-0.015c-0.2-0.586-0.465-1.149-0.789-1.677l0.975-1.201
		c-0.367-0.53-0.783-1.022-1.244-1.47l-1.346,0.761c-0.467-0.409-0.978-0.764-1.522-1.058l0.243-1.527
		c-0.582-0.277-1.189-0.495-1.813-0.653l-0.786,1.333c-0.608-0.121-1.227-0.172-1.846-0.155L41.36,35.225"/>
	<path display="inline" fill="#FFFFFF" d="M33.694,52.038c-0.211-0.253-0.413-0.515-0.6-0.785l-0.332-0.479l-3.054,2.179
		c-0.766-0.735-1.804-1.19-2.95-1.19c-2.353,0-4.261,1.907-4.261,4.26c0,2.354,1.908,4.262,4.261,4.262s4.261-1.907,4.261-4.262
		c0-0.64-0.145-1.246-0.398-1.791L33.694,52.038"/>
	<path display="inline" fill="#FFFFFF" d="M49.404,28.95l-2.994,5.941c0.152,0.064,0.308,0.119,0.453,0.19l0.796,0.378l0.182,0.082
		l2.966-5.882c0.373,0.108,0.77,0.17,1.182,0.17c2.353,0,4.26-1.908,4.26-4.262c0-2.353-1.907-4.261-4.26-4.261
		c-2.354,0-4.262,1.908-4.262,4.261C47.727,26.948,48.387,28.172,49.404,28.95"/>
	<path display="inline" fill="#FFFFFF" d="M31.019,34.089c0.663,0,1.287-0.156,1.847-0.425l2.175,2.956
		c0.276-0.234,0.564-0.455,0.862-0.661l0.399-0.276l-2.171-2.951c0.711-0.762,1.149-1.78,1.149-2.904
		c0-2.353-1.907-4.261-4.261-4.261c-2.353,0-4.26,1.908-4.26,4.261C26.759,32.182,28.666,34.089,31.019,34.089"/>
	<path display="inline" fill="#FFFFFF" d="M48.939,62.434c-0.168,0-0.332,0.012-0.494,0.03l-2.244-7.212l-0.208,0.096l-0.847,0.24
		c-0.148,0.043-0.302,0.068-0.453,0.105l2.252,7.236c-1.348,0.715-2.266,2.131-2.266,3.764c0,2.354,1.907,4.262,4.26,4.262
		s4.262-1.908,4.262-4.262S51.293,62.434,48.939,62.434"/>
	<path display="inline" fill="#FFFFFF" d="M66.965,47.5c-1.686,0-3.139,0.982-3.83,2.402l-10.184-2.773L52.807,47.7
		c-0.08,0.317-0.179,0.63-0.287,0.94l10.203,2.778c-0.01,0.112-0.019,0.226-0.019,0.343c0,2.354,1.907,4.26,4.261,4.26
		s4.262-1.906,4.262-4.26S69.318,47.5,66.965,47.5"/>
</g>
<g>
	<path fill="#FFFFFF" d="M56.54,65.234c-2.694,0.385-20.29,0.609-22.896,0.291c-0.957-1.439-1.646-7.279,0.4-11.948
		c1.014-2.313,2.407-3.486,4.142-3.486c0.012,0,0.023,0,0.034,0c1.966,0.8,4.253,1.204,6.597,1.173
		c2.43-0.029,4.753-0.516,6.736-1.41c1.602-0.121,2.977,0.914,4.051,3.084C57.672,57.118,57.668,63.525,56.54,65.234z
		 M57.557,51.971c-1.52-3.068-3.812-4.586-6.424-4.265c-0.113,0.015-0.226,0.046-0.331,0.095c-1.739,0.813-3.819,1.258-6.012,1.285
		c-2.148,0.021-4.178-0.346-5.912-1.08c-0.117-0.049-0.24-0.078-0.367-0.085c-2.753-0.144-5.047,1.552-6.463,4.781
		c-2.1,4.791-1.98,12.42,0.231,14.577c0.309,0.301,0.604,0.588,7.461,0.588c1.474,0,3.254-0.014,5.401-0.043
		c12.113-0.165,12.444-0.504,12.794-0.864C60.118,64.723,59.914,56.736,57.557,51.971"/>
	<path fill="#FFFFFF" d="M38.265,34.286c1.888,1.112,11.319-0.217,13.937,1.078c0.196,0.543,0.343,1.112,0.411,1.709
		c0.23,1.995-0.334,3.965-1.588,5.545c-1.277,1.607-3.111,2.62-5.164,2.852c-4.2,0.473-8.02-2.518-8.5-6.676
		C37.179,37.214,37.502,35.654,38.265,34.286z M44.979,47.699c0.373,0,0.75-0.02,1.128-0.064c2.631-0.298,4.984-1.598,6.623-3.662
		c1.619-2.036,2.346-4.576,2.047-7.151c-0.617-5.347-5.514-9.206-10.907-8.591h-0.001c-2.633,0.299-4.985,1.6-6.625,3.663
		c-1.617,2.037-2.344,4.576-2.048,7.15C35.772,44.018,40.044,47.699,44.979,47.699"/>
	<path fill="#FFFFFF" d="M33.094,40.757c0.332-0.039,0.657-0.101,0.976-0.176c-0.111-0.449-0.204-0.905-0.258-1.376
		c-0.34-2.945,0.492-5.85,2.34-8.178c0.867-1.09,1.913-1.984,3.078-2.673c-1.628-2.653-4.708-4.284-8.016-3.906h-0.001
		c-2.212,0.25-4.189,1.344-5.567,3.078c-1.36,1.712-1.97,3.845-1.721,6.009c0.484,4.181,4.074,7.275,8.222,7.275
		C32.46,40.81,32.776,40.792,33.094,40.757"/>
	<path fill="#FFFFFF" d="M68.389,44.4c-1.277-2.58-3.203-3.854-5.398-3.584c-0.096,0.011-0.19,0.038-0.278,0.078
		c-1.463,0.685-3.21,1.058-5.052,1.081c-0.733,0.008-1.443-0.053-2.133-0.152c-0.402,1.074-0.971,2.093-1.705,3.018
		c-0.428,0.54-0.904,1.027-1.412,1.472c2.609,0.234,4.892,2.002,6.395,5.039c0.869,1.758,1.491,4.019,1.807,6.328
		c7.574-0.148,7.83-0.408,8.097-0.683C70.542,55.117,70.371,48.406,68.389,44.4"/>
	<path fill="#FFFFFF" d="M66.055,31.668c-0.52-4.494-4.637-7.737-9.17-7.22l0,0c-2.213,0.25-4.189,1.344-5.568,3.078
		c-0.211,0.267-0.398,0.547-0.573,0.834c2.903,1.724,5.005,4.714,5.42,8.303c0.153,1.331,0.056,2.651-0.255,3.916
		c0.617,0.146,1.256,0.231,1.91,0.231c0.313,0,0.629-0.018,0.947-0.053c2.213-0.251,4.189-1.345,5.567-3.078
		C65.693,35.966,66.305,33.832,66.055,31.668"/>
	<path fill="#FFFFFF" d="M30.772,52.143c1.517-3.461,4.074-5.438,7.085-5.588c-1.543-1.258-2.74-2.921-3.438-4.833
		c-0.781,0.151-1.593,0.244-2.43,0.254c-1.807,0.019-3.513-0.291-4.969-0.908c-0.099-0.041-0.203-0.065-0.309-0.071
		c-2.314-0.12-4.242,1.304-5.432,4.018c-1.765,4.027-1.664,10.438,0.194,12.251c0.26,0.252,0.508,0.494,6.27,0.494
		c0.486,0,1.024-0.002,1.592-0.006C29.58,55.723,30.069,53.747,30.772,52.143"/>
</g>
<g display="none">
	<path display="inline" fill="#FFFFFF" d="M32.137,32.041c-0.225,3.788-0.731,14.002,0.058,17.661l0.114,0.546
		c0.535,2.648,1.262,6.25,12.73,15.122c11.546-8.772,12.309-12.882,12.818-15.624c0.685-3.7,0.248-13.902,0.055-17.704h-7.061
		l-5.851-6.669l-6.162,6.668H32.137z M45.022,69.238l-0.926-0.702C30.813,58.439,29.93,54.061,29.284,50.859l-0.105-0.506
		c-1.063-4.932-0.074-19.35-0.031-19.962l0.1-1.436h8.241l7.571-8.193l7.189,8.195h8.577l0.087,1.449
		c0.039,0.611,0.892,14.973-0.022,19.903c-0.774,4.178-2.566,9.028-14.938,18.236L45.022,69.238"/>
	<path display="inline" fill="#FFFFFF" d="M43.415,53.406l-8.193-7.691c-0.855-0.805-0.898-2.151-0.094-3.007
		c0.805-0.856,2.151-0.899,3.008-0.096l5.066,4.756l8.556-9.248c0.797-0.862,2.143-0.916,3.006-0.118
		c0.862,0.799,0.916,2.145,0.117,3.008L43.415,53.406"/>
</g>
<g display="none">
	<path display="inline" fill="#FFFFFF" d="M52.82,44.591h-2.305v-2.305c0-1.171-0.951-2.12-2.121-2.12
		c-1.172,0-2.123,0.949-2.123,2.12v2.305h-2.304c-1.172,0-2.122,0.95-2.122,2.122c0,1.171,0.95,2.12,2.122,2.12h2.304v2.306
		c0,1.172,0.951,2.121,2.123,2.121c1.17,0,2.121-0.949,2.121-2.121v-2.306h2.305c1.171,0,2.121-0.949,2.121-2.12
		C54.941,45.541,53.991,44.591,52.82,44.591"/>
	<path display="inline" fill="#FFFFFF" d="M56.027,54.361c-2.039,2.039-4.75,3.162-7.633,3.162s-5.593-1.121-7.629-3.158
		c-0.001,0-0.002-0.002-0.003-0.002c0-0.002-0.002-0.002-0.002-0.002c-4.206-4.209-4.206-11.056,0.002-15.264
		c2.038-2.039,4.748-3.161,7.632-3.161c2.883,0,5.594,1.123,7.633,3.161C60.234,43.306,60.234,50.152,56.027,54.361z M58.236,36.887
		c-2.629-2.629-6.125-4.077-9.842-4.077c-3.72,0-7.214,1.447-9.844,4.076c-4.757,4.758-5.343,12.131-1.759,17.534l-8.29,8.289
		c-1.08,1.081-1.08,2.832,0.001,3.913c1.08,1.08,2.831,1.08,3.911,0l8.287-8.287c2.261,1.504,4.915,2.315,7.693,2.315
		c3.717,0,7.213-1.448,9.842-4.078C63.664,51.145,63.664,42.315,58.236,36.887"/>
	<path display="inline" fill="#FFFFFF" d="M59.031,31.641h2.867v2.869h-2.867V31.641z M59.066,36.059
		c0.004,0.004,0.008,0.009,0.013,0.014h4.383v-5.995h-5.994v4.611C58.025,35.11,58.564,35.557,59.066,36.059"/>
	<path display="inline" fill="#FFFFFF" d="M35.308,54.247c-0.307-0.533-0.565-1.083-0.799-1.64H34.27v2.677L35.308,54.247"/>
	<path display="inline" fill="#FFFFFF" d="M57.475,43.582c-0.002-0.005-0.004-0.01-0.007-0.016v0.016H57.475"/>
	<path display="inline" fill="#FFFFFF" d="M59.032,24.131H61.9v2.868h-2.868V24.131z M57.469,28.562h5.994v-5.994h-5.994V28.562z"/>
	<path display="inline" fill="#FFFFFF" d="M63.462,37.587h-3.078c1.382,1.811,2.304,3.861,2.755,5.995h0.323V37.587"/>
	<path display="inline" fill="#FFFFFF" d="M51.298,61.682h2.867v2.867h-2.867V61.682z M49.734,61.757v4.354h5.994v-5.993h-0.367
		C53.624,61.025,51.721,61.583,49.734,61.757"/>
	<path display="inline" fill="#FFFFFF" d="M46.434,61.695v2.854h-2.868v-2.867h2.772c-1.507-0.205-2.965-0.639-4.335-1.281v5.711
		h5.993v-4.303C47.471,61.795,46.949,61.762,46.434,61.695"/>
	<path display="inline" fill="#FFFFFF" d="M59.031,61.682h2.867v2.867h-2.867V61.682z M57.468,66.111h5.993v-5.993h-5.993V66.111z"
		/>
	<path display="inline" fill="#FFFFFF" d="M43.567,32.438v-0.797h2.867v0.138c0.517-0.067,1.037-0.109,1.563-0.122v-1.579h-5.994
		v2.99C42.513,32.829,43.033,32.618,43.567,32.438"/>
	<path display="inline" fill="#FFFFFF" d="M35.834,24.131h2.867v2.868h-2.867V24.131z M34.271,28.562h5.993v-5.994h-5.993V28.562z"
		/>
	<path display="inline" fill="#FFFFFF" d="M35.834,31.641h2.867v2.869h-2.867V31.641z M37.722,36.058
		c0.78-0.78,1.636-1.455,2.542-2.038v-3.942h-5.993v5.995h3.438C37.713,36.067,37.717,36.063,37.722,36.058"/>
	<path display="inline" fill="#FFFFFF" d="M51.299,31.918v-0.277h2.868v1.136c0.536,0.222,1.054,0.484,1.563,0.767v-3.466h-5.994
		v1.625C50.264,31.749,50.785,31.819,51.299,31.918"/>
	<path display="inline" fill="#FFFFFF" d="M43.567,24.131h2.867v2.868h-2.867V24.131z M42.004,28.562h5.993v-5.994h-5.993V28.562z"
		/>
	<path display="inline" fill="#FFFFFF" d="M28.101,46.661h2.867v2.868h-2.867V46.661z M26.538,51.094h5.994v-5.996h-5.994V51.094z"
		/>
	<path display="inline" fill="#FFFFFF" d="M28.101,39.151h2.867v2.868h-2.867V39.151z M26.538,43.582h5.994v-5.995h-5.994V43.582z"
		/>
	<path display="inline" fill="#FFFFFF" d="M28.101,31.641h2.867v2.869h-2.867V31.641z M26.538,36.073h5.994v-5.995h-5.994V36.073z"
		/>
	<path display="inline" fill="#FFFFFF" d="M36.403,37.587h-2.132v3.868C34.779,40.085,35.494,38.782,36.403,37.587"/>
	<path display="inline" fill="#FFFFFF" d="M28.1,54.171h2.868v2.868H28.1V54.171z M26.537,52.607v5.994h4.415l1.579-1.578v-4.416
		H26.537"/>
</g>
<g display="none">
	<path display="inline" fill="#FFFFFF" d="M49.236,45.49H47.15v-2.086c0-1.059-0.859-1.919-1.919-1.919
		c-1.061,0-1.92,0.86-1.92,1.919v2.086h-2.086c-1.06,0-1.919,0.86-1.919,1.92c0,1.059,0.859,1.919,1.919,1.919h2.086v2.086
		c0,1.06,0.859,1.92,1.92,1.92c1.06,0,1.919-0.86,1.919-1.92v-2.086h2.086c1.06,0,1.918-0.86,1.918-1.919
		C51.154,46.35,50.296,45.49,49.236,45.49"/>
	<path display="inline" fill="#FFFFFF" d="M52.139,54.332c-1.847,1.846-4.299,2.861-6.908,2.861s-5.06-1.016-6.905-2.858
		c0-0.001-0.001-0.002-0.002-0.002c-0.001-0.001-0.002-0.002-0.002-0.002c-3.806-3.81-3.806-10.005,0.001-13.813
		c1.846-1.845,4.298-2.86,6.908-2.86c2.609,0,5.061,1.016,6.908,2.861C55.945,44.328,55.945,50.523,52.139,54.332z M54.139,38.519
		c-2.38-2.38-5.543-3.69-8.908-3.69c-3.366,0-6.529,1.31-8.908,3.689c-4.305,4.305-4.835,10.977-1.592,15.866l-7.501,7.503
		c-0.977,0.977-0.977,2.563,0.001,3.541c0.977,0.977,2.562,0.977,3.54,0l7.499-7.5c2.046,1.361,4.446,2.094,6.961,2.094
		c3.365,0,6.528-1.311,8.908-3.689C59.049,51.421,59.049,43.43,54.139,38.519"/>
	<path display="inline" fill="#FFFFFF" d="M49.82,33.556l-0.293,0.912c1.507,0.497,2.916,1.254,4.177,2.255l9.325,3.003
		c0.302,0.096,0.466,0.419,0.369,0.718c-0.096,0.301-0.418,0.465-0.717,0.369l-7.111-2.289c0.787,0.913,1.432,1.904,1.937,2.948
		l4.495,1.448c0.3,0.096,0.465,0.418,0.369,0.717c-0.098,0.301-0.419,0.466-0.719,0.37l-3.568-1.149
		c0.291,0.824,0.501,1.668,0.63,2.526l2.261,0.728c0.301,0.097,0.465,0.418,0.368,0.719c-0.096,0.3-0.418,0.465-0.719,0.369
		l-1.781-0.573c0.046,0.769,0.032,1.541-0.053,2.308l1.155,0.371c0.301,0.098,0.466,0.418,0.369,0.719
		c-0.097,0.302-0.418,0.465-0.719,0.369l-0.975-0.314c-0.141,0.722-0.354,1.431-0.612,2.127l0.909,0.292
		c0.301,0.097,0.466,0.419,0.369,0.719c-0.096,0.3-0.418,0.466-0.719,0.368l-1.006-0.324c-0.32,0.678-0.695,1.334-1.133,1.963
		l1.461,0.469c0.299,0.098,0.465,0.42,0.367,0.72c-0.097,0.299-0.418,0.464-0.718,0.368l-1.842-0.594
		c-0.257,0.308-0.522,0.608-0.81,0.896c-0.305,0.305-0.623,0.59-0.949,0.861l2.922,0.94c0.301,0.097,0.466,0.419,0.369,0.718
		c-0.097,0.301-0.418,0.467-0.719,0.371l-3.691-1.189c-1.08,0.725-2.256,1.283-3.49,1.67l6.059,1.951l5.045-2.145l6.793-21.099
		L49.82,33.556"/>
	<path display="inline" fill="#FFFFFF" d="M31.97,31.281h11.18c0.316,0,0.572,0.256,0.572,0.571c0,0.316-0.256,0.571-0.572,0.571
		H31.97c-0.316,0-0.571-0.255-0.571-0.571C31.399,31.537,31.654,31.281,31.97,31.281z M31.97,27.926h11.18
		c0.316,0,0.572,0.256,0.572,0.571c0,0.316-0.256,0.571-0.572,0.571H31.97c-0.316,0-0.571-0.255-0.571-0.571
		C31.399,28.182,31.654,27.926,31.97,27.926z M31.693,49.113c-0.173-0.1-0.294-0.276-0.294-0.489c0-0.179,0.087-0.332,0.215-0.437
		c-0.044-0.811-0.022-1.625,0.077-2.429c-0.171-0.099-0.292-0.276-0.292-0.489c0-0.276,0.2-0.496,0.461-0.548
		c0.153-0.761,0.367-1.509,0.647-2.237H31.97c-0.316,0-0.571-0.255-0.571-0.57c0-0.316,0.255-0.571,0.571-0.571h1.041
		c0.383-0.774,0.85-1.512,1.384-2.212H31.97c-0.316,0-0.571-0.256-0.571-0.571s0.255-0.571,0.571-0.571h3.399
		c0.07-0.073,0.133-0.151,0.205-0.222c0.775-0.775,1.634-1.432,2.546-1.991h-6.15c-0.316,0-0.571-0.256-0.571-0.572
		c0-0.314,0.255-0.57,0.571-0.57h8.494c1.507-0.56,3.112-0.867,4.767-0.867c0.587,0,1.167,0.05,1.742,0.123v-7.789H28.686v25.753
		h3.639C32.019,50.959,31.806,50.041,31.693,49.113"/>
</g>
<g display="none">
	<path display="inline" fill="#FFFFFF" d="M45.368,41.487c-2.244,0-4.065,1.82-4.065,4.066c0,2.244,1.821,4.064,4.065,4.064
		c2.245,0,4.065-1.82,4.065-4.064C49.434,43.307,47.613,41.487,45.368,41.487"/>
	<path display="inline" fill="#FFFFFF" d="M69.984,25.713l-4.232-0.718l-0.719-4.233l-9.075,9.075l0.258,2.958l-9.925,9.926
		l1.734,1.736l9.928-9.926l2.957,0.258L69.984,25.713"/>
	<path display="inline" fill="#FFFFFF" d="M53.889,40.331c0.937,1.523,1.485,3.307,1.485,5.222c0,5.518-4.487,10.006-10.006,10.006
		c-5.517,0-10.006-4.488-10.006-10.006s4.489-10.006,10.006-10.006c1.825,0,3.53,0.498,5.005,1.355l2.38-2.38
		c-2.112-1.42-4.653-2.25-7.385-2.25c-7.323,0-13.281,5.958-13.281,13.281c0,7.322,5.958,13.28,13.281,13.28
		s13.28-5.958,13.28-13.28c0-2.821-0.89-5.433-2.395-7.586L53.889,40.331"/>
	<path display="inline" fill="#FFFFFF" d="M61.479,36.13l-0.221-0.018c1.649,2.765,2.6,5.992,2.6,9.441
		c0,10.194-8.293,18.488-18.489,18.488c-10.195,0-18.49-8.294-18.49-18.488c0-10.196,8.295-18.49,18.49-18.49
		c3.446,0,6.675,0.95,9.44,2.6l-0.019-0.221l2.247-2.248c-3.375-2.153-7.378-3.406-11.669-3.406
		c-12.001,0-21.765,9.764-21.765,21.765c0,12,9.764,21.764,21.765,21.764s21.765-9.764,21.765-21.764
		c0-4.292-1.255-8.295-3.406-11.67L61.479,36.13"/>
</g>
<g display="none">
	<path display="inline" fill="#FFFFFF" d="M23.878,43.544c3.09-0.044,3.443-1.722,3.443-3.134c0-1.148-0.132-2.34-0.264-3.531
		c-0.177-1.236-0.309-2.428-0.309-3.575c0-4.15,2.648-5.915,6.576-5.915h1.28v3.179H33.81c-2.295,0-3.09,1.28-3.09,3.441
		c0,0.883,0.132,1.81,0.309,2.781c0.088,0.972,0.265,2.031,0.265,3.179c0.045,3.09-1.28,4.413-3.531,4.943V45
		c2.251,0.529,3.576,1.898,3.531,4.988c0,1.191-0.177,2.25-0.265,3.222c-0.177,0.972-0.309,1.899-0.309,2.781
		c0,2.206,0.883,3.487,3.09,3.487h0.794v3.133h-1.28c-3.84,0-6.576-1.588-6.576-6.047c0-1.103,0.132-2.34,0.309-3.531
		c0.132-1.191,0.264-2.34,0.264-3.486c0-1.279-0.353-3.09-3.443-3.135V43.544"/>
	<path display="inline" fill="#FFFFFF" d="M66.122,46.412c-3.046,0.045-3.442,1.855-3.442,3.135c0,1.146,0.176,2.295,0.309,3.486
		c0.132,1.191,0.309,2.429,0.309,3.531c0,4.459-2.736,6.047-6.576,6.047h-1.281v-3.133h0.795c2.207-0.045,3.045-1.281,3.045-3.487
		c0-0.882-0.131-1.81-0.264-2.781s-0.265-2.03-0.265-3.222c-0.045-3.09,1.28-4.459,3.485-4.988v-0.088
		c-2.205-0.53-3.53-1.853-3.485-4.943c0-1.148,0.132-2.207,0.265-3.179c0.133-0.971,0.264-1.898,0.264-2.781
		c0-2.161-0.793-3.398-3.045-3.441h-0.795v-3.179h1.281c3.928,0,6.576,1.765,6.576,5.915c0,1.147-0.177,2.339-0.309,3.575
		c-0.133,1.191-0.309,2.383-0.309,3.531c0,1.412,0.396,3.09,3.442,3.134V46.412"/>
</g>
<g display="none">
	<path display="inline" fill="#FFFFFF" d="M63.391,27.389H26.334c-1.494,0-2.706,1.211-2.706,2.705v22.753
		c0,1.494,1.212,2.705,2.706,2.705h9.33c-0.053-0.443-0.132-1.045-0.152-1.557h-9.134V28.947h36.949v25.049H46.693
		c0.091,0.191,0.184,0.4,0.285,0.648c0.14,0.348,1.189,0.004,1.561,0.631c0.051,0.086,0.107,0.182,0.164,0.277h14.688
		c1.496,0,2.705-1.211,2.705-2.705V30.094C66.096,28.6,64.887,27.389,63.391,27.389"/>
	<path display="inline" fill="#FFFFFF" d="M37.184,68.202c-0.161,0-0.315-0.087-0.395-0.24c-0.444-0.858-1.864-3.743-1.497-4.833
		c0.086-0.393-0.321-2.971-0.47-3.373c-0.245-0.664-0.001-1.701,0.294-2.799c0.066-0.247,0.149-0.555,0.153-0.639
		c0-0.118-0.031-0.358-0.066-0.65c-0.194-1.58-0.267-2.559,0.332-2.822c0.834-0.361,2.313,0.35,2.808,0.844
		c0.795,0.797,0.893,2.133,0.971,3.205c0.025,0.338,0.048,0.664,0.091,0.932c0.577-1.74,0.872-5.061,1.118-7.823
		c0.058-0.646,0.114-1.276,0.171-1.87c0.304-3.159,1.228-4.813,2.658-4.731c1.856,0.142,1.732,2.649,1.611,5.073
		c-0.074,1.494-0.159,3.188,0.309,3.807c0.032,0.027,0.087,0.037,0.127,0.043c0.583,0.09,1.133,0.324,1.947,2.295
		c0.065,0.011,0.161,0.02,0.232,0.027c0.404,0.039,1.016,0.098,1.342,0.649c0.393,0.663,0.963,1.638,1.204,2.054
		c0.505,0.064,1.649,0.317,2.649,1.316c0.778,0.777,0.69,3.167,0.379,4.979c-0.281,1.627-0.829,4.182-0.834,4.207
		c-0.053,0.239-0.293,0.387-0.526,0.34c-0.239-0.051-0.392-0.287-0.341-0.525c0.006-0.025,0.55-2.563,0.826-4.171
		c0.408-2.369,0.162-3.908-0.131-4.202c-1.037-1.036-2.285-1.078-2.297-1.078l-0.248-0.007l-0.127-0.214
		c0,0-0.809-1.389-1.316-2.246c-0.092-0.152-0.333-0.188-0.665-0.219c-0.341-0.033-0.767-0.074-0.927-0.473
		c-0.717-1.767-1.082-1.822-1.3-1.855c-0.185-0.029-0.465-0.072-0.702-0.385c-0.661-0.877-0.576-2.582-0.486-4.385
		c0.095-1.908,0.202-4.07-0.794-4.146c-0.785-0.06-1.471,1.481-1.707,3.931c-0.057,0.594-0.113,1.221-0.171,1.864
		c-0.341,3.836-0.695,7.801-1.709,9.164l-0.205,0.274l-0.319-0.129c-0.195-0.08-0.342-0.269-0.56-1.031
		c-0.109-0.387-0.146-0.881-0.183-1.401c-0.071-0.974-0.151-2.078-0.713-2.642c-0.377-0.375-1.343-0.74-1.741-0.682
		c-0.086,0.358,0.048,1.443,0.106,1.926c0.041,0.34,0.074,0.619,0.074,0.762c0,0.173-0.061,0.402-0.185,0.865
		c-0.169,0.631-0.485,1.808-0.317,2.26c0.164,0.445,0.685,3.359,0.478,3.967c-0.17,0.503,0.618,2.542,1.445,4.141
		c0.111,0.217,0.027,0.485-0.191,0.598C37.322,68.186,37.252,68.202,37.184,68.202"/>
	<path display="inline" fill="#FFFFFF" d="M43.873,56.675c-0.245,0-0.443-0.198-0.443-0.444c0-0.188,0.056-0.516,0.172-1.181
		c0.183-1.051,0.459-2.638,0.459-3.838c0-0.245,0.198-0.442,0.443-0.442s0.443,0.197,0.443,0.442c0,1.276-0.284,2.909-0.473,3.99
		c-0.077,0.446-0.158,0.909-0.158,1.028C44.316,56.477,44.118,56.675,43.873,56.675"/>
	<path display="inline" fill="#FFFFFF" d="M47.027,57.626c-0.033,0-0.067-0.005-0.103-0.013c-0.237-0.057-0.385-0.297-0.327-0.534
		c0.158-0.666,0.088-1.127,0.006-1.659c-0.022-0.154-0.047-0.313-0.065-0.479c-0.029-0.242,0.146-0.461,0.388-0.49
		c0.237-0.035,0.465,0.145,0.492,0.388c0.018,0.156,0.041,0.304,0.063,0.447c0.088,0.571,0.179,1.164-0.021,1.999
		C47.411,57.488,47.229,57.626,47.027,57.626"/>
	<path display="inline" fill="#FFFFFF" d="M38.073,65.178c-0.245,0-0.444-0.199-0.444-0.445c0-1.869,1.159-5.483,1.291-5.891
		c0.076-0.232,0.324-0.359,0.559-0.283c0.233,0.075,0.359,0.325,0.284,0.559c-0.464,1.423-1.247,4.208-1.247,5.615
		C38.516,64.979,38.318,65.178,38.073,65.178"/>
	<path display="inline" fill="#FFFFFF" d="M49.781,60.257c-0.035,0-0.071-0.004-0.107-0.014c-0.236-0.058-0.382-0.3-0.322-0.536
		c0.215-0.863,0.166-1.297,0.068-1.861c-0.041-0.24,0.12-0.47,0.362-0.512c0.239-0.038,0.471,0.12,0.512,0.361
		c0.11,0.632,0.173,1.197-0.083,2.226C50.161,60.122,49.98,60.257,49.781,60.257"/>
	<path display="inline" fill="#FFFFFF" d="M56.577,34.103l-2.499,1.892l-3.395,0.449l-3.748,3.836l-1.199,4.052
		c0.142,0.384,0.23,0.81,0.287,1.256l1.381-2.498l3.279-2.043l3.395-0.997l3.162-2.134l3.753-1.94v-4.325L56.577,34.103"/>
	<path display="inline" fill="#FFFFFF" d="M57.24,39.112l-3.162,2.135l-3.395,0.997l-3.279,2.044l-1.303,2.358
		c0.012,0.526-0.002,1.059-0.024,1.567l1.327-1.024l3.396-1.756l3.278-1.145l3.162-2.251l3.753-0.117v-4.747L57.24,39.112"/>
	<path display="inline" fill="#FFFFFF" d="M57.24,43.024l-3.162,2.25L50.8,46.419l-3.396,1.756l-1.375,1.062
		c-0.016,0.344-0.029,0.726-0.032,1.099h14.996v-7.428L57.24,43.024"/>
	<path display="inline" fill="#FFFFFF" d="M46.012,51.086c0.012,0.197,0.027,0.378,0.055,0.52c0.238,0.082,0.455,0.201,0.66,0.353
		h14.809v-0.872H46.012"/>
	<path display="inline" fill="#FFFFFF" d="M42.197,31.658h-0.872v11.698c0.28-0.28,0.576-0.471,0.872-0.598v-0.183h1.535v-0.436
		h-1.535v-2.697h1.535v-0.436h-1.535v-2.695h1.535v-0.437h-1.535v-2.695h1.535v-0.436h-1.535V31.658"/>
	<path display="inline" fill="#FFFFFF" d="M30.073,33.173h7.495v1.754h-7.495V33.173z M30.073,37.05h7.495v1.754h-7.495V37.05z
		 M30.073,40.928h7.495v1.754h-7.495V40.928z M30.073,44.806h7.495v1.754h-7.495V44.806z M30.073,48.684h7.495v1.754h-7.495V48.684z
		 M28.652,51.958h10.337V31.651H28.652V51.958z"/>
</g>
<g display="none">
	<path display="inline" fill="#FFFFFF" d="M65.844,41.884l-13.138-4.231c-0.371-0.119-0.574-0.516-0.455-0.888
		c0.119-0.369,0.517-0.573,0.888-0.454l13.137,4.23c0.371,0.12,0.574,0.518,0.455,0.888C66.611,41.799,66.214,42.003,65.844,41.884z
		 M64.575,45.826l-13.138-4.23c-0.371-0.12-0.576-0.518-0.455-0.888c0.119-0.37,0.516-0.574,0.887-0.455l13.137,4.23
		c0.372,0.121,0.575,0.517,0.455,0.887C65.342,45.741,64.945,45.945,64.575,45.826z M63.307,49.766l-13.139-4.23
		c-0.371-0.118-0.575-0.516-0.455-0.886c0.119-0.37,0.516-0.574,0.887-0.455l13.137,4.23c0.373,0.12,0.576,0.518,0.457,0.887
		C64.074,49.682,63.676,49.887,63.307,49.766z M62.036,53.709l-13.138-4.23c-0.371-0.119-0.574-0.517-0.455-0.887
		c0.119-0.371,0.517-0.574,0.887-0.453l13.138,4.229c0.371,0.118,0.575,0.516,0.455,0.886
		C62.805,53.625,62.407,53.828,62.036,53.709z M60.768,57.648L47.63,53.419c-0.372-0.119-0.575-0.517-0.455-0.886
		c0.119-0.371,0.517-0.575,0.886-0.455l13.139,4.23c0.371,0.119,0.574,0.517,0.455,0.887C61.535,57.566,61.139,57.77,60.768,57.648z
		 M59.497,61.594l-13.138-4.23c-0.371-0.12-0.573-0.516-0.455-0.889c0.119-0.369,0.517-0.572,0.887-0.453l13.139,4.229
		c0.37,0.12,0.574,0.517,0.455,0.888C60.266,61.508,59.869,61.712,59.497,61.594z M58.229,65.534l-13.138-4.229
		c-0.371-0.121-0.574-0.518-0.455-0.889c0.119-0.369,0.516-0.572,0.885-0.455l13.14,4.23c0.371,0.121,0.573,0.517,0.455,0.888
		C58.996,65.449,58.6,65.652,58.229,65.534z M49.969,32.925l-9.744,30.263l16.617,5.351l6.229-2.647l8.387-26.046L49.969,32.925"/>
	<path display="inline" fill="#FFFFFF" d="M27.227,51.525c0-0.389,0.316-0.705,0.705-0.705h13.802c0.39,0,0.705,0.316,0.705,0.705
		c0,0.39-0.315,0.705-0.705,0.705H27.932C27.543,52.23,27.227,51.915,27.227,51.525z M27.932,46.682h13.802
		c0.39,0,0.705,0.315,0.705,0.705c0,0.389-0.315,0.704-0.705,0.704H27.932c-0.389,0-0.705-0.315-0.705-0.704
		C27.227,46.997,27.543,46.682,27.932,46.682z M27.932,42.538h13.802c0.39,0,0.705,0.316,0.705,0.706
		c0,0.389-0.315,0.704-0.705,0.704H27.932c-0.389,0-0.705-0.315-0.705-0.704C27.227,42.854,27.543,42.538,27.932,42.538z
		 M27.932,38.398h13.802c0.39,0,0.705,0.316,0.705,0.706c0,0.389-0.315,0.705-0.705,0.705H27.932c-0.389,0-0.705-0.316-0.705-0.705
		C27.227,38.714,27.543,38.398,27.932,38.398z M27.932,34.257h13.802c0.39,0,0.705,0.315,0.705,0.704s-0.315,0.705-0.705,0.705
		H27.932c-0.389,0-0.705-0.316-0.705-0.705S27.543,34.257,27.932,34.257z M27.932,30.117h13.802c0.39,0,0.705,0.316,0.705,0.704
		c0,0.39-0.315,0.705-0.705,0.705H27.932c-0.389,0-0.705-0.315-0.705-0.705C27.227,30.433,27.543,30.117,27.932,30.117z
		 M27.932,25.975h13.802c0.39,0,0.705,0.316,0.705,0.704c0,0.39-0.315,0.706-0.705,0.706H27.932c-0.389,0-0.705-0.316-0.705-0.706
		C27.227,26.291,27.543,25.975,27.932,25.975z M41.732,55.171l4.72-14.657V23.723H23.878v31.792h17.457L41.732,55.171"/>
</g>
<g display="none">
	<path display="inline" fill="#FFFFFF" d="M63.156,53.521c-0.76-0.912-1.737-0.74-2.301-0.662c-0.141,0.019-0.535,0.207-0.648,0.271
		l-6.684,3.77c0.213,0.588,0.22,1.25-0.035,1.875l-0.211,0.518c-0.444,1.088-1.481,1.754-2.598,1.754
		c-0.275,0-0.556-0.041-0.834-0.126l-4.516-1.537c-0.275-0.094-0.423-0.394-0.329-0.671c0.094-0.275,0.393-0.425,0.671-0.329
		l4.499,1.532c0.858,0.264,1.782-0.174,2.128-1.023l0.211-0.517c0.318-0.776-0.033-1.655-0.799-1.999c0,0-9.735-4.953-10.758-5.182
		c-0.73-0.162-2.991,0-2.991,0c-0.441,0-0.877,0.089-1.283,0.26l-9.474,3.988c-0.616,0.26-0.96,0.92-0.82,1.574l1.476,6.889
		c0.196,0.916,1.223,1.38,2.04,0.923l6.694-3.748c0.299-0.168,0.65-0.22,0.984-0.144l12.54,2.811
		c0.357,0.079,0.674,0.184,1.378-0.286L62.9,56.246C63.966,55.29,63.738,54.221,63.156,53.521"/>
	<path display="inline" fill="#FFFFFF" d="M52.458,41.705c-2.996,0-5.433,2.437-5.433,5.432c0,2.996,2.437,5.434,5.433,5.434
		c2.995,0,5.433-2.438,5.433-5.434C57.891,44.142,55.453,41.705,52.458,41.705z M52.458,53.759c-3.651,0-6.621-2.971-6.621-6.622
		c0-3.65,2.97-6.62,6.621-6.62c3.649,0,6.62,2.97,6.62,6.62C59.078,50.788,56.107,53.759,52.458,53.759"/>
	<path display="inline" fill="#FFFFFF" d="M52.086,51.624V50.52c-0.634-0.01-1.29-0.207-1.672-0.48l0.262-0.732
		c0.393,0.262,0.963,0.471,1.574,0.471c0.775,0,1.3-0.448,1.3-1.07c0-0.602-0.426-0.975-1.235-1.301
		c-1.114-0.438-1.803-0.94-1.803-1.891c0-0.908,0.646-1.596,1.65-1.76v-1.105h0.678v1.06c0.656,0.023,1.104,0.197,1.42,0.383
		l-0.273,0.721c-0.229-0.131-0.676-0.371-1.377-0.371c-0.84,0-1.157,0.502-1.157,0.94c0,0.568,0.403,0.853,1.354,1.246
		c1.127,0.459,1.694,1.026,1.694,2c0,0.863-0.601,1.673-1.728,1.858v1.136H52.086"/>
	<path display="inline" fill="#FFFFFF" d="M45.616,42.737v-0.94c-0.539-0.009-1.097-0.177-1.423-0.409l0.223-0.623
		c0.335,0.223,0.819,0.4,1.34,0.4c0.661,0,1.107-0.382,1.107-0.912c0-0.512-0.363-0.829-1.051-1.108
		c-0.95-0.371-1.536-0.8-1.536-1.609c0-0.772,0.548-1.358,1.405-1.498v-0.94h0.577v0.903c0.558,0.018,0.939,0.167,1.209,0.325
		l-0.233,0.614c-0.194-0.111-0.575-0.316-1.172-0.316c-0.716,0-0.985,0.428-0.985,0.8c0,0.484,0.344,0.726,1.153,1.061
		c0.959,0.391,1.442,0.875,1.442,1.703c0,0.734-0.512,1.423-1.47,1.582v0.967H45.616"/>
	<path display="inline" fill="#FFFFFF" d="M54.501,25.879c-2.233,0-4.051,1.817-4.051,4.05c0,2.234,1.817,4.051,4.051,4.051
		s4.051-1.817,4.051-4.051C58.552,27.696,56.734,25.879,54.501,25.879z M54.501,34.866c-2.722,0-4.937-2.214-4.937-4.937
		c0-2.722,2.215-4.937,4.937-4.937s4.937,2.215,4.937,4.937C59.438,32.652,57.223,34.866,54.501,34.866"/>
	<path display="inline" fill="#FFFFFF" d="M54.225,33.275v-0.823c-0.474-0.008-0.963-0.155-1.248-0.359l0.196-0.546
		c0.293,0.196,0.718,0.351,1.173,0.351c0.579,0,0.971-0.335,0.971-0.799c0-0.448-0.318-0.725-0.922-0.97
		c-0.83-0.326-1.345-0.7-1.345-1.41c0-0.676,0.482-1.189,1.231-1.313v-0.822h0.506v0.79c0.488,0.016,0.822,0.146,1.059,0.285
		l-0.203,0.538c-0.172-0.098-0.506-0.277-1.027-0.277c-0.627,0-0.864,0.375-0.864,0.701c0,0.423,0.302,0.635,1.011,0.928
		c0.84,0.343,1.264,0.767,1.264,1.492c0,0.644-0.448,1.247-1.289,1.385v0.848H54.225"/>
	<path display="inline" fill="#FFFFFF" d="M45.686,43.53c-2.436-0.13-4.377-2.146-4.377-4.613c0-2.55,2.074-4.625,4.625-4.625
		c2.549,0,4.625,2.075,4.625,4.625c0,0.277-0.029,0.547-0.076,0.811c0.343-0.092,0.693-0.164,1.054-0.206
		c0.021-0.199,0.032-0.401,0.032-0.605c0-3.108-2.527-5.636-5.635-5.636c-3.108,0-5.638,2.528-5.638,5.636
		c0,2.878,2.169,5.255,4.958,5.592C45.377,44.172,45.518,43.843,45.686,43.53"/>
</g>
<g id="Layer_1_Copy_Copy" display="none">
	<path display="inline" fill="#7FB1B3" d="M45,79c-18.778,0-34-15.223-34-34c0-18.778,15.222-34,34-34c18.777,0,34,15.222,34,34
		C79,63.777,63.777,79,45,79z"/>
	<g>
		<path display="inline" fill="#FFFFFF" d="M25.902,46.564h1.654v8.098h-1.654V46.564z"/>
		<path display="inline" fill="#FFFFFF" d="M27.557,36.531h-1.655c0-5.124,4.383-5.139,7.583-5.148
			c3.834-0.013,5.516-0.297,5.538-2.957l1.654,0.014c-0.037,4.573-4.002,4.586-7.186,4.597
			C29.701,33.049,27.557,33.217,27.557,36.531"/>
		<path display="inline" fill="#FFFFFF" d="M43.316,26.754h-6.981c-1.535,0-2.792-1.257-2.792-2.793v-1.074
			c0-1.536,1.257-2.793,2.792-2.793h6.981c1.536,0,2.792,1.257,2.792,2.793v1.074C46.107,25.497,44.852,26.754,43.316,26.754"/>
		<path display="inline" fill="#FFFFFF" d="M30.228,44.908h-6.979c-1.536,0-2.793-1.256-2.793-2.792v-1.075
			c0-1.536,1.257-2.792,2.793-2.792h6.979c1.536,0,2.793,1.256,2.793,2.792v1.075C33.021,43.652,31.764,44.908,30.228,44.908"/>
		<path display="inline" fill="#FFFFFF" d="M56.438,44.908h-6.981c-1.535,0-2.792-1.256-2.792-2.792v-1.075
			c0-1.536,1.257-2.792,2.792-2.792h6.981c1.535,0,2.791,1.256,2.791,2.792v1.075C59.229,43.652,57.973,44.908,56.438,44.908"/>
		<path display="inline" fill="#FFFFFF" d="M46.624,62.837h-6.98c-1.535,0-2.793-1.257-2.793-2.792v-1.074
			c0-1.535,1.258-2.793,2.793-2.793h6.98c1.536,0,2.793,1.258,2.793,2.793v1.074C49.417,61.58,48.16,62.837,46.624,62.837"/>
		<path display="inline" fill="#FFFFFF" d="M66.249,62.837H59.27c-1.535,0-2.793-1.257-2.793-2.792v-1.074
			c0-1.535,1.258-2.793,2.793-2.793h6.979c1.536,0,2.793,1.258,2.793,2.793v1.074C69.042,61.58,67.785,62.837,66.249,62.837"/>
		<path display="inline" fill="#FFFFFF" d="M30.219,62.837h-6.98c-1.536,0-2.793-1.257-2.793-2.792v-1.074
			c0-1.535,1.257-2.793,2.793-2.793h6.98c1.536,0,2.793,1.258,2.793,2.793v1.074C33.012,61.58,31.755,62.837,30.219,62.837"/>
		<path display="inline" fill="#FFFFFF" d="M53.773,36.531H52.12c0-3.314-2.144-3.482-5.935-3.494
			c-3.186-0.011-7.149-0.024-7.187-4.597l1.654-0.014c0.022,2.66,1.704,2.944,5.539,2.957
			C49.391,31.392,53.773,31.407,53.773,36.531"/>
		<path display="inline" fill="#FFFFFF" d="M43.962,54.662h-1.655c0-5.123,3.393-5.139,5.871-5.148
			c2.647-0.013,3.92-0.143,3.942-2.957l1.653,0.014c-0.037,4.572-3.246,4.586-5.588,4.597
			C45.643,51.178,43.962,51.186,43.962,54.662"/>
		<path display="inline" fill="#FFFFFF" d="M63.586,54.662h-1.654c0-3.477-1.681-3.484-4.225-3.495
			c-2.342-0.011-5.55-0.024-5.587-4.597l1.653-0.014c0.022,2.814,1.295,2.944,3.941,2.957
			C60.193,49.523,63.586,49.539,63.586,54.662"/>
	</g>
	<g>
		<path display="inline" fill="#FFFFFF" d="M55.705,65.723c-2.499,0.355-18.822,0.565-21.239,0.27
			c-0.888-1.336-1.528-6.754,0.37-11.084c0.941-2.146,2.233-3.234,3.843-3.234c0.011,0,0.021,0,0.032,0
			c1.823,0.741,3.945,1.117,6.12,1.088c2.253-0.027,4.41-0.479,6.248-1.308c1.485-0.113,2.761,0.847,3.757,2.86
			C56.755,58.193,56.752,64.137,55.705,65.723z M56.648,53.418c-1.41-2.848-3.537-4.254-5.959-3.956
			c-0.105,0.013-0.209,0.042-0.307,0.088c-1.615,0.755-3.543,1.166-5.578,1.192c-1.993,0.021-3.876-0.322-5.484-1.002
			c-0.109-0.047-0.223-0.073-0.341-0.079c-2.554-0.132-4.681,1.438-5.995,4.437c-1.948,4.443-1.837,11.52,0.215,13.521
			c0.286,0.279,0.56,0.546,6.92,0.546c1.368,0,3.019-0.013,5.01-0.041c11.238-0.153,11.545-0.468,11.871-0.802
			C59.023,65.248,58.836,57.84,56.648,53.418"/>
		<path display="inline" fill="#FFFFFF" d="M38.752,37.013c1.752,1.031,10.5-0.202,12.93,0.999c0.182,0.504,0.317,1.032,0.381,1.586
			c0.215,1.851-0.309,3.678-1.474,5.144c-1.185,1.49-2.886,2.43-4.79,2.646c-3.896,0.438-7.439-2.336-7.885-6.194
			C37.745,39.729,38.045,38.281,38.752,37.013z M44.981,49.455c0.345,0,0.694-0.02,1.046-0.059c2.44-0.277,4.623-1.483,6.145-3.397
			c1.501-1.889,2.176-4.245,1.898-6.634c-0.572-4.96-5.115-8.54-10.119-7.97l0,0c-2.443,0.278-4.625,1.485-6.146,3.398
			c-1.5,1.89-2.175,4.245-1.9,6.634C36.439,46.041,40.402,49.455,44.981,49.455"/>
		<path display="inline" fill="#FFFFFF" d="M33.956,43.015c0.307-0.036,0.608-0.093,0.905-0.163c-0.103-0.417-0.189-0.84-0.24-1.277
			c-0.315-2.732,0.457-5.426,2.171-7.586c0.804-1.011,1.775-1.84,2.855-2.48c-1.51-2.46-4.367-3.973-7.436-3.623l0,0
			c-2.053,0.232-3.887,1.247-5.165,2.855c-1.261,1.588-1.828,3.567-1.596,5.575c0.448,3.878,3.779,6.748,7.627,6.748
			C33.367,43.064,33.66,43.048,33.956,43.015"/>
		<path display="inline" fill="#FFFFFF" d="M66.695,46.395c-1.184-2.394-2.971-3.576-5.006-3.325
			c-0.09,0.01-0.176,0.035-0.258,0.073c-1.357,0.635-2.979,0.981-4.688,1.002c-0.68,0.007-1.338-0.049-1.979-0.141
			c-0.373,0.996-0.899,1.941-1.582,2.801c-0.397,0.5-0.838,0.952-1.31,1.364c2.421,0.218,4.538,1.856,5.933,4.675
			c0.807,1.629,1.383,3.727,1.676,5.87c7.026-0.138,7.264-0.38,7.511-0.633C68.693,56.337,68.535,50.111,66.695,46.395"/>
		<path display="inline" fill="#FFFFFF" d="M64.531,34.584c-0.482-4.169-4.301-7.178-8.506-6.698l0,0
			c-2.053,0.232-3.887,1.247-5.166,2.855c-0.196,0.248-0.369,0.508-0.532,0.774c2.694,1.599,4.644,4.373,5.028,7.702
			c0.143,1.235,0.053,2.459-0.236,3.633c0.572,0.136,1.165,0.214,1.771,0.214c0.291,0,0.584-0.016,0.879-0.049
			c2.053-0.233,3.887-1.247,5.166-2.855C64.195,38.571,64.764,36.591,64.531,34.584"/>
		<path display="inline" fill="#FFFFFF" d="M31.801,53.577c1.408-3.211,3.779-5.044,6.573-5.185
			c-1.431-1.166-2.542-2.707-3.189-4.482c-0.725,0.14-1.478,0.225-2.255,0.235c-1.676,0.017-3.259-0.27-4.61-0.842
			c-0.091-0.038-0.188-0.061-0.286-0.066c-2.147-0.111-3.935,1.21-5.039,3.728c-1.638,3.735-1.544,9.682,0.18,11.365
			c0.241,0.234,0.471,0.458,5.817,0.458c0.45,0,0.949-0.002,1.476-0.005C30.696,56.898,31.149,55.066,31.801,53.577"/>
	</g>
	<g>
		<path display="inline" fill="#FFFFFF" d="M52.129,43.012c0.001,0.001,0.004,0.001,0.006,0c1.021-0.778,2.629-2.202,3.135-3.504
			c0.004-0.013,0.01-0.023,0.015-0.036c0.004-0.008,0.008-0.018,0.012-0.026c0.002-0.006,0.003-0.012,0.006-0.016
			c0.003-0.005,0.005-0.009,0.007-0.014c0.006-0.011,0.012-0.023,0.019-0.034c0.003-0.007,0.007-0.014,0.011-0.021
			c0.87-1.559,0.49-2.761,0.123-3.921c-0.005-0.019-0.01-0.034-0.016-0.052c-0.605-0.124-1.24-0.412-1.901-0.868
			c-0.424-0.293-0.633-0.868-0.446-1.373c0.252-0.683,0.998-0.916,1.539-0.538c0.495,0.346,1.198,0.726,1.736,0.57
			c0.383-0.112,0.743-0.512,1.07-1.192c0.226-0.47,0.713-0.753,1.189-0.622c0.676,0.184,0.98,0.971,0.686,1.599
			c-0.473,1.005-1.067,1.711-1.77,2.111c-0.002,0.001-0.003,0.004-0.003,0.006c0.328,1.077,0.667,2.518,0.11,4.223
			c-0.002,0.004,0.001,0.007,0.004,0.008c1.359,0.336,2.953-0.004,4.445-0.988c1.24-0.819,2.185-1.965,2.668-3.169
			c0.002-0.001,0.002-0.003,0-0.005c-0.291-0.512-0.623-0.996-0.994-1.447c0,0-0.002,0-0.002-0.001
			c-0.52-2.792-2.146-5.175-4.387-6.647c-0.002-0.001-0.002-0.002-0.002-0.003c-0.504-1.865-1.851-3.313-3.537-3.777
			c-0.004-0.001-0.006,0.003-0.006,0.007c0.771,2.565,0.361,5.104-1.086,6.454c-0.48,0.451-1.306,0.976-2.525,0.976
			c-0.924,0-2.075-0.302-3.477-1.17c-0.424-0.262-0.64-0.812-0.488-1.314c0.213-0.707,0.951-0.988,1.515-0.638
			c1.586,0.985,2.868,1.145,3.612,0.451c0.858-0.802,0.994-2.698,0.322-4.508c-0.076-0.205-0.091-0.418-0.057-0.619
			c0.001-0.002,0-0.004,0-0.005c-1.748-1.607-4.362-2.676-7.32-2.815c-0.003,0-0.005,0.003-0.005,0.006v15.149c0,0,0,0.001,0,0.002
			C47.021,36.685,49.029,40.484,52.129,43.012"/>
		<path display="inline" fill="#FFFFFF" d="M66.122,40.284c0-0.89-0.112-1.752-0.321-2.575c-0.001-0.004-0.005-0.005-0.008-0.001
			c-0.669,0.967-1.551,1.837-2.602,2.53c-1.448,0.956-3.002,1.443-4.477,1.443c-0.695,0-1.371-0.111-2.013-0.329
			c-0.002-0.001-0.004,0-0.005,0.002c-0.5,0.819-1.235,1.666-2.197,2.528c-0.162,0.144-0.32,0.28-0.473,0.408
			c-0.004,0.002-0.002,0.007,0,0.009c1.477,0.801,3.138,1.258,4.967,1.093c0.58-0.052,1.088,0.417,1.126,1.045
			c0.037,0.619-0.429,1.146-1.002,1.194c-0.288,0.024-0.577,0.037-0.865,0.037c-2.3,0-4.55-0.786-6.667-2.312
			c-0.046-0.029-0.089-0.061-0.131-0.098c-1.211-0.893-2.378-2.029-3.484-3.402c-0.615-0.763-1.156-1.529-1.625-2.251
			c-0.003-0.005-0.009-0.002-0.009,0.003V69.9c0,0.002,0.002,0.006,0.004,0.006h6.281c0.002,0,0.002-0.002,0.003-0.002
			c0.757-0.779,1.491-3.275,1.529-3.649c0.188-1.806-0.793-4.938-3.512-6.603c-0.002,0-0.004,0-0.006,0
			c-0.57,0.283-1.262,0.447-2.066,0.482c-0.016,0.002-0.031,0.002-0.047,0.002c-0.637,0-1.149-0.621-1.02-1.35
			c0.092-0.514,0.525-0.87,1.01-0.895c0.448-0.022,0.995-0.107,1.383-0.35l0.002-0.001c0.062-0.062,0.129-0.112,0.201-0.155
			c0.037-0.035,0.071-0.072,0.104-0.111c0.255-0.334,0.331-0.895,0.227-1.664c-0.063-0.478,0.139-0.969,0.543-1.182
			c0.678-0.359,1.412,0.1,1.514,0.83c0.152,1.098,0.055,2.03-0.288,2.788c-0.001,0.003,0,0.005,0.002,0.007
			c2.013,1.437,3.272,3.571,3.788,5.633c0.002,0.004,0.006,0.006,0.008,0.004c2.23-1.193,3.96-3.241,4.785-5.726
			c0.001-0.004-0.002-0.007-0.004-0.008c-2.555-0.61-4.444-1.86-5.738-3.026c-2.271-2.047-3.236-4.273-3.275-4.367
			c-0.24-0.563-0.012-1.229,0.512-1.488c0.521-0.258,1.139-0.012,1.379,0.55c0.113,0.261,2.373,5.292,8.308,6.298
			c0.002,0,0.003-0.001,0.004-0.002c1.584-1.88,2.552-4.372,2.552-7.109c0-0.875-0.1-1.725-0.285-2.537c0-0.002,0-0.004,0-0.004
			C65.42,44.592,66.122,42.524,66.122,40.284"/>
		<path display="inline" fill="#FFFFFF" d="M37.872,43.012c-0.002,0.001-0.004,0.001-0.006,0c-1.022-0.778-2.63-2.202-3.134-3.504
			c-0.005-0.013-0.011-0.023-0.015-0.036c-0.004-0.008-0.008-0.018-0.012-0.026c-0.003-0.006-0.004-0.012-0.006-0.016
			c-0.002-0.005-0.005-0.009-0.007-0.014c-0.006-0.011-0.012-0.023-0.018-0.034c-0.004-0.007-0.007-0.014-0.011-0.021
			c-0.87-1.559-0.491-2.761-0.123-3.921c0.005-0.019,0.01-0.034,0.015-0.052c0.605-0.124,1.24-0.412,1.902-0.868
			c0.424-0.293,0.633-0.868,0.446-1.373c-0.251-0.683-0.997-0.916-1.539-0.538c-0.495,0.346-1.198,0.726-1.736,0.57
			c-0.384-0.112-0.743-0.512-1.07-1.192c-0.226-0.47-0.713-0.753-1.19-0.622c-0.676,0.184-0.981,0.971-0.685,1.599
			c0.473,1.005,1.066,1.711,1.769,2.111c0.002,0.001,0.003,0.004,0.002,0.006c-0.327,1.077-0.667,2.518-0.11,4.223
			c0.002,0.004,0,0.007-0.003,0.008c-1.361,0.336-2.955-0.004-4.445-0.988c-1.241-0.819-2.185-1.965-2.67-3.169
			c0-0.001,0-0.003,0.001-0.005c0.292-0.512,0.624-0.996,0.994-1.447c0,0,0.001,0,0.002-0.001c0.52-2.792,2.146-5.175,4.388-6.647
			c0.001-0.001,0.001-0.002,0.002-0.003c0.503-1.865,1.85-3.313,3.536-3.777c0.004-0.001,0.007,0.003,0.006,0.007
			c-0.771,2.565-0.361,5.104,1.085,6.454c0.482,0.451,1.307,0.976,2.526,0.976c0.924,0,2.076-0.302,3.477-1.17
			c0.424-0.262,0.64-0.812,0.488-1.314c-0.212-0.707-0.951-0.988-1.515-0.638c-1.585,0.985-2.868,1.145-3.613,0.451
			c-0.858-0.802-0.993-2.698-0.322-4.508c0.077-0.205,0.092-0.418,0.057-0.619c0-0.002,0-0.004,0.001-0.005
			c1.747-1.607,4.362-2.676,7.32-2.815c0.003,0,0.004,0.003,0.004,0.006v15.149c0,0,0,0.001,0,0.002
			C42.978,36.685,40.971,40.484,37.872,43.012"/>
		<path display="inline" fill="#FFFFFF" d="M23.878,40.284c0-0.89,0.113-1.752,0.322-2.575c0.001-0.004,0.005-0.005,0.008-0.001
			c0.669,0.967,1.55,1.837,2.601,2.53c1.449,0.956,3.002,1.443,4.477,1.443c0.695,0,1.371-0.111,2.013-0.329
			c0.002-0.001,0.004,0,0.005,0.002c0.499,0.819,1.235,1.666,2.196,2.528c0.163,0.144,0.321,0.28,0.474,0.408
			c0.003,0.002,0.002,0.007-0.001,0.009c-1.476,0.801-3.137,1.258-4.966,1.093c-0.58-0.052-1.088,0.417-1.126,1.045
			c-0.037,0.619,0.428,1.146,1.001,1.194c0.289,0.024,0.577,0.037,0.865,0.037c2.301,0,4.551-0.786,6.667-2.312
			c0.046-0.029,0.09-0.061,0.132-0.098c1.211-0.893,2.378-2.029,3.485-3.402c0.614-0.763,1.156-1.529,1.624-2.251
			c0.003-0.005,0.008-0.002,0.008,0.003V69.9c0,0.002-0.001,0.006-0.004,0.006h-6.281c-0.001,0-0.002-0.002-0.002-0.002
			c-0.757-0.779-1.491-3.275-1.53-3.649c-0.189-1.806,0.792-4.938,3.513-6.603c0.001,0,0.003,0,0.005,0
			c0.571,0.283,1.262,0.447,2.067,0.482c0.016,0.002,0.031,0.002,0.046,0.002c0.636,0,1.149-0.621,1.02-1.35
			c-0.092-0.514-0.526-0.87-1.01-0.895c-0.448-0.022-0.996-0.107-1.384-0.35l-0.001-0.001c-0.061-0.062-0.129-0.112-0.201-0.155
			c-0.037-0.035-0.071-0.072-0.103-0.111c-0.255-0.334-0.332-0.895-0.227-1.664c0.064-0.478-0.14-0.969-0.542-1.182
			c-0.679-0.359-1.414,0.1-1.515,0.83c-0.153,1.098-0.055,2.03,0.289,2.788c0.001,0.003,0,0.005-0.002,0.007
			c-2.013,1.437-3.273,3.571-3.789,5.633c-0.001,0.004-0.005,0.006-0.008,0.004c-2.229-1.193-3.959-3.241-4.784-5.726
			c-0.001-0.004,0-0.007,0.003-0.008c2.555-0.61,4.445-1.86,5.739-3.026c2.272-2.047,3.236-4.273,3.276-4.367
			c0.239-0.563,0.01-1.229-0.512-1.488c-0.522-0.258-1.139-0.012-1.38,0.55c-0.113,0.261-2.372,5.292-8.308,6.298
			c-0.001,0-0.003-0.001-0.003-0.002c-1.584-1.88-2.553-4.372-2.553-7.109c0-0.875,0.101-1.725,0.287-2.537
			c0-0.002,0-0.004-0.001-0.004C24.581,44.592,23.878,42.524,23.878,40.284"/>
	</g>
</g>
<g id="Layer_1_Copy_1_" display="none">
	<path display="inline" fill="#CABC1F" d="M45,79c-18.778,0-34-15.223-34-34c0-18.778,15.222-34,34-34c18.777,0,34,15.222,34,34
		C79,63.777,63.777,79,45,79z"/>
	<g>
		<path display="inline" fill="#FFFFFF" d="M58.891,64.725c-3.244,0.463-24.424,0.734-27.56,0.351
			c-1.152-1.733-1.982-8.763,0.481-14.382c1.221-2.785,2.897-4.196,4.986-4.196c0.014,0,0.027,0,0.041,0
			c2.366,0.961,5.119,1.448,7.941,1.412c2.924-0.036,5.722-0.622,8.109-1.698c1.926-0.146,3.582,1.1,4.873,3.711
			C60.253,54.955,60.248,62.667,58.891,64.725z M60.113,48.759c-1.828-3.694-4.588-5.519-7.731-5.133
			c-0.137,0.017-0.272,0.055-0.397,0.114c-2.096,0.979-4.598,1.514-7.237,1.547c-2.586,0.027-5.029-0.417-7.116-1.3
			c-0.141-0.059-0.289-0.094-0.442-0.102c-3.314-0.172-6.075,1.867-7.779,5.755c-2.528,5.766-2.384,14.948,0.278,17.545
			c0.372,0.362,0.727,0.709,8.98,0.709c1.775,0,3.917-0.017,6.501-0.053c14.581-0.199,14.979-0.607,15.401-1.039
			C63.197,64.109,62.952,54.497,60.113,48.759"/>
		<path display="inline" fill="#FFFFFF" d="M36.893,29.473c2.273,1.338,13.625-0.262,16.776,1.297
			c0.237,0.653,0.412,1.338,0.494,2.057c0.278,2.402-0.399,4.773-1.911,6.675c-1.537,1.934-3.745,3.153-6.216,3.433
			c-5.055,0.569-9.652-3.031-10.231-8.036C35.586,32.997,35.975,31.119,36.893,29.473z M44.975,45.618
			c0.448,0,0.901-0.024,1.357-0.077c3.168-0.359,6-1.924,7.975-4.408c1.946-2.451,2.821-5.508,2.463-8.608
			c-0.744-6.436-6.639-11.081-13.13-10.341h-0.001c-3.169,0.36-6,1.926-7.974,4.409c-1.947,2.452-2.822,5.508-2.465,8.607
			C33.892,41.187,39.034,45.618,44.975,45.618"/>
	</g>
	<g>
		<path display="inline" fill="#FFFFFF" d="M51.273,44.572h-2.41v-2.409c0-1.224-0.992-2.217-2.217-2.217
			c-1.226,0-2.218,0.993-2.218,2.217v2.409h-2.409c-1.225,0-2.218,0.993-2.218,2.219c0,1.225,0.993,2.217,2.218,2.217h2.409v2.409
			c0,1.226,0.993,2.22,2.218,2.22c1.225,0,2.217-0.994,2.217-2.22v-2.409h2.41c1.225,0,2.218-0.992,2.218-2.217
			C53.491,45.564,52.498,44.572,51.273,44.572"/>
		<path display="inline" fill="#FFFFFF" d="M54.626,54.788c-2.131,2.131-4.965,3.306-7.979,3.306c-3.014,0-5.846-1.174-7.977-3.303
			c0-0.001-0.001-0.002-0.002-0.003c-0.001,0-0.002-0.001-0.002-0.001c-4.398-4.4-4.397-11.559,0.001-15.958
			c2.131-2.132,4.965-3.305,7.979-3.305s5.849,1.174,7.979,3.305C59.025,43.229,59.025,50.389,54.626,54.788z M56.938,36.518
			c-2.75-2.748-6.403-4.262-10.291-4.262c-3.889,0-7.542,1.513-10.29,4.262c-4.974,4.973-5.586,12.682-1.84,18.33l-8.667,8.666
			c-1.129,1.129-1.129,2.961,0.001,4.09c1.129,1.131,2.961,1.131,4.09,0l8.663-8.662c2.364,1.572,5.138,2.42,8.042,2.42
			c3.888,0,7.541-1.514,10.291-4.264C62.609,51.424,62.609,42.193,56.938,36.518"/>
		<path display="inline" fill="#FFFFFF" d="M57.768,31.034h2.998v2.999h-2.998V31.034z M57.805,35.652
			c0.004,0.005,0.008,0.01,0.012,0.015h4.582V29.4h-6.266v4.82C56.715,34.66,57.279,35.128,57.805,35.652"/>
		<path display="inline" fill="#FFFFFF" d="M32.966,54.667c-0.321-0.558-0.59-1.132-0.835-1.714h-0.25v2.799L32.966,54.667"/>
		<path display="inline" fill="#FFFFFF" d="M56.139,43.518c-0.002-0.006-0.002-0.011-0.006-0.017v0.017H56.139"/>
		<path display="inline" fill="#FFFFFF" d="M57.768,23.183h2.998v2.998h-2.998V23.183z M56.134,27.815H62.4v-6.266h-6.267V27.815z"
			/>
		<path display="inline" fill="#FFFFFF" d="M62.398,37.251h-3.217c1.443,1.893,2.407,4.035,2.881,6.267h0.336V37.251"/>
		<path display="inline" fill="#FFFFFF" d="M49.682,62.439h2.998v2.998h-2.998V62.439z M48.048,62.518v4.555h6.267v-6.268h-0.383
			C52.113,61.753,50.124,62.337,48.048,62.518"/>
		<path display="inline" fill="#FFFFFF" d="M44.596,62.454v2.983h-2.997v-2.998h2.898c-1.575-0.215-3.1-0.668-4.532-1.34v5.973
			h6.266v-4.5C45.682,62.559,45.136,62.523,44.596,62.454"/>
		<path display="inline" fill="#FFFFFF" d="M57.766,62.439h2.998v2.998h-2.998V62.439z M56.132,67.072h6.267v-6.268h-6.267V67.072z"
			/>
		<path display="inline" fill="#FFFFFF" d="M41.6,31.868v-0.834h2.998v0.144c0.539-0.069,1.083-0.114,1.634-0.127V29.4h-6.267v3.126
			C40.498,32.276,41.042,32.056,41.6,31.868"/>
		<path display="inline" fill="#FFFFFF" d="M33.516,23.183h2.997v2.998h-2.997V23.183z M31.881,27.815h6.267v-6.266h-6.267V27.815z"
			/>
		<path display="inline" fill="#FFFFFF" d="M33.516,31.034h2.997v2.999h-2.997V31.034z M35.49,35.652
			c0.815-0.816,1.71-1.521,2.658-2.131V29.4h-6.267v6.267h3.595C35.481,35.661,35.485,35.656,35.49,35.652"/>
		<path display="inline" fill="#FFFFFF" d="M49.684,31.323v-0.289h2.998v1.187c0.561,0.233,1.103,0.507,1.635,0.803V29.4H48.05
			v1.699C48.6,31.147,49.146,31.22,49.684,31.323"/>
		<path display="inline" fill="#FFFFFF" d="M41.601,23.183h2.997v2.998h-2.997V23.183z M39.966,27.815h6.267v-6.266h-6.267V27.815z"
			/>
		<path display="inline" fill="#FFFFFF" d="M25.431,46.736h2.998v3h-2.998V46.736z M23.797,51.37h6.266v-6.267h-6.266V51.37z"/>
		<path display="inline" fill="#FFFFFF" d="M25.431,38.885h2.998v2.998h-2.998V38.885z M23.797,43.518h6.266v-6.267h-6.266V43.518z"
			/>
		<path display="inline" fill="#FFFFFF" d="M25.431,31.034h2.998v2.999h-2.998V31.034z M23.797,35.667h6.266V29.4h-6.266V35.667z"/>
		<path display="inline" fill="#FFFFFF" d="M34.11,37.251h-2.229v4.043C32.413,39.861,33.16,38.499,34.11,37.251"/>
		<path display="inline" fill="#FFFFFF" d="M25.431,54.587h2.997v2.999h-2.997V54.587z M23.796,52.953v6.268h4.616l1.651-1.65
			v-4.617H23.796"/>
	</g>
	<g display="inline">
		<path fill="#FFFFFF" d="M24.757,26.021h4.127v0.914h-4.127V26.021z"/>
		<path fill="#FFFFFF" d="M24.757,32.578h4.127v0.914h-4.127V32.578z"/>
		<path fill="#FFFFFF" d="M24.757,39.135h4.127v0.914h-4.127V39.135z"/>
		<path fill="#FFFFFF" d="M24.757,45.691h4.127v0.914h-4.127V45.691z"/>
		<path fill="#FFFFFF" d="M24.757,52.248h4.127v0.914h-4.127V52.248z"/>
		<path fill="#FFFFFF" d="M24.757,58.805h4.127v0.914h-4.127V58.805z"/>
		<path fill="#FFFFFF" d="M66.157,66.253H23.854l-0.011-0.914V23.747h1.828v40.678h40.486V66.253"/>
		<path fill="#FFFFFF" d="M63.552,30.394c0,3.111-2.522,5.633-5.633,5.633s-5.632-2.522-5.632-5.633c0-3.11,2.521-5.633,5.632-5.633
			S63.552,27.284,63.552,30.394"/>
		<path fill="#FFFFFF" d="M45.02,54.086c0,2.503-2.03,4.533-4.533,4.533c-2.504,0-4.534-2.03-4.534-4.533
			c0-2.504,2.03-4.533,4.534-4.533C42.99,49.553,45.02,51.582,45.02,54.086"/>
		<path fill="#FFFFFF" d="M40.487,35.476c0,1.347-1.093,2.44-2.442,2.44c-1.347,0-2.44-1.093-2.44-2.44
			c0-1.348,1.093-2.441,2.44-2.441C39.394,33.035,40.487,34.128,40.487,35.476"/>
		<path fill="#FFFFFF" d="M59.893,44.543c0,1.089-0.884,1.973-1.974,1.973c-1.088,0-1.971-0.884-1.971-1.973
			s0.883-1.972,1.971-1.972C59.009,42.571,59.893,43.454,59.893,44.543"/>
		<path fill="#FFFFFF" d="M64.227,57.238c0,1.742-1.412,3.154-3.153,3.154c-1.742,0-3.154-1.412-3.154-3.154
			c0-1.74,1.412-3.152,3.154-3.152C62.814,54.086,64.227,55.498,64.227,57.238"/>
		<path fill="#FFFFFF" d="M50.882,43.156c0,1.499-1.214,2.713-2.712,2.713s-2.713-1.214-2.713-2.713
			c0-1.498,1.215-2.713,2.713-2.713S50.882,41.658,50.882,43.156"/>
	</g>
</g>
</svg>
