<svg id="Layer_1" data-name="Layer 1" xmlns="http://www.w3.org/2000/svg" viewBox="0 0 102.95 112.15"><defs><style>.cls-1{fill:none;stroke:#61615f;stroke-linecap:round;stroke-linejoin:round;stroke-width:2px;}</style></defs><polyline class="cls-1" points="87.92 87.79 87.92 111.15 77.17 100.42 66.42 111.15 66.42 88.84"/><polyline class="cls-1" points="84.14 44.55 83.81 43.97 77.17 47.81 70.53 43.97 66.7 50.61 59.03 50.61 59.03 58.28 52.39 62.11 56.22 68.75 52.39 75.39 59.03 79.23 59.03 86.89 66.7 86.89 70.53 93.53 77.17 89.7 83.81 93.53 87.64 86.89 95.31 86.89 95.31 79.23 101.95 75.39 98.12 68.75 101.95 62.11 95.31 58.28 95.31 50.61 87.64 50.61 84.14 44.55"/><path class="cls-1" d="M96.39,69.37a14,14,0,1,1-14-14A14,14,0,0,1,96.39,69.37Z" transform="translate(-5.22 -0.62)"/><path class="cls-1" d="M92.9,47.69" transform="translate(-5.22 -0.62)"/><path class="cls-1" d="M71.28,88.3H27.58A21.36,21.36,0,0,1,6.22,66.94V23A21.36,21.36,0,0,1,27.58,1.62h44A21.37,21.37,0,0,1,92.9,23V50.8" transform="translate(-5.22 -0.62)"/><path class="cls-1" d="M58.31,64.64a21.42,21.42,0,1,1,12.5-16.15,22.47,22.47,0,0,1-.52,2.33" transform="translate(-5.22 -0.62)"/><path class="cls-1" d="M60.16,61.65" transform="translate(-5.22 -0.62)"/><path class="cls-1" d="M66.64,55.37" transform="translate(-5.22 -0.62)"/><path class="cls-1" d="M63.31,69.65" transform="translate(-5.22 -0.62)"/><path class="cls-1" d="M58.92,72.69A29.26,29.26,0,1,1,78.81,45c0,.31,0,.62,0,.93" transform="translate(-5.22 -0.62)"/></svg>