<?xml version="1.0" encoding="utf-8"?>
<!-- Generator: Adobe Illustrator 22.1.0, SVG Export Plug-In . SVG Version: 6.00 Build 0)  -->
<svg version="1.1" id="Layer_1" xmlns="http://www.w3.org/2000/svg" xmlns:xlink="http://www.w3.org/1999/xlink" x="0px" y="0px"
	 viewBox="0 0 113.4 113.4" style="enable-background:new 0 0 113.4 113.4;" xml:space="preserve">
<style type="text/css">
	.st0{fill:none;stroke:#020203;stroke-linecap:round;stroke-linejoin:round;stroke-miterlimit:10;}
	.st1{fill:none;stroke:#60605F;stroke-width:4;stroke-linecap:round;stroke-linejoin:round;}
	.st2{fill:none;stroke:#60605F;stroke-width:4;stroke-linecap:round;stroke-linejoin:round;stroke-miterlimit:10;}
	.st3{fill:none;stroke:#60605F;stroke-linecap:round;stroke-linejoin:round;stroke-miterlimit:10;}
	.st4{fill:#60605F;}
</style>
<g>
	<path class="st0" d="M199.3,2468.2l-0.5,3c0,0.2,0.2,0.4,0.5,0.4h7.4c0.3,0,0.5-0.2,0.5-0.4l-0.5-3"/>
	<path class="st0" d="M212.9,2448.5h-19.8c-0.9,0-1.6,0.7-1.6,1.6v13.7c0,0.9,0.7,1.6,1.6,1.6h19.8c0.9,0,1.6-0.7,1.6-1.6v-13.7
		C214.5,2449.2,213.8,2448.5,212.9,2448.5z"/>
	<line class="st0" x1="191.5" y1="2462.5" x2="214.5" y2="2462.5"/>
</g>
<g>
	<g>
		<path class="st1" d="M30,89.3c9.9-1.6,20-1,23.1-0.1l20,5.9c5.7,1.7,3.2,10.3-2.5,8.6l-21-6.2"/>
		<path class="st1" d="M75.9,97.6l15.6-7.1c5.6-2.6,9.2,5.7,3.9,8.1l-21.1,9.6c-3.6,1.6-18,2.8-33.9-4.3c-2.7-1.2-7.4,0.4-10.3,1.1"
			/>
		<rect x="15.4" y="85.1" class="st1" width="14.4" height="25.3"/>
	</g>
	<g>
		<g>
			<path class="st2" d="M44.6,68L43,77.8c0,0.7,0.7,1.3,1.6,1.3h24.3c0.9,0,1.6-0.6,1.6-1.3L68.8,68"/>
			<path class="st2" d="M89.1,3.3h-65c-2.9,0-5.3,2.4-5.3,5.3v45.2c0,3,2.4,5.4,5.4,5.4h64.9c3,0,5.3-2.4,5.3-5.3V8.7
				C94.5,5.7,92.1,3.3,89.1,3.3z"/>
			<line class="st2" x1="18.9" y1="49.4" x2="94.5" y2="49.4"/>
		</g>
		<g>
			<polygon class="st1" points="52.9,35.6 39.4,40.4 39.4,22.9 52.9,18 			"/>
			<polygon class="st1" points="39.4,40.4 25.9,35.6 25.9,18 39.4,22.9 			"/>
			<path class="st3" d="M27.8,18"/>
			<polygon class="st1" points="39.5,13.2 25.9,18 39.4,22.9 52.9,18 			"/>
		</g>
		<g>
			<line class="st1" x1="76" y1="34.7" x2="63.8" y2="34.7"/>
			<line class="st1" x1="87.1" y1="34.7" x2="81.4" y2="34.7"/>
			<path class="st4" d="M78.7,37.4c-1.5,0-2.7-1.2-2.7-2.7c0-1.5,1.2-2.7,2.7-2.7c1.5,0,2.7,1.2,2.7,2.7
				C81.4,36.2,80.2,37.4,78.7,37.4z"/>
			<path class="st4" d="M82.8,21.6c-1.5,0-2.7-1.2-2.7-2.7c0-1.5,1.2-2.7,2.7-2.7c1.5,0,2.7,1.2,2.7,2.7
				C85.5,20.4,84.3,21.6,82.8,21.6z"/>
			<path class="st4" d="M70.1,29.5c-1.5,0-2.7-1.2-2.7-2.7c0-1.5,1.2-2.7,2.7-2.7c1.5,0,2.7,1.2,2.7,2.7
				C72.8,28.3,71.6,29.5,70.1,29.5z"/>
			<line class="st1" x1="80.1" y1="18.9" x2="63.8" y2="18.9"/>
			<line class="st1" x1="87.1" y1="18.9" x2="85.5" y2="18.9"/>
			<line class="st1" x1="67.4" y1="26.8" x2="63.8" y2="26.8"/>
			<line class="st1" x1="87.1" y1="26.8" x2="72.8" y2="26.8"/>
		</g>
	</g>
</g>
</svg>
