<?xml version="1.0" encoding="utf-8"?>
<!-- Generator: Adobe Illustrator 22.1.0, SVG Export Plug-In . SVG Version: 6.00 Build 0)  -->
<svg version="1.1" id="Layer_1" xmlns="http://www.w3.org/2000/svg" xmlns:xlink="http://www.w3.org/1999/xlink" x="0px" y="0px"
	 viewBox="0 0 113.4 113.4" style="enable-background:new 0 0 113.4 113.4;" xml:space="preserve">
<style type="text/css">
	.st0{fill:none;stroke:#60605F;stroke-width:4;stroke-linecap:round;stroke-linejoin:round;stroke-miterlimit:10;}
	.st1{fill:none;stroke:#60605F;stroke-width:4;stroke-linecap:round;stroke-linejoin:round;}
	.st2{fill:none;stroke:#60605F;stroke-linecap:round;stroke-linejoin:round;stroke-miterlimit:10;}
	.st3{fill:#60605F;}
</style>
<g>
	<path class="st0" d="M39.7,95l-2.2,13.6c0,1,1,1.8,2.2,1.8h33.8c1.2,0,2.2-0.8,2.2-1.8L73.4,95"/>
	<path class="st0" d="M101.7,5H11.3c-4.1,0-7.4,3.3-7.4,7.4v62.9c0,4.1,3.4,7.5,7.5,7.5h90.3c4.1,0,7.4-3.3,7.4-7.4V12.5
		C109.2,8.4,105.9,5,101.7,5z"/>
	<line class="st0" x1="4" y1="69.1" x2="109.2" y2="69.1"/>
</g>
<g>
	<polygon class="st1" points="51.4,49.9 32.6,56.6 32.6,32.2 51.4,25.5 	"/>
	<polygon class="st1" points="32.6,56.6 13.8,49.9 13.8,25.5 32.6,32.2 	"/>
	<path class="st2" d="M16.4,25.4"/>
	<polygon class="st1" points="32.7,18.8 13.8,25.5 32.6,32.2 51.4,25.5 	"/>
</g>
<g>
	<line class="st1" x1="83.4" y1="48.7" x2="66.5" y2="48.7"/>
	<line class="st1" x1="98.9" y1="48.7" x2="90.9" y2="48.7"/>
	<path class="st3" d="M87.2,52.4c-2.1,0-3.7-1.7-3.7-3.7c0-2.1,1.7-3.7,3.7-3.7c2.1,0,3.7,1.7,3.7,3.7
		C90.9,50.7,89.2,52.4,87.2,52.4z"/>
	<path class="st3" d="M92.9,30.5c-2.1,0-3.7-1.7-3.7-3.7c0-2.1,1.7-3.7,3.7-3.7c2.1,0,3.7,1.7,3.7,3.7
		C96.6,28.8,94.9,30.5,92.9,30.5z"/>
	<path class="st3" d="M75.2,41.4c-2.1,0-3.7-1.7-3.7-3.7c0-2.1,1.7-3.7,3.7-3.7c2.1,0,3.7,1.7,3.7,3.7C79,39.7,77.3,41.4,75.2,41.4z
		"/>
	<line class="st1" x1="89.2" y1="26.7" x2="66.5" y2="26.7"/>
	<line class="st1" x1="98.9" y1="26.7" x2="96.6" y2="26.7"/>
	<line class="st1" x1="71.5" y1="37.7" x2="66.5" y2="37.7"/>
	<line class="st1" x1="98.9" y1="37.7" x2="79" y2="37.7"/>
</g>
</svg>
