<?xml version="1.0" encoding="utf-8"?>
<!-- Generator: Adobe Illustrator 22.1.0, SVG Export Plug-In . SVG Version: 6.00 Build 0)  -->
<svg version="1.1" xmlns="http://www.w3.org/2000/svg" xmlns:xlink="http://www.w3.org/1999/xlink" x="0px" y="0px"
	 viewBox="0 0 113.4 113.4" style="enable-background:new 0 0 113.4 113.4;" xml:space="preserve">
<style type="text/css">
	.st0{fill:none;}
	.st1{fill:none;stroke:#60605F;stroke-linecap:round;stroke-linejoin:round;stroke-miterlimit:10;}
	.st2{fill:none;stroke:#60605F;stroke-width:4;stroke-linecap:round;stroke-linejoin:round;}
	.st3{fill:none;stroke:#60605F;stroke-width:4;stroke-linecap:round;stroke-linejoin:round;stroke-miterlimit:10;}
</style>
<g id="Layer_2">
	<line class="st0" x1="-38" y1="85.5" x2="-12.8" y2="85.5"/>
	<line class="st0" x1="-88.7" y1="85.5" x2="-38" y2="85.5"/>
	<line class="st0" x1="-111.4" y1="85.5" x2="-88.7" y2="85.5"/>
	<line class="st0" x1="-111.4" y1="68.3" x2="-12.8" y2="68.3"/>
	<line class="st0" x1="-110.5" y1="77.3" x2="-14.2" y2="77.3"/>
	<line class="st0" x1="-43.3" y1="61.3" x2="-18.6" y2="61.3"/>
	<line class="st0" x1="-106.4" y1="61.3" x2="-81.2" y2="61.3"/>
	<line class="st0" x1="-42.4" y1="55.6" x2="-21.8" y2="55.6"/>
	<line class="st0" x1="-43.7" y1="50.2" x2="-24.3" y2="50.2"/>
	<line class="st0" x1="-100.8" y1="55.6" x2="-81.2" y2="55.6"/>
	<line class="st0" x1="-54" y1="44.6" x2="-22" y2="44.6"/>
	<line class="st0" x1="-98.2" y1="50.2" x2="-81.2" y2="50.2"/>
	<line class="st0" x1="-96" y1="44.6" x2="-71.4" y2="44.6"/>
	<path class="st0" d="M-94,37"/>
	<path class="st0" d="M-81.7,62.2"/>
	<path class="st0" d="M-62.5,69.1"/>
	<path class="st0" d="M-43,62.2"/>
	<path class="st0" d="M-62.2,69.1"/>
	<line class="st0" x1="124.8" y1="85.5" x2="223.5" y2="85.5"/>
	<line class="st0" x1="124.8" y1="68.3" x2="223.5" y2="68.3"/>
	<line class="st0" x1="125.8" y1="77.3" x2="222" y2="77.3"/>
	<line class="st0" x1="193" y1="61.3" x2="217.6" y2="61.3"/>
	<line class="st0" x1="129.9" y1="61.3" x2="155.1" y2="61.3"/>
	<line class="st0" x1="193.8" y1="55.6" x2="214.4" y2="55.6"/>
	<line class="st0" x1="192.6" y1="50.2" x2="212" y2="50.2"/>
	<line class="st0" x1="135.5" y1="55.6" x2="155.1" y2="55.6"/>
	<line class="st0" x1="182.2" y1="44.6" x2="214.3" y2="44.6"/>
	<line class="st0" x1="138.1" y1="50.2" x2="155.1" y2="50.2"/>
	<line class="st0" x1="140.3" y1="44.6" x2="164.8" y2="44.6"/>
	<path class="st0" d="M142.3,37"/>
	<path class="st0" d="M154.6,62.2"/>
	<path class="st0" d="M173.8,69.1"/>
	<path class="st0" d="M193.3,62.2"/>
	<path class="st0" d="M174.1,69.1"/>
</g>
<g id="Layer_1">
	<line class="st1" x1="82.4" y1="83.8" x2="108.9" y2="83.8"/>
	<line class="st1" x1="29.1" y1="83.8" x2="82.4" y2="83.8"/>
	<line class="st1" x1="5.1" y1="83.8" x2="29.1" y2="83.8"/>
	<line class="st1" x1="8.8" y1="65.8" x2="106.2" y2="65.8"/>
	<line class="st1" x1="4.4" y1="75.2" x2="110.6" y2="75.2"/>
	<line class="st1" x1="83.2" y1="58.4" x2="102.6" y2="58.4"/>
	<line class="st1" x1="12.6" y1="58.4" x2="29.6" y2="58.4"/>
	<line class="st1" x1="83.2" y1="52.4" x2="99.3" y2="52.4"/>
	<line class="st1" x1="83.2" y1="46.7" x2="96.6" y2="46.7"/>
	<line class="st1" x1="15.5" y1="52.4" x2="29.2" y2="52.4"/>
	<line class="st1" x1="83.2" y1="40.8" x2="93.5" y2="40.8"/>
	<line class="st1" x1="18.3" y1="46.7" x2="29.6" y2="46.7"/>
	<line class="st1" x1="21.1" y1="40.8" x2="29.6" y2="40.8"/>
	<line class="st1" x1="82.1" y1="35.8" x2="90.4" y2="35.8"/>
	<line class="st1" x1="23.9" y1="35.8" x2="30.6" y2="35.8"/>
	<path class="st1" d="M56.6,66.5"/>
	<path class="st1" d="M56.9,66.5"/>
	<path class="st1" d="M56.6,52.5"/>
	<line class="st1" x1="56.6" y1="85.9" x2="56.7" y2="76.3"/>
	<line class="st1" x1="41.7" y1="85.9" x2="45.6" y2="62.6"/>
	<path class="st1" d="M40.4,61.6"/>
	<line class="st1" x1="34.3" y1="59" x2="34.5" y2="58.4"/>
	<line class="st1" x1="26.8" y1="85.9" x2="34.3" y2="59"/>
	<path class="st1" d="M34.9,34.8"/>
	<path class="st1" d="M29.2,49.7"/>
	<line class="st1" x1="3.4" y1="81.2" x2="26.7" y2="33.6"/>
	<line class="st1" x1="71.6" y1="86.1" x2="67.7" y2="62.9"/>
	<path class="st1" d="M72.6,59.5"/>
	<path class="st1" d="M73.1,62.3"/>
	<line class="st1" x1="86.5" y1="85.8" x2="79" y2="59"/>
	<path class="st1" d="M78,33.7"/>
	<path class="st1" d="M83.6,48.5"/>
	<line class="st1" x1="101.1" y1="85.3" x2="81.3" y2="34.8"/>
	<line class="st1" x1="13.6" y1="85.5" x2="34" y2="33.6"/>
	<line class="st1" x1="111.9" y1="81.5" x2="87.7" y2="33.6"/>
	<g>
		<polygon class="st2" points="83.2,71.7 56.4,81.2 56.4,46.4 83.2,36.8 		"/>
		<polygon class="st2" points="56.4,81.2 29.6,71.7 29.6,36.8 56.4,46.4 		"/>
		<path class="st3" d="M33.4,36.8"/>
		<polygon class="st2" points="56.6,27.3 29.6,36.8 56.4,46.4 83.2,36.8 		"/>
	</g>
	<path class="st0" d="M-62.5,55.7"/>
	<line class="st0" x1="-62.5" y1="40.8" x2="-62.5" y2="37"/>
	<line class="st0" x1="-62.6" y1="87.5" x2="-62.5" y2="78.4"/>
	<line class="st0" x1="-68.1" y1="42.2" x2="-67.6" y2="37"/>
	<line class="st0" x1="-72.3" y1="87.5" x2="-70.5" y2="67.8"/>
	<line class="st0" x1="-74.3" y1="45.6" x2="-72.7" y2="37"/>
	<path class="st0" d="M-77.9,64.4"/>
	<line class="st0" x1="-82.1" y1="87.5" x2="-77.9" y2="64.4"/>
	<line class="st0" x1="-91.8" y1="87.5" x2="-77.5" y2="37"/>
	<line class="st0" x1="-101.5" y1="87.5" x2="-82.5" y2="37"/>
	<line class="st0" x1="-111.3" y1="87.5" x2="-87.4" y2="37"/>
	<line class="st0" x1="-56.7" y1="42.6" x2="-57.2" y2="37"/>
	<line class="st0" x1="-52.7" y1="87.5" x2="-54.3" y2="67.6"/>
	<line class="st0" x1="-50.5" y1="45.6" x2="-52.2" y2="37"/>
	<path class="st0" d="M-47.3,62.3"/>
	<path class="st0" d="M-46.8,65"/>
	<line class="st0" x1="-43" y1="87.5" x2="-46.8" y2="65"/>
	<line class="st0" x1="-33.2" y1="87.5" x2="-47.4" y2="37"/>
	<line class="st0" x1="-23.5" y1="87.5" x2="-42.5" y2="37"/>
	<line class="st0" x1="-13.8" y1="87.5" x2="-37.5" y2="37"/>
	<g>
		<polygon class="st0" points="-43.3,73.2 -62.5,80 -62.5,55.1 -43.3,48.2 		"/>
		<polygon class="st0" points="-62.5,80 -81.7,73.2 -81.7,48.2 -62.5,55.1 		"/>
		<path class="st0" d="M-78.9,48.2"/>
		<polygon class="st0" points="-62.3,41.3 -81.7,48.2 -62.5,55.1 -43.3,48.2 		"/>
	</g>
	<path class="st0" d="M173.8,55.7"/>
	<line class="st0" x1="173.8" y1="40.8" x2="173.8" y2="37"/>
	<line class="st0" x1="173.7" y1="87.5" x2="173.8" y2="78.4"/>
	<line class="st0" x1="168.2" y1="42.2" x2="168.7" y2="37"/>
	<line class="st0" x1="163.9" y1="87.5" x2="165.7" y2="67.8"/>
	<line class="st0" x1="161.9" y1="45.6" x2="163.6" y2="37"/>
	<path class="st0" d="M158.3,64.4"/>
	<line class="st0" x1="154.2" y1="87.5" x2="158.3" y2="64.4"/>
	<line class="st0" x1="144.5" y1="87.5" x2="158.8" y2="37"/>
	<line class="st0" x1="134.7" y1="87.5" x2="153.8" y2="37"/>
	<line class="st0" x1="125" y1="87.5" x2="148.8" y2="37"/>
	<line class="st0" x1="179.5" y1="42.6" x2="179" y2="37"/>
	<line class="st0" x1="183.6" y1="87.5" x2="181.9" y2="67.6"/>
	<line class="st0" x1="185.7" y1="45.6" x2="184.1" y2="37"/>
	<path class="st0" d="M189,62.3"/>
	<path class="st0" d="M189.5,65"/>
	<line class="st0" x1="193.3" y1="87.5" x2="189.5" y2="65"/>
	<line class="st0" x1="203" y1="87.5" x2="188.8" y2="37"/>
	<line class="st0" x1="212.8" y1="87.5" x2="193.8" y2="37"/>
	<line class="st0" x1="222.5" y1="87.5" x2="198.8" y2="37"/>
	<g>
		<polygon class="st0" points="193,73.2 173.8,80 173.8,55.1 193,48.2 		"/>
		<polygon class="st0" points="173.8,80 154.6,73.2 154.6,48.2 173.8,55.1 		"/>
		<path class="st0" d="M157.3,48.2"/>
		<polygon class="st0" points="173.9,41.3 154.6,48.2 173.8,55.1 193,48.2 		"/>
	</g>
	<line class="st0" x1="198.2" y1="-4.2" x2="223.4" y2="-4.2"/>
	<line class="st0" x1="147.5" y1="-4.2" x2="198.2" y2="-4.2"/>
	<line class="st0" x1="124.8" y1="-4.2" x2="147.5" y2="-4.2"/>
	<line class="st0" x1="124.8" y1="-21.3" x2="223.4" y2="-21.3"/>
	<line class="st0" x1="125.7" y1="-12.3" x2="221.9" y2="-12.3"/>
	<line class="st0" x1="198.9" y1="-28.3" x2="217.5" y2="-28.3"/>
	<line class="st0" x1="129.8" y1="-28.3" x2="148" y2="-28.3"/>
	<line class="st0" x1="198.9" y1="-34.1" x2="214.3" y2="-34.1"/>
	<line class="st0" x1="198.9" y1="-39.4" x2="211.9" y2="-39.4"/>
	<line class="st0" x1="135.4" y1="-34.1" x2="147.6" y2="-34.1"/>
	<line class="st0" x1="198.9" y1="-45.1" x2="214.2" y2="-45.1"/>
	<line class="st0" x1="138" y1="-39.4" x2="148" y2="-39.4"/>
	<line class="st0" x1="140.2" y1="-45.1" x2="148" y2="-45.1"/>
	<path class="st0" d="M142.2-52.7"/>
	<path class="st0" d="M154.5-27.5"/>
	<path class="st0" d="M173.7-20.6"/>
	<path class="st0" d="M193.2-27.5"/>
	<path class="st0" d="M174-20.6"/>
	<path class="st0" d="M173.7-34"/>
	<line class="st0" x1="173.6" y1="-2.2" x2="173.7" y2="-11.3"/>
	<line class="st0" x1="163.8" y1="-2.2" x2="165.8" y2="-24"/>
	<path class="st0" d="M158.2-25.2"/>
	<line class="st0" x1="154.1" y1="-2.2" x2="158.5" y2="-26.6"/>
	<line class="st0" x1="144.4" y1="-2.2" x2="151.9" y2="-28.9"/>
	<line class="st0" x1="153" y1="-50.8" x2="153.7" y2="-52.7"/>
	<path class="st0" d="M153-50.8"/>
	<path class="st0" d="M147.6-36.6"/>
	<line class="st0" x1="134.6" y1="-2.2" x2="147.6" y2="-36.6"/>
	<line class="st0" x1="124.9" y1="-2.2" x2="148.7" y2="-52.7"/>
	<line class="st0" x1="183.5" y1="-2.2" x2="181.7" y2="-24.2"/>
	<path class="st0" d="M188.9-27.3"/>
	<path class="st0" d="M189.4-24.7"/>
	<line class="st0" x1="193.2" y1="-2.2" x2="189.1" y2="-26.5"/>
	<line class="st0" x1="202.9" y1="-2.2" x2="195.4" y2="-29"/>
	<line class="st0" x1="194" y1="-51.8" x2="193.7" y2="-52.7"/>
	<path class="st0" d="M194-51.8"/>
	<path class="st0" d="M199.3-37.7"/>
	<line class="st0" x1="212.7" y1="-2.2" x2="199.3" y2="-37.7"/>
	<line class="st0" x1="222.4" y1="-2.2" x2="198.7" y2="-52.7"/>
	<g>
		<polygon class="st0" points="198.9,-15.7 173.4,-6.6 173.4,-39.7 198.9,-48.8 		"/>
		<polygon class="st0" points="173.4,-6.6 148,-15.7 148,-48.8 173.4,-39.7 		"/>
		<path class="st0" d="M151.6-48.9"/>
		<polygon class="st0" points="173.6,-57.9 148,-48.8 173.4,-39.7 198.9,-48.8 		"/>
	</g>
</g>
</svg>
