<?xml version="1.0" encoding="utf-8"?>
<!-- Generator: Adobe Illustrator 22.1.0, SVG Export Plug-In . SVG Version: 6.00 Build 0)  -->
<svg version="1.1" id="Layer_1" xmlns="http://www.w3.org/2000/svg" xmlns:xlink="http://www.w3.org/1999/xlink" x="0px" y="0px"
	 viewBox="0 0 113.4 113.4" style="enable-background:new 0 0 113.4 113.4;" xml:space="preserve">
<style type="text/css">
	.st0{fill:none;stroke:#5E5E5E;stroke-width:4;stroke-linecap:round;stroke-linejoin:round;stroke-miterlimit:10;}
</style>
<g>
	<path class="st0" d="M90.6,80.4l2.1,18.5l-0.8,0.7c-8.6,5.9-17.5,10.8-30.3,10.8c-12.9,0-23.5-4.5-31.3-11.2l-0.5-0.4l2.1-17.8"/>
	<line class="st0" x1="7.3" y1="70.8" x2="7.3" y2="93.8"/>
	<path class="st0" d="M11.7,101c0,1.1-1,1.9-2.2,1.9H5.1c-1.2,0-2.2-0.9-2.2-1.9l1-5.2c0-1.1,1-1.9,2.2-1.9h2.3
		c1.2,0,2.2,0.9,2.2,1.9L11.7,101z"/>
	<polygon class="st0" points="7.3,70.8 63.3,50.5 110.5,70.8 63.3,93.5 	"/>
	<line class="st0" x1="7.3" y1="70.8" x2="62.2" y2="70.8"/>
</g>
</svg>
