<?xml version="1.0" encoding="utf-8"?>
<!-- Generator: Adobe Illustrator 22.1.0, SVG Export Plug-In . SVG Version: 6.00 Build 0)  -->
<svg version="1.1" id="Layer_1" xmlns="http://www.w3.org/2000/svg" xmlns:xlink="http://www.w3.org/1999/xlink" x="0px" y="0px"
	 viewBox="0 0 113.4 113.4" style="enable-background:new 0 0 113.4 113.4;" xml:space="preserve">
<style type="text/css">
	.st0{fill:none;stroke:#60605F;stroke-width:4;stroke-linecap:round;stroke-linejoin:round;}
	.st1{fill:none;stroke:#60605F;stroke-linecap:round;stroke-linejoin:round;stroke-miterlimit:10;}
	.st2{fill:#60605F;}
	.st3{fill:none;stroke:#48BDD3;stroke-miterlimit:10;}
	.st4{fill:none;stroke:#60605E;stroke-miterlimit:10;}
	.st5{fill:none;stroke:#020203;stroke-linecap:round;stroke-linejoin:round;stroke-miterlimit:10;}
</style>
<g>
	<path class="st0" d="M30,89.3c9.9-1.6,20-1,23.1-0.1l20,5.9c5.7,1.7,3.2,10.3-2.5,8.6l-21-6.2"/>
	<path class="st0" d="M75.9,97.6l15.6-7.1c5.6-2.6,9.2,5.7,3.9,8.1l-21.1,9.6c-3.6,1.6-18,2.8-33.9-4.3c-2.7-1.2-7.4,0.4-10.3,1.1"
		/>
	<rect x="15.4" y="85.1" class="st0" width="14.4" height="25.3"/>
</g>
<g>
	<g>
		<polygon class="st0" points="75.9,72.2 56.7,79.1 56.7,54.1 75.9,47.2 		"/>
		<polygon class="st0" points="56.7,79.1 37.5,72.2 37.5,47.2 56.7,54.1 		"/>
		<path class="st1" d="M40.2,47.2"/>
		<polygon class="st0" points="56.8,40.4 37.5,47.2 56.7,54.1 75.9,47.2 		"/>
	</g>
	<rect x="45.5" y="1.4" class="st2" width="22.3" height="17.3"/>
	<path class="st2" d="M60,22.6l-2.6,4c-0.4,0.6-1.2,0.6-1.5,0l-2.5-4V11.2H60V22.6z"/>
	<path class="st3" d="M56.7,37.5"/>
	<g>
		<path class="st4" d="M55.6,27.7"/>
		<path class="st4" d="M56.6,26.7l0,1.9c0,0.6-0.5,1.1-1,1.1l-1.4,0l-0.1,0"/>
		<path class="st4" d="M56.9,39.1v-2.4c0-0.6,0.5-1,1-1l2.7,0c1,0,1.7-0.8,1.7-1.7c0-1-0.8-1.8-1.7-1.8h-0.1h-6.2h-0.2
			c-0.7,0-1.2-0.5-1.2-1.2s0.5-1.2,1.2-1.2"/>
	</g>
	<path class="st5" d="M58.9,44.7"/>
</g>
</svg>
