<?xml version="1.0" encoding="utf-8"?>
<!-- Generator: Adobe Illustrator 22.1.0, SVG Export Plug-In . SVG Version: 6.00 Build 0)  -->
<svg version="1.1" id="Layer_1" xmlns="http://www.w3.org/2000/svg" xmlns:xlink="http://www.w3.org/1999/xlink" x="0px" y="0px"
	 viewBox="0 0 113.4 113.4" style="enable-background:new 0 0 113.4 113.4;" xml:space="preserve">
<style type="text/css">
	.st0{fill:none;stroke:#5F5F5F;stroke-width:4;stroke-miterlimit:10;}
	.st1{fill:#5F5F5F;}
</style>
<g>
	<path class="st0" d="M90.1,110.4H22c-1.8,0-3.3-1.5-3.3-3.3V68.3c0-1,0.8-1.8,1.8-1.8h70.9c1,0,1.8,0.8,1.8,1.8v38.9
		C93.3,108.9,91.8,110.4,90.1,110.4z"/>
	<path class="st0" d="M84.9,66.4v23.1c0,2.7-2.2,4.9-4.9,4.9H63.4c-2.7,0-4.9-2.2-4.9-4.9V66.4"/>
</g>
<path class="st0" d="M27.2,3h57.7c1.8,0,3.3,1.5,3.3,3.3v60.2H23.9V6.3C23.9,4.5,25.4,3,27.2,3z"/>
<circle class="st1" cx="78.8" cy="88.3" r="1.9"/>
<rect x="29.3" y="60.3" class="st0" width="53.5" height="6.2"/>
<rect x="35.1" y="31.2" transform="matrix(-1.836970e-16 1 -1 -1.836970e-16 95.4115 -16.626)" class="st0" width="41.8" height="16.3"/>
<rect x="51.4" y="2.6" transform="matrix(-1.836970e-16 1 -1 -1.836970e-16 69.9157 -42.1218)" class="st0" width="9.2" height="22.6"/>
</svg>
