<?xml version="1.0" encoding="utf-8"?>
<!-- Generator: Adobe Illustrator 22.1.0, SVG Export Plug-In . SVG Version: 6.00 Build 0)  -->
<svg version="1.1" id="Layer_1" xmlns="http://www.w3.org/2000/svg" xmlns:xlink="http://www.w3.org/1999/xlink" x="0px" y="0px"
	 viewBox="0 0 113.4 113.4" style="enable-background:new 0 0 113.4 113.4;" xml:space="preserve">
<style type="text/css">
	.st0{fill:#5F5F5F;}
	.st1{fill:none;stroke:#5F5F5F;stroke-width:4;stroke-miterlimit:10;}
	.st2{fill:none;stroke:#60605F;stroke-width:4;stroke-linecap:round;stroke-linejoin:round;}
	.st3{fill:none;stroke:#60605F;stroke-linecap:round;stroke-linejoin:round;stroke-miterlimit:10;}
	.st4{fill:#60605F;}
	.st5{fill:none;stroke:#48BDD3;stroke-miterlimit:10;}
	.st6{fill:none;stroke:#60605E;stroke-miterlimit:10;}
	.st7{fill:#60605E;}
</style>
<circle class="st0" cx="93.9" cy="101.7" r="1.9"/>
<circle class="st0" cx="101.2" cy="101.7" r="1.9"/>
<path class="st1" d="M103.6,109.8H11.3c-3.2,0-5.8-2.6-5.8-5.8V30.2V11.7c0-3.2,2.6-5.8,5.8-5.8h92.3c3.2,0,5.8,2.6,5.8,5.8v92.3
	C109.4,107.1,106.8,109.8,103.6,109.8z"/>
<line class="st1" x1="109.4" y1="21" x2="5.5" y2="21"/>
<line class="st1" x1="109.4" y1="94.2" x2="5.5" y2="94.2"/>
<g>
	<polygon class="st2" points="73.1,83.6 57.5,89.2 57.5,68.9 73.1,63.3 	"/>
	<polygon class="st2" points="57.5,89.2 41.9,83.6 41.9,63.3 57.5,68.9 	"/>
	<path class="st3" d="M44.1,63.3"/>
	<polygon class="st2" points="57.6,57.8 41.9,63.3 57.5,68.9 73.1,63.3 	"/>
</g>
<rect x="48.4" y="10.5" class="st4" width="18.1" height="28.9"/>
<path class="st4" d="M60.1,42.5L58,45.8c-0.3,0.5-0.9,0.5-1.3,0l-2.1-3.3v-9.3h5.4V42.5z"/>
<path class="st5" d="M57.5,54.6"/>
<g>
	<path class="st6" d="M56.5,46.7"/>
	<path class="st6" d="M57.4,45.8l0,1.5c0,0.5-0.4,0.9-0.8,0.9l-1.2,0l0,0"/>
	<path class="st6" d="M57.6,55.9v-2c0-0.5,0.4-0.8,0.8-0.8l2.2,0c0.8,0,1.4-0.6,1.4-1.4s-0.6-1.5-1.4-1.5h-0.1h-5.1h-0.2
		c-0.5,0-1-0.4-1-1s0.4-1,1-1"/>
</g>
<path class="st7" d="M47.4,18c-1.2,0-2.2-1-2.2-2.2c0-1.2,1-2.2,2.2-2.2"/>
<path class="st7" d="M67.5,13.7c1.2,0,2.2,1,2.2,2.2c0,1.2-1,2.2-2.2,2.2"/>
</svg>
