<?xml version="1.0" encoding="utf-8"?>
<!-- Generator: Adobe Illustrator 22.1.0, SVG Export Plug-In . SVG Version: 6.00 Build 0)  -->
<svg version="1.1" id="Layer_1" xmlns="http://www.w3.org/2000/svg" xmlns:xlink="http://www.w3.org/1999/xlink" x="0px" y="0px"
	 viewBox="0 0 113.4 113.4" style="enable-background:new 0 0 113.4 113.4;" xml:space="preserve">
<style type="text/css">
	.st0{fill:none;stroke:#60605F;stroke-linecap:round;stroke-linejoin:round;}
	.st1{fill:none;stroke:#60605F;stroke-width:4;stroke-linecap:round;stroke-linejoin:round;}
	.st2{fill:none;stroke:#60605F;stroke-width:4;stroke-linecap:round;stroke-linejoin:round;stroke-miterlimit:10;}
	.st3{fill:none;stroke:#60605F;stroke-linecap:round;stroke-linejoin:round;stroke-miterlimit:10;}
</style>
<path class="st0" d="M30.4,79.2c-7.8-7.1-12.7-17.4-12.7-28.8c0-21.5,17.5-39,38.9-39c21.5,0,39,17.5,39,39
	c0,16.9-10.8,31.3-25.9,36.7"/>
<path class="st0" d="M17.3,77.1c-5.2-7.6-8.2-16.8-8.2-26.7c0-26.2,21.4-47.6,47.6-47.6c26.2,0,47.6,21.4,47.6,47.6
	c0,13.1-5.3,24.9-13.8,33.5"/>
<ellipse transform="matrix(0.1596 -0.9872 0.9872 0.1596 -2.1932 98.3918)" class="st0" cx="56.7" cy="50.5" rx="29.9" ry="29.9"/>
<g>
	<path class="st1" d="M30,89.1c9.9-1.6,20-1,23.1-0.1l20,5.9c5.7,1.7,3.2,10.3-2.5,8.6l-21-6.2"/>
	<path class="st1" d="M75.9,97.5l15.6-7.1c5.6-2.6,9.2,5.7,3.9,8.1l-21.1,9.6c-3.6,1.6-18,2.8-33.9-4.3c-2.7-1.2-7.4,0.4-10.3,1.1"
		/>
	<rect x="15.4" y="84.9" class="st1" width="14.4" height="25.3"/>
</g>
<g>
	<g>
		<path class="st2" d="M56.7,60c-5.1,0-9.3-4.2-9.3-9.3c0-5.1,4.2-9.3,9.3-9.3c5.1,0,9.3,4.2,9.3,9.3C66,55.9,61.8,60,56.7,60z"/>
		<path class="st3" d="M56.6,45.1c-3.2-0.1-5.8,2.5-5.7,5.7"/>
	</g>
	<path class="st2" d="M45.8,68.3c-1.4,0-2.4-0.5-3.1-1.3c-1-1.2-0.9-2.7-0.9-3.1v-26c0-3.5,2.6-4.6,4.2-4.7l21.5,0
		c3.1,0,4,2.7,4.1,4.2l-0.1,26.6c0,3.1-2.6,4.3-4,4.4H45.8z"/>
</g>
</svg>
