<?xml version="1.0" encoding="utf-8"?>
<!-- Generator: Adobe Illustrator 22.1.0, SVG Export Plug-In . SVG Version: 6.00 Build 0)  -->
<svg version="1.1" id="Layer_1" xmlns="http://www.w3.org/2000/svg" xmlns:xlink="http://www.w3.org/1999/xlink" x="0px" y="0px"
	 viewBox="0 0 113.4 113.4" style="enable-background:new 0 0 113.4 113.4;" xml:space="preserve">
<style type="text/css">
	.st0{fill:none;stroke:#5E5E5E;stroke-width:4;stroke-linecap:round;stroke-linejoin:round;stroke-miterlimit:10;}
</style>
<g>
	<rect x="59" y="29.7" class="st0" width="38" height="80.7"/>
	<polygon class="st0" points="49.5,2.9 16.3,21.3 16.3,110.4 49.5,110.4 	"/>
	<polyline class="st0" points="30.3,91.4 30.3,91.4 35.3,91.4 35.3,91.4 	"/>
	<polyline class="st0" points="30.3,81.9 30.3,81.9 35.3,81.9 35.3,81.9 	"/>
	<polyline class="st0" points="30.3,72.4 30.3,72.4 35.3,72.4 35.3,72.4 	"/>
	<polyline class="st0" points="30.3,62.9 30.3,62.9 35.3,62.9 35.3,62.9 	"/>
	<polyline class="st0" points="30.3,53.4 30.3,53.4 35.3,53.4 35.3,53.4 	"/>
	<polyline class="st0" points="30.3,43.9 30.3,43.9 35.3,43.9 35.3,43.9 	"/>
	<polyline class="st0" points="30.3,34.4 30.3,34.4 35.3,34.4 35.3,34.4 	"/>
	<polyline class="st0" points="68.5,48.5 68.5,48.5 68.5,96.2 68.5,96.2 	"/>
	<polyline class="st0" points="78,48.5 78,48.5 78,96.2 78,96.2 	"/>
	<polyline class="st0" points="87.5,48.5 87.5,48.5 87.5,96.2 87.5,96.2 	"/>
	<line class="st0" x1="4.5" y1="110.4" x2="108.9" y2="110.4"/>
	<line class="st0" x1="78" y1="29.7" x2="78" y2="10.5"/>
	<line class="st0" x1="97" y1="96.2" x2="59" y2="96.2"/>
</g>
</svg>
