<?xml version="1.0" encoding="utf-8"?>
<!-- Generator: Adobe Illustrator 22.1.0, SVG Export Plug-In . SVG Version: 6.00 Build 0)  -->
<svg version="1.1" xmlns="http://www.w3.org/2000/svg" xmlns:xlink="http://www.w3.org/1999/xlink" x="0px" y="0px"
	 viewBox="0 0 113.4 113.4" style="enable-background:new 0 0 113.4 113.4;" xml:space="preserve">
<style type="text/css">
	.st0{display:none;}
	.st1{fill:none;stroke:#5F5F5E;stroke-width:4;stroke-linecap:round;stroke-linejoin:round;}
	.st2{fill:#5F5F5E;}
</style>
<g id="Layer_3" class="st0">
	
		<image style="display:inline;overflow:visible;" width="512" height="512" xlink:href="C:\Users\admin\Desktop\Art_Lessons-512.png"  transform="matrix(0.2875 0 0 0.2866 -15.0852 -25.5)">
	</image>
</g>
<g id="Layer_1">
	<g>
		<polyline class="st1" points="46.6,61.7 100,16.8 55,70.1 		"/>
		
			<rect x="38.3" y="65.2" transform="matrix(0.7072 -0.707 0.707 0.7072 -36.8807 53.0877)" class="st1" width="14.6" height="11.8"/>
		<path class="st1" d="M36.3,72.1c0,0-12.4,0.6-15.7,12.9c-3.4,12.3-8.9,17.8-8.9,17.8s30.1,7.6,33-22.4"/>
	</g>
</g>
<g id="Layer_2">
	<circle class="st1" cx="51.6" cy="25.3" r="6.6"/>
	<circle class="st2" cx="92.4" cy="82.6" r="6.6"/>
	<circle class="st2" cx="93.3" cy="60.2" r="6.6"/>
	<circle class="st2" cx="73.7" cy="94.6" r="6.6"/>
	<circle class="st2" cx="51.6" cy="94.6" r="6.6"/>
</g>
<g id="Layer_4">
	<path class="st1" d="M83,37.4c0.6,0.2,1.2,0.4,1.8,0.6"/>
	<path class="st1" d="M18,90.8C9.2,81,3.9,68,3.9,53.8C3.9,23,29.5,7.5,49.8,7.5c8.8,0,16.9,2.4,21.4,9.1c4.7,7-9.7,13.7,5.5,19.1"
		/>
	<path class="st1" d="M18,90.8"/>
	<path class="st1" d="M84.8,38c11.7,3.9,25.5,13.6,25.2,29.4c0,1.8-0.1,3.6-0.3,5.2c-3,24.6-20.1,36-47.2,36.8c-1,0-2,0-3,0
		c-10.3,0-19.9-2.8-28.1-7.6"/>
</g>
</svg>
