<?xml version="1.0" encoding="utf-8"?>
<!-- Generator: Adobe Illustrator 22.1.0, SVG Export Plug-In . SVG Version: 6.00 Build 0)  -->
<svg version="1.1" id="Layer_1" xmlns="http://www.w3.org/2000/svg" xmlns:xlink="http://www.w3.org/1999/xlink" x="0px" y="0px"
	 viewBox="0 0 113.4 113.4" style="enable-background:new 0 0 113.4 113.4;" xml:space="preserve">
<style type="text/css">
	.st0{fill:none;stroke:#5E5E5E;stroke-width:4;stroke-linecap:round;stroke-linejoin:round;stroke-miterlimit:10;}
</style>
<g>
	<path class="st0" d="M3.3,96.2c0,7.7,6.2,13.9,13.9,13.9h92.8V17.2H17.2"/>
	<path class="st0" d="M3.3,96.2c0-7.7,6.2-13.9,13.9-13.9l0,0V3.3l0,0C9.6,3.3,3.3,9.6,3.3,17.2V96.2"/>
	<path class="st0" d="M61.6,63.9"/>
	<g>
		<path class="st0" d="M91.9,33.2c0-1.3-0.6-2-1-2h-7.4c-0.4,0-0.9,0.7-0.9,2v49c0,0.2,3.7,12,3.7,12c0.3,1.4,1.5,1.6,1.8,0
			c0,0,3.8-11.7,3.8-12L91.9,33.2L91.9,33.2z"/>
		<line class="st0" x1="82.6" y1="82.2" x2="91.9" y2="82.2"/>
	</g>
	<line class="st0" x1="40.5" y1="40.4" x2="54.4" y2="40.4"/>
	<line class="st0" x1="40.5" y1="49.7" x2="45.2" y2="49.7"/>
	<line class="st0" x1="40.5" y1="59" x2="54.4" y2="59"/>
	<line class="st0" x1="40.5" y1="68.2" x2="45.2" y2="68.2"/>
	<line class="st0" x1="40.5" y1="77.6" x2="54.4" y2="77.6"/>
	<line class="st0" x1="40.5" y1="86.8" x2="45.2" y2="86.8"/>
	<rect x="40.5" y="31.2" class="st0" width="23.3" height="65"/>
</g>
</svg>
