<?xml version="1.0" encoding="utf-8"?>
<!-- Generator: Adobe Illustrator 22.1.0, SVG Export Plug-In . SVG Version: 6.00 Build 0)  -->
<svg version="1.1" id="Layer_1" xmlns="http://www.w3.org/2000/svg" xmlns:xlink="http://www.w3.org/1999/xlink" x="0px" y="0px"
	 viewBox="0 0 113.4 113.4" style="enable-background:new 0 0 113.4 113.4;" xml:space="preserve">
<style type="text/css">
	.st0{fill:none;stroke:#5E5E5E;stroke-width:4;stroke-linecap:round;stroke-linejoin:round;}
</style>
<g>
	<path class="st0" d="M31.5,86.7c0,0,32.8-25.8,57.4-40.9s10.4,2-4,15.4S41.1,101.5,31.5,86.7z"/>
	<path class="st0" d="M101.9,40c0,0,4.4-0.1,8,15.6s-9.4,27.2-9.4,27.2l-1.3,27.3h-6.7c0,0,0-0.9,0-21.8c0-21-17.6,1.3-28.2,12.1
		c-4.7,4.7-9.3,8-14.8,9.5c-0.9,0.3-1.7,0.3-2.7,0.3H16.9c-1.3,0-2.6-0.2-3.9-0.8c-2.3-1.1-4.6-2.6-7-4.5
		C-8.2,94.2,31.5,86.6,31.5,86.6"/>
</g>
</svg>
