<svg id="Layer_1" data-name="Layer 1" xmlns="http://www.w3.org/2000/svg" viewBox="0 0 96.46 92.32"><defs><style>.cls-1,.cls-2,.cls-5{fill:none;stroke-linecap:round;stroke-linejoin:round;}.cls-1,.cls-2,.cls-3,.cls-5{stroke:#5f5f5e;}.cls-1,.cls-3{stroke-width:2px;}.cls-2{stroke-width:3.5px;}.cls-3{fill:#5e5e5e;}.cls-3,.cls-4{stroke-miterlimit:10;}.cls-4{fill:#5f5f5e;stroke:#5e5e5e;}.cls-5{stroke-width:3px;}</style></defs><title>forensics-print-v3</title><path class="cls-1" d="M39,99s16.45-9.29,33.27-4.5" transform="translate(-15.91 -11.03)"/><path class="cls-1" d="M46.72,101.85S53.55,104,64.4,99.52" transform="translate(-15.91 -11.03)"/><path class="cls-1" d="M31.84,25.75c-2.89,9.35,1,18.59,1,18.59" transform="translate(-15.91 -11.03)"/><path class="cls-1" d="M31.84,25.75" transform="translate(-15.91 -11.03)"/><path class="cls-1" d="M74.44,25.75a29.22,29.22,0,0,0-14.69-12.4S43.86,8,35.34,19a22.28,22.28,0,0,0-1.47,2.16" transform="translate(-15.91 -11.03)"/><path class="cls-2" d="M83.47,36.31" transform="translate(-15.91 -11.03)"/><path class="cls-1" d="M26.37,87.21s18.59,2.09,33.74-7" transform="translate(-15.91 -11.03)"/><path class="cls-1" d="M39,53.42c-7.23,3.27-20.15-3.79-21.31-4.9" transform="translate(-15.91 -11.03)"/><path class="cls-1" d="M39,53.42" transform="translate(-15.91 -11.03)"/><path class="cls-1" d="M60.17,26.49c-4.52-5.93-12.66-5.55-16.28-.58-4.1,5.62-1.71,12.54-1,14.53" transform="translate(-15.91 -11.03)"/><path class="cls-1" d="M20.42,75.54s14.43,3.22,26.47-3.1" transform="translate(-15.91 -11.03)"/><path class="cls-1" d="M64.12,89.84a18.58,18.58,0,0,0,10.3-4.17" transform="translate(-15.91 -11.03)"/><path class="cls-1" d="M20.81,33.27s-1.16,8.14,2.52,12.21" transform="translate(-15.91 -11.03)"/><path class="cls-1" d="M31.41,65.17a30.75,30.75,0,0,0,13.06-3" transform="translate(-15.91 -11.03)"/><path class="cls-1" d="M17.71,64a58.91,58.91,0,0,0,9.46,1.19" transform="translate(-15.91 -11.03)"/><path class="cls-3" d="M87,75.92l20.56,20.64a2.28,2.28,0,0,0,3.15,0,2.23,2.23,0,0,0,0-3.17L90.15,72.76Z" transform="translate(-15.91 -11.03)"/><path class="cls-4" d="M42.36,37.88a30,30,0,1,1-4.42,15.68,30,30,0,0,1,4.42-15.68M41.74,59a26.79,26.79,0,1,0-.55-5.39A26.83,26.83,0,0,0,41.74,59" transform="translate(-15.91 -11.03)"/><path class="cls-1" d="M44.09,68.89C38.53,71,31.17,71.23,20.42,70.13" transform="translate(-15.91 -11.03)"/><path class="cls-1" d="M47.84,34.05c-.89-7.72,2.32-8.92,6.83-6.32,0,0-.49-1.22.89,1" transform="translate(-15.91 -11.03)"/><path class="cls-5" d="M38.84,58.16c7.72-2.48,10.2-10.67,8-20.39a18.87,18.87,0,0,1-.51-2.62" transform="translate(-15.91 -11.03)"/><path class="cls-1" d="M16.91,55.25s9.83,4.58,20.16,3.58a15.6,15.6,0,0,0,3.37-.67" transform="translate(-15.91 -11.03)"/><path class="cls-1" d="M40.59,20.56A9,9,0,0,0,37.24,25c-2.87,9.83,3.19,17.5.5,22.79-.88,1.72-7.15,4.5-10.57-5s0-19.75,0-19.75" transform="translate(-15.91 -11.03)"/><path class="cls-1" d="M40.59,20.56" transform="translate(-15.91 -11.03)"/><path class="cls-1" d="M68,25.65c-3.06-7.91-16.5-9.9-23-7.73" transform="translate(-15.91 -11.03)"/><path class="cls-1" d="M46.72,79.58c3.93-1.11,3-.52,6.11-2.81" transform="translate(-15.91 -11.03)"/><path class="cls-1" d="M22.44,81.84a83.14,83.14,0,0,0,20-1.24" transform="translate(-15.91 -11.03)"/><path class="cls-1" d="M69.47,81.41c-2,1.5-2.82,3-8.08,5.06a91.93,91.93,0,0,1-28.57,6.16" transform="translate(-15.91 -11.03)"/><path class="cls-2" d="M82.75,41.5a27.06,27.06,0,0,0-2.2-13.08" transform="translate(-15.91 -11.03)"/><path class="cls-2" d="M51.16,51.06c2.31-5.47,2.42-14,.83-19" transform="translate(-15.91 -11.03)"/><path class="cls-2" d="M63.15,81.1c7.46-4.81,13-13.42,16.09-22.32,1.45-4.16,3-8.66,3.21-12.25" transform="translate(-15.91 -11.03)"/><path class="cls-2" d="M61.12,62.14c7.93-11.81,6.76-23.85,3.54-33.69a7.6,7.6,0,0,0-.94-2.39" transform="translate(-15.91 -11.03)"/><path class="cls-2" d="M49.78,74.07c2.33-1.23,5.85-5.37,7.61-7.2" transform="translate(-15.91 -11.03)"/><path class="cls-2" d="M43.24,63.1a28.88,28.88,0,0,0,6-4.48" transform="translate(-15.91 -11.03)"/><path class="cls-2" d="M57.41,28.42c2.43,4,3.53,10.34,2.16,19.16A26.94,26.94,0,0,1,49.86,65" transform="translate(-15.91 -11.03)"/><path class="cls-2" d="M74.09,48.35c1.35-7.91,1-13.69-2.41-22.6" transform="translate(-15.91 -11.03)"/><path class="cls-2" d="M57.39,78.17a42.37,42.37,0,0,0,7.42-8.28,64.7,64.7,0,0,0,7.8-16.43" transform="translate(-15.91 -11.03)"/><path class="cls-2" d="M88,52.31A47.31,47.31,0,0,1,73.4,81.49" transform="translate(-15.91 -11.03)"/></svg>