<?xml version="1.0" encoding="utf-8"?>
<!-- Generator: Adobe Illustrator 22.1.0, SVG Export Plug-In . SVG Version: 6.00 Build 0)  -->
<svg version="1.1" id="Layer_1" xmlns="http://www.w3.org/2000/svg" xmlns:xlink="http://www.w3.org/1999/xlink" x="0px" y="0px"
	 viewBox="0 0 113.4 113.4" style="enable-background:new 0 0 113.4 113.4;" xml:space="preserve">
<style type="text/css">
	.st0{fill:none;stroke:#5E5E5E;stroke-width:4;stroke-linecap:round;stroke-linejoin:round;stroke-miterlimit:10;}
</style>
<g>
	<rect x="38.1" y="40.8" class="st0" width="37.1" height="69.6"/>
	<line class="st0" x1="47.4" y1="50.1" x2="47.4" y2="101.1"/>
	<line class="st0" x1="56.7" y1="50.1" x2="56.7" y2="101.1"/>
	<line class="st0" x1="66" y1="50.1" x2="66" y2="101.1"/>
	<line class="st0" x1="47.4" y1="3.7" x2="47.4" y2="13"/>
	<line class="st0" x1="56.7" y1="3.7" x2="56.7" y2="13"/>
	<line class="st0" x1="66" y1="3.7" x2="66" y2="13"/>
	<polygon class="st0" points="75.3,40.8 38.1,40.8 35.6,26.9 77.7,26.9 	"/>
	<path class="st0" d="M91.8,14.7c-5.7-4.2-11.9-0.2-11.9,5.2c0,3.8,3.1,7,7,7l0,0c6.4,0,11.6-5.2,11.6-11.6
		c0-6.4-5.2-11.6-11.6-11.6H26.5c-6.4,0-11.6,5.2-11.6,11.6c0,6.4,5.2,11.6,11.6,11.6l0,0c3.8,0,7-3.1,7-7c0-5.3-5.9-9.2-11.4-5.5"
		/>
	<line class="st0" x1="35.6" y1="26.9" x2="33.5" y2="19.9"/>
	<line class="st0" x1="77.7" y1="26.9" x2="79.9" y2="19.9"/>
</g>
</svg>
