<?xml version="1.0" encoding="utf-8"?>
<!-- Generator: Adobe Illustrator 22.1.0, SVG Export Plug-In . SVG Version: 6.00 Build 0)  -->
<svg version="1.1" id="Layer_1" xmlns="http://www.w3.org/2000/svg" xmlns:xlink="http://www.w3.org/1999/xlink" x="0px" y="0px"
	 viewBox="0 0 113.4 113.4" style="enable-background:new 0 0 113.4 113.4;" xml:space="preserve">
<style type="text/css">
	.st0{fill:none;stroke:#5E5E5E;stroke-width:4;stroke-linecap:round;stroke-linejoin:round;}
</style>
<g>
	<path class="st0" d="M50.3,6.2C61,8.9,68.4,15.4,68.4,28.3c0,18.2-14.7,42.1-32.9,42.1c-18.2,0-32.9-23.9-32.9-42.1
		c0-12.9,7.4-19.4,18.2-22.1"/>
	<circle class="st0" cx="97.8" cy="29.9" r="12.9"/>
	<circle class="st0" cx="97.8" cy="29.9" r="5.1"/>
	<circle class="st0" cx="24.4" cy="6.1" r="3.6"/>
	<path class="st0" d="M50.3,6.1c0,2-1.6,3.6-3.6,3.6s-3.6-1.6-3.6-3.6s1.6-3.6,3.6-3.6S50.3,4.1,50.3,6.1z"/>
	<path class="st0" d="M35.3,67.9v13.7c0,15.6,14.5,28.9,30.3,28.9h3c15.8,0,29.2-13.3,29.2-28.9V35"/>
</g>
</svg>
