<?xml version="1.0" encoding="utf-8"?>
<!-- Generator: Adobe Illustrator 22.1.0, SVG Export Plug-In . SVG Version: 6.00 Build 0)  -->
<svg version="1.1" id="Layer_1" xmlns="http://www.w3.org/2000/svg" xmlns:xlink="http://www.w3.org/1999/xlink" x="0px" y="0px"
	 viewBox="0 0 113.4 113.4" style="enable-background:new 0 0 113.4 113.4;" xml:space="preserve">
<style type="text/css">
	.st0{fill:none;stroke:#5F5F5F;stroke-width:4;stroke-linecap:round;stroke-linejoin:round;stroke-miterlimit:10;}
</style>
<g>
	<line class="st0" x1="3.4" y1="110.4" x2="56.2" y2="110.4"/>
	<g>
		
			<ellipse transform="matrix(0.8109 -0.5852 0.5852 0.8109 -22.7071 43.9847)" class="st0" cx="56.7" cy="57.1" rx="53.3" ry="53.3"/>
		
			<ellipse transform="matrix(0.8109 -0.5852 0.5852 0.8109 -22.7071 43.9847)" class="st0" cx="56.7" cy="57.1" rx="44.8" ry="44.8"/>
		
			<ellipse transform="matrix(0.8109 -0.5852 0.5852 0.8109 -22.7071 43.9847)" class="st0" cx="56.7" cy="57.1" rx="36.2" ry="36.2"/>
		
			<ellipse transform="matrix(0.8109 -0.5852 0.5852 0.8109 -22.7071 43.9847)" class="st0" cx="56.7" cy="57.1" rx="27.7" ry="27.7"/>
		
			<ellipse transform="matrix(0.8109 -0.5852 0.5852 0.8109 -22.7071 43.9848)" class="st0" cx="56.7" cy="57.1" rx="19.2" ry="19.2"/>
		<ellipse transform="matrix(0.8109 -0.5852 0.5852 0.8109 -22.7071 43.9848)" class="st0" cx="56.7" cy="57.1" rx="5.1" ry="5.1"/>
		<line class="st0" x1="52.6" y1="61.2" x2="19.1" y2="94.7"/>
		<line class="st0" x1="94.4" y1="19.5" x2="60.8" y2="53"/>
		<line class="st0" x1="53.1" y1="53.5" x2="19.5" y2="19.9"/>
		<line class="st0" x1="93.9" y1="94.3" x2="60.3" y2="60.7"/>
		<line class="st0" x1="69.2" y1="56.9" x2="69.1" y2="56.9"/>
		<line class="st0" x1="57" y1="44.7" x2="56.9" y2="44.7"/>
		<line class="st0" x1="56.8" y1="69.3" x2="56.7" y2="69.3"/>
		<line class="st0" x1="44.6" y1="57.1" x2="44.5" y2="57.1"/>
	</g>
</g>
</svg>
