<?xml version="1.0" encoding="utf-8"?>
<!-- Generator: Adobe Illustrator 22.1.0, SVG Export Plug-In . SVG Version: 6.00 Build 0)  -->
<svg version="1.1" id="Layer_1" xmlns="http://www.w3.org/2000/svg" xmlns:xlink="http://www.w3.org/1999/xlink" x="0px" y="0px"
	 viewBox="0 0 113.4 113.4" style="enable-background:new 0 0 113.4 113.4;" xml:space="preserve">
<style type="text/css">
	.st0{fill:none;stroke:#60605F;stroke-width:4;stroke-linecap:round;stroke-linejoin:round;}
	.st1{fill:none;stroke:#5F5F5F;stroke-width:4;stroke-miterlimit:10;}
</style>
<g>
	<rect x="40.3" y="2.7" class="st0" width="32.8" height="14"/>
	<path class="st1" d="M68.4,30.4L68.4,30.4V16.8H45v13.6l0,0c0,0-18.7,7.3-18.7,17v52.7c0,5.6,5.1,10.3,10.8,10.3h39.3
		c5.6,0,10.8-4.7,10.8-10.3V47.4C87.1,38.2,68.4,30.4,68.4,30.4z"/>
	<path class="st1" d="M56.7,59.7c-0.1,0-7,11-7,14.8c0,3.9,3.1,7,7,7c3.8,0,7-3.1,7-7C63.7,70.7,56.8,59.7,56.7,59.7z"/>
</g>
</svg>
