<?xml version="1.0" encoding="utf-8"?>
<!-- Generator: Adobe Illustrator 22.1.0, SVG Export Plug-In . SVG Version: 6.00 Build 0)  -->
<svg version="1.1" id="Layer_1" xmlns="http://www.w3.org/2000/svg" xmlns:xlink="http://www.w3.org/1999/xlink" x="0px" y="0px"
	 viewBox="0 0 113.4 113.4" style="enable-background:new 0 0 113.4 113.4;" xml:space="preserve">
<style type="text/css">
	.st0{fill:none;stroke:#5E5E5E;stroke-width:4;stroke-linecap:round;stroke-linejoin:round;}
	.st1{fill:none;stroke:#5E5E5E;stroke-width:4;stroke-linecap:round;stroke-linejoin:round;stroke-miterlimit:10;}
</style>
<g>
	<path class="st0" d="M110.6,77.6H19.2c-9.1,0-16.4,7.3-16.4,16.4l0,0c0,9.1,7.3,16.4,16.4,16.4h91.4"/>
	<path class="st0" d="M101.2,58.9H21.6c-5.2,0-9.4,4.2-9.4,9.4l0,0c0,5.2,4.2,9.4,9.4,9.4h79.6"/>
	<path class="st1" d="M67.1,13.5c-3.7-0.5-7.3,0.7-10.5,2.9c-3.2-2.2-6.9-3.4-10.5-2.9c-10.2,1.4-16.9,11-15.2,23
		C32.5,48.6,42,60.1,52.2,58.7c1.5-0.2,3-0.6,4.4-1.2c1.4,0.6,2.8,1,4.4,1.2c10.2,1.4,19.1-11,21.4-22.2
		C84.7,25,77.4,14.9,67.1,13.5"/>
	<path class="st1" d="M56.6,16.4c0,0-1.4-9.2,2.1-13.8"/>
	<path class="st1" d="M46.4,22.6c0,0-6.7,2.9-5.7,14.4"/>
	<line class="st0" x1="105.9" y1="77.6" x2="105.9" y2="110.4"/>
	<line class="st0" x1="96.5" y1="58.9" x2="96.5" y2="77.6"/>
	<line class="st0" x1="105.9" y1="86.9" x2="82.5" y2="86.9"/>
	<line class="st0" x1="105.9" y1="96.3" x2="91.8" y2="96.3"/>
	<line class="st0" x1="96.5" y1="68.2" x2="82.5" y2="68.2"/>
</g>
</svg>
