<?xml version="1.0" encoding="utf-8"?>
<!-- Generator: Adobe Illustrator 22.1.0, SVG Export Plug-In . SVG Version: 6.00 Build 0)  -->
<svg version="1.1" id="Layer_1" xmlns="http://www.w3.org/2000/svg" xmlns:xlink="http://www.w3.org/1999/xlink" x="0px" y="0px"
	 viewBox="0 0 113.4 113.4" style="enable-background:new 0 0 113.4 113.4;" xml:space="preserve">
<style type="text/css">
	.st0{fill:none;stroke:#60605F;stroke-width:4;stroke-linecap:round;stroke-linejoin:round;stroke-miterlimit:10;}
</style>
<g>
	<path class="st0" d="M35.2,98.6L35.2,98.6c0,1.9,1.6,3.4,3.5,3.4c1.9,0,3.5-1.5,3.5-3.4v0c0-1.9-1.6-3.4-3.5-3.4
		C36.8,95.1,35.2,96.7,35.2,98.6z"/>
	<path class="st0" d="M63.8,24c0-8.6-4.5-16.1-11.2-20.5c0,2.4,0,10,0,16.1l-6.8,10.1l-14.5,0l-6.8-10.1c0-15.7,0-1.6,0-16.1
		c-6.8,4.4-11.2,12-11.2,20.5c0,8.8,8.4,16.5,15.4,20.8L25.1,97c0,7.3,6,13.2,13.5,13.2c7.5,0,13.5-5.9,13.5-13.2l-3.7-52.2
		C55.5,40.4,63.8,32.7,63.8,24z"/>
	<path class="st0" d="M95.9,66.6c0-2.5,1.7-4.6,4.2-5.7v-9.7H71.5v9.7c2.5,1.1,4.2,3.3,4.2,5.7c0,2.5-1.7,4.6-4.2,5.7V99
		c0,6.3,6.4,11.4,14.3,11.4S100,105.3,100,99V72.4C97.5,71.2,95.9,69.1,95.9,66.6z"/>
	<line class="st0" x1="85.8" y1="51.2" x2="85.8" y2="14.9"/>
	<polygon class="st0" points="88.6,2.7 82.9,2.7 80.7,7.9 82.9,14.9 88.6,14.9 90.8,7.9 	"/>
	<line class="st0" x1="85.8" y1="76.5" x2="85.8" y2="98.6"/>
</g>
</svg>
