<?xml version="1.0" encoding="utf-8"?>
<!-- Generator: Adobe Illustrator 22.1.0, SVG Export Plug-In . SVG Version: 6.00 Build 0)  -->
<svg version="1.1" id="Layer_1" xmlns="http://www.w3.org/2000/svg" xmlns:xlink="http://www.w3.org/1999/xlink" x="0px" y="0px"
	 viewBox="0 0 113.4 113.4" style="enable-background:new 0 0 113.4 113.4;" xml:space="preserve">
<style type="text/css">
	.st0{fill:none;stroke:#5E5E5E;stroke-width:4;stroke-linecap:round;stroke-linejoin:round;}
	.st1{fill:none;stroke:#5E5E5E;stroke-width:4;stroke-linecap:round;stroke-linejoin:round;stroke-miterlimit:10;}
</style>
<g>
	<path class="st0" d="M94,68.4c0,9.8-8,14.8-18,14.8H37.4c-9.9,0-18-5-18-14.8l4.5-48.7c0-9.8,8-16.3,18-16.3h29.7
		c9.9,0,18,6.5,18,16.3L94,68.4z"/>
	<path class="st0" d="M89.8,23c-1.7-3.1-9.1-5.4-18-5.4H41.5c-8.8,0-16.2,2.2-17.9,5.3"/>
	<path class="st0" d="M21.3,47.7c0,3.2,8.7,7.1,19.3,7.1h31.9c10.7,0,19.4-3.9,19.4-7.1"/>
	<path class="st0" d="M41.4,68.3c0,2.9-2.4,5.3-5.4,5.3c-3,0-5.4-2.4-5.4-5.3c0-2.9,2.4-5.3,5.4-5.3C39,63,41.4,65.4,41.4,68.3z"/>
	<path class="st0" d="M82.4,68.3c0,2.9-2.4,5.3-5.4,5.3c-3,0-5.4-2.4-5.4-5.3c0-2.9,2.4-5.3,5.4-5.3C80,63,82.4,65.4,82.4,68.3z"/>
	<line class="st1" x1="40.9" y1="90.7" x2="33.4" y2="110.4"/>
	<line class="st1" x1="72.3" y1="90.7" x2="79.9" y2="110.4"/>
	<line class="st1" x1="37.1" y1="101.6" x2="76.1" y2="101.6"/>
	<line class="st0" x1="50.2" y1="10.6" x2="63.2" y2="10.6"/>
</g>
</svg>
