<svg id="Layer_1" data-name="Layer 1" xmlns="http://www.w3.org/2000/svg" viewBox="0 0 112.18 112.19"><defs><style>.cls-1{fill:none;stroke:#61615f;stroke-linecap:round;stroke-linejoin:round;stroke-width:2.02px;}</style></defs><polyline class="cls-1" points="78.67 68.2 87 57.22 105.11 80.24"/><polyline class="cls-1" points="38.52 67.52 58.12 41.14 94.23 89.46"/><polyline class="cls-1" points="47.75 56.3 52.65 64.26 58.6 55.82 64.26 64.17 69.26 56.01"/><path class="cls-1" d="M37.15,32.1a5,5,0,1,1-5-5A5,5,0,0,1,37.15,32.1Z" transform="translate(-0.6 -0.6)"/><line class="cls-1" x1="41.06" y1="31.53" x2="47.19" y2="31.53"/><line class="cls-1" x1="15.99" y1="31.53" x2="22.12" y2="31.53"/><line class="cls-1" x1="31.59" y1="22.06" x2="31.59" y2="15.93"/><line class="cls-1" x1="31.59" y1="47.13" x2="31.59" y2="41"/><line class="cls-1" x1="38.48" y1="24.64" x2="42.82" y2="20.3"/><line class="cls-1" x1="20.36" y1="42.76" x2="24.7" y2="38.43"/><line class="cls-1" x1="38.48" y1="38.43" x2="42.82" y2="42.76"/><line class="cls-1" x1="20.36" y1="20.3" x2="24.7" y2="24.64"/><polygon class="cls-1" points="40.51 85.09 46.18 85.09 37.97 75.13 43.68 75.13 33.06 61 22.44 75.13 28.15 75.13 19.94 85.09 25.61 85.09 18.7 93.23 30.55 93.23 30.55 101.27 36.58 101.27 36.58 93.23 47.42 93.23 40.51 85.09"/><line class="cls-1" x1="24.86" y1="101.27" x2="55.73" y2="101.27"/><path class="cls-1" d="M56.69,1.61a55.09,55.09,0,1,0,55.08,55.08A55.14,55.14,0,0,0,56.69,1.61Z" transform="translate(-0.6 -0.6)"/></svg>