<svg id="Layer_1" data-name="Layer 1" xmlns="http://www.w3.org/2000/svg" viewBox="0 0 112.18 112.19"><defs><style>.cls-1{fill:none;stroke:#61615f;stroke-linecap:round;stroke-linejoin:round;stroke-width:2.02px;}</style></defs><path class="cls-1" d="M96.54,59.55a8.31,8.31,0,0,0-6-2.53,9.12,9.12,0,0,0,0,18.21,8.37,8.37,0,0,0,6.13-2.71" transform="translate(-0.6 -0.6)"/><polyline class="cls-1" points="16.06 74.68 28.41 37.65 40.75 74.68"/><line class="cls-1" x1="20.13" y1="62.46" x2="36.64" y2="62.34"/><line class="cls-1" x1="51.29" y1="74.68" x2="51.29" y2="37.51"/><path class="cls-1" d="M61.06,57H51.93V75.28h9.13a9.13,9.13,0,1,0,0-18.26Z" transform="translate(-0.6 -0.6)"/><path class="cls-1" d="M56.69,1.61a55.09,55.09,0,1,0,55.08,55.08A55.14,55.14,0,0,0,56.69,1.61Z" transform="translate(-0.6 -0.6)"/></svg>