<?xml version="1.0" standalone="yes"?>
<svg xmlns="http://www.w3.org/2000/svg" width="200" height="100">
<path style="fill:#fcfcfd; stroke:none;" d="M0 0L0 100L200 100L200 0L0 0z"/>
<path style="fill:#313394; stroke:none;" d="M82 6.42439C59.9568 9.32719 36.1361 12.0515 17 24.4398C7.95202 30.2973 -1.13351 40.5603 3.48225 52C8.51201 64.4658 22.2331 70.7311 34 75.1921C63.8487 86.5082 98.6661 87.8386 130 83.7184C149.296 81.1811 171.272 76.7089 186.999 64.4715C195.308 58.0064 201.384 47.1177 195.633 37C189.812 26.7602 178.429 21.2979 168 17.0108C152.122 10.4838 134.927 8.52354 118 6.83102C106.372 5.66837 93.64 4.89155 82 6.42439z"/>
<path style="fill:#fcfcfd; stroke:none;" d="M32 57C29.7084 55.2627 28.5481 53.4644 26.713 51.3171C23.4113 47.4539 16.9919 51.2104 19.8009 55.8989C25.3401 65.1444 40.2438 61.1209 41.6165 51C42.8738 41.7305 31.0558 38.5061 34 29C36.2171 32.3583 36.904 34.9946 37 39C38.436 38.3138 39.705 37.9011 40.8164 36.6836C44.6482 32.4861 43.9272 27.0566 37.9954 25.4344C30.9801 23.5159 21.4128 29.0732 22.2685 37C23.1662 45.3162 33.2322 47.8718 32 57M54 50C54 47.6677 54.0397 45.3311 53.9954 42.9992C53.8918 37.5557 48.6392 33.1679 45.7461 40.1088C43.9541 44.408 45.8403 52.9528 47.9198 56.9406C49.6203 60.2017 52.5317 61.3177 55.3881 58.5617C57.6422 56.387 58.8407 53.2884 61 51C61.2201 55.805 64.5226 67.68 71.6597 62.3812C75.407 59.5991 77.0117 53.2936 78.1042 49C78.8388 46.1125 80.2369 42.1377 79.5926 39.1489C78.7729 35.3467 74.5794 36.5389 73.0278 39.1489C70.784 42.9231 71.3465 50.6099 71 55C68.3956 49.619 69.6972 43.3351 67.3966 38.152C66.4969 36.125 64.4382 35.1193 62.3889 36.2377C57.9884 38.6391 57.4889 46.4041 54 50M102 52L101 51C97.5905 52.4036 94.6475 54.2768 91 55C95.1742 52.4261 99.6351 49.9478 101.296 44.9961C102.661 40.928 101.214 35.2072 95.9954 35.5386C92.0273 35.7906 87.9292 39.0073 85.6381 42.0432C84.2927 43.8261 83.295 45.9025 82.5486 48C81.986 49.5809 81.4707 51.3108 81.4097 52.9992C80.9268 66.3634 98.4752 58.8944 102 52M125 52C121.106 52.3985 117.735 53.9349 114 55C118.291 52.2729 123.019 49.2316 124.423 44C125.611 39.573 123.147 34.6381 117.999 35.4776C114.647 36.0244 111.438 38.6714 109.214 41.0934C104.833 45.863 100.532 58.3289 110.015 60.3341C116.09 61.6184 121.792 56.4473 125 52M133 62C128.823 63.5023 127.49 65.6394 127 70C140.862 67.4892 149.814 48.6961 152 36C142.027 37.1208 143.505 47.7614 138 54C137.909 49.5941 138.157 42.0939 135.682 38.3187C132.711 33.787 127.805 38.1552 127.268 42.0046C126.3 48.9444 131.164 55.6252 133 62M170 54C170.319 58.1872 175.69 64.4695 178.357 57.7716C179.837 54.0567 178.226 48.1834 179 44L177 44C178.136 37.0821 172.085 34.8235 166 36.6489C159.655 38.5522 153.827 44.481 152.394 51C150.799 58.2611 156.111 63.4098 162.998 59.2623C165.477 57.77 167.622 55.6533 170 54z"/>
<path style="fill:#313394; stroke:none;" d="M117 39C114.809 43.1573 113.41 47.3071 113 52C117.226 49.2291 118.949 43.6907 117 39M167 39C163.258 43.5545 160.375 48.0266 162 54C165.505 52.6407 167.701 50.9707 170 48C167.356 45.7606 168.965 42.0174 167 39M94 40C91.7876 43.892 90.3932 47.5246 90 52C94.4616 49.4595 95.3446 44.8435 96 40L94 40z"/>
</svg>
