<?xml version="1.0" encoding="utf-8"?>
<!-- Generator: Adobe Illustrator 25.3.1, SVG Export Plug-In . SVG Version: 6.00 Build 0)  -->
<svg version="1.1" id="Layer_1" xmlns="http://www.w3.org/2000/svg" xmlns:xlink="http://www.w3.org/1999/xlink" x="0px" y="0px"
	 viewBox="0 0 113.4 113.4" style="enable-background:new 0 0 113.4 113.4;" xml:space="preserve">
<style type="text/css">
	.st0{fill:none;stroke:#61615F;stroke-width:2;stroke-linecap:round;stroke-linejoin:round;stroke-miterlimit:10;}
</style>
<g>
	<path class="st0" d="M79.7,29.5c-1.1,3.5-4.8,5.5-8.4,4.4c-3.5-1.1-5.5-4.8-4.4-8.4c1.1-3.5,4.8-5.5,8.4-4.4
		C78.8,22.2,80.8,25.9,79.7,29.5z"/>
	<path class="st0" d="M68.7,103.1c0,0,0-15.4-0.3-20.3c-0.1-0.9-0.4-1.7-1-2.3L55,68.9c-0.9-1.6-1.1-3.6-0.5-5.3l4.6-14.9
		c1.1-3.6,4.8-6.1,8.6-5.3c4.2,0.9,5.9,4.8,5.4,9.2l-1.8,14l14.3,0.2"/>
	<polyline class="st0" points="51.1,73.6 44.7,81.4 27.9,81.4 	"/>
	<polyline class="st0" points="55.8,42.9 48.7,42.9 41.7,56.6 	"/>
</g>
<path class="st0" d="M56.7,1.6C26.3,1.6,1.6,26.3,1.6,56.7c0,30.4,24.7,55.1,55.1,55.1c30.4,0,55.1-24.7,55.1-55.1
	C111.8,26.3,87.1,1.6,56.7,1.6z"/>
</svg>
